<svg xmlns="http://www.w3.org/2000/svg" width="2000" height="2000" viewBox="0 0 2000 2000" version="1.1"><path d="M 994 436.142 C 959.963 445.498, 943.837 470.098, 948.358 505.767 C 952.103 535.315, 948.789 547.405, 932.534 563.500 C 912.608 583.230, 891.843 590.966, 871.863 586.103 C 846.922 580.031, 827.872 588.262, 816.559 610 C 795.852 649.790, 726.478 656.873, 706.898 621.197 C 688.388 587.471, 646.744 579.964, 619.278 605.401 C 589.029 633.416, 594.414 678.952, 630.236 698.045 C 657.419 712.533, 660.275 761.972, 635.872 795.585 C 627.838 806.652, 632.747 805.766, 576.778 806.242 C 521.148 806.715, 520.273 806.820, 504.072 814.904 C 462.481 835.658, 443.917 885.676, 461.726 929 C 464.937 936.811, 472.839 950.164, 475.064 951.539 C 477.061 952.774, 475.796 953.920, 470.750 955.446 C 399.825 976.896, 434.446 1088.801, 506.500 1071 C 549.217 1060.447, 600.956 1112.257, 591.980 1156.598 C 586.290 1184.707, 594.355 1202.972, 617.988 1215.500 C 648.749 1231.806, 663.953 1285.906, 645.560 1313.607 C 642.041 1318.908, 640.142 1320.420, 628.620 1327.094 C 585 1352.361, 591.519 1414.492, 639.523 1431.008 C 665.763 1440.036, 698.063 1425.926, 708.785 1400.752 C 718.246 1378.537, 760.665 1374.251, 794 1392.142 C 806.600 1398.905, 808.720 1401.125, 818.105 1417.380 C 829.827 1437.683, 847.844 1444.946, 871.629 1438.956 C 912.620 1428.634, 955.970 1469.092, 949.588 1511.713 C 947.070 1528.524, 946.966 1530.279, 947.972 1539 C 953.210 1584.406, 1012.308 1603.815, 1045.679 1571.088 C 1061.124 1555.941, 1065.701 1537.671, 1060.559 1511.694 C 1052.278 1469.864, 1097.570 1428.826, 1140.671 1439.106 C 1162.918 1444.411, 1182.910 1435.925, 1192.432 1417.134 C 1201.734 1398.778, 1212.532 1390.490, 1235 1384.464 C 1269.256 1375.275, 1287.626 1380.798, 1303.926 1405.188 C 1332.635 1448.146, 1388.588 1442.588, 1406.958 1394.954 C 1416.796 1369.442, 1407.141 1344.850, 1380.439 1327.409 C 1360.170 1314.170, 1352.724 1294.019, 1358.857 1269 C 1371.566 1217.159, 1377.842 1212.745, 1440 1211.929 C 1492.621 1211.238, 1500.624 1209.631, 1520.963 1195.673 C 1558.239 1170.093, 1567.335 1113.815, 1540.606 1074.150 C 1536.300 1067.761, 1536.254 1067.404, 1539.617 1066.560 C 1544.475 1065.341, 1556.840 1056.086, 1561.798 1049.958 C 1599.426 1003.454, 1558.846 937.430, 1501.609 952.029 C 1459.071 962.879, 1410.182 913.044, 1417.510 866.302 C 1422.214 836.296, 1414.349 820.274, 1388.500 807.202 C 1375.506 800.630, 1367.203 787.743, 1361.634 765.500 C 1353.032 731.141, 1358.227 710.580, 1378.500 698.747 C 1414.633 677.657, 1421.149 636.543, 1392.900 607.898 C 1364.921 579.528, 1324.426 586.374, 1302.067 623.255 C 1291.934 639.969, 1281.430 644.682, 1256.500 643.700 C 1241.498 643.109, 1239.664 642.738, 1224.841 637.303 C 1209.904 631.824, 1203.259 626.253, 1195.514 612.713 C 1181.768 588.683, 1162.271 579.032, 1140.932 585.696 C 1113.870 594.147, 1076.865 573.249, 1063.948 542.220 C 1058.406 528.907, 1058.075 521.747, 1062.089 502 C 1069.531 465.395, 1029.265 426.449, 994 436.142 M 865.500 472.867 C 838.054 480.085, 828.734 516.242, 849.182 536.174 C 863.069 549.711, 888.734 548.776, 902.128 534.245 C 926.622 507.673, 900.378 463.695, 865.500 472.867 M 1123.005 473.610 C 1085.404 487.251, 1090.786 540.581, 1130.262 545.513 C 1165.715 549.943, 1185.415 505.867, 1158.890 481.460 C 1149.558 472.873, 1134.261 469.527, 1123.005 473.610 M 745.344 524.978 C 719.945 530.389, 708.289 563.153, 724.031 584.884 C 736.882 602.625, 766.831 604.105, 781.625 587.730 C 806.609 560.076, 781.824 517.207, 745.344 524.978 M 1242.319 526.800 C 1222.796 533.757, 1212.641 558.379, 1221.386 577.555 C 1238.603 615.311, 1294.952 601.768, 1292.796 560.392 C 1291.486 535.257, 1266.064 518.338, 1242.319 526.800 M 990.500 560.702 C 955.476 565.399, 913.778 597.232, 907.563 624.016 C 906.736 627.582, 905.184 634.399, 904.115 639.165 C 896.648 672.441, 862.812 685.745, 832.067 667.495 C 814.503 657.070, 796.595 654.927, 768.523 659.892 C 706.264 670.904, 663.401 726.943, 665.218 794.953 C 665.500 805.500, 665.500 805.500, 957 806.052 C 1283.347 806.670, 1255.099 805.963, 1271.706 813.929 C 1344.993 849.084, 1340.111 954.184, 1263.939 981.139 C 1246.160 987.431, 1272.918 986.999, 900.140 987.015 C 713.338 987.024, 560.024 987.361, 559.442 987.765 C 555.215 990.699, 554.263 1018.012, 557.810 1034.577 C 565.219 1069.182, 604.712 1116.128, 630.171 1120.593 C 634.752 1121.397, 640.891 1122.474, 643.813 1122.987 C 679.845 1129.318, 694.089 1168.027, 673.072 1202.500 C 654.674 1232.676, 671.149 1300.109, 704.737 1332.105 C 741.155 1366.797, 798.112 1378.452, 830.692 1357.879 C 860.427 1339.103, 896.196 1351.747, 903.628 1383.661 C 910.282 1412.234, 912.091 1416.002, 925.138 1428.448 C 970.393 1471.621, 1024.882 1475.650, 1073.028 1439.382 C 1093.870 1423.682, 1102 1411.699, 1104.447 1393.072 C 1109.735 1352.827, 1152.356 1334.403, 1182.158 1359.480 C 1196.007 1371.132, 1237.684 1369.736, 1268.622 1356.582 C 1314.191 1337.207, 1343.422 1291.621, 1344.659 1238 C 1345.326 1209.099, 1384.580 1212.574, 1051 1212 C 760.500 1211.500, 760.500 1211.500, 749.500 1208.652 C 668.168 1187.591, 659.342 1072.912, 736.365 1037.988 C 751.806 1030.987, 718.896 1031.612, 1103.287 1031.026 C 1402.126 1030.571, 1449.193 1030.305, 1449.959 1029.066 C 1455.733 1019.724, 1451.881 983.722, 1443.274 966.574 C 1425.447 931.059, 1397.033 905.360, 1372.231 902.322 C 1331.544 897.337, 1313.224 858.825, 1335.659 825.440 C 1344.716 811.962, 1346.478 805.141, 1345.703 786.558 C 1342.675 713.912, 1298.147 666.259, 1225.532 657.954 C 1205.085 655.615, 1192.254 658.305, 1177.305 668.063 C 1146.698 688.044, 1109.491 669.657, 1104.558 632.113 C 1099.099 590.565, 1040.657 553.975, 990.500 560.702 M 556.793 710.457 C 517.004 725.577, 526.288 783.500, 568.500 783.500 C 617.543 783.500, 618.552 710.501, 569.526 709.274 C 563.669 709.127, 559.198 709.543, 556.793 710.457 M 1429.945 710.404 C 1402.044 721.048, 1394.466 754.505, 1415.555 773.944 C 1448.130 803.970, 1495.218 764.857, 1472.577 726.580 C 1464.373 712.709, 1444.083 705.011, 1429.945 710.404 M 535.500 829 C 468.880 837.064, 455.777 941.445, 519.803 954.041 C 534.353 956.904, 573.946 938.030, 562.558 933.661 C 559.776 932.593, 557.752 928.332, 558.957 926.080 C 560.735 922.759, 572.078 913.816, 573.716 914.445 C 579.191 916.546, 579.757 916.335, 583.401 910.841 C 587.248 905.039, 591.370 894.347, 590.069 893.543 C 589.486 893.182, 552.572 893.543, 547.993 893.954 C 547.714 893.980, 547.646 896.022, 547.843 898.493 C 548.480 906.500, 546.396 906.003, 530.250 894.301 C 517.565 885.106, 517.426 886.104, 532.844 875.682 C 548.243 865.272, 548 865.315, 548 873 C 548 879, 548 879, 569.250 878.985 C 594.548 878.966, 593.570 879.323, 591.350 870.926 C 588.047 858.427, 588.827 843.839, 593.258 835.250 C 596.904 828.184, 568.041 825.061, 535.500 829 M 678.799 835.750 C 685.593 849.978, 682.833 875.317, 673.665 882.872 C 671.457 884.692, 671.565 886.296, 674.047 888.542 C 681.867 895.619, 674.901 901.965, 659.289 901.985 C 629.121 902.025, 619.802 905.222, 601 921.983 C 596.500 925.995, 596.500 925.995, 636.750 925.997 C 677 926, 677 926, 677 922.691 C 677 916.949, 679.198 915.031, 682.758 917.663 C 684.365 918.851, 689.038 922.102, 693.142 924.886 C 706.738 934.111, 706.686 933.815, 695.960 941.027 C 678.986 952.440, 676.047 952.915, 676.015 944.250 C 676 940, 676 940, 635.250 939.985 C 612.837 939.976, 594.017 939.639, 593.427 939.235 C 591.591 937.977, 590.836 934.720, 592.187 933.884 C 593.787 932.896, 592.741 931.775, 590.893 932.497 C 588.832 933.301, 568.051 962.129, 568.013 964.236 C 567.991 965.487, 1234.580 965.177, 1243.627 963.921 C 1316.326 953.831, 1321.651 848.524, 1250.376 830.443 C 1219.271 822.553, 674.911 827.607, 678.799 835.750 M 940.642 835.728 C 933.954 840.487, 931.252 848.754, 934.411 854.800 C 940.134 865.755, 952.465 867.116, 960.540 857.682 C 971.602 844.758, 954.488 825.876, 940.642 835.728 M 1031.290 834.965 C 1020.010 841.843, 1022.968 860.624, 1035.697 862.941 C 1051.876 865.886, 1059.895 843.613, 1045.759 834.995 C 1041.601 832.459, 1035.420 832.447, 1031.290 834.965 M 1485.880 839.316 C 1468.674 844.191, 1455.718 864.271, 1458.856 881.197 C 1465.729 918.268, 1513.384 925.186, 1530.340 891.574 C 1544.554 863.398, 1516.647 830.596, 1485.880 839.316 M 744.487 848.799 C 715.743 858.738, 702.982 890.075, 716.474 917.589 C 734.069 953.469, 791.994 950.848, 802.807 913.681 C 804.500 907.862, 804.500 907.862, 808.763 908.494 C 817.053 909.724, 818.529 907.459, 813.058 901.902 C 811.651 900.473, 808.025 895.888, 805 891.714 C 798.868 883.254, 798.010 882.808, 795.431 886.750 C 794.442 888.263, 791.554 891.750, 789.014 894.500 C 778.991 905.353, 778.678 908.931, 787.750 908.986 C 795.691 909.035, 779.733 924.154, 768.095 927.609 C 734.369 937.620, 710.792 893.297, 737.167 869.468 C 750.626 857.309, 782 861.771, 782 875.844 C 782 878.063, 798.058 879.333, 799.365 877.218 C 802.283 872.497, 799.986 860.134, 796.535 861.981 C 794.271 863.193, 793.761 863.016, 790.179 859.781 C 777.345 848.186, 759.006 843.778, 744.487 848.799 M 1213.214 849.849 C 1196.907 855.612, 1179.950 875.573, 1189.250 878.059 C 1191.588 878.684, 1194.043 879.640, 1194.706 880.184 C 1196.314 881.501, 1197.337 880.750, 1201.127 875.473 C 1212.605 859.489, 1238.491 857.732, 1251.433 872.058 C 1276.583 899.895, 1247.387 940.012, 1212.567 925.464 C 1201.233 920.728, 1193.376 907, 1202 907 C 1207.476 907, 1207.152 905.877, 1198.977 896.500 C 1195.142 892.100, 1192.002 888.195, 1192.002 887.821 C 1191.999 886.655, 1188.920 884, 1187.570 884 C 1186.862 884, 1184.650 886.362, 1182.654 889.250 C 1180.658 892.138, 1177.244 896.750, 1175.068 899.500 C 1169.013 907.152, 1170.529 910.249, 1179.507 908.565 C 1182.835 907.940, 1183 908.044, 1183 910.764 C 1183 934.661, 1225.644 951.204, 1251.278 937.252 C 1300.614 910.400, 1266.103 831.159, 1213.214 849.849 M 866.698 863.444 C 843.668 871.658, 836.853 902.715, 854.327 919.820 C 866.931 932.157, 890.502 931.724, 902.464 918.935 C 926.509 893.229, 899.720 851.665, 866.698 863.444 M 1098 862.935 C 1062.192 873.867, 1066.897 926.113, 1103.928 928.763 C 1134.351 930.939, 1151.936 901.108, 1135.192 875.726 C 1128.222 865.161, 1110.582 859.094, 1098 862.935 M 1013.668 875.665 C 1013.301 876.033, 1013 879.178, 1013 882.654 C 1013 888.975, 1013 888.975, 977.250 889.237 C 941.500 889.500, 941.500 889.500, 941.500 896 C 941.500 902.500, 941.500 902.500, 977.750 902.762 C 1014 903.025, 1014 903.025, 1014 910.512 C 1014 919.458, 1013.649 919.380, 1022.923 912.490 C 1027.002 909.460, 1033.413 904.880, 1037.170 902.314 C 1040.926 899.747, 1044 897.111, 1044 896.456 C 1044 893.916, 1015.176 874.158, 1013.668 875.665 M 930 924.691 C 920.058 929.829, 919.612 944.037, 929.165 951.306 C 941.341 960.572, 957.422 945.139, 950.248 931.071 C 946.659 924.032, 937.102 921.021, 930 924.691 M 1029.411 930.891 C 1019.843 936.726, 1018.640 946.204, 1026.447 954.243 C 1035.030 963.080, 1049.357 957.885, 1050.761 945.425 C 1052.061 933.893, 1039.033 925.024, 1029.411 930.891 M 764 1053.037 C 693.407 1061.443, 684.691 1162.726, 752.500 1186.675 C 767.242 1191.881, 1330.683 1191.479, 1328.365 1186.264 C 1320.420 1168.391, 1325.244 1148.061, 1340.752 1134.065 C 1347.472 1128, 1347.472 1128, 1339.308 1128 C 1329.430 1128, 1328 1127.004, 1328 1120.129 C 1328 1112.713, 1326.583 1113, 1363.225 1113 C 1396.050 1113, 1396.050 1113, 1402.775 1106.798 C 1417.135 1093.553, 1443 1058.993, 1443 1053.050 C 1443 1051.805, 774.453 1051.792, 764 1053.037 M 963.071 1059.698 C 950.627 1066.239, 953.014 1083.928, 966.901 1088.089 C 975.009 1090.518, 984.662 1081.343, 983.684 1072.136 C 982.586 1061.807, 971.633 1055.197, 963.071 1059.698 M 1059.672 1065.877 C 1048.862 1073.005, 1049.589 1086.599, 1061.099 1092.551 C 1071.517 1097.939, 1085.114 1086.240, 1081.912 1074.644 C 1079.528 1066.011, 1066.975 1061.062, 1059.672 1065.877 M 1311.500 1073.695 C 1297.899 1082.579, 1296.752 1084.179, 1301.726 1087.332 C 1303.802 1088.648, 1309.100 1092.034, 1313.500 1094.857 C 1323.894 1101.526, 1325.345 1101.031, 1324.075 1091.250 C 1323.947 1090.268, 1332.577 1090, 1364.334 1090 C 1408.765 1090, 1407.392 1090.199, 1406.574 1083.889 C 1406.333 1082.025, 1406.105 1079.713, 1406.067 1078.750 C 1406.004 1077.113, 1403.351 1077, 1364.921 1077 C 1323.841 1077, 1323.841 1077, 1324.495 1074.022 C 1326.366 1065.506, 1324.123 1065.450, 1311.500 1073.695 M 1478.947 1067.944 C 1473.720 1068.901, 1459.312 1074.685, 1458.374 1076.204 C 1458.028 1076.764, 1459.602 1078.921, 1461.872 1080.996 C 1467.982 1086.581, 1464.983 1092.428, 1452.855 1098.574 C 1450.262 1099.887, 1447.858 1101.421, 1447.512 1101.981 C 1446.198 1104.107, 1443.840 1102.861, 1442.345 1099.250 C 1440.106 1093.846, 1439.081 1092.771, 1437.603 1094.278 C 1434.807 1097.129, 1427.910 1106.940, 1424.793 1112.500 C 1419.369 1122.174, 1414.118 1137.971, 1416.304 1138.035 C 1418.568 1138.102, 1447.502 1138.127, 1449.250 1138.064 C 1450.672 1138.012, 1451 1137.074, 1451 1133.059 C 1451 1126.181, 1451.412 1126.211, 1463.102 1133.932 C 1482.534 1146.765, 1482.383 1145.541, 1465.864 1156.333 C 1452.293 1165.199, 1451 1165.347, 1451 1158.031 C 1451 1153, 1451 1153, 1433.606 1153 C 1416.213 1153, 1416.213 1153, 1417.010 1156.750 C 1418.717 1164.774, 1419.034 1177.474, 1417.684 1183.750 C 1416.339 1190, 1416.339 1190, 1446.033 1190 C 1488.679 1190, 1498.965 1186.994, 1516.552 1169.393 C 1553.803 1132.111, 1526.773 1059.191, 1478.947 1067.944 M 766.500 1074.406 C 712.625 1087.720, 723.505 1168.410, 779.132 1168.085 C 802.125 1167.950, 829.632 1145.667, 814.733 1139.244 C 807.879 1136.289, 808.511 1136.095, 802.156 1143.117 C 778.046 1169.760, 735.299 1142.402, 748.066 1108.500 C 757.325 1083.911, 792.190 1079.202, 805.761 1100.708 C 810.651 1108.456, 810.750 1109.769, 806.500 1110.566 C 801.774 1111.453, 801.994 1112.028, 811.483 1123.533 C 819.465 1133.213, 819.465 1133.213, 821.983 1129.896 C 823.367 1128.072, 827.087 1123.469, 830.250 1119.667 C 837.789 1110.604, 837.814 1110.795, 829.087 1110.599 C 824.675 1110.500, 824.675 1110.500, 823.511 1105.384 C 818.268 1082.339, 792.048 1068.092, 766.500 1074.406 M 1229.487 1075.747 C 1215.237 1080.821, 1203.233 1093.246, 1199.938 1106.331 C 1198.766 1110.988, 1198.752 1111, 1194.440 1111 C 1189.272 1111, 1188.096 1112.387, 1190.629 1115.496 C 1191.658 1116.759, 1194.677 1120.427, 1197.338 1123.646 C 1199.999 1126.866, 1202.742 1130.777, 1203.435 1132.337 C 1204.693 1135.175, 1204.693 1135.175, 1206.735 1131.949 C 1207.859 1130.175, 1212.090 1125.377, 1216.139 1121.286 C 1223.873 1113.472, 1224.209 1111.034, 1217.559 1110.985 C 1207.465 1110.910, 1221.551 1093.221, 1234.764 1089.380 C 1267.851 1079.761, 1291.298 1120.031, 1267.059 1144.848 C 1253.971 1158.248, 1222.500 1156.473, 1222.500 1142.335 C 1222.500 1137.500, 1222.500 1137.500, 1214.500 1137.820 C 1202.262 1138.309, 1202.661 1138.013, 1203.245 1146.179 C 1203.817 1154.171, 1204.996 1156.108, 1208.107 1154.165 C 1209.952 1153.013, 1210.646 1153.330, 1214.832 1157.245 C 1239.892 1180.679, 1283.637 1165.126, 1290.898 1130.201 C 1298.099 1095.566, 1262.493 1063.994, 1229.487 1075.747 M 884.500 1089.790 C 851.199 1105.931, 862.431 1154, 899.503 1154 C 935.368 1154, 945.913 1104.422, 913.176 1089.722 C 905.139 1086.114, 892.021 1086.145, 884.500 1089.790 M 1112.300 1091.035 C 1075.813 1109.490, 1094.674 1162.787, 1134.426 1153.556 C 1164.393 1146.597, 1169.129 1105.035, 1141.500 1091.480 C 1135.270 1088.423, 1117.985 1088.160, 1112.300 1091.035 M 978 1108.602 C 959.702 1121.719, 959.879 1119.826, 975.825 1131.870 C 982.246 1136.719, 988.118 1141.433, 988.872 1142.344 C 991.370 1145.358, 992 1144.084, 992 1136.012 C 992 1128.025, 992 1128.025, 1028.250 1127.762 C 1064.500 1127.500, 1064.500 1127.500, 1064.500 1121 C 1064.500 1114.500, 1064.500 1114.500, 1027.677 1114.238 C 990.853 1113.975, 990.853 1113.975, 991.015 1109.238 C 991.373 1098.809, 991.642 1098.822, 978 1108.602 M 502.741 1112.405 C 474.759 1118.416, 465.547 1156.336, 487.158 1176.551 C 510.675 1198.549, 551.091 1180.136, 549.825 1148 C 548.838 1122.937, 527.789 1107.024, 502.741 1112.405 M 1050.500 1154.861 C 1040.291 1161.166, 1038.724 1171.980, 1046.846 1180.064 C 1058.891 1192.053, 1078.181 1176.137, 1069.052 1161.742 C 1064.178 1154.058, 1056.444 1151.189, 1050.500 1154.861 M 959.928 1157.403 C 952.847 1162.215, 951.298 1170.860, 956.169 1178.380 C 964.049 1190.544, 982 1184.360, 982 1169.482 C 982 1158.274, 969.064 1151.195, 959.928 1157.403 M 1148.343 1158.452 C 1141.847 1161.278, 1138.744 1169.619, 1141.894 1175.790 C 1147.143 1186.075, 1155.527 1186.576, 1162.802 1177.038 C 1170.223 1167.308, 1159.544 1153.579, 1148.343 1158.452 M 556.536 1243.058 C 515.812 1257.470, 526.906 1317.446, 570.086 1316.312 C 596.990 1315.606, 613.868 1287.429, 602.425 1262.326 C 594.915 1245.851, 573.752 1236.965, 556.536 1243.058 M 1431.500 1242.897 C 1403.027 1250.531, 1393.935 1284.895, 1414.868 1305.757 C 1444.151 1334.940, 1492.263 1300.417, 1474.724 1262.807 C 1467.432 1247.170, 1448.349 1238.379, 1431.500 1242.897 M 744.394 1425.884 C 728.668 1429.957, 716.559 1445.865, 716.521 1462.500 C 716.427 1503.328, 770.122 1514.570, 788.214 1477.511 C 801.765 1449.752, 774.818 1418.004, 744.394 1425.884 M 1245.929 1426.303 C 1208.386 1436.954, 1209.786 1491.643, 1247.791 1499.050 C 1291.296 1507.530, 1311.230 1448.485, 1271.471 1428.911 C 1264.143 1425.303, 1253.341 1424.200, 1245.929 1426.303 M 866.267 1478.994 C 828.068 1487.077, 829.055 1545.410, 867.488 1551.126 C 881.691 1553.238, 890.784 1550.706, 900.335 1541.977 C 927.585 1517.072, 902.807 1471.262, 866.267 1478.994 M 1123.500 1479.343 C 1083.897 1492.425, 1092.908 1551.364, 1134.511 1551.364 C 1174.851 1551.364, 1186.700 1498.456, 1150.280 1480.951 C 1144.406 1478.128, 1129.827 1477.252, 1123.500 1479.343" stroke="none" fill="#09a5b9" fill-rule="evenodd"/></svg>