<svg xmlns="http://www.w3.org/2000/svg" width="2000" height="2000" viewBox="0 0 2000 2000" version="1.1"><path d="M 991.209 446.525 C 975.400 449.958, 961.655 461.625, 956.049 476.370 C 953.814 482.250, 939.996 485.742, 911.697 487.579 L 900.894 488.280 895.921 482.701 C 874.903 459.119, 835.645 472.970, 832.325 505.139 C 831.790 510.323, 831.513 510.820, 828.623 511.783 C 821.166 514.269, 799.611 523.464, 789.408 528.512 C 776.278 535.008, 778.121 534.799, 771.151 530.578 C 745.404 514.985, 715.581 532.512, 715.456 563.308 L 715.413 574.116 707.456 580.415 C 703.080 583.879, 695.675 590.179, 691 594.414 C 678.463 605.770, 676.517 606.597, 666 605.031 C 639.668 601.112, 627.082 603.918, 614.736 616.461 C 601.208 630.203, 597.128 646.897, 602.617 666.035 L 605.235 675.160 602.367 680.614 C 600.790 683.614, 593.074 694.112, 585.219 703.945 L 570.939 721.822 567.219 720.791 C 534.921 711.842, 510.319 748.541, 528.703 778.248 L 531.022 781.996 525.112 794.748 C 518.692 808.599, 513.829 819.563, 509.254 830.500 L 506.326 837.500 499.241 838.141 C 466.171 841.132, 454.094 879.724, 479.138 902.386 L 485.384 908.039 483.172 917.270 C 481.956 922.346, 480.341 932.350, 479.584 939.500 C 477.565 958.565, 476.342 960.816, 462.310 971.279 C 431.254 994.437, 431.706 1031.351, 463.333 1054.830 C 476.047 1064.269, 477.827 1067.667, 479.595 1085.887 C 480.321 1093.374, 481.663 1103.424, 482.576 1108.220 L 484.236 1116.939 478.343 1122.741 C 455.071 1145.655, 466.361 1181.144, 498.551 1186.266 C 506.708 1187.564, 508.059 1188.779, 510.479 1197 C 511.524 1200.548, 520.802 1221.539, 523.001 1225.329 C 524.012 1227.073, 526.257 1231.698, 527.989 1235.606 L 531.139 1242.712 528.104 1247.497 C 509.910 1276.186, 534.613 1312.668, 567.116 1305.112 C 571.883 1304.003, 572.792 1304.630, 579.653 1313.750 C 582.859 1318.013, 588.663 1325.325, 592.550 1330 C 605.988 1346.164, 606.445 1347.514, 602.526 1359.514 C 590.480 1396.405, 623.924 1430.980, 662 1421 C 673.653 1417.946, 678.754 1419.845, 693.877 1432.869 C 696.834 1435.416, 702.909 1440.508, 707.377 1444.184 L 715.500 1450.868 715.500 1461.235 C 715.500 1493.341, 747.590 1509.788, 775.599 1492.038 C 777.479 1490.846, 778.941 1491.335, 789.599 1496.719 C 802.499 1503.236, 814.756 1508.601, 825 1512.216 L 831.500 1514.509 832.077 1521.004 C 835.032 1554.270, 874.503 1565.877, 897.406 1540.216 C 901.809 1535.282, 901.574 1535.297, 922.500 1538.577 C 949.727 1542.843, 951.177 1543.411, 956.500 1551.887 C 980.130 1589.514, 1023.852 1591.355, 1044.045 1555.574 C 1049.870 1545.252, 1052.362 1543.430, 1062.509 1542.070 C 1067.454 1541.407, 1078.164 1539.789, 1086.308 1538.475 L 1101.116 1536.085 1107.672 1543.035 C 1130.489 1567.222, 1166.251 1553.484, 1170.512 1518.897 C 1171.052 1514.505, 1171.273 1514.235, 1175.289 1513.044 C 1177.605 1512.357, 1181.524 1510.879, 1183.998 1509.759 C 1191.441 1506.391, 1204.009 1500.993, 1212.500 1497.516 C 1216.900 1495.715, 1221.818 1493.535, 1223.428 1492.672 C 1226.427 1491.065, 1226.699 1491.113, 1231 1494.014 C 1255.382 1510.460, 1287 1491.823, 1287 1461.005 L 1287 1451.373 1295.750 1443.948 C 1327.744 1416.799, 1327.131 1417.103, 1342 1421 C 1379.767 1430.899, 1409.166 1399.826, 1401.099 1358.536 L 1398.973 1347.655 1401.895 1341.577 C 1403.503 1338.235, 1406.573 1333.700, 1408.719 1331.500 C 1410.865 1329.300, 1416.646 1322.362, 1421.566 1316.083 L 1430.511 1304.665 1442.006 1304.528 C 1474.974 1304.135, 1492.043 1276.006, 1475.880 1248.704 L 1471.856 1241.908 1475.423 1235.015 C 1479.913 1226.340, 1486.375 1211.618, 1489.698 1202.500 C 1495.360 1186.957, 1495.662 1186.626, 1505.351 1185.304 C 1537.524 1180.917, 1549.031 1138.539, 1522.956 1120.469 L 1518.852 1117.625 1519.514 1109.063 C 1521.550 1082.750, 1526.744 1062.171, 1532.110 1059.160 C 1553.429 1047.198, 1562.556 1032.833, 1562.391 1011.500 C 1562.239 991.803, 1556.062 981.887, 1534.232 966.291 C 1526.018 960.423, 1521.599 945.470, 1519.472 916.348 L 1518.803 907.197 1525.004 900.996 C 1547.764 878.236, 1534.730 840.957, 1503.086 838.304 L 1496.091 837.718 1491.678 827.609 C 1489.252 822.049, 1486.922 816.375, 1486.503 815 C 1486.083 813.625, 1483.139 807.006, 1479.961 800.292 C 1471.106 781.582, 1471.199 782.086, 1475.325 775.255 C 1491.523 748.438, 1474.828 720.833, 1442.222 720.519 L 1429.945 720.401 1416.360 702.951 C 1397.109 678.221, 1397.751 680.199, 1402.082 659 C 1404.851 645.441, 1401.883 633.541, 1392.729 621.500 C 1380.348 605.215, 1365.105 600.212, 1341 604.523 C 1327.860 606.873, 1323.470 605.539, 1312.500 595.866 C 1309.750 593.441, 1303.675 588.246, 1299 584.322 C 1286.011 573.419, 1285.969 573.361, 1286.821 567.488 C 1291.639 534.268, 1251.545 511.071, 1227.425 533.123 C 1225.370 535.001, 1225.198 534.945, 1210.425 527.620 C 1202.216 523.550, 1189.875 517.865, 1183 514.987 C 1176.125 512.109, 1170.404 509.675, 1170.286 509.580 C 1170.168 509.484, 1169.860 506.794, 1169.600 503.602 C 1167.045 472.164, 1127.800 459.184, 1106.943 482.879 L 1101.906 488.601 1093.703 487.836 C 1052.988 484.040, 1050.998 483.346, 1043.212 470.240 C 1031.512 450.547, 1012.537 441.894, 991.209 446.525 M 990.205 463.829 C 964.237 473.118, 964.604 514.522, 990.734 523.425 C 1022.108 534.115, 1046.408 495.428, 1023.291 471.591 C 1015.309 463.361, 1000.938 459.990, 990.205 463.829 M 1057.003 502.222 C 1043.716 508.954, 1048.211 529.596, 1066.933 547.817 C 1094.706 574.847, 1115.532 583.884, 1136.494 578.002 C 1159.891 571.436, 1177.649 580.140, 1189.544 604.002 C 1191.599 608.126, 1194.158 612.751, 1195.230 614.280 C 1200.417 621.679, 1224.290 633.369, 1239.500 635.958 C 1243.350 636.613, 1251.225 638.087, 1257 639.234 C 1299.229 647.620, 1324.164 627.208, 1299.664 604.307 C 1283.217 588.933, 1279.645 587.370, 1272.530 592.429 C 1241.554 614.452, 1210.708 591.599, 1214.229 549.235 C 1214.493 546.053, 1214.299 545.881, 1206.500 542.401 C 1202.100 540.438, 1194 536.808, 1188.500 534.336 C 1183 531.863, 1175.921 528.938, 1172.768 527.835 L 1167.037 525.829 1160.742 532.217 C 1149.251 543.879, 1136.437 547.229, 1119.816 542.915 C 1108.979 540.102, 1098.076 524.866, 1097.207 511.319 C 1096.671 502.972, 1097.521 503.587, 1084.500 502.118 C 1063.592 499.758, 1061.852 499.765, 1057.003 502.222 M 922.500 501.990 C 920.300 502.414, 915.556 503.066, 911.957 503.438 C 905.415 504.115, 905.415 504.115, 905.791 507.339 C 909.782 541.517, 857.915 559.171, 839.450 529.920 C 836.506 525.257, 834.963 525.492, 816.944 533.349 C 784.890 547.326, 785.408 546.945, 788.500 554.346 C 800.967 584.183, 755.441 614.045, 730.297 592.523 C 723.858 587.011, 718.245 589.929, 698.276 609.171 C 678 628.710, 709.126 647.977, 747 639.331 C 752.225 638.139, 760.325 636.443, 765 635.563 C 788.925 631.059, 806.350 619.773, 813.730 604 C 819.351 591.989, 825.754 584.869, 834.876 580.488 C 845.937 575.177, 850.354 575.060, 872 579.512 C 886.504 582.495, 900.642 576.684, 924 558.138 C 964.815 525.733, 963.967 493.996, 922.500 501.990 M 993 542.611 C 969.287 545.272, 947.268 557.834, 921.369 583.478 C 905.655 599.039, 904.137 601.755, 901.511 619.037 C 895.974 655.472, 858.347 676.698, 832.190 658.143 C 819.456 649.109, 802.405 645.850, 784 648.933 C 688.707 664.892, 668.138 681.647, 651.939 756.500 C 643.668 794.719, 643.968 802.789, 654.434 823.500 C 663.012 840.474, 664 843.577, 664 853.537 C 664 878.042, 648.353 895.290, 621.846 900.006 C 601.404 903.643, 586.571 914.981, 565.458 943.109 C 564.381 944.544, 561.521 948.328, 559.101 951.518 C 527.813 992.770, 528.571 1033.148, 561.467 1077.510 C 587.507 1112.627, 599.660 1121.906, 625.526 1126.421 C 661.086 1132.628, 672.947 1163.409, 654.188 1200.803 L 646.511 1216.106 646.199 1227.303 C 645.868 1239.160, 646.314 1242.246, 652.290 1269.500 C 667.362 1338.225, 687.845 1358.033, 758.500 1372.208 C 796.464 1379.824, 810.463 1379.088, 829.002 1368.499 C 862.897 1349.139, 895.772 1366.937, 901.511 1407.753 C 903.965 1425.212, 912.073 1436.300, 937.500 1456.969 C 986.518 1496.816, 1032.169 1491.807, 1083.012 1441.004 C 1097.643 1426.385, 1100.602 1420.486, 1103.502 1400.156 C 1107.599 1371.435, 1141.784 1351.862, 1165.500 1364.658 C 1167.700 1365.845, 1173.925 1369.108, 1179.333 1371.908 L 1189.167 1377 1204.147 1377 C 1216.096 1377, 1221.492 1376.511, 1230.814 1374.584 C 1237.241 1373.255, 1247 1371.405, 1252.500 1370.472 C 1306.901 1361.248, 1338.105 1332.451, 1347.463 1282.835 C 1348.327 1278.251, 1349.881 1271.350, 1350.915 1267.500 C 1354.395 1254.540, 1355.469 1245.613, 1355.484 1229.500 C 1355.502 1211.816, 1355.950 1213.482, 1347.345 1199.230 C 1334.444 1177.863, 1335.442 1158.276, 1350.293 1141.405 C 1358.001 1132.648, 1365.039 1128.797, 1378.500 1125.972 C 1402.963 1120.839, 1417.269 1110.197, 1439.022 1080.956 C 1477.834 1028.781, 1475.826 990.444, 1431.398 935.403 C 1411.569 910.837, 1401.809 903.763, 1383.320 900.555 C 1344.497 893.820, 1328 861.617, 1346.564 828.807 C 1357.836 808.886, 1359.080 788.018, 1350.845 757 C 1349.750 752.875, 1348.019 745.450, 1346.998 740.500 C 1338.022 696.984, 1313.473 670.545, 1272.148 659.888 C 1265.904 658.278, 1260.004 656.538, 1259.038 656.020 C 1253.877 653.258, 1220.277 648.614, 1205.500 648.621 C 1188.689 648.629, 1183.722 649.834, 1172.806 656.550 C 1151.346 669.754, 1124.365 664.363, 1110.094 644.018 C 1105.774 637.860, 1104.469 633.834, 1103.441 623.500 C 1101.474 603.707, 1093.298 591.705, 1067.545 570.804 C 1039.498 548.040, 1017.789 539.830, 993 542.611 M 1348.344 620.007 C 1329.193 623.953, 1318.856 643.547, 1325.554 663.205 C 1330.966 679.088, 1351.872 686.932, 1367.563 678.968 C 1401.199 661.895, 1385.078 612.438, 1348.344 620.007 M 637.994 620.866 C 608.294 630.706, 612.079 675.477, 643.156 681.929 C 677.769 689.114, 695.154 640.553, 664.032 623.614 C 658.564 620.638, 643.486 619.047, 637.994 620.866 M 996.450 652.862 C 995.928 653.335, 985.600 658.790, 973.500 664.983 C 961.400 671.176, 949.250 677.481, 946.500 678.994 C 943.750 680.507, 936.100 684.565, 929.500 688.011 C 922.900 691.458, 913.900 696.173, 909.500 698.490 C 882.943 712.474, 849.899 729.745, 825.666 742.307 C 810.357 750.243, 796.684 757.592, 795.283 758.638 L 792.734 760.541 792.863 885.520 L 792.993 1010.500 796.498 1013.500 C 798.426 1015.150, 808.890 1021.182, 819.752 1026.905 C 852.678 1044.254, 930.757 1085.784, 943 1092.461 C 979.395 1112.310, 993.284 1119.639, 997.077 1120.997 C 1000.949 1122.382, 1003.611 1121.181, 1037 1102.976 C 1042.775 1099.828, 1063.925 1088.478, 1084 1077.755 C 1104.075 1067.032, 1133.769 1051.167, 1149.987 1042.500 C 1166.204 1033.834, 1184.879 1024.046, 1191.487 1020.750 C 1198.094 1017.454, 1204.287 1014.067, 1205.250 1013.224 C 1206.899 1011.778, 1207 1004.453, 1207 885.978 L 1207 760.266 1203.250 757.813 C 1201.188 756.464, 1198.634 755.038, 1197.575 754.644 C 1196.516 754.251, 1182.341 746.818, 1166.075 738.128 C 1149.809 729.438, 1132.675 720.393, 1128 718.028 C 1108.791 708.311, 1090 698.489, 1050.500 677.522 C 1007.732 654.819, 998.790 650.740, 996.450 652.862 M 994 666.865 C 991.525 667.839, 987.700 669.767, 985.500 671.150 C 983.300 672.532, 976.325 676.273, 970 679.462 C 955.087 686.982, 937.772 696.062, 936.500 697.030 C 935.950 697.449, 928.750 701.268, 920.500 705.518 C 885.778 723.405, 856.511 738.631, 847.500 743.495 C 844.200 745.276, 835.313 749.983, 827.750 753.954 C 820.188 757.925, 814 761.355, 814 761.575 C 814 762.646, 843.530 778.722, 885.500 800.500 C 892.650 804.210, 901.875 809.168, 906 811.517 C 920.411 819.725, 954.661 837.666, 974.500 847.400 C 985.500 852.797, 995.656 857.817, 997.070 858.556 C 999.259 859.701, 1000.072 859.672, 1002.570 858.360 C 1004.181 857.513, 1007.300 856.111, 1009.500 855.244 C 1011.700 854.378, 1014.625 852.897, 1016 851.955 C 1017.375 851.012, 1027.725 845.533, 1039 839.779 C 1067.367 825.302, 1086.449 815.313, 1093.304 811.353 C 1096.496 809.509, 1099.312 808, 1099.562 808 C 1099.813 808, 1106.201 804.689, 1113.759 800.643 C 1121.316 796.597, 1139.200 787.316, 1153.500 780.019 C 1187.959 762.435, 1186.864 763.118, 1184.134 760.907 C 1182.002 759.181, 1142.747 738, 1141.680 738 C 1141.377 738, 1131.988 733.114, 1120.815 727.143 C 1109.642 721.171, 1094.200 713.020, 1086.500 709.029 C 1055.421 692.922, 1043.150 686.527, 1036 682.715 C 1000.620 663.848, 1001.153 664.049, 994 666.865 M 997.304 673.083 C 996.145 673.512, 994.365 675.056, 993.348 676.514 C 986.682 686.077, 980.866 690, 973.359 690 C 962.508 690, 958.383 699.307, 968.629 700.675 C 975.073 701.535, 979.346 699.920, 980.457 696.202 C 980.983 694.441, 981.720 693, 982.095 693 C 982.469 693, 985.163 691.358, 988.080 689.351 C 992.283 686.460, 994.702 685.566, 999.725 685.046 C 1009.509 684.033, 1014.016 678.220, 1007.656 674.816 C 1004.310 673.025, 999.595 672.236, 997.304 673.083 M 1016.239 683.707 C 1014.995 683.946, 1013.334 685.387, 1012.547 686.909 C 1010.639 690.599, 996.313 700.012, 981.199 707.508 C 974.678 710.741, 974.061 710.848, 958 711.496 C 948.925 711.862, 938.634 712.592, 935.131 713.119 C 930.690 713.787, 927.731 713.736, 925.357 712.953 C 921.282 711.608, 915.285 714.126, 913.325 718.006 C 910.302 723.989, 925.779 726.888, 932.146 721.531 C 936.659 717.733, 941.060 716.913, 961.002 716.152 C 979.503 715.447, 979.503 715.447, 985.632 711.723 C 989.003 709.675, 992.049 708, 992.401 708 C 992.752 708, 994.718 706.943, 996.770 705.650 C 1008.425 698.308, 1013.792 696, 1019.210 696 C 1025.657 696, 1027.563 694.726, 1028.415 689.848 C 1029.464 683.849, 1025.609 681.905, 1016.239 683.707 M 616.183 694.519 C 612.043 696.317, 603.536 705.034, 595.706 715.500 C 586.353 728.002, 586.402 727.709, 591.868 738.404 C 606.515 767.059, 586.851 794.883, 553.523 792.662 L 544.500 792.061 542.645 795.781 C 538.454 804.187, 528.801 825.602, 527.050 830.378 C 526.017 833.195, 524.600 836.923, 523.900 838.662 C 522.640 841.794, 522.690 841.885, 529.140 848.162 C 552.077 870.485, 538.055 911, 507.393 911 C 499.701 911, 499.271 911.622, 497.022 926 C 490.052 970.560, 507.646 979.477, 539.576 947.569 C 570.583 916.583, 584.286 886.449, 576.937 865.407 C 569.883 845.207, 579.539 825.318, 602.800 812.138 C 615.176 805.125, 617.632 803.032, 622.653 795.221 C 633.940 777.661, 642.507 725.563, 637.025 707.816 C 633.564 696.610, 624.574 690.874, 616.183 694.519 M 1376.500 694.662 C 1361.568 702.534, 1359.180 729.233, 1370.028 767.014 C 1377.826 794.171, 1384.660 804.334, 1400.952 813.003 C 1424.616 825.593, 1428.737 835.556, 1425.580 872.544 C 1422.279 911.222, 1474.362 974.486, 1500.510 963.560 C 1508.648 960.160, 1509.693 952.365, 1505.350 927.458 L 1502.700 912.259 1496.100 911.632 C 1463.626 908.548, 1451.145 871.733, 1474.710 848.538 C 1480.464 842.874, 1480.704 842.444, 1479.727 839.545 C 1478.350 835.460, 1468.165 811.564, 1463.316 801.039 L 1459.417 792.578 1446.458 792.539 C 1413.211 792.439, 1394.402 758.161, 1414.037 733.454 C 1417.444 729.166, 1417.627 729.716, 1408.860 717.891 C 1393.528 697.211, 1384.270 690.565, 1376.500 694.662 M 1028 701.951 C 1014.324 702.598, 1013.705 702.820, 997 713.069 C 984.099 720.984, 980.556 722.232, 967.049 723.621 C 953.010 725.064, 949.200 725.983, 940.517 730.020 C 937.208 731.558, 932.662 733.110, 930.416 733.468 C 925.606 734.235, 920 737.395, 920 739.339 C 920 747.610, 939.012 748.189, 940.656 739.968 C 941.098 737.760, 942.461 736.103, 945.319 734.298 C 949.337 731.762, 951.113 731.414, 971.687 729.138 C 980.931 728.115, 989.704 724.256, 1005.500 714.265 C 1017.398 706.739, 1038.984 704.657, 1049.325 710.038 C 1051.621 711.233, 1055.525 713.248, 1058 714.517 C 1060.475 715.786, 1066.100 719.030, 1070.500 721.726 C 1074.900 724.422, 1080.715 727.949, 1083.422 729.564 C 1086.129 731.179, 1089.916 733.945, 1091.838 735.710 C 1098.228 741.581, 1105.537 741.185, 1107.545 734.859 C 1108.951 730.428, 1100.724 725.057, 1096.153 727.421 C 1093.506 728.790, 1093.054 728.721, 1089.706 726.446 C 1087.726 725.101, 1085.923 724, 1085.700 724 C 1085.477 724, 1079.265 720.479, 1071.897 716.176 C 1050.812 703.863, 1045.229 700.987, 1042.782 701.180 C 1041.527 701.278, 1034.875 701.625, 1028 701.951 M 1019 716.842 C 1011.478 718.947, 1004.279 722.408, 989.708 730.925 C 982.330 735.237, 977.570 737.319, 973.395 738.060 C 959.010 740.611, 957.583 742.981, 966.357 749.751 C 969.786 752.398, 971.280 751.857, 978 745.536 C 982.042 741.734, 985.399 739.648, 1001 731.245 C 1003.475 729.912, 1006.915 727.954, 1008.644 726.895 C 1016.175 722.279, 1033.758 720.194, 1040.502 723.116 C 1046.358 725.654, 1056.558 732.806, 1057.903 735.318 C 1059.625 738.537, 1063.834 740.320, 1067.596 739.423 C 1077.147 737.147, 1075.451 728, 1065.479 728 C 1062.474 728, 1059.706 727.217, 1057.229 725.667 C 1038.866 714.178, 1033.196 712.869, 1019 716.842 M 1019.286 730.451 C 1013.807 732.163, 1006.968 736.159, 999.500 742.010 C 991.934 747.938, 989.887 749, 986.018 749 C 979.168 749, 974.974 758.749, 980.930 760.826 C 987.097 762.976, 992.888 760.766, 995.388 755.311 C 1001.671 741.599, 1025.412 731.580, 1037 737.751 C 1040.025 739.362, 1047.381 743.260, 1053.346 746.413 C 1059.311 749.567, 1066.686 753.743, 1069.734 755.693 C 1075.277 759.238, 1075.277 759.238, 1078.888 757.448 C 1080.875 756.463, 1083.167 755.534, 1083.982 755.383 C 1084.797 755.232, 1085.621 754.638, 1085.812 754.063 C 1086.025 753.424, 1086.712 753.569, 1087.580 754.437 C 1090.206 757.064, 1109.834 753.895, 1115.208 749.977 C 1116.697 748.891, 1119.622 747.732, 1121.708 747.401 C 1129.467 746.171, 1131.495 742.108, 1126.365 738.073 C 1122.305 734.879, 1119.754 735.466, 1114.354 740.838 C 1107.107 748.047, 1089.888 753.069, 1085.660 749.207 C 1080.853 744.817, 1077.578 743.885, 1072.835 745.558 C 1068.903 746.945, 1068.100 746.932, 1064.005 745.414 C 1059.715 743.824, 1049.060 738.266, 1048 737.066 C 1042.116 730.405, 1029.058 727.397, 1019.286 730.451 M 887.086 739.340 C 884.541 744.094, 888.055 748, 894.878 748 C 897.757 748, 908.330 753.899, 916 759.785 L 920.500 763.238 934 762.422 C 941.425 761.973, 951.325 761.582, 956 761.553 L 964.500 761.500 974.500 768.734 C 985.262 776.519, 985.136 776.481, 998.920 776.077 C 1013.127 775.660, 1013.186 770.628, 998.989 770.242 C 988.283 769.952, 988.050 769.866, 975 761.472 C 963.256 753.917, 963.609 754.042, 956.968 755.104 C 938.076 758.125, 925.088 758.239, 920.193 755.428 C 911.728 750.567, 905.301 745.203, 903.290 741.318 C 900.670 736.259, 889.467 734.891, 887.086 739.340 M 1021.704 741.596 C 1014.591 745.453, 1015.942 752.591, 1023.835 752.852 C 1033.595 753.174, 1034.176 753.377, 1046.818 760.874 C 1049.742 762.609, 1057.617 766.992, 1064.318 770.615 C 1086.367 782.538, 1095.173 788.199, 1096.185 791.100 C 1098.352 797.317, 1115 795.592, 1115 789.150 C 1115 784.864, 1112.183 783, 1105.693 782.994 C 1102.287 782.990, 1098.375 782.372, 1097 781.620 C 1095.625 780.867, 1091.125 778.345, 1087 776.014 C 1082.875 773.683, 1073.650 768.714, 1066.500 764.972 C 1043.884 753.134, 1036 748.081, 1036 745.424 C 1036 740.695, 1027.543 738.430, 1021.704 741.596 M 867.765 743.060 C 859.454 747.449, 861.791 752.435, 872.587 753.348 C 881.002 754.059, 887.661 757.192, 907.500 769.773 C 916.859 775.709, 917.788 776.080, 922 775.565 C 949.223 772.236, 964 773.116, 964 778.066 C 964 778.408, 957.138 778.980, 948.750 779.336 C 940.362 779.693, 929.200 780.516, 923.945 781.165 L 914.390 782.346 904.821 776.714 C 892.582 769.511, 889 766.492, 889 763.379 C 889 757.441, 878.973 759.111, 871.767 766.250 C 870.683 767.324, 868.472 768, 866.047 768 C 857.405 768, 853.229 773.220, 858.349 777.623 C 859.807 778.878, 861 780.376, 861 780.952 C 861 781.528, 861.450 782, 862 782 C 862.550 782, 863 781.602, 863 781.117 C 863 780.631, 864.237 779.989, 865.750 779.691 C 868.444 779.160, 869.709 779.701, 880.500 786.002 C 882.700 787.286, 887.425 789.971, 891 791.967 C 894.575 793.964, 899.583 796.824, 902.128 798.322 C 907.242 801.333, 919.269 801.499, 947.854 798.952 C 968.030 797.155, 973.534 798.303, 984 806.496 C 984.825 807.142, 987.075 808.291, 989 809.048 C 990.925 809.806, 993.391 811.247, 994.480 812.252 C 1000.005 817.345, 1020.923 813.461, 1017.944 807.895 C 1016.852 805.854, 1016.349 805.789, 1006.925 806.457 C 997.050 807.157, 997.050 807.157, 991.275 803.524 C 970.947 790.737, 969.970 790.388, 958.647 791.867 C 953.616 792.524, 939.825 793.161, 928 793.281 L 906.500 793.500 899.500 789.584 C 895.650 787.430, 890.834 784.842, 888.797 783.833 C 882.594 780.760, 872 772.933, 872 771.423 C 872 769.545, 874.011 769.619, 876.839 771.600 C 878.379 772.678, 880.184 773.001, 882.378 772.589 C 885.139 772.071, 886.989 772.822, 894.566 777.538 C 911.867 788.306, 912.126 788.381, 927.321 787.104 C 952.554 784.982, 962.521 783.886, 965.760 782.878 C 969.585 781.687, 975.239 783.923, 985.905 790.844 C 993.245 795.606, 996.179 795.926, 1013.224 793.816 L 1022.947 792.612 1034.224 798.431 C 1045.990 804.503, 1050.116 806.989, 1048.473 807.015 C 1047.938 807.024, 1048.175 807.467, 1049 808 C 1050.244 808.804, 1050.158 808.973, 1048.500 808.991 C 1047.400 809.002, 1041.821 811.942, 1036.103 815.523 C 1010.257 831.709, 979.656 830.674, 961.030 812.984 C 954.794 807.061, 950.282 806.527, 944.038 810.973 C 938.526 814.898, 944.699 821.320, 953.500 820.816 C 956.537 820.642, 959.907 821.748, 967.500 825.413 C 983.438 833.105, 994.610 835.144, 1005.642 832.375 C 1006.997 832.035, 1012.294 832.311, 1017.413 832.988 C 1028.514 834.458, 1031.281 833.653, 1030.393 829.213 C 1029.882 826.659, 1030.535 826.010, 1039.672 819.985 C 1051.754 812.018, 1050.488 812.511, 1055.033 814.011 C 1058.837 815.266, 1064.757 813.104, 1067.235 809.553 C 1069.584 806.186, 1064.007 801, 1058.037 801 C 1051.400 801, 1040.296 796.299, 1027.292 787.983 C 1025.377 786.759, 1023.513 786.800, 1013.292 788.290 C 997.556 790.583, 997.007 790.539, 991.136 786.500 C 988.338 784.575, 985.780 783, 985.453 783 C 985.126 783, 979.686 779.556, 973.365 775.346 L 961.872 767.692 944.686 768.513 C 916.317 769.868, 918.716 770.336, 903.500 760.482 C 899.650 757.988, 893.680 754.564, 890.233 752.872 C 886.276 750.930, 882.638 748.175, 880.363 745.398 C 876.243 740.370, 873.740 739.905, 867.765 743.060 M 1133.064 749.250 C 1124.350 755.937, 1122.679 756.980, 1117.157 759.181 C 1109.466 762.246, 1100.145 762.266, 1093.934 759.231 C 1088.251 756.454, 1085 756.318, 1085 758.857 C 1085 760.250, 1087.437 761.773, 1094.750 764.949 C 1100.112 767.278, 1106.300 770.113, 1108.500 771.250 C 1110.700 772.386, 1113.806 773.987, 1115.402 774.807 C 1121.399 777.888, 1133.551 776.911, 1142.562 772.623 C 1148.179 769.950, 1151.816 768.855, 1155 768.877 C 1168.796 768.972, 1171.559 762.414, 1160.003 757.001 C 1154.908 754.615, 1154.800 754.607, 1153.754 756.537 C 1147.883 767.367, 1128.891 774.618, 1118.204 770.110 C 1111.593 767.321, 1118.249 762.891, 1135.500 758.597 C 1145.709 756.055, 1148.534 752.534, 1144 748 C 1141.149 745.149, 1137.929 745.518, 1133.064 749.250 M 1022.230 768.945 C 1012.441 770.538, 1013.758 775.381, 1023.736 774.483 C 1030.800 773.847, 1040.975 777.988, 1057 788.018 C 1059.475 789.567, 1064.051 792.032, 1067.168 793.496 C 1070.905 795.250, 1073.741 797.462, 1075.492 799.988 C 1079.217 805.364, 1085.770 807.034, 1090.899 803.916 C 1097.486 799.909, 1092.857 791.653, 1084.286 792.122 C 1079.290 792.395, 1060.111 784.591, 1054.500 780.002 C 1053.950 779.552, 1048.654 776.667, 1042.731 773.592 C 1031.907 767.972, 1030.364 767.622, 1022.230 768.945 M 803.816 770.738 C 803.642 771.157, 803.725 824.352, 804 888.948 L 804.500 1006.396 810 1009.257 C 832.463 1020.943, 845.555 1027.875, 852 1031.497 C 856.125 1033.814, 871.875 1042.160, 887 1050.044 C 902.125 1057.927, 916.750 1065.652, 919.500 1067.211 C 922.250 1068.770, 927.650 1071.661, 931.500 1073.636 C 935.350 1075.610, 950.472 1083.711, 965.104 1091.638 C 980.804 1100.142, 992.335 1105.809, 993.237 1105.463 C 994.593 1104.942, 994.768 1094.307, 994.794 1011.188 C 994.829 894.677, 994.575 907, 996.941 907 C 999.680 907, 1000.426 905.270, 998.017 904.505 C 995.387 903.671, 995.116 902.090, 994.782 885.654 C 994.455 869.604, 994.433 869.567, 982.082 864.408 C 978.462 862.895, 974.375 860.895, 973 859.963 C 971.625 859.031, 964.425 855.127, 957 851.288 C 949.575 847.449, 939.900 842.361, 935.500 839.982 C 931.100 837.602, 925.700 834.775, 923.500 833.698 C 921.300 832.622, 914.325 828.943, 908 825.521 C 901.675 822.100, 892.225 817.037, 887 814.271 C 858.788 799.332, 831.378 784.658, 830.500 784.023 C 827.147 781.597, 804.077 770.111, 803.816 770.738 M 1183.500 777.090 C 1176.900 780.431, 1167 785.550, 1161.500 788.467 C 1156 791.384, 1146.550 796.361, 1140.500 799.527 C 1118.579 810.997, 1110.013 815.532, 1082 830.499 C 1066.325 838.874, 1044.610 850.283, 1033.745 855.852 C 1022.880 861.421, 1012.193 867.168, 1009.995 868.622 L 1006 871.266 1005.946 887.383 C 1005.916 896.247, 1005.688 912.725, 1005.439 924 C 1005.189 935.275, 1005.087 948.325, 1005.212 953 C 1005.829 976.209, 1005.015 1022.807, 1003.924 1026.738 C 1003.036 1029.934, 1003.028 1031.654, 1003.891 1033.738 C 1006.578 1040.230, 1005.790 1070.255, 1002.839 1073.771 C 1000.442 1076.628, 998 1084.245, 998 1088.869 C 998 1089.906, 999.346 1091.231, 1001.250 1092.070 C 1004.147 1093.345, 1004.529 1093.989, 1004.764 1098 C 1005.420 1109.192, 1002.057 1110.050, 1041.160 1088.715 C 1056.747 1080.210, 1077.825 1068.860, 1088 1063.493 C 1098.175 1058.125, 1112.125 1050.702, 1119 1046.996 C 1130.733 1040.671, 1135.303 1038.223, 1154 1028.245 C 1158.125 1026.044, 1168.700 1020.557, 1177.500 1016.052 C 1186.300 1011.547, 1194.287 1006.942, 1195.250 1005.819 C 1197.102 1003.660, 1198.092 770.988, 1196.250 771.008 C 1195.838 771.013, 1190.100 773.750, 1183.500 777.090 M 813.589 789.077 C 810.247 793.049, 810.312 796.452, 813.807 800.433 C 815.891 802.807, 816.953 805.543, 817.932 811.065 C 819.148 817.927, 820.895 822.085, 827.527 833.907 C 829.989 838.295, 830 838.437, 830 865.502 C 830 896.073, 830.698 893.305, 821.672 898.502 C 815.111 902.279, 814.930 903.101, 814.939 929.106 C 814.949 960.553, 814.482 959.207, 837.485 994 C 844.212 1004.175, 850.898 1014.552, 852.342 1017.061 C 855.609 1022.735, 858.373 1025.258, 863.500 1027.248 C 879.375 1033.411, 900.829 1045.071, 901.890 1048.114 C 904.124 1054.523, 909.317 1055.789, 913.411 1050.923 C 918.555 1044.810, 910.075 1032.051, 903.686 1036.292 C 901.296 1037.880, 895.729 1035.781, 874 1025.103 C 861.132 1018.779, 858.659 1016.751, 853.564 1008.344 C 850.621 1003.488, 844.265 993.534, 834.446 978.406 C 821.351 958.229, 820.562 955.174, 821.168 927.020 C 821.621 905.927, 821.382 906.645, 829.516 901.991 C 836.477 898.008, 836.166 899.709, 836.052 866.252 C 835.942 834.207, 836.079 835.045, 829.261 824.713 C 824.088 816.877, 823.425 812.233, 825.481 798.260 C 826.936 788.377, 819.202 782.405, 813.589 789.077 M 1178.990 789.336 C 1173.510 792.112, 1172.479 795.172, 1174.503 802.649 C 1180.022 823.039, 1176.089 835.896, 1162.611 841.520 L 1158.721 843.143 1159.440 838.822 C 1159.835 836.445, 1160.719 829.709, 1161.404 823.853 C 1162.463 814.793, 1163.048 812.732, 1165.324 810.026 C 1168.607 806.126, 1168.693 804, 1165.686 801.174 C 1158.759 794.668, 1145.965 805.475, 1151.879 812.837 C 1155.622 817.497, 1156.320 820.069, 1155.179 825 C 1150.535 845.071, 1146.756 851.867, 1141.368 849.833 C 1136.516 848.002, 1129.500 853.055, 1129.500 858.380 C 1129.500 862.744, 1128.554 863.652, 1119 868.456 C 1115.425 870.254, 1110.452 872.900, 1107.950 874.336 C 1105.447 875.773, 1101.419 877.646, 1098.999 878.500 C 1087.103 882.697, 1082.766 895.904, 1086.490 916.587 C 1088.652 928.592, 1088.230 941.380, 1085.610 943.296 C 1083.353 944.946, 1084.241 946.961, 1088.509 949.874 C 1097.338 955.902, 1105.398 941.869, 1097.039 935.023 C 1091.997 930.894, 1089.245 896.518, 1093.500 890.823 C 1095.589 888.027, 1105.982 881.385, 1112 879.001 C 1115.357 877.670, 1116.960 876.835, 1127 871.185 C 1129.475 869.792, 1133.525 868.283, 1136 867.833 C 1141.611 866.812, 1145 863.276, 1145 858.444 C 1145 855.894, 1145.433 855, 1146.669 855 C 1147.587 855, 1150.625 853.716, 1153.419 852.147 C 1156.214 850.579, 1160.300 848.727, 1162.500 848.033 C 1177.821 843.200, 1185.167 830.618, 1183.553 811.971 C 1182.931 804.791, 1183.019 804.330, 1185.451 802.046 C 1191.460 796.401, 1186.051 785.759, 1178.990 789.336 M 837.500 798.796 C 832.625 799.705, 831.498 806.575, 835.363 811.815 C 836.806 813.770, 837.973 817.110, 838.358 820.387 C 838.705 823.341, 839.882 827.724, 840.972 830.128 C 843.602 835.924, 844.012 870.832, 841.506 875.636 C 837.980 882.396, 840.017 888, 846 888 C 852.144 888, 853.729 883.152, 850.539 874.111 C 849.431 870.971, 849.110 865.324, 849.210 850.735 C 849.331 833.170, 849.154 831.022, 847.172 826 C 844.620 819.534, 844.470 817.082, 846.468 814.441 C 851.838 807.342, 846.028 797.205, 837.500 798.796 M 856.351 810.250 C 853.540 813.416, 853.553 817.729, 856.387 821.940 C 858.289 824.766, 858.891 827.252, 859.305 834 C 860.019 845.648, 862.360 852.139, 868.118 858.439 C 872.781 863.541, 875.008 864.812, 894.165 873.301 C 903.507 877.441, 905.782 883.977, 903.996 901.542 C 902.821 913.091, 903.223 914.606, 909.965 924 C 912.136 927.025, 915.013 931.525, 916.357 934 C 919.801 940.338, 936.919 952, 942.780 952 C 943.208 952, 946.094 954.475, 949.192 957.500 C 955.336 963.498, 957.369 964.071, 961.365 960.927 C 968.070 955.653, 962.758 948.011, 952.382 948.004 C 948.564 948.001, 945.625 947.161, 940.813 944.696 C 937.264 942.879, 932.817 940.757, 930.931 939.980 C 926.760 938.263, 925.794 937.170, 917.246 924.500 L 910.500 914.500 910.770 899.682 C 911.210 875.550, 908.351 871.392, 885.500 862.933 C 868.624 856.687, 859.746 839.026, 866.935 826 C 871.649 817.457, 871.492 818.052, 869.792 815.183 C 867.932 812.043, 862.435 808, 860.026 808 C 859.104 808, 857.450 809.013, 856.351 810.250 M 1134.064 816.102 C 1132.175 817.254, 1129.250 819.653, 1127.564 821.433 C 1123.610 825.610, 1118.409 829.270, 1114 830.979 C 1112.075 831.725, 1110.022 832.695, 1109.438 833.134 C 1108.605 833.761, 1088.681 844.059, 1070.279 853.376 C 1069.045 854, 1066.866 857.167, 1065.376 860.500 C 1063.901 863.800, 1060.885 870.100, 1058.676 874.500 C 1054.658 882.500, 1054.658 882.500, 1055.059 893.500 C 1055.280 899.550, 1055.469 911.072, 1055.480 919.105 L 1055.500 933.710 1049.567 945.498 C 1043.634 957.287, 1043.634 957.287, 1043.019 968.893 C 1042.680 975.277, 1041.863 981.483, 1041.202 982.684 C 1036.301 991.591, 1044.602 999.598, 1051.541 992.659 C 1056.863 987.337, 1057.463 980.539, 1052.792 978.500 C 1047.565 976.219, 1049.530 956.785, 1056.051 946.257 C 1061.759 937.043, 1062.552 931.704, 1061.309 910.880 C 1060.060 889.974, 1060.622 885.063, 1065.529 874 C 1071.913 859.607, 1072.582 858.952, 1089.500 850.513 C 1097.750 846.398, 1105.625 842.357, 1107 841.533 C 1119.588 833.994, 1129.230 830.939, 1133.144 833.250 C 1134.674 834.153, 1135.375 834.188, 1135.672 833.375 C 1135.899 832.756, 1137.865 829.862, 1140.042 826.944 C 1146.875 817.786, 1142.957 810.681, 1134.064 816.102 M 878.037 821.403 C 877.534 822.724, 876.646 824.101, 876.062 824.462 C 874.152 825.642, 874.941 828.769, 878.260 833.173 C 883.003 839.468, 884.473 841.967, 886.397 847 C 889.483 855.072, 893.456 857.956, 909.435 863.723 C 920.424 867.690, 921 869.037, 921 890.777 C 921 907.658, 922.400 912.330, 929.443 918.946 C 930.849 920.268, 932 921.867, 932 922.500 C 932 924.463, 936.791 928.294, 938.449 927.658 C 941.106 926.638, 940.201 924.015, 934 914.759 L 928 905.804 927.968 886.652 C 927.928 862.451, 930.225 865.579, 905 855.378 C 895.422 851.505, 894.206 850.510, 890.551 843.556 C 888.214 839.110, 888.015 837.900, 888.582 831.556 C 889.511 821.145, 881.184 813.127, 878.037 821.403 M 809.667 829.667 C 807.983 831.350, 809.084 837.799, 811.500 840.405 C 815.498 844.720, 815.394 875.044, 811.375 876.875 C 806.658 879.024, 810.578 889.417, 817 891.789 C 823.488 894.186, 828.415 883.905, 823 879.268 C 821.136 877.672, 821 876.318, 821 859.343 C 821 839.369, 820.563 837.220, 815.499 832.302 C 812.075 828.976, 810.892 828.442, 809.667 829.667 M 925.035 845.934 C 922.505 850.663, 923.741 855.737, 928.519 860.234 C 934.745 866.092, 937 872.433, 937 884.077 C 937 894.183, 938.908 899.486, 944.167 904 C 946.442 905.953, 947.198 907.595, 947.618 911.500 C 947.915 914.250, 949.009 917.625, 950.051 919 C 951.092 920.375, 953.288 923.772, 954.931 926.549 C 956.573 929.326, 958.880 932.701, 960.058 934.049 C 961.235 935.397, 963.328 938.750, 964.709 941.500 C 966.091 944.250, 968.122 947.483, 969.223 948.685 C 970.621 950.209, 971.321 952.584, 971.541 956.544 C 972.041 965.538, 979.223 970.705, 985.504 966.589 C 991.454 962.691, 988.940 957.248, 976.963 948.100 C 975.235 946.780, 972.213 943.180, 970.248 940.100 C 968.284 937.020, 964.323 930.865, 961.447 926.423 C 954.935 916.365, 952.444 911.484, 951.534 907 C 951.143 905.075, 949.180 901.025, 947.172 898 C 943.279 892.137, 943.485 893.436, 943.051 871.977 C 943.023 870.590, 941.432 867.073, 939.515 864.163 C 936.463 859.529, 936.059 858.185, 936.265 853.348 C 936.602 845.417, 928.260 839.909, 925.035 845.934 M 1109.675 846.869 C 1108.672 847.259, 1106.647 849.742, 1105.175 852.386 C 1102.485 857.221, 1101.307 858.084, 1090 863.506 C 1081.995 867.345, 1079.248 870.386, 1074.199 881 L 1069.681 890.500 1070.015 905 C 1070.671 933.477, 1070.374 937.902, 1067.394 944 C 1061.714 955.621, 1067.470 963.201, 1077.064 956.736 C 1082.558 953.033, 1083.251 945.861, 1078.650 940.327 C 1077.046 938.399, 1076.119 935.710, 1075.734 931.872 C 1075.424 928.777, 1074.600 925.333, 1073.904 924.218 C 1072.889 922.592, 1072.884 921.095, 1073.882 916.636 C 1074.566 913.580, 1075.467 906.668, 1075.885 901.274 C 1076.774 889.793, 1082.362 876.001, 1087.631 872.279 C 1095.172 866.954, 1103.268 863.765, 1107.705 864.373 C 1116.462 865.573, 1123.687 854.723, 1117.750 849.289 C 1115.018 846.788, 1112.118 845.919, 1109.675 846.869 M 1181.660 851.501 C 1180.303 852.205, 1176.562 855.507, 1173.346 858.837 C 1167.012 865.399, 1161.453 868.733, 1126 887.238 C 1120.775 889.965, 1115.924 892.668, 1115.220 893.245 C 1114.323 893.981, 1113.189 893.951, 1111.423 893.147 C 1103.314 889.452, 1093.205 903.402, 1099.750 909.255 C 1104.042 913.092, 1108.464 911.869, 1112.416 905.750 C 1116.050 900.122, 1117.241 899.165, 1126.500 894.434 C 1129.800 892.748, 1139.250 887.595, 1147.500 882.984 C 1172.161 869.199, 1175.101 867.894, 1177.715 869.575 C 1181.025 871.705, 1182.235 871.368, 1186.332 867.172 C 1194.155 859.161, 1190.504 846.913, 1181.660 851.501 M 949.744 857.399 C 946.675 860.468, 946.857 872, 949.975 872 C 952.688 872, 955 876.100, 955 880.911 C 955 886.609, 957.866 896.556, 960.689 900.658 C 961.765 902.221, 963.460 905.269, 964.456 907.432 C 965.452 909.595, 967.625 913.645, 969.285 916.432 C 971.490 920.134, 972.252 922.596, 972.115 925.569 C 971.766 933.111, 979.487 939.597, 984.964 936.362 C 991.131 932.719, 990.009 927.060, 981.951 921.177 C 969.562 912.130, 955.967 879.433, 962.060 873.340 C 964.531 870.869, 962.701 862.863, 959 859.952 C 954.403 856.335, 951.585 855.558, 949.744 857.399 M 854.655 862.829 C 852.553 865.152, 852.553 868.237, 854.658 872.300 C 858.800 880.297, 856.544 898.460, 851.128 900.713 C 832.178 908.596, 830 912.194, 830 935.614 C 830 957.904, 829.859 957.347, 838.903 970.776 C 842.292 975.808, 848.031 984.779, 851.657 990.712 C 855.283 996.645, 859.423 1003.406, 860.858 1005.735 C 862.456 1008.329, 865.024 1010.734, 867.484 1011.941 C 873.284 1014.788, 886.918 1020.975, 891 1022.614 C 892.925 1023.387, 895.400 1025.360, 896.500 1027 C 899.361 1031.264, 905.608 1033.665, 908.062 1031.444 C 909.933 1029.751, 912 1030.210, 912 1032.318 C 912 1032.979, 912.918 1034.092, 914.041 1034.793 C 918.956 1037.863, 919.504 1031.496, 914.750 1026.557 C 912.962 1024.701, 910.012 1021.341, 908.194 1019.091 C 904.692 1014.759, 902.794 1014.225, 897.571 1016.106 C 894.956 1017.048, 893.684 1016.838, 889 1014.693 C 865.085 1003.740, 867.292 1005.480, 858.261 990.456 C 854.941 984.932, 849.682 976.512, 846.575 971.746 C 836.094 955.667, 835.730 954.399, 836.226 935.688 C 836.737 916.379, 836.381 917.345, 844.785 912.519 C 848.478 910.399, 854.087 907.101, 857.250 905.190 L 863 901.716 863.004 891.108 C 863.007 882.271, 863.341 879.953, 865.004 877.226 C 870.386 868.399, 861.191 855.607, 854.655 862.829 M 1041.325 862.459 C 1035.120 865.158, 1034.258 868.167, 1037.770 874.867 C 1041.538 882.056, 1043.169 925.368, 1039.902 931.500 C 1039.023 933.150, 1033.895 943.050, 1028.508 953.500 C 1023.120 963.950, 1018.160 973.175, 1017.485 974 C 1009.473 983.788, 1018.199 995.072, 1026.642 985.842 C 1029.672 982.529, 1030.332 978.192, 1028.567 973.190 C 1026.845 968.310, 1027.274 966.634, 1032.441 958.040 C 1034.274 954.993, 1038.756 946.678, 1042.402 939.563 L 1049.031 926.626 1048.356 901.775 C 1047.692 877.350, 1047.717 876.873, 1049.840 874.002 C 1056.096 865.541, 1050.786 858.344, 1041.325 862.459 M 972.557 871.223 C 970.399 874.304, 970.532 882.201, 972.789 884.988 C 976.875 890.033, 988 887.867, 988 882.026 C 988 873.238, 976.688 865.324, 972.557 871.223 M 1020.087 872.767 C 1015.758 876.903, 1014.867 883.165, 1018.115 886.623 C 1021.675 890.412, 1021.708 909.456, 1018.165 915.451 C 1014.685 921.341, 1017.179 930, 1022.356 930 C 1030.198 930, 1035.793 917.662, 1030.371 912.326 C 1026.368 908.386, 1025.946 888.679, 1029.750 883.346 C 1035.379 875.454, 1026.941 866.217, 1020.087 872.767 M 1180.142 878.160 C 1177.864 879.287, 1176 880.837, 1176 881.605 C 1176 882.372, 1175.550 883, 1175 883 C 1174.450 883, 1173.987 883.563, 1173.972 884.250 C 1173.933 885.971, 1165.495 890.980, 1142 903.229 C 1125.054 912.064, 1124.943 912.186, 1119.491 928 C 1113.421 945.604, 1108.119 952.364, 1097.921 955.502 C 1082.571 960.225, 1076.178 966.150, 1069.049 982.264 C 1059.699 1003.396, 1058.354 1005.051, 1046.871 1009.551 C 1043.521 1010.863, 1040.140 1012.469, 1039.358 1013.118 C 1038.261 1014.028, 1037.046 1014.005, 1034.056 1013.018 C 1026.103 1010.394, 1016.950 1021.201, 1021.557 1027.777 C 1024.554 1032.057, 1034.787 1029.138, 1036.679 1023.464 C 1037.301 1021.600, 1040.049 1019.789, 1048 1016.002 C 1060.971 1009.824, 1063.772 1007.791, 1065.707 1003.152 C 1067.581 998.657, 1076.540 979.597, 1078.704 975.500 C 1080.538 972.028, 1083.992 968, 1085.135 968 C 1085.568 968, 1092.383 964.883, 1100.280 961.073 C 1116.112 953.434, 1117.689 951.937, 1121.423 941 C 1128.957 918.929, 1131.172 915.595, 1141.941 910.125 C 1146.098 908.013, 1153.100 904.360, 1157.500 902.007 C 1173.648 893.372, 1173.021 893.591, 1177.874 894.889 C 1183.030 896.268, 1185.804 894.981, 1189.070 889.696 C 1194.309 881.217, 1188.676 873.937, 1180.142 878.160 M 884.750 884.080 C 882.440 885.425, 882.535 889.168, 885 894 C 886.466 896.874, 887 899.894, 887 905.311 C 887 914.069, 887.938 917.079, 893.585 926.447 C 895.924 930.326, 899.967 937.040, 902.569 941.367 C 905.172 945.695, 908.736 950.645, 910.488 952.367 C 913.955 955.776, 914.955 956.317, 932 964.018 C 944.525 969.677, 949.876 973.935, 955.223 982.500 C 959.459 989.286, 962.292 991.880, 967.348 993.603 C 970.127 994.550, 972.917 996.604, 975.305 999.460 C 981.883 1007.330, 988 1006.199, 988 997.113 C 988 989.355, 978.161 983.850, 973.500 989 C 970.594 992.211, 964.689 987.758, 958.249 977.500 C 950.849 965.712, 950.940 965.776, 921 951.709 C 905.813 944.573, 887.076 904.991, 895.555 897.955 C 899.529 894.656, 899.090 890.300, 894.224 884.750 C 892.538 882.826, 887.513 882.471, 884.750 884.080 M 870.749 890.750 C 868.421 893.360, 868.284 898.897, 870.414 904.295 L 872.306 909.089 869.174 912.295 C 867.451 914.058, 862.454 917.975, 858.070 921 C 848.928 927.309, 847.305 930.181, 848.568 937.825 C 848.992 940.396, 849.244 943.063, 849.126 943.750 C 849.009 944.438, 849.382 945, 849.956 945 C 850.530 945, 851 945.477, 851 946.059 C 851 946.641, 850.547 946.838, 849.993 946.496 C 845.021 943.423, 848.945 954.246, 858.152 969 C 862.099 975.325, 867.642 984.312, 870.470 988.970 C 874.628 995.821, 876.174 997.557, 878.556 998.048 C 881.625 998.682, 883.518 999.490, 898.679 1006.638 C 906.657 1010.399, 908.021 1011.415, 909.098 1014.394 C 909.900 1016.613, 911.656 1018.562, 914.078 1019.924 L 917.820 1022.027 920.910 1018.936 C 926.696 1013.150, 919.691 1000.611, 911.878 1002.768 C 901.939 1005.512, 877.480 991.726, 871.484 980 C 870.500 978.075, 867.488 973.166, 864.791 969.092 C 856.648 956.789, 853.317 948.012, 855.078 943.500 C 855.508 942.400, 855.891 938.926, 855.930 935.780 L 856 930.061 863.250 925.066 C 877.499 915.250, 885.103 902.681, 881.409 895.048 C 878.663 889.372, 873.746 887.390, 870.749 890.750 M 1174.106 908.901 C 1172.398 910.497, 1171 912.483, 1171 913.315 C 1171 914.538, 1158.168 923, 1156.313 923 C 1156.032 923, 1154.384 923.647, 1152.651 924.438 C 1150.918 925.228, 1147.925 926.510, 1146 927.286 C 1140.983 929.308, 1136.002 933.813, 1135.989 936.339 C 1135.942 945.773, 1129.308 956.397, 1120.805 960.657 C 1118.437 961.843, 1113.575 964.268, 1110 966.046 C 1106.425 967.825, 1100.356 970.246, 1096.513 971.428 C 1088.306 973.953, 1083.845 978.805, 1080.617 988.717 C 1074.289 1008.152, 1068.468 1016.327, 1056.500 1022.586 C 1051.550 1025.175, 1045.700 1028.513, 1043.500 1030.004 C 1035.962 1035.112, 1029.533 1037.656, 1026.383 1036.777 C 1017.265 1034.235, 1009.270 1047.052, 1015.969 1053.470 L 1018.938 1056.315 1022.943 1053.539 C 1025.146 1052.013, 1027.747 1049.166, 1028.724 1047.213 C 1030.152 1044.358, 1032.275 1042.754, 1039.546 1039.038 C 1044.521 1036.496, 1050.273 1033.377, 1052.328 1032.106 C 1054.383 1030.836, 1058.659 1028.540, 1061.830 1027.004 C 1068.179 1023.929, 1073.995 1019.467, 1074.009 1017.661 C 1074.053 1012.143, 1093.014 979.422, 1096.560 978.744 C 1099.750 978.134, 1099.667 978.726, 1095.361 987.275 C 1091.366 995.209, 1086.627 1005.948, 1081.387 1018.945 C 1076.634 1030.733, 1060.234 1042.706, 1052.013 1040.390 C 1043.026 1037.858, 1035.685 1051.753, 1043.607 1056.300 C 1045.688 1057.494, 1045.345 1058.762, 1041.541 1063.945 C 1038.654 1067.878, 1038.210 1069.140, 1038.862 1071.579 C 1040.711 1078.499, 1049.317 1078.124, 1051.620 1071.023 C 1052.662 1067.811, 1054.095 1066.879, 1072.033 1057.753 C 1082.643 1052.355, 1091.919 1047.165, 1092.645 1046.219 C 1094.769 1043.454, 1101.650 1028.867, 1110.054 1009.314 C 1114.353 999.311, 1118.652 989.935, 1119.607 988.476 C 1122.081 984.702, 1148.371 972.050, 1153.816 972.015 C 1160.542 971.971, 1164.511 961.605, 1160.865 953.602 C 1158.191 947.735, 1150.038 952.223, 1149.642 959.779 C 1149.506 962.360, 1142.949 970, 1140.869 970 C 1139.414 970, 1130.686 974.224, 1128.149 976.157 C 1126.855 977.142, 1124.271 978.234, 1122.406 978.584 C 1119.122 979.200, 1113 984.767, 1113 987.137 C 1113 988.139, 1105.961 1004.708, 1100.314 1017 C 1098.924 1020.025, 1096.929 1024.750, 1095.880 1027.500 C 1091.172 1039.843, 1089.424 1041.798, 1077.500 1048.043 C 1054.925 1059.868, 1051.800 1061.244, 1049.509 1060.365 C 1044.673 1058.510, 1055.388 1048.054, 1069.203 1041.148 C 1078.680 1036.410, 1080.776 1034.936, 1082.212 1032 C 1084.361 1027.604, 1097.882 997.431, 1098.971 994.601 C 1099.415 993.445, 1100.970 989.906, 1102.425 986.736 C 1103.881 983.566, 1104.943 979.794, 1104.786 978.354 C 1104.521 975.929, 1105.389 975.299, 1116.500 969.839 C 1123.100 966.596, 1130.042 963.168, 1131.927 962.221 C 1135.021 960.668, 1135.678 959.526, 1138.668 950.500 C 1143.482 935.971, 1142.998 936.532, 1156.423 929.912 C 1171.882 922.290, 1178.804 922.125, 1176.021 929.443 C 1175.460 930.921, 1175 937.283, 1175 943.580 C 1175 954.455, 1174.849 955.298, 1172 960.346 C 1170.350 963.270, 1169 966.807, 1169 968.207 C 1169 970.636, 1158.589 992.380, 1155.841 995.692 C 1153.779 998.176, 1147.710 1001.707, 1143.159 1003.071 C 1140.871 1003.756, 1139 1004.675, 1139 1005.113 C 1139 1006.507, 1132.076 1007.308, 1130.601 1006.084 C 1127.008 1003.102, 1118.367 1012.720, 1119.446 1018.500 C 1121.086 1027.286, 1131.429 1025.806, 1136.467 1016.064 C 1137.251 1014.548, 1140.054 1012.195, 1142.696 1010.835 C 1161.708 1001.047, 1159.641 1002.911, 1166.008 989.818 C 1172.870 975.708, 1173.404 975, 1177.188 975 C 1185.157 975, 1189.562 962.695, 1183.598 957.092 C 1181.344 954.975, 1181.175 954.039, 1180.848 941.881 C 1180.589 932.226, 1180.148 928.708, 1179.117 928.072 C 1178.027 927.398, 1178.318 926.719, 1180.497 924.859 C 1185.882 920.262, 1187.667 911.667, 1184 908 C 1181.195 905.195, 1177.736 905.510, 1174.106 908.901 M 876.750 946.758 C 870.625 950.556, 879.154 963.877, 885.577 960.545 C 888.226 959.170, 891.765 959.737, 894.467 961.969 C 895.035 962.438, 897.525 963.614, 900 964.582 C 902.475 965.550, 906.300 967.553, 908.500 969.032 C 910.700 970.511, 916.775 973.677, 922 976.068 C 937.357 983.095, 937.720 983.416, 945.500 996.895 C 952.021 1008.192, 952.852 1009.197, 957.645 1011.577 C 960.475 1012.983, 964.259 1015.215, 966.053 1016.539 C 969.531 1019.105, 980.853 1023.678, 985 1024.191 C 992.310 1025.095, 987.308 1017.746, 977.500 1013.170 C 976.400 1012.657, 972.531 1010.833, 968.903 1009.118 C 965.275 1007.403, 961.942 1006, 961.498 1006 C 958.685 1006, 953.497 999.958, 949.532 992.064 C 944.163 981.374, 940.706 977.764, 932.102 973.867 C 928.471 972.222, 924.649 970.411, 923.610 969.842 C 912.797 963.926, 893.851 955, 892.107 955 C 890.503 955, 889.473 953.982, 888.346 951.285 C 885.708 944.971, 881.979 943.516, 876.750 946.758 M 888.571 971.571 C 883.430 976.713, 891.238 989.321, 898 986.796 C 906.702 983.546, 926.539 996.810, 933.370 1010.444 C 936.932 1017.555, 941.127 1021.734, 948.103 1025.120 C 967.264 1034.420, 973.274 1037.732, 974.196 1039.500 C 978.017 1046.822, 986.060 1050.638, 987.370 1045.750 C 990.253 1034.993, 987.230 1030, 977.837 1030 C 974.691 1030, 971.871 1029.600, 971.568 1029.111 C 971.266 1028.622, 969.835 1027.924, 968.387 1027.561 C 954.723 1024.131, 943.359 1015.879, 936.352 1004.298 C 930.202 994.133, 925.124 988.987, 919.555 987.278 C 912.846 985.219, 902.881 978.912, 900.822 975.422 C 899.456 973.108, 897.678 971.727, 895.165 971.029 C 890.443 969.717, 890.424 969.719, 888.571 971.571 M 475.481 982.869 C 460.713 989.578, 452.567 1010.803, 459.255 1025.148 C 476.192 1061.473, 529.699 1040.356, 517.378 1002.209 C 512.188 986.138, 490.413 976.087, 475.481 982.869 M 1504.815 982.344 C 1487.517 988.803, 1479.520 1008.717, 1487.385 1025.747 C 1501.698 1056.736, 1545.343 1046.031, 1545.474 1011.500 C 1545.550 991.268, 1523.418 975.398, 1504.815 982.344 M 1177.041 987.619 C 1169.308 994.126, 1169.354 1002.545, 1177.133 1004.497 C 1185.438 1006.582, 1192.549 990.404, 1185.035 986.518 C 1181.135 984.501, 1180.670 984.565, 1177.041 987.619 M 816.048 990.153 C 810.644 999.016, 816.930 1008.013, 825.992 1004.386 C 831.571 1002.154, 832.641 999.857, 830.248 995.247 C 826.259 987.560, 819.178 985.019, 816.048 990.153 M 941.698 1041.679 C 939.907 1044.577, 930.356 1048.020, 927.180 1046.913 C 919.926 1044.384, 916.302 1054.339, 922.549 1059.634 C 929.486 1065.514, 931.222 1065.236, 933.967 1057.805 C 936.031 1052.215, 944.661 1046.698, 949.949 1047.586 C 958.916 1049.092, 972.102 1056.978, 975.625 1062.942 C 980.429 1071.075, 988 1069.302, 988 1060.044 C 988 1053.548, 986.009 1051.942, 976.777 1050.988 C 970.996 1050.391, 967.892 1049.369, 961.678 1046.017 C 953.844 1041.791, 943.074 1039.453, 941.698 1041.679 M 502.096 1060.204 C 495.269 1063.885, 493.576 1077.130, 496.945 1100.500 C 498.730 1112.885, 498.588 1112.710, 507.232 1113.147 C 539.888 1114.796, 552.842 1153.248, 528.773 1177.087 L 522.046 1183.749 526.890 1195.625 C 532.937 1210.447, 538.121 1221.720, 542.040 1228.570 L 545.065 1233.857 549.580 1232.318 C 561.930 1228.110, 581.072 1234.919, 588.824 1246.278 C 598.229 1260.059, 598.230 1270.498, 588.827 1289.674 L 585.800 1295.849 589.079 1300.674 C 607.830 1328.273, 619.022 1335.837, 629.681 1328.116 C 640.135 1320.543, 641.897 1306.722, 636.513 1274.500 C 630.328 1237.481, 622.328 1222.883, 602.155 1211.803 C 579.159 1199.173, 570.111 1179.773, 576.987 1157.839 C 582.360 1140.698, 577.154 1125.025, 557.149 1098.118 C 536.481 1070.319, 513.146 1054.248, 502.096 1060.204 M 944.559 1062.198 C 941.958 1068.383, 951.188 1080.094, 955.022 1075.474 C 957.610 1072.355, 969.684 1077.955, 973.539 1084.062 C 979.675 1093.781, 989.076 1091.870, 987.614 1081.201 C 986.676 1074.354, 981.439 1071.112, 975.610 1073.768 C 972.606 1075.137, 959.868 1069.099, 956.712 1064.811 C 952.163 1058.630, 946.565 1057.426, 944.559 1062.198 M 1488.675 1060.052 C 1478.163 1062.658, 1461.490 1077.472, 1445.714 1098.224 C 1426.320 1123.733, 1422.720 1135.515, 1426.446 1161.274 C 1430.473 1189.110, 1424.110 1199.532, 1393.346 1215.495 C 1369.590 1227.822, 1353.216 1309.134, 1370.993 1326.494 C 1381.385 1336.641, 1393.592 1329.822, 1411.454 1303.891 C 1417.850 1294.607, 1417.816 1294.759, 1414.449 1290.344 C 1393.667 1263.097, 1421.115 1222.654, 1454.190 1231.787 C 1458.990 1233.112, 1459.315 1232.716, 1466.752 1216.500 C 1482.902 1181.285, 1482.434 1182.930, 1477.239 1179.651 C 1450.346 1162.674, 1462.583 1113.075, 1493.687 1112.986 C 1500.667 1112.967, 1502.997 1112.130, 1503.020 1109.633 C 1503.031 1108.460, 1504.380 1100.750, 1506.016 1092.500 C 1511.228 1066.233, 1505.672 1055.838, 1488.675 1060.052 M 1022.500 1071.208 C 1016.151 1074.849, 1015.265 1088.657, 1021.307 1089.821 C 1024.742 1090.482, 1031.771 1083.783, 1033.454 1078.243 C 1034.897 1073.493, 1027.170 1068.530, 1022.500 1071.208 M 933.257 1162.511 C 912.956 1172.814, 919.482 1194.279, 944.229 1198.599 C 958.030 1201.008, 961.002 1204.152, 955.077 1210.077 C 949.639 1215.515, 938.456 1213.774, 934.973 1206.947 C 932.153 1201.419, 916.919 1199.955, 918.605 1205.374 C 922.930 1219.270, 929.065 1223.395, 945.500 1223.458 C 958.688 1223.508, 962.460 1222.009, 968.245 1214.415 C 977.699 1202.007, 971.699 1192.644, 950 1185.944 C 934.531 1181.168, 931.867 1178.610, 937.635 1174.073 C 942.713 1170.078, 949.837 1171.790, 955.665 1178.407 C 962.149 1185.769, 971.159 1183.072, 967.985 1174.718 C 963.055 1161.745, 946.341 1155.870, 933.257 1162.511 M 997.882 1161.315 C 959.873 1175.590, 975.303 1229.253, 1015.613 1222.982 L 1024.062 1221.668 1027.329 1224.834 C 1029.125 1226.575, 1031.111 1228, 1031.741 1228 C 1035.675 1228, 1037.721 1216.681, 1034 1215.500 C 1031.499 1214.706, 1031.508 1214.373, 1034.189 1208.938 C 1046.913 1183.136, 1023.066 1151.856, 997.882 1161.315 M 1047.509 1162 C 1046.340 1163.882, 1047.386 1222.211, 1048.597 1222.676 C 1049.339 1222.960, 1059.296 1222.812, 1070.723 1222.347 L 1091.500 1221.500 1091.500 1216.500 L 1091.500 1211.500 1076.250 1211.224 L 1061 1210.948 1061 1187.033 C 1061 1168.999, 1060.693 1162.919, 1059.750 1162.309 C 1058.402 1161.437, 1048.021 1161.175, 1047.509 1162 M 1002.263 1173.955 C 991.002 1179.100, 987.691 1196.884, 996.191 1206.564 C 1003.242 1214.596, 1012.511 1215.634, 1009.884 1208.097 C 1007.376 1200.902, 1012.314 1197.313, 1018.273 1202 C 1021.504 1204.542, 1021.547 1204.535, 1022.838 1201.250 C 1029.296 1184.817, 1016.280 1167.550, 1002.263 1173.955 M 691.999 1193.833 C 690.603 1194.299, 690.748 1199.348, 692.200 1200.800 C 694.121 1202.721, 890.323 1202.520, 891.921 1200.596 C 893.290 1198.946, 892.321 1193.981, 890.642 1194.040 C 890.014 1194.062, 845.287 1193.949, 791.249 1193.790 C 737.211 1193.630, 692.549 1193.650, 691.999 1193.833 M 1188 1193.990 L 1113.500 1194.500 1113.170 1197.391 C 1112.640 1202.036, 1111.178 1201.969, 1213 1201.971 C 1314.476 1201.973, 1314.557 1201.970, 1315.534 1198.892 C 1317.403 1193.006, 1317.271 1192.978, 1288.683 1193.240 C 1274.282 1193.373, 1228.975 1193.710, 1188 1193.990 M 843.500 1259.336 C 821.732 1266.511, 825.993 1289.081, 850.045 1294.009 C 862.817 1296.626, 867.884 1300.611, 865.086 1305.840 C 861.665 1312.231, 843.302 1310.033, 840.828 1302.936 C 839.947 1300.409, 839.261 1299.979, 835.902 1299.850 C 833.756 1299.767, 831.444 1299.655, 830.764 1299.600 C 827.175 1299.310, 829.095 1308.993, 833.619 1314 C 843.707 1325.166, 871.374 1322.682, 877.750 1310.038 C 884.262 1297.125, 878.221 1288.334, 859.498 1283.480 C 845.209 1279.775, 840.273 1275.670, 844.496 1271.004 C 848.360 1266.734, 860.807 1268.705, 862.970 1273.929 C 864.436 1277.467, 866.584 1278.254, 873.566 1277.812 C 879.479 1277.438, 879.799 1275.500, 875.186 1268 C 869.968 1259.516, 855.201 1255.479, 843.500 1259.336 M 888.235 1288.732 L 888.500 1318.500 912.303 1318.768 L 936.106 1319.036 935.803 1313.768 L 935.500 1308.500 918.750 1308.226 L 902 1307.952 902 1300.976 L 902 1294 917.399 1294 L 932.799 1294 933.155 1289.517 C 933.692 1282.764, 934.265 1283, 917.369 1283 L 901.905 1283 902.202 1276.750 L 902.500 1270.500 918.500 1270 L 934.500 1269.500 934.500 1264.500 L 934.500 1259.500 911.235 1259.232 L 887.970 1258.963 888.235 1288.732 M 945.750 1259.558 C 945.337 1259.985, 945 1273.554, 945 1289.712 L 945 1319.091 951.750 1318.796 L 958.500 1318.500 958.457 1307.250 L 958.414 1296 964.957 1296.011 C 979.642 1296.036, 980.964 1297.228, 981.010 1310.500 C 981.037 1318.290, 988.621 1322.943, 994.932 1319.042 C 997.605 1317.390, 995.344 1299.708, 991.908 1295.385 C 988.242 1290.771, 988.247 1290.717, 992.733 1286.606 C 999.166 1280.711, 997.118 1266.600, 989.061 1261.297 C 986.299 1259.479, 947.340 1257.915, 945.750 1259.558 M 1001.013 1259.750 C 1001.042 1261.433, 1005.192 1273.538, 1011.726 1291 C 1015.534 1301.175, 1019.242 1311.656, 1019.966 1314.291 L 1021.283 1319.082 1028.371 1318.791 L 1035.460 1318.500 1038.120 1312.944 C 1039.583 1309.888, 1043.727 1298.787, 1047.329 1288.274 C 1050.931 1277.761, 1054.842 1267.270, 1056.020 1264.961 C 1058.766 1259.579, 1057.931 1258.829, 1049.616 1259.201 L 1042.930 1259.500 1038.954 1271.377 C 1036.767 1277.910, 1034.065 1286.910, 1032.950 1291.377 C 1030.119 1302.717, 1030.063 1302.852, 1028.993 1300.947 C 1027.630 1298.519, 1022.463 1282.520, 1019.484 1271.500 C 1017.998 1266, 1016.325 1260.938, 1015.768 1260.250 C 1014.672 1258.897, 1000.990 1258.434, 1001.013 1259.750 M 1064.644 1265.128 C 1063.818 1273.032, 1063.803 1311.767, 1064.625 1315.875 L 1065.250 1319 1089.125 1319 L 1113 1319 1113 1314.700 C 1113 1308.134, 1112.626 1308, 1094.300 1308 L 1078 1308 1078 1301 C 1078 1297.150, 1078.338 1293.977, 1078.750 1293.948 C 1079.162 1293.920, 1085.800 1293.807, 1093.500 1293.698 L 1107.500 1293.500 1107.500 1288.500 L 1107.500 1283.500 1092.750 1283.223 L 1078 1282.947 1078 1276.473 L 1078 1270 1094.552 1270 L 1111.105 1270 1110.802 1264.750 L 1110.500 1259.500 1087.894 1259.232 L 1065.289 1258.963 1064.644 1265.128 M 1120.513 1260.105 C 1120.213 1260.886, 1120.088 1274.345, 1120.234 1290.013 L 1120.500 1318.500 1125.970 1319.168 C 1134.682 1320.231, 1135 1319.796, 1135 1306.822 L 1135 1295.714 1142.750 1296.267 C 1154.737 1297.123, 1156.176 1298.528, 1158.164 1311.315 L 1159.332 1318.829 1164.416 1319.226 C 1170.982 1319.738, 1172.282 1319.259, 1171.608 1316.574 C 1171.310 1315.388, 1170.586 1310.170, 1169.997 1304.976 C 1169.109 1297.137, 1168.507 1295.095, 1166.448 1292.946 L 1163.969 1290.358 1166.962 1287.691 C 1173.617 1281.761, 1171.611 1265.019, 1163.792 1261.240 C 1159.675 1259.250, 1121.228 1258.242, 1120.513 1260.105 M 959 1277.861 L 959 1285.722 969.250 1285.244 C 980.901 1284.702, 980.964 1284.657, 980.985 1276.857 C 981.003 1270.010, 980.984 1270, 968.418 1270 L 959 1270 959 1277.861 M 1134 1277.392 C 1134 1286.172, 1133.976 1286.157, 1146.728 1285.133 C 1165.464 1283.628, 1162.616 1270, 1143.566 1270 L 1134 1270 1134 1277.392 M 640.718 1344.041 C 605.102 1352.907, 611.359 1405.664, 648 1405.451 C 676.079 1405.287, 689.635 1376.101, 672.242 1353.257 C 666.655 1345.919, 651.256 1341.417, 640.718 1344.041 M 1344.079 1344.591 C 1306.640 1358.136, 1324.897 1414.987, 1363.343 1404.580 C 1391.552 1396.944, 1394.282 1358.688, 1367.500 1346.343 C 1360.094 1342.929, 1350.630 1342.221, 1344.079 1344.591 M 709.301 1385.913 C 685.194 1394.131, 686.676 1410.399, 713.261 1429.365 C 723.917 1436.968, 723.715 1436.943, 732.190 1431.661 C 761.859 1413.169, 805.634 1445.941, 787.750 1473.257 C 786.788 1474.727, 786 1476.285, 786 1476.720 C 786 1478.946, 830.750 1499.071, 835.415 1498.943 C 836.698 1498.908, 838.935 1497.002, 841.230 1493.988 C 861.340 1467.580, 905 1483.302, 905 1516.951 C 905 1523.152, 939.467 1528.061, 947.710 1523.035 C 962.681 1513.907, 952.537 1489.730, 924.116 1466.803 C 900.532 1447.777, 886.999 1442.983, 867.790 1446.849 C 841.235 1452.194, 826.593 1445.398, 813.916 1421.844 C 808.096 1411.031, 803.627 1406.234, 794.334 1400.824 C 773.225 1388.536, 725.932 1380.243, 709.301 1385.913 M 1253.085 1386.527 C 1224.440 1390.875, 1195.699 1404.537, 1192.414 1415.366 C 1184.610 1441.093, 1163.960 1452.153, 1133.174 1447.094 C 1113.356 1443.838, 1102.382 1448.057, 1075.875 1469.123 C 1054.410 1486.182, 1046.936 1499.454, 1050.098 1514.897 C 1052.281 1525.559, 1060.264 1527.435, 1086.064 1523.346 L 1096.628 1521.672 1096.857 1517.586 C 1098.517 1487.866, 1129.446 1471.033, 1153.552 1486.731 C 1156.331 1488.540, 1160.302 1492.246, 1162.377 1494.967 L 1166.148 1499.912 1171.324 1497.893 C 1174.171 1496.782, 1180.325 1494.148, 1185 1492.039 C 1197.674 1486.323, 1212.856 1480, 1213.907 1480 C 1215.553 1480, 1215.627 1477.837, 1214.209 1471.102 C 1206.641 1435.147, 1243.206 1412.328, 1274.433 1433.519 C 1279.782 1437.149, 1281.289 1436.487, 1296.714 1423.746 C 1326.652 1399.016, 1303.109 1378.932, 1253.085 1386.527 M 989.215 1503.202 C 970.637 1509.466, 964.879 1540.695, 979.589 1555.412 C 998.935 1574.767, 1032.476 1560.553, 1032.476 1533 C 1032.476 1511.067, 1010.592 1495.993, 989.215 1503.202" stroke="none" fill="#07a7b8" fill-rule="evenodd"/></svg>