<svg xmlns="http://www.w3.org/2000/svg" width="2000" height="2000" viewBox="0 0 2000 2000" version="1.1"><path d="M 783.500 312.631 C 781.300 312.864, 776.350 313.741, 772.500 314.581 C 768.650 315.421, 762.299 317.682, 758.386 319.606 C 754.473 321.530, 748.638 325.226, 745.420 327.818 C 742.201 330.411, 737.196 335.450, 734.296 339.016 C 731.396 342.582, 727.252 349.100, 725.086 353.500 C 722.920 357.900, 720.118 365.100, 718.860 369.500 C 717.128 375.553, 716.571 380.055, 716.571 388 C 716.571 395.148, 717.156 400.575, 718.404 405 C 719.412 408.575, 722.174 415.550, 724.542 420.500 C 726.910 425.450, 731.369 432.541, 734.452 436.257 C 737.534 439.974, 742.631 445.060, 745.778 447.559 C 748.925 450.058, 755.100 453.843, 759.500 455.969 C 763.900 458.096, 769.750 460.623, 772.500 461.586 C 776.454 462.971, 782.624 463.488, 802 464.058 C 815.475 464.455, 828.750 465.295, 831.500 465.925 C 834.250 466.555, 839.650 468.247, 843.500 469.684 C 847.350 471.122, 852.975 473.540, 856 475.058 C 859.025 476.577, 864.699 480.077, 868.609 482.836 C 872.519 485.596, 878.604 490.699, 882.131 494.177 C 885.659 497.655, 891.148 504.414, 894.330 509.197 C 897.511 513.981, 901.675 521.766, 903.583 526.497 C 905.491 531.229, 907.779 538.115, 908.667 541.800 C 909.703 546.100, 910.318 553.337, 910.383 562 C 910.439 569.425, 910.086 580.702, 909.599 587.060 C 908.975 595.222, 909.074 601.101, 909.938 607.060 C 910.693 612.265, 912.635 619.037, 915.006 624.728 C 917.120 629.803, 921.215 637.378, 924.107 641.560 C 926.998 645.742, 932.836 652.390, 937.080 656.332 C 941.324 660.274, 948.398 665.642, 952.801 668.260 C 957.203 670.878, 962.761 673.720, 965.152 674.576 C 967.543 675.432, 974.418 677.252, 980.429 678.620 C 987.234 680.169, 994.591 681.130, 999.929 681.166 C 1004.643 681.198, 1011.425 680.690, 1015 680.036 C 1018.575 679.383, 1024.793 677.972, 1028.819 676.901 C 1032.844 675.830, 1039.624 673.200, 1043.887 671.057 C 1048.149 668.914, 1053.856 665.497, 1056.568 663.464 C 1059.281 661.431, 1063.905 657.458, 1066.845 654.634 C 1069.785 651.810, 1074.399 646.255, 1077.099 642.289 C 1079.799 638.323, 1083.541 631.573, 1085.415 627.289 C 1087.288 623.005, 1089.286 617.700, 1089.854 615.500 C 1090.422 613.300, 1091.365 607.103, 1091.950 601.728 C 1092.720 594.659, 1092.701 589.308, 1091.884 582.377 C 1091.263 577.109, 1090.966 566.431, 1091.224 558.649 C 1091.644 545.994, 1092.037 543.497, 1094.947 535 C 1096.737 529.775, 1099.451 522.976, 1100.980 519.891 C 1102.508 516.806, 1105.443 511.631, 1107.503 508.391 C 1109.562 505.151, 1115.138 498.675, 1119.895 494 C 1124.652 489.325, 1131.808 483.307, 1135.798 480.626 C 1139.788 477.945, 1147.037 474.034, 1151.907 471.934 C 1156.778 469.834, 1163.628 467.347, 1167.131 466.407 C 1171.900 465.127, 1179.782 464.529, 1198.500 464.029 C 1223.500 463.360, 1223.500 463.360, 1234 459.146 C 1239.775 456.827, 1246.969 453.259, 1249.987 451.215 C 1253.005 449.172, 1257.214 445.944, 1259.339 444.041 C 1261.465 442.139, 1265.119 438.089, 1267.459 435.041 C 1269.800 431.994, 1273.104 427.025, 1274.802 424 C 1276.499 420.975, 1279.231 414.450, 1280.873 409.500 C 1282.545 404.458, 1284.158 396.967, 1284.539 392.465 C 1284.940 387.743, 1284.751 381.402, 1284.081 377.085 C 1283.454 373.045, 1281.484 365.861, 1279.703 361.120 C 1277.922 356.379, 1274.271 349.232, 1271.591 345.238 C 1268.911 341.244, 1263.721 335.169, 1260.057 331.738 C 1256.394 328.307, 1250.495 323.801, 1246.949 321.724 C 1243.402 319.646, 1237.575 317.032, 1234 315.914 C 1230.425 314.796, 1223.675 313.422, 1219 312.862 C 1214.325 312.302, 1206.675 312.136, 1202 312.493 C 1197.325 312.850, 1190.800 313.770, 1187.500 314.537 C 1184.200 315.303, 1177.688 317.818, 1173.028 320.124 C 1166.220 323.493, 1162.768 326.102, 1155.450 333.408 C 1149.661 339.187, 1144.869 345.095, 1142.295 349.623 C 1140.069 353.541, 1137.303 359.616, 1136.148 363.123 C 1134.994 366.630, 1133.370 372.425, 1132.540 376 C 1131.600 380.043, 1131.018 387.603, 1130.999 396 C 1130.978 405.523, 1130.386 412.260, 1128.991 418.870 C 1127.793 424.547, 1125.265 431.932, 1122.578 437.604 C 1120.138 442.754, 1115.788 450.372, 1112.911 454.534 C 1110.034 458.696, 1104.335 465.226, 1100.245 469.045 C 1095.868 473.133, 1090.278 477.191, 1086.655 478.912 C 1083.270 480.520, 1077.653 482.789, 1074.172 483.955 C 1070.692 485.120, 1060.265 487.602, 1051.002 489.471 C 1041.739 491.340, 1027.711 493.405, 1019.830 494.060 C 1011.249 494.773, 999.883 494.985, 991.500 494.588 C 983.800 494.223, 972.856 493.243, 967.179 492.411 C 961.503 491.578, 951.347 489.819, 944.611 488.502 C 937.875 487.185, 929.694 485.134, 926.432 483.944 C 923.169 482.755, 918.133 480.650, 915.239 479.268 C 912.346 477.886, 906.839 473.848, 903.003 470.296 C 899.166 466.744, 893.407 460.361, 890.205 456.112 C 887.004 451.863, 882.056 443.855, 879.211 438.317 C 876.366 432.778, 873.331 425.604, 872.465 422.373 C 871.526 418.867, 870.519 408.640, 869.965 397 C 869.316 383.349, 868.446 375.244, 867.065 369.979 C 865.980 365.842, 863.924 359.815, 862.495 356.585 C 861.067 353.355, 858.509 348.639, 856.811 346.106 C 855.114 343.573, 850.974 338.650, 847.612 335.166 C 844.251 331.682, 839.637 327.532, 837.360 325.944 C 835.083 324.355, 830.064 321.471, 826.207 319.536 C 822.350 317.600, 816.338 315.354, 812.847 314.545 C 809.356 313.736, 802.225 312.879, 797 312.641 C 791.775 312.402, 785.700 312.398, 783.500 312.631 M 781.500 520.446 C 778.750 521.147, 773.430 523.130, 769.677 524.852 C 765.925 526.573, 760.179 530.083, 756.909 532.652 C 753.640 535.221, 748.550 540.513, 745.599 544.411 C 742.648 548.310, 739.786 552.400, 739.238 553.500 C 738.691 554.600, 736.569 560.450, 734.524 566.500 C 732.479 572.550, 729.631 579.678, 728.195 582.339 C 726.759 585.001, 723.273 589.291, 720.448 591.873 C 717.623 594.455, 711.798 598.352, 707.503 600.534 C 700.194 604.246, 699.050 604.523, 689.597 604.852 C 683.901 605.051, 677.103 604.672, 674 603.983 C 670.975 603.311, 665.125 601.423, 661 599.786 C 653.954 596.991, 652.834 596.834, 642.500 597.203 C 632.551 597.559, 630.927 597.894, 625.500 600.708 C 622.200 602.420, 617.581 605.476, 615.236 607.500 C 612.891 609.523, 609.647 613.107, 608.026 615.463 C 606.404 617.819, 603.906 622.841, 602.474 626.623 C 601.042 630.406, 599.619 636.425, 599.312 640 C 598.809 645.863, 599.200 647.823, 603.299 660 C 605.799 667.425, 608.366 676.407, 609.004 679.960 C 609.642 683.513, 609.872 688.463, 609.516 690.960 C 609.159 693.457, 607.946 698.650, 606.821 702.500 C 605.696 706.350, 603.911 711.199, 602.854 713.275 C 601.798 715.352, 598.136 719.866, 594.717 723.306 C 591.298 726.747, 585.750 731.003, 582.389 732.765 C 579.029 734.527, 573.517 736.828, 570.141 737.879 C 566.766 738.930, 561.640 741.295, 558.752 743.135 C 555.863 744.976, 551.522 748.286, 549.105 750.491 C 546.688 752.696, 543.037 756.760, 540.991 759.523 C 538.946 762.286, 536.363 766.336, 535.251 768.523 C 534.140 770.710, 532.279 775.904, 531.115 780.064 C 529.545 785.678, 529.003 790.447, 529.013 798.564 C 529.025 807.978, 529.422 810.637, 531.870 817.667 C 533.433 822.159, 535.975 828.009, 537.518 830.667 C 539.061 833.325, 543.963 839.151, 548.412 843.612 C 552.860 848.074, 558.516 852.749, 560.981 854 C 563.445 855.252, 568.461 857.296, 572.126 858.543 C 575.792 859.790, 582.101 861.119, 586.146 861.497 C 590.488 861.902, 596.162 861.717, 600 861.045 C 603.575 860.419, 609.957 858.776, 614.183 857.393 C 618.408 856.011, 624.627 853.026, 628.002 850.760 C 631.378 848.493, 636.115 844.442, 638.529 841.757 C 640.943 839.072, 644.730 834.161, 646.945 830.845 C 649.160 827.528, 652.080 821.307, 653.434 817.020 C 654.788 812.733, 656.191 805.912, 656.551 801.863 C 656.940 797.484, 656.724 791.865, 656.018 788 C 655.365 784.425, 653.972 779.049, 652.922 776.053 C 651.872 773.058, 647.889 765.858, 644.072 760.053 C 639.277 752.763, 636.591 747.490, 635.385 743 C 634.380 739.257, 633.635 732.895, 633.628 728 C 633.619 722.014, 634.273 717.366, 635.839 712.287 C 637.117 708.142, 640.143 701.964, 642.952 697.763 C 645.682 693.682, 649.754 689.113, 652.171 687.421 C 654.552 685.754, 660.149 682.772, 664.609 680.796 C 669.069 678.820, 674.538 676.054, 676.762 674.651 C 679.566 672.880, 681.575 670.474, 683.317 666.799 C 684.699 663.885, 687.402 658.113, 689.322 653.973 C 691.681 648.890, 694.392 644.972, 697.672 641.903 C 700.344 639.405, 704.665 636.109, 707.275 634.579 C 709.885 633.050, 714.153 631.154, 716.760 630.366 C 719.640 629.496, 725.816 628.935, 732.500 628.937 C 739.431 628.939, 745.350 629.499, 748.500 630.451 C 751.250 631.282, 757.325 634.273, 762 637.097 C 766.675 639.920, 772.300 643.040, 774.500 644.030 C 776.700 645.019, 782.574 646.316, 787.554 646.911 C 793.915 647.671, 799.071 647.684, 804.894 646.954 C 809.451 646.383, 815.180 645.236, 817.624 644.406 C 820.067 643.577, 824.828 641.280, 828.203 639.302 C 831.578 637.324, 837.557 632.509, 841.489 628.603 C 845.557 624.561, 850.220 618.637, 852.309 614.856 C 854.328 611.201, 856.881 604.451, 857.983 599.856 C 859.178 594.872, 859.989 588.033, 859.993 582.910 C 859.997 577.607, 859.244 571.364, 858.025 566.596 C 856.938 562.348, 854.598 556.088, 852.823 552.686 C 850.764 548.736, 846.508 543.421, 841.049 537.982 C 835.172 532.126, 830.283 528.305, 825.408 525.760 C 821.507 523.723, 815.675 521.369, 812.448 520.528 C 808.908 519.606, 802.596 519.034, 796.540 519.085 C 791.018 519.132, 784.250 519.744, 781.500 520.446 M 1189.500 520.414 C 1186.750 521.098, 1180.856 523.506, 1176.402 525.764 C 1171.948 528.022, 1165.757 532.197, 1162.644 535.043 C 1159.530 537.888, 1154.579 543.880, 1151.640 548.358 C 1148.702 552.836, 1145.603 558.303, 1144.754 560.507 C 1143.905 562.711, 1142.673 568.058, 1142.017 572.388 C 1141.322 576.975, 1141.103 583.234, 1141.494 587.381 C 1141.863 591.297, 1142.819 597.411, 1143.619 600.969 C 1144.418 604.527, 1146.704 610.377, 1148.698 613.969 C 1150.845 617.836, 1155.623 623.782, 1160.412 628.547 C 1165.892 633.999, 1170.787 637.779, 1175.592 640.268 C 1179.493 642.290, 1185.343 644.658, 1188.592 645.531 C 1192.122 646.480, 1198.726 647.141, 1205 647.173 C 1211.800 647.209, 1217.761 646.634, 1221.915 645.544 C 1225.581 644.581, 1233.079 641.118, 1239.415 637.460 C 1246.149 633.571, 1252.646 630.604, 1255.969 629.900 C 1259.237 629.207, 1265.958 628.940, 1272.670 629.236 C 1282.899 629.687, 1284.560 630.044, 1291.267 633.229 C 1295.855 635.408, 1300.562 638.657, 1303.754 641.849 C 1307.057 645.152, 1310.180 649.731, 1312.545 654.736 C 1314.562 659.006, 1316.786 663.584, 1317.487 664.908 C 1318.189 666.232, 1320.275 669.205, 1322.123 671.514 C 1324.582 674.584, 1327.501 676.602, 1332.992 679.029 C 1337.122 680.854, 1342.425 683.225, 1344.777 684.297 C 1347.135 685.371, 1351.477 688.923, 1354.451 692.209 C 1357.419 695.489, 1361.027 700.663, 1362.468 703.707 C 1363.909 706.750, 1365.777 711.774, 1366.619 714.870 C 1367.460 717.967, 1368.140 724.350, 1368.128 729.056 C 1368.116 734.301, 1367.468 739.525, 1366.455 742.556 C 1365.545 745.275, 1364.075 749.075, 1363.188 751 C 1362.301 752.925, 1358.895 758.529, 1355.619 763.454 C 1352.343 768.379, 1348.772 775.129, 1347.684 778.454 C 1346.173 783.069, 1345.680 787.460, 1345.602 797 C 1345.524 806.558, 1345.935 810.911, 1347.349 815.496 C 1348.366 818.793, 1350.993 824.564, 1353.186 828.319 C 1355.380 832.075, 1360.016 838.152, 1363.489 841.824 C 1366.963 845.496, 1372.217 849.952, 1375.164 851.728 C 1378.112 853.503, 1383.893 856.192, 1388.012 857.704 C 1394.852 860.214, 1396.712 860.452, 1409.500 860.452 C 1422.218 860.452, 1424.171 860.206, 1430.827 857.760 C 1434.857 856.279, 1439.807 854.067, 1441.827 852.842 C 1443.847 851.618, 1447.406 849.079, 1449.736 847.199 C 1452.066 845.319, 1456.215 840.757, 1458.955 837.061 C 1461.695 833.365, 1465.519 827.001, 1467.453 822.920 C 1469.387 818.839, 1471.426 813.076, 1471.985 810.114 C 1472.543 807.151, 1473 801.250, 1473 797 C 1473 792.750, 1472.544 786.870, 1471.987 783.933 C 1471.430 780.997, 1469.220 774.968, 1467.075 770.537 C 1464.638 765.501, 1460.873 759.968, 1457.033 755.777 C 1453.650 752.086, 1447.596 747.020, 1443.557 744.503 C 1439.524 741.989, 1433.096 738.908, 1429.273 737.656 C 1425.451 736.404, 1420.207 734.140, 1417.622 732.624 C 1415.036 731.109, 1411.335 728.477, 1409.398 726.776 C 1407.460 725.075, 1403.804 720.781, 1401.274 717.235 C 1398.395 713.201, 1395.968 708.300, 1394.791 704.143 C 1393.757 700.490, 1392.669 693.675, 1392.375 689 C 1391.931 681.953, 1392.259 678.961, 1394.292 671.500 C 1395.641 666.550, 1397.918 659.350, 1399.352 655.500 C 1401.258 650.380, 1401.963 646.563, 1401.979 641.288 C 1401.993 636.393, 1401.333 632.293, 1399.925 628.530 C 1398.784 625.480, 1396.755 621.024, 1395.416 618.628 C 1394.077 616.233, 1390.583 612.004, 1387.652 609.232 C 1384.720 606.460, 1379.437 602.712, 1375.911 600.903 C 1370.199 597.973, 1368.405 597.570, 1359.455 597.202 C 1350.474 596.832, 1348.620 597.072, 1341.955 599.468 C 1337.855 600.941, 1332.250 602.784, 1329.500 603.562 C 1326.750 604.340, 1320.323 604.982, 1315.218 604.988 C 1308.457 604.997, 1304.271 604.439, 1299.801 602.933 C 1296.427 601.796, 1291.604 599.481, 1289.083 597.788 C 1286.562 596.095, 1282.995 593.313, 1281.155 591.605 C 1279.315 589.897, 1276.432 586.517, 1274.748 584.093 C 1273.065 581.669, 1269.508 573.834, 1266.844 566.681 C 1264.180 559.529, 1260.824 551.668, 1259.385 549.214 C 1257.947 546.759, 1255.153 542.961, 1253.176 540.773 C 1251.200 538.586, 1246.967 534.783, 1243.770 532.323 C 1240.573 529.863, 1234.704 526.359, 1230.728 524.538 C 1226.753 522.716, 1221.115 520.725, 1218.201 520.113 C 1215.286 519.501, 1208.761 519.038, 1203.701 519.085 C 1198.640 519.132, 1192.250 519.730, 1189.500 520.414 M 379.358 720.493 C 375.980 721.265, 370.355 723.057, 366.858 724.476 C 363.361 725.896, 358.031 728.694, 355.013 730.696 C 351.995 732.698, 347.103 736.622, 344.142 739.418 C 341.181 742.213, 336.841 747.200, 334.499 750.500 C 332.156 753.800, 329.016 758.935, 327.521 761.911 C 326.026 764.887, 323.768 771.412, 322.503 776.411 C 321.238 781.410, 319.896 788.425, 319.521 792 C 319.011 796.865, 319.375 801.111, 320.966 808.883 C 322.135 814.594, 324.134 821.831, 325.408 824.965 C 326.681 828.099, 329.396 833.279, 331.441 836.476 C 333.487 839.673, 337.486 844.753, 340.330 847.765 C 343.173 850.777, 348.234 855.196, 351.575 857.584 C 354.917 859.972, 361.217 863.449, 365.575 865.310 C 369.934 867.172, 375.907 869.269, 378.849 869.971 C 381.934 870.707, 392.302 871.364, 403.349 871.524 C 417.014 871.722, 424.147 872.255, 428.248 873.387 C 431.409 874.260, 437.526 876.335, 441.840 877.999 C 446.155 879.663, 453.911 883.808, 459.076 887.211 C 464.242 890.614, 471.874 896.796, 476.038 900.949 C 481.146 906.045, 484.769 910.776, 487.180 915.500 C 489.145 919.350, 491.686 925.425, 492.828 929 C 493.969 932.575, 496.514 943.496, 498.483 953.270 C 501.576 968.625, 502.142 973.653, 502.646 990.270 C 502.980 1001.302, 502.757 1015.189, 502.123 1022.845 C 501.515 1030.185, 499.624 1043.010, 497.922 1051.345 C 496.221 1059.680, 493.688 1069.875, 492.294 1074 C 490.900 1078.125, 488.587 1083.975, 487.154 1087 C 485.534 1090.422, 481.707 1095.351, 477.025 1100.048 C 472.886 1104.199, 466.130 1109.792, 462.011 1112.477 C 457.891 1115.161, 450.466 1119.102, 445.511 1121.234 C 440.555 1123.366, 434.025 1125.788, 431 1126.616 C 427.509 1127.572, 417.645 1128.414, 404 1128.923 C 382.585 1129.721, 382.460 1129.739, 372.500 1133.404 C 367 1135.429, 359.497 1138.896, 355.827 1141.111 C 351.994 1143.423, 345.603 1148.832, 340.811 1153.818 C 334.550 1160.335, 331.411 1164.620, 328.225 1171 C 325.891 1175.675, 323.070 1183.100, 321.957 1187.500 C 320.844 1191.900, 319.670 1199.550, 319.349 1204.500 C 318.851 1212.190, 319.151 1215.014, 321.411 1223.901 C 322.866 1229.622, 325.731 1237.665, 327.778 1241.774 C 329.825 1245.883, 333.991 1252.220, 337.035 1255.857 C 340.079 1259.493, 345.254 1264.645, 348.535 1267.304 C 351.816 1269.964, 358.100 1273.871, 362.500 1275.988 C 366.900 1278.104, 372.715 1280.568, 375.421 1281.464 C 378.128 1282.360, 383.735 1283.523, 387.881 1284.048 C 392.808 1284.673, 398.251 1284.652, 403.593 1283.988 C 408.088 1283.430, 414.181 1282.123, 417.133 1281.085 C 420.085 1280.047, 424.750 1278.191, 427.500 1276.961 C 430.250 1275.732, 435.425 1272.817, 439 1270.484 C 442.575 1268.150, 447.246 1264.558, 449.380 1262.500 C 451.514 1260.443, 455.613 1255.480, 458.488 1251.473 C 461.363 1247.465, 465.339 1240.130, 467.323 1235.173 C 469.307 1230.216, 471.393 1223.311, 471.958 1219.830 C 472.523 1216.348, 472.996 1206.975, 473.010 1199 C 473.023 1191.025, 473.467 1180.394, 473.996 1175.376 C 474.579 1169.841, 476.128 1163.078, 477.931 1158.186 C 479.567 1153.750, 482.110 1147.731, 483.582 1144.810 C 485.054 1141.890, 488.239 1136.428, 490.659 1132.672 C 493.080 1128.917, 498.519 1122.475, 502.747 1118.355 C 506.974 1114.236, 513.417 1108.882, 517.063 1106.458 C 520.710 1104.034, 526.350 1100.739, 529.597 1099.135 C 532.843 1097.532, 539.325 1094.946, 544 1093.388 C 552.500 1090.555, 552.500 1090.555, 581.500 1090.508 C 606.177 1090.467, 611.446 1090.195, 616.844 1088.679 C 620.333 1087.699, 627.012 1085.130, 631.686 1082.970 C 636.360 1080.811, 642.955 1077.059, 646.342 1074.634 C 649.729 1072.208, 655.479 1067.127, 659.120 1063.343 C 662.762 1059.559, 667.839 1053.220, 670.403 1049.256 C 672.967 1045.293, 676.863 1037.568, 679.061 1032.090 C 681.776 1025.321, 683.407 1019.305, 684.150 1013.315 C 684.754 1008.449, 684.967 999.868, 684.626 994.160 C 684.286 988.473, 683.299 981.084, 682.433 977.742 C 681.567 974.399, 678.857 967.381, 676.411 962.146 C 673.965 956.912, 669.565 949.450, 666.633 945.565 C 663.702 941.679, 658.873 936.099, 655.902 933.165 C 652.931 930.231, 647.409 925.773, 643.631 923.259 C 639.853 920.745, 632.407 916.979, 627.085 914.889 C 619.683 911.984, 614.791 910.800, 606.272 909.852 C 597.591 908.887, 592.090 908.872, 581.318 909.783 C 569.999 910.740, 565.601 910.695, 557 909.534 C 551.225 908.755, 544.025 907.239, 541 906.165 C 537.975 905.092, 533.336 903.270, 530.691 902.117 C 528.046 900.964, 522.871 898.056, 519.191 895.655 C 515.511 893.254, 509.474 888.495, 505.775 885.079 C 502.077 881.664, 496.265 875.186, 492.861 870.685 C 489.457 866.183, 484.761 858.450, 482.427 853.500 C 480.093 848.550, 477.460 842.326, 476.576 839.669 C 475.692 837.013, 474.535 831.838, 474.004 828.169 C 473.474 824.501, 473.017 814.750, 472.989 806.500 C 472.961 798.250, 472.513 788.228, 471.994 784.228 C 471.474 780.229, 469.664 773.479, 467.971 769.228 C 466.278 764.978, 463.161 758.575, 461.043 755 C 458.926 751.425, 454.224 745.505, 450.594 741.845 C 446.965 738.186, 441.555 733.571, 438.573 731.592 C 435.591 729.613, 430.941 726.883, 428.241 725.527 C 425.540 724.170, 420.668 722.317, 417.415 721.407 C 413.748 720.382, 406.559 719.628, 398.500 719.422 C 389.806 719.200, 383.465 719.555, 379.358 720.493 M 1590.075 720.087 C 1587.642 720.565, 1583.367 721.694, 1580.575 722.597 C 1577.784 723.500, 1572.125 726.062, 1568 728.291 C 1562.862 731.066, 1557.794 735.045, 1551.909 740.921 C 1546.528 746.295, 1541.898 752.060, 1539.517 756.351 C 1537.425 760.120, 1534.453 766.982, 1532.910 771.602 C 1531.368 776.222, 1529.632 783.409, 1529.053 787.573 C 1528.474 791.737, 1528 802.106, 1528 810.615 C 1528 820.725, 1527.460 828.697, 1526.443 833.624 C 1525.586 837.771, 1523.276 844.840, 1521.310 849.332 C 1519.344 853.824, 1515.707 860.650, 1513.228 864.500 C 1510.749 868.350, 1507.096 873.490, 1505.110 875.923 C 1503.125 878.356, 1498.125 883.233, 1494 886.761 C 1489.875 890.289, 1483.790 894.692, 1480.477 896.547 C 1477.164 898.401, 1470.639 901.438, 1465.977 903.296 C 1461.315 905.154, 1455.250 907.310, 1452.500 908.087 C 1448.659 909.172, 1441.699 909.435, 1422.486 909.222 C 1403.865 909.015, 1395.545 909.312, 1389.936 910.385 C 1385.791 911.178, 1378.414 913.434, 1373.542 915.399 C 1368.671 917.363, 1361.718 920.888, 1358.093 923.233 C 1354.467 925.577, 1348.350 930.646, 1344.500 934.498 C 1340.650 938.349, 1335.393 944.650, 1332.818 948.500 C 1330.243 952.350, 1326.987 957.803, 1325.582 960.618 C 1324.177 963.433, 1321.647 969.958, 1319.959 975.118 C 1317.804 981.707, 1316.716 987.351, 1316.305 994.076 C 1315.960 999.717, 1316.224 1007.102, 1316.947 1012.049 C 1317.622 1016.667, 1319.639 1024.337, 1321.430 1029.095 C 1323.220 1033.852, 1326.354 1040.730, 1328.394 1044.377 C 1330.434 1048.025, 1334.740 1054.270, 1337.962 1058.255 C 1341.184 1062.240, 1345.773 1067.101, 1348.160 1069.058 C 1350.547 1071.015, 1354.727 1074.136, 1357.450 1075.994 C 1360.172 1077.851, 1366.922 1081.365, 1372.450 1083.803 C 1378.241 1086.356, 1385.890 1088.841, 1390.500 1089.667 C 1396.691 1090.775, 1403.475 1090.953, 1420.500 1090.453 C 1438.876 1089.913, 1443.782 1090.077, 1450.283 1091.450 C 1454.563 1092.355, 1461.707 1094.630, 1466.157 1096.507 C 1470.607 1098.384, 1477.336 1101.754, 1481.112 1103.997 C 1484.887 1106.240, 1492.046 1111.949, 1497.021 1116.683 C 1502.279 1121.686, 1508.474 1128.895, 1511.813 1133.896 C 1514.974 1138.628, 1519.469 1147.109, 1521.803 1152.743 C 1524.699 1159.734, 1526.514 1166.084, 1527.518 1172.743 C 1528.361 1178.337, 1528.991 1189.626, 1528.994 1199.201 C 1528.997 1208.386, 1529.476 1218.122, 1530.058 1220.836 C 1530.640 1223.550, 1532.410 1229.238, 1533.991 1233.476 C 1535.572 1237.713, 1538.358 1243.686, 1540.183 1246.748 C 1542.007 1249.811, 1545.855 1254.884, 1548.733 1258.023 C 1551.611 1261.162, 1556.336 1265.549, 1559.233 1267.771 C 1562.130 1269.994, 1567.300 1273.227, 1570.723 1274.956 C 1574.145 1276.686, 1580.220 1279.242, 1584.223 1280.638 C 1589.609 1282.516, 1594.366 1283.316, 1602.531 1283.717 C 1609.203 1284.045, 1615.673 1283.807, 1618.904 1283.114 C 1621.842 1282.484, 1627.678 1280.598, 1631.873 1278.922 C 1636.068 1277.247, 1642.770 1273.843, 1646.766 1271.357 C 1650.763 1268.871, 1656.508 1264.402, 1659.532 1261.425 C 1662.557 1258.448, 1667.239 1252.632, 1669.936 1248.501 C 1672.633 1244.370, 1676.001 1237.500, 1677.422 1233.234 C 1678.842 1228.969, 1680.679 1221.957, 1681.502 1217.652 C 1682.326 1213.346, 1683 1208.045, 1683 1205.870 C 1683 1203.695, 1682.285 1198.447, 1681.412 1194.208 C 1680.538 1189.969, 1678.499 1183.060, 1676.880 1178.856 C 1675.261 1174.651, 1672.095 1168.351, 1669.846 1164.856 C 1667.596 1161.360, 1662.513 1155.350, 1658.549 1151.500 C 1654.586 1147.650, 1648.004 1142.601, 1643.922 1140.281 C 1639.840 1137.960, 1632.450 1134.634, 1627.500 1132.888 C 1618.862 1129.843, 1617.636 1129.685, 1597 1128.962 C 1582.239 1128.444, 1573.643 1127.695, 1569.574 1126.571 C 1566.315 1125.670, 1560.047 1123.373, 1555.646 1121.466 C 1551.245 1119.559, 1544.643 1115.966, 1540.974 1113.482 C 1537.305 1110.999, 1531.523 1106.450, 1528.125 1103.375 C 1524.727 1100.300, 1519.995 1095.020, 1517.609 1091.642 C 1515.223 1088.264, 1511.851 1081.779, 1510.116 1077.231 C 1508.380 1072.684, 1505.435 1061.209, 1503.570 1051.731 C 1501.705 1042.254, 1499.689 1029.584, 1499.089 1023.576 C 1498.490 1017.568, 1498 1006.703, 1498 999.432 C 1498 992.161, 1498.468 981.649, 1499.041 976.072 C 1499.613 970.495, 1501.415 959.085, 1503.045 950.716 C 1504.675 942.347, 1507.647 930.840, 1509.650 925.145 C 1511.653 919.450, 1515.057 912.148, 1517.214 908.918 C 1519.370 905.688, 1523.917 900.512, 1527.318 897.416 C 1530.718 894.320, 1536.179 889.995, 1539.454 887.805 C 1542.729 885.615, 1547.904 882.569, 1550.954 881.036 C 1554.004 879.504, 1559.660 877.115, 1563.521 875.729 C 1567.383 874.342, 1574.583 872.712, 1579.521 872.107 C 1584.460 871.501, 1595.043 871.004, 1603.040 871.003 C 1612.839 871.001, 1619.523 870.500, 1623.540 869.467 C 1626.818 868.623, 1634.096 865.698, 1639.713 862.967 C 1647.061 859.394, 1651.787 856.260, 1656.557 851.798 C 1660.204 848.386, 1665.117 842.873, 1667.475 839.547 C 1669.832 836.221, 1672.934 831.163, 1674.368 828.307 C 1675.802 825.452, 1678.147 819.152, 1679.578 814.307 C 1681.522 807.728, 1682.186 803.224, 1682.202 796.500 C 1682.216 790.431, 1681.512 784.747, 1680.038 779.045 C 1678.836 774.394, 1676.718 767.893, 1675.330 764.596 C 1673.943 761.300, 1671.350 756.330, 1669.569 753.552 C 1667.787 750.773, 1663.893 745.833, 1660.915 742.574 C 1657.937 739.315, 1652.210 734.497, 1648.188 731.868 C 1644.166 729.238, 1638.541 725.994, 1635.688 724.658 C 1632.835 723.322, 1627.261 721.503, 1623.303 720.615 C 1618.839 719.613, 1612.002 719.042, 1605.303 719.110 C 1599.361 719.170, 1592.509 719.610, 1590.075 720.087 M 727.435 926.890 C 725.199 927.906, 721.682 930.218, 719.620 932.028 C 717.559 933.839, 714.663 937.610, 713.186 940.410 C 710.500 945.500, 710.500 945.500, 710.215 997.483 C 709.932 1049.144, 709.944 1049.503, 712.160 1055.428 C 713.455 1058.892, 715.941 1062.941, 718.093 1065.093 C 720.130 1067.130, 723.980 1070.080, 726.648 1071.648 C 731.500 1074.500, 731.500 1074.500, 1000.500 1074.500 C 1255.483 1074.500, 1269.684 1074.408, 1273.039 1072.736 C 1274.985 1071.766, 1278.150 1069.676, 1280.072 1068.092 C 1281.995 1066.507, 1284.902 1062.801, 1286.534 1059.856 C 1289.500 1054.500, 1289.500 1054.500, 1289.500 1000 C 1289.500 945.500, 1289.500 945.500, 1286.888 939.930 C 1285.249 936.436, 1282.639 933.041, 1279.888 930.824 C 1277.474 928.880, 1273.970 926.774, 1272.101 926.145 C 1269.581 925.296, 1199.193 925.006, 1000.101 925.022 C 741.104 925.043, 731.355 925.110, 727.435 926.890 M 925.474 966.467 C 925.086 971.128, 925.027 975.970, 925.343 977.229 C 925.658 978.487, 925.598 980.033, 925.208 980.663 C 924.759 981.389, 919 982.062, 909.500 982.498 C 901.250 982.877, 894.379 983.304, 894.231 983.446 C 894.082 983.589, 894.265 990.747, 894.636 999.353 C 895.311 1015, 895.311 1015, 904.905 1015.197 C 910.182 1015.306, 916.447 1015.280, 918.827 1015.139 C 921.207 1014.999, 923.795 1015.415, 924.577 1016.064 C 925.662 1016.964, 926 1020.077, 926 1029.158 C 926 1040.201, 926.128 1041.001, 927.750 1040.115 C 928.712 1039.589, 935.851 1033.611, 943.612 1026.829 C 951.374 1020.048, 961.851 1010.936, 966.893 1006.581 C 971.935 1002.225, 975.710 998.319, 975.281 997.902 C 974.851 997.484, 970.843 994.298, 966.374 990.821 C 961.905 987.345, 951.555 978.855, 943.374 971.956 C 935.193 965.057, 927.978 959.093, 927.340 958.703 C 926.514 958.198, 925.977 960.435, 925.474 966.467 M 767.711 983.750 C 767.487 984.163, 767.199 991.362, 767.070 999.750 C 766.837 1015, 766.837 1015, 813.419 1015 C 860 1015, 860 1015, 860 999 C 860 983, 860 983, 814.059 983 C 788.791 983, 767.935 983.337, 767.711 983.750 M 576.500 1142.418 C 573.200 1143.186, 569.150 1144.335, 567.500 1144.971 C 565.850 1145.607, 562.250 1147.525, 559.500 1149.232 C 556.750 1150.940, 552.330 1154.398, 549.678 1156.918 C 547.025 1159.438, 543.363 1163.525, 541.539 1166 C 539.716 1168.475, 537.308 1172.139, 536.189 1174.142 C 535.070 1176.146, 532.956 1181.546, 531.490 1186.142 C 529.467 1192.485, 528.820 1196.580, 528.805 1203.124 C 528.795 1207.868, 529.091 1213.268, 529.463 1215.124 C 529.835 1216.981, 531.081 1221.425, 532.231 1225 C 533.382 1228.575, 535.198 1233.075, 536.268 1235 C 537.337 1236.925, 539.852 1240.524, 541.856 1242.997 C 543.860 1245.470, 546.625 1248.520, 548 1249.775 C 549.375 1251.030, 553.213 1254.037, 556.529 1256.458 C 559.967 1258.969, 564.693 1261.384, 567.529 1262.080 C 570.263 1262.751, 575.630 1264.860, 579.455 1266.766 C 583.281 1268.673, 588.126 1271.642, 590.223 1273.366 C 592.319 1275.090, 595.868 1278.897, 598.108 1281.827 C 600.348 1284.757, 603.282 1289.559, 604.628 1292.499 C 605.974 1295.438, 607.775 1301.141, 608.631 1305.172 C 609.602 1309.744, 609.981 1314.823, 609.638 1318.676 C 609.336 1322.072, 607.008 1331.219, 604.464 1339.002 C 601.921 1346.785, 599.596 1355.514, 599.298 1358.401 C 598.941 1361.861, 599.339 1365.655, 600.466 1369.532 C 601.407 1372.768, 603.307 1377.647, 604.690 1380.375 C 606.072 1383.103, 609.482 1387.744, 612.266 1390.688 C 615.051 1393.633, 619.618 1397.344, 622.415 1398.936 C 625.212 1400.528, 630.170 1402.318, 633.434 1402.915 C 636.697 1403.512, 641.872 1403.974, 644.934 1403.942 C 647.995 1403.911, 653.425 1403.070, 657 1402.074 C 660.575 1401.078, 666.033 1399.319, 669.130 1398.165 C 672.226 1397.011, 678.353 1395.767, 682.744 1395.401 C 687.913 1394.970, 692.626 1395.176, 696.114 1395.985 C 699.076 1396.672, 704.413 1398.603, 707.972 1400.275 C 711.758 1402.053, 716.575 1405.445, 719.577 1408.446 C 722.399 1411.269, 725.848 1415.383, 727.241 1417.589 C 728.634 1419.796, 731.941 1427.428, 734.591 1434.550 C 737.241 1441.673, 740.834 1449.750, 742.576 1452.501 C 744.318 1455.251, 748.613 1460.352, 752.121 1463.835 C 756.994 1468.672, 760.907 1471.348, 768.695 1475.168 C 777.638 1479.554, 780.094 1480.299, 788.695 1481.239 C 796.170 1482.056, 800.614 1482.007, 807.396 1481.031 C 814.349 1480.031, 818.266 1478.764, 825.328 1475.229 C 832.025 1471.876, 836.064 1468.992, 840.932 1464.085 C 844.557 1460.430, 849.396 1454.101, 851.733 1449.959 C 854.061 1445.832, 856.873 1438.905, 857.983 1434.567 C 859.092 1430.229, 859.997 1423.715, 859.992 1420.090 C 859.988 1416.466, 859.515 1410.604, 858.941 1407.065 C 858.367 1403.526, 856.986 1397.928, 855.874 1394.625 C 854.761 1391.322, 851.934 1385.667, 849.592 1382.059 C 847.250 1378.452, 842.766 1372.983, 839.627 1369.906 C 836.489 1366.829, 830.537 1362.375, 826.399 1360.008 C 822.262 1357.641, 816.092 1355.053, 812.688 1354.258 C 808.312 1353.236, 802.694 1352.941, 793.500 1353.251 C 784.975 1353.539, 778.915 1354.256, 775.895 1355.335 C 773.362 1356.241, 766.839 1359.695, 761.399 1363.011 C 755.959 1366.328, 749.931 1369.490, 748.004 1370.038 C 746.077 1370.585, 740.450 1371.296, 735.500 1371.617 C 729.172 1372.028, 724.334 1371.739, 719.203 1370.645 C 714.686 1369.681, 709.618 1367.698, 705.899 1365.439 C 702.595 1363.432, 698.285 1360.149, 696.321 1358.145 C 694.243 1356.024, 690.368 1349.481, 687.055 1342.500 C 682.690 1333.303, 680.491 1329.839, 677.641 1327.669 C 675.595 1326.112, 669.102 1322.457, 663.211 1319.545 C 655.362 1315.666, 651.088 1312.815, 647.214 1308.876 C 644.307 1305.919, 640.621 1300.894, 639.023 1297.708 C 637.425 1294.523, 635.356 1288.492, 634.425 1284.307 C 633.241 1278.988, 632.913 1274.562, 633.335 1269.599 C 633.667 1265.695, 634.892 1259.599, 636.057 1256.054 C 637.223 1252.509, 641.138 1245.084, 644.759 1239.554 C 648.379 1234.024, 652.168 1226.859, 653.180 1223.630 C 654.191 1220.402, 655.492 1214.710, 656.071 1210.981 C 656.820 1206.156, 656.804 1201.874, 656.018 1196.130 C 655.410 1191.691, 654.025 1185.478, 652.939 1182.323 C 651.854 1179.168, 649.128 1173.766, 646.883 1170.320 C 644.637 1166.873, 639.800 1161.229, 636.134 1157.777 C 632.468 1154.325, 626.609 1149.983, 623.116 1148.128 C 619.622 1146.274, 614.454 1144.115, 611.632 1143.330 C 608.809 1142.545, 601.100 1141.705, 594.500 1141.463 C 586.318 1141.162, 580.591 1141.466, 576.500 1142.418 M 1390.191 1143.025 C 1386.170 1144.078, 1380.545 1146.176, 1377.691 1147.687 C 1374.836 1149.198, 1368.894 1154.049, 1364.488 1158.467 C 1358.263 1164.707, 1355.445 1168.525, 1351.857 1175.576 C 1348.706 1181.769, 1346.841 1187.011, 1345.986 1192.076 C 1345.217 1196.630, 1344.966 1203.051, 1345.336 1208.687 C 1345.667 1213.740, 1346.793 1220.307, 1347.839 1223.282 C 1348.884 1226.256, 1352.492 1232.783, 1355.857 1237.787 C 1359.222 1242.791, 1363.056 1249.331, 1364.378 1252.321 C 1365.700 1255.310, 1367.281 1260.083, 1367.891 1262.927 C 1368.501 1265.771, 1368.992 1269.989, 1368.983 1272.299 C 1368.973 1274.610, 1368.318 1279.554, 1367.527 1283.287 C 1366.736 1287.020, 1364.698 1292.899, 1362.998 1296.353 C 1361.298 1299.806, 1357.565 1305.035, 1354.703 1307.972 C 1350.616 1312.168, 1346.899 1314.556, 1337.372 1319.105 C 1328.080 1323.542, 1324.400 1325.883, 1321.630 1329.119 C 1319.642 1331.441, 1317.078 1335.852, 1315.931 1338.921 C 1314.785 1341.989, 1312.663 1346.678, 1311.216 1349.339 C 1309.769 1352.001, 1306.287 1356.278, 1303.479 1358.845 C 1300.671 1361.411, 1295.436 1365.002, 1291.844 1366.825 C 1287.941 1368.806, 1282.460 1370.581, 1278.217 1371.238 C 1273.002 1372.045, 1268.663 1372.034, 1261.859 1371.197 C 1256.063 1370.483, 1250.897 1369.190, 1248.050 1367.739 C 1245.547 1366.464, 1240.082 1363.279, 1235.904 1360.661 C 1231.727 1358.043, 1225.877 1355.253, 1222.904 1354.462 C 1219.628 1353.590, 1212.776 1353.025, 1205.500 1353.027 C 1198.239 1353.028, 1190.939 1353.633, 1187.014 1354.558 C 1183.124 1355.475, 1177.722 1357.836, 1173.514 1360.459 C 1169.656 1362.863, 1164.161 1367.109, 1161.302 1369.894 C 1158.442 1372.679, 1154.345 1377.555, 1152.196 1380.729 C 1150.047 1383.903, 1147.521 1387.994, 1146.583 1389.819 C 1145.645 1391.645, 1144.230 1396.522, 1143.439 1400.657 C 1142.647 1404.792, 1142 1412.614, 1142 1418.039 C 1142 1423.463, 1142.500 1430.286, 1143.111 1433.201 C 1143.722 1436.115, 1146.074 1442.100, 1148.338 1446.500 C 1151.332 1452.319, 1154.641 1456.696, 1160.477 1462.557 C 1165.993 1468.096, 1170.687 1471.737, 1175.500 1474.210 C 1179.350 1476.189, 1184.944 1478.526, 1187.932 1479.404 C 1191.558 1480.469, 1197.207 1480.992, 1204.932 1480.976 C 1211.294 1480.962, 1218.525 1480.490, 1221 1479.926 C 1223.475 1479.361, 1229.109 1477.135, 1233.520 1474.977 C 1237.931 1472.819, 1244.086 1468.785, 1247.198 1466.012 C 1250.309 1463.238, 1254.652 1458.279, 1256.848 1454.990 C 1259.044 1451.702, 1262.507 1444.621, 1264.543 1439.255 C 1266.579 1433.890, 1269.308 1427.099, 1270.607 1424.164 C 1271.905 1421.229, 1274.396 1416.954, 1276.141 1414.664 C 1277.887 1412.374, 1280.932 1409.018, 1282.907 1407.206 C 1284.883 1405.395, 1288.787 1402.592, 1291.583 1400.978 C 1294.379 1399.365, 1299.554 1397.304, 1303.083 1396.399 C 1307.619 1395.236, 1311.992 1394.896, 1318 1395.240 C 1324.408 1395.607, 1328.444 1396.505, 1334.396 1398.891 C 1338.739 1400.632, 1345.376 1402.585, 1349.146 1403.232 C 1354.354 1404.125, 1357.898 1404.131, 1363.900 1403.256 C 1368.245 1402.623, 1373.982 1401.090, 1376.650 1399.851 C 1379.317 1398.612, 1384.317 1394.801, 1387.760 1391.381 C 1392.214 1386.958, 1395.099 1382.905, 1397.760 1377.332 C 1401.308 1369.901, 1401.500 1368.988, 1401.500 1359.500 C 1401.500 1350.576, 1401.151 1348.618, 1398.260 1341.308 C 1396.478 1336.802, 1394.301 1328.953, 1393.423 1323.864 C 1392.093 1316.155, 1392.021 1313.281, 1392.994 1306.628 C 1393.636 1302.236, 1395.016 1296.361, 1396.060 1293.572 C 1397.104 1290.782, 1399.816 1286.025, 1402.087 1283 C 1404.359 1279.975, 1408.487 1275.560, 1411.261 1273.190 C 1414.035 1270.819, 1418.566 1267.734, 1421.329 1266.333 C 1424.092 1264.933, 1428.636 1263.125, 1431.427 1262.316 C 1434.217 1261.506, 1439.498 1259.082, 1443.162 1256.930 C 1447.188 1254.564, 1452.430 1250.160, 1456.410 1245.799 C 1460.536 1241.278, 1464.500 1235.546, 1467.024 1230.451 C 1469.240 1225.978, 1471.489 1219.659, 1472.021 1216.409 C 1472.553 1213.159, 1472.991 1207.299, 1472.994 1203.386 C 1472.997 1199.474, 1472.553 1193.849, 1472.006 1190.886 C 1471.460 1187.924, 1469.142 1181.696, 1466.857 1177.046 C 1463.533 1170.285, 1460.977 1166.878, 1454.100 1160.041 C 1448.272 1154.246, 1443.230 1150.297, 1438.456 1147.786 C 1434.582 1145.749, 1428.750 1143.389, 1425.496 1142.541 C 1421.803 1141.579, 1415.431 1141.021, 1408.540 1141.055 C 1401.032 1141.093, 1395.162 1141.723, 1390.191 1143.025 M 990.322 1318 C 986.924 1318.475, 980.399 1319.862, 975.822 1321.083 C 971.245 1322.304, 965.093 1324.355, 962.152 1325.640 C 959.211 1326.925, 953.811 1329.974, 950.152 1332.416 C 946.493 1334.857, 941.417 1338.890, 938.870 1341.377 C 936.324 1343.864, 932.246 1348.285, 929.807 1351.200 C 927.369 1354.115, 923.964 1358.751, 922.241 1361.503 C 920.518 1364.255, 917.954 1369.117, 916.542 1372.308 C 915.131 1375.499, 913.103 1381.262, 912.036 1385.114 C 910.968 1388.966, 909.786 1395.928, 909.408 1400.584 C 909.010 1405.485, 909.271 1415.529, 910.026 1424.434 C 911.078 1436.822, 911.090 1441.830, 910.092 1450.158 C 909.411 1455.846, 907.702 1463.875, 906.295 1468 C 904.888 1472.125, 902.047 1478.875, 899.982 1483 C 897.917 1487.125, 894.376 1492.975, 892.114 1496 C 889.852 1499.025, 885.427 1504.100, 882.281 1507.277 C 879.135 1510.454, 873.274 1515.326, 869.257 1518.103 C 865.239 1520.881, 857.274 1525.343, 851.557 1528.019 C 845.839 1530.696, 837.638 1533.633, 833.331 1534.546 C 827.733 1535.733, 819.511 1536.271, 804.500 1536.432 C 783.500 1536.657, 783.500 1536.657, 771.743 1540.716 C 764.812 1543.108, 757.235 1546.565, 753.283 1549.137 C 749.597 1551.537, 743.637 1556.478, 740.040 1560.119 C 736.443 1563.759, 731.295 1570.458, 728.600 1575.007 C 725.905 1579.555, 722.425 1587.239, 720.867 1592.084 C 719.310 1596.928, 717.534 1604.122, 716.921 1608.072 C 716.094 1613.401, 716.103 1617.276, 716.954 1623.101 C 717.586 1627.418, 719.142 1634.007, 720.413 1637.744 C 721.684 1641.481, 723.662 1646.330, 724.810 1648.519 C 725.957 1650.709, 728.262 1654.522, 729.932 1656.992 C 731.602 1659.463, 735.563 1664.138, 738.734 1667.382 C 741.905 1670.625, 747.508 1675.244, 751.184 1677.645 C 755.104 1680.206, 762.215 1683.466, 768.380 1685.529 C 776.030 1688.089, 781.426 1689.212, 788.196 1689.653 C 794.814 1690.084, 799.666 1689.810, 805.003 1688.703 C 809.129 1687.847, 815.454 1686.076, 819.059 1684.768 C 822.663 1683.459, 828.710 1680.657, 832.495 1678.540 C 836.447 1676.330, 842.637 1671.457, 847.032 1667.095 C 851.298 1662.862, 856.569 1656.304, 858.939 1652.280 C 861.278 1648.309, 864.558 1640.884, 866.228 1635.780 C 869.027 1627.224, 869.329 1624.901, 870.094 1606 C 870.616 1593.116, 871.507 1583.301, 872.494 1579.580 C 873.357 1576.324, 875.871 1569.799, 878.081 1565.080 C 880.291 1560.361, 884.659 1552.675, 887.787 1548 C 890.915 1543.325, 896.440 1536.575, 900.065 1533 C 903.689 1529.425, 909.545 1524.802, 913.077 1522.726 C 916.610 1520.650, 923.596 1517.635, 928.603 1516.027 C 933.609 1514.418, 943.734 1511.997, 951.103 1510.646 C 958.471 1509.295, 969.550 1507.640, 975.722 1506.968 C 982.858 1506.192, 994.329 1505.942, 1007.222 1506.282 C 1022.582 1506.687, 1030.895 1507.423, 1041.500 1509.316 C 1049.200 1510.691, 1058.425 1512.505, 1062 1513.347 C 1065.575 1514.189, 1072.253 1516.225, 1076.839 1517.871 C 1081.426 1519.517, 1087.646 1522.357, 1090.662 1524.182 C 1093.679 1526.007, 1099.035 1530.425, 1102.566 1534 C 1106.097 1537.575, 1111.106 1543.650, 1113.696 1547.500 C 1116.287 1551.350, 1120.082 1557.951, 1122.129 1562.170 C 1124.176 1566.388, 1126.750 1573.138, 1127.850 1577.170 C 1128.950 1581.201, 1130.125 1586.300, 1130.463 1588.500 C 1130.800 1590.700, 1131.238 1599.925, 1131.436 1609 C 1131.755 1623.613, 1132.107 1626.472, 1134.516 1634 C 1136.011 1638.675, 1138.594 1645.200, 1140.255 1648.500 C 1141.916 1651.800, 1145.222 1657.032, 1147.601 1660.126 C 1149.979 1663.220, 1154.132 1667.599, 1156.828 1669.856 C 1159.524 1672.113, 1164.729 1675.782, 1168.395 1678.009 C 1172.060 1680.236, 1179.067 1683.401, 1183.965 1685.042 C 1188.863 1686.683, 1196.612 1688.530, 1201.185 1689.146 C 1207.430 1689.987, 1211.413 1689.974, 1217.186 1689.091 C 1221.414 1688.445, 1228.815 1686.584, 1233.634 1684.955 C 1238.452 1683.326, 1245.411 1680.202, 1249.097 1678.012 C 1252.783 1675.822, 1259.107 1670.728, 1263.149 1666.691 C 1267.192 1662.655, 1271.982 1656.856, 1273.794 1653.805 C 1275.606 1650.754, 1278.602 1644.022, 1280.452 1638.846 C 1282.805 1632.263, 1284.027 1626.730, 1284.520 1620.439 C 1284.946 1614.984, 1284.777 1608.567, 1284.088 1604.129 C 1283.464 1600.106, 1281.622 1593.368, 1279.995 1589.157 C 1278.369 1584.946, 1275.342 1578.597, 1273.269 1575.049 C 1271.196 1571.501, 1265.900 1564.964, 1261.500 1560.523 C 1257.040 1556.021, 1250.307 1550.537, 1246.286 1548.131 C 1242.318 1545.757, 1234.443 1542.319, 1228.786 1540.492 C 1218.782 1537.261, 1217.924 1537.157, 1197.500 1536.691 C 1183.310 1536.367, 1173.933 1535.667, 1168.583 1534.531 C 1164.229 1533.607, 1156.354 1530.952, 1151.083 1528.632 C 1145.812 1526.313, 1138.800 1522.569, 1135.500 1520.313 C 1132.200 1518.057, 1126.603 1513.576, 1123.063 1510.356 C 1119.523 1507.135, 1113.969 1500.918, 1110.721 1496.540 C 1107.473 1492.161, 1103.446 1485.864, 1101.770 1482.545 C 1100.095 1479.226, 1097.221 1472.143, 1095.385 1466.804 C 1093.148 1460.304, 1091.738 1453.836, 1091.116 1447.221 C 1090.521 1440.898, 1090.550 1432.874, 1091.197 1424.922 C 1091.753 1418.090, 1091.969 1407.100, 1091.678 1400.500 C 1091.303 1391.999, 1090.518 1386.619, 1088.984 1382.049 C 1087.794 1378.501, 1085.110 1372.201, 1083.019 1368.049 C 1080.929 1363.897, 1077.225 1357.800, 1074.789 1354.500 C 1072.353 1351.200, 1067.370 1345.558, 1063.717 1341.963 C 1060.063 1338.367, 1053.505 1333.303, 1049.143 1330.708 C 1044.781 1328.113, 1038.324 1324.903, 1034.794 1323.574 C 1031.264 1322.246, 1025.028 1320.474, 1020.938 1319.637 C 1016.847 1318.800, 1009.675 1317.896, 1005 1317.626 C 1000.325 1317.357, 993.720 1317.525, 990.322 1318" stroke="none" fill="#0aa3bb" fill-rule="evenodd"/></svg>