<svg xmlns="http://www.w3.org/2000/svg" width="2000" height="2000" viewBox="0 0 2000 2000" version="1.1"><path d="M 984.990 400.521 C 912.306 411.858, 894.579 512.919, 958.716 550.306 C 970.822 557.363, 973.299 562.118, 973.175 578.055 C 972.601 651.481, 873.176 684.832, 820.834 629.157 C 805.280 612.611, 803.613 603.398, 812.739 584.404 C 855.991 494.389, 734.410 421.031, 673.301 500.272 C 643.020 539.537, 658.105 600.882, 703.500 623.077 C 715.293 628.843, 719.987 629.877, 738 630.677 C 784.858 632.758, 789.682 710.052, 745.437 749.846 C 702.733 788.255, 633.983 780.800, 631.575 737.500 C 625.894 635.349, 482.478 627.906, 466.929 728.956 C 457.537 789.996, 528.843 840.500, 584.260 812.057 C 604.306 801.768, 616.349 804.732, 634.803 824.498 C 683.873 877.058, 649.617 969.123, 580 971.781 C 561.630 972.483, 558.324 970.651, 548.953 954.576 C 530.609 923.105, 483.729 908.209, 449.820 923.076 C 379.136 954.065, 382.629 1050.181, 455.430 1077.448 C 490.292 1090.506, 536.860 1071.842, 553.094 1038.306 C 565.833 1011.991, 623.735 1030.893, 646.345 1068.749 C 679.358 1124.022, 636.386 1211.340, 587.500 1188.320 C 506.708 1150.278, 429.271 1245.110, 485.481 1313.256 C 533.929 1371.992, 628.036 1339.071, 631.590 1262.144 C 632.542 1241.552, 638.620 1234.826, 661.709 1228.813 C 719.706 1213.707, 775.685 1256.874, 775.422 1316.500 C 775.270 1350.960, 763.058 1369, 739.882 1369 C 656.183 1369, 626.199 1484.333, 700 1522.407 C 772.671 1559.899, 848.561 1486.950, 812.778 1414 C 803.624 1395.338, 807.235 1382.812, 826.960 1364.810 C 883.884 1312.857, 978.109 1354.031, 972.532 1428.421 C 971.645 1440.244, 971.261 1440.756, 955.301 1451.370 C 889.416 1495.186, 917.561 1595.226, 997 1599.585 C 1080.165 1604.149, 1115.235 1496.029, 1045.308 1450.651 C 1014.111 1430.407, 1026.232 1380.954, 1068.946 1354.210 C 1124.218 1319.605, 1212.677 1363.280, 1189.180 1413.575 C 1150.919 1495.476, 1245.125 1569.295, 1315.914 1512.883 C 1346.243 1488.714, 1353.268 1438.866, 1330.922 1406.387 C 1313.587 1381.190, 1293.182 1370.446, 1258.775 1368.396 C 1225.915 1366.439, 1215.780 1306.724, 1241.477 1266.478 C 1274.927 1214.088, 1366.113 1210.569, 1370.001 1261.518 C 1377.211 1355.974, 1502.259 1374.275, 1530.451 1285 C 1551.913 1217.039, 1480.296 1157.231, 1414.563 1188.220 C 1391.272 1199.200, 1369.894 1187.197, 1352.724 1153.500 C 1324.322 1097.760, 1364.284 1027.151, 1424.307 1027.017 C 1439.689 1026.983, 1442.507 1028.669, 1452.418 1043.840 C 1461.042 1057.040, 1472.317 1067.346, 1484 1072.707 C 1583.567 1118.397, 1653.233 974.660, 1555.304 925.590 C 1517.634 906.714, 1476.716 918.846, 1451.054 956.500 C 1439.195 973.900, 1425.465 976.582, 1399.123 966.644 C 1343.982 945.843, 1325.821 876.507, 1363.170 829.385 C 1381.517 806.237, 1395.419 801.326, 1414.654 811.198 C 1489.094 849.399, 1567.152 761.434, 1520.185 692.272 C 1475.124 625.917, 1373.347 657.473, 1369.546 738.978 C 1368.886 753.121, 1367.322 756.878, 1360.226 761.357 C 1294.686 802.731, 1209.939 736.680, 1229.913 659.793 C 1235.690 637.556, 1242.206 631.517, 1261.500 630.518 C 1337.391 626.589, 1372.426 543.100, 1320.047 490.998 C 1253.420 424.724, 1148.768 501.555, 1189.443 586.880 C 1210.552 631.162, 1132.264 675.977, 1079 650.103 C 1030.624 626.603, 1011.193 571.170, 1043.781 549.628 C 1120.440 498.953, 1076.031 386.320, 984.990 400.521 M 991.982 651.142 C 954.712 700.142, 890.768 716.855, 831.545 693.075 C 826.069 690.876, 821.514 689.173, 821.423 689.289 C 821.332 689.405, 820.721 693.325, 820.065 698 C 810.543 765.903, 755.611 819, 694.883 819 C 688.476 819, 688.486 818.812, 694.148 832.970 C 717.448 891.233, 699.437 957.793, 651.051 992.238 C 646.348 995.586, 642.153 998.621, 641.730 998.983 C 641.306 999.344, 644.971 1002.635, 649.873 1006.296 C 701.254 1044.665, 718.131 1106.871, 693.638 1167.607 C 691.222 1173.598, 689.302 1178.571, 689.372 1178.658 C 689.443 1178.744, 694 1179.339, 699.500 1179.979 C 765.227 1187.632, 815.724 1239.137, 820.717 1303.616 L 821.268 1310.732 830.384 1306.835 C 891.524 1280.697, 973.351 1304.437, 997.634 1355.359 C 1000.006 1360.333, 1001.082 1359.988, 1005.766 1352.750 C 1040.319 1299.350, 1118.299 1279.526, 1177.250 1309.156 C 1181 1311.041, 1181 1311.041, 1181 1307.055 C 1181 1244.411, 1238.510 1184.941, 1303.506 1180.372 C 1312.709 1179.725, 1314.499 1178.899, 1312.038 1176.438 C 1309.417 1173.817, 1301.752 1150.871, 1299.537 1139.013 C 1290.132 1088.665, 1310.779 1035.630, 1350.931 1007 C 1362.555 998.711, 1362.056 999.793, 1355.892 996.266 C 1303.019 966.015, 1282.365 886.790, 1311.040 824.223 C 1312.118 821.871, 1313 819.734, 1313 819.473 C 1313 819.213, 1310.412 818.991, 1307.250 818.981 C 1246.642 818.776, 1188.298 763.613, 1182.466 701 C 1181.706 692.839, 1181.263 689.930, 1180.695 689.361 C 1180.492 689.159, 1176.541 690.381, 1171.913 692.076 C 1130.236 707.349, 1097.784 707.604, 1062.440 692.936 C 1039.213 683.297, 1019.590 667.145, 1005.724 646.250 C 1000.583 638.503, 1001.971 638.009, 991.982 651.142 M 806.667 773.667 C 803.934 776.400, 806.167 880.079, 808.922 878.342 C 815.081 874.459, 839.841 857.016, 841.382 855.475 C 842.772 854.085, 843 850.839, 843 832.429 L 843 811 946.750 810.754 C 1003.813 810.619, 1074.800 810.507, 1104.500 810.504 L 1158.500 810.500 1159 832.679 C 1159.566 857.797, 1157.578 853.895, 1176.344 866.725 C 1180.830 869.792, 1186.792 874.034, 1189.592 876.151 C 1192.393 878.268, 1195.158 880, 1195.736 880 C 1197.002 880, 1196.958 776.207, 1195.691 774.250 C 1194.814 772.894, 808.019 772.314, 806.667 773.667 M 888.530 861.250 C 886.444 863.038, 878.529 869.225, 870.942 875 C 863.354 880.775, 844.907 894.950, 829.947 906.500 C 814.987 918.050, 796.617 932.157, 789.124 937.850 C 781.631 943.542, 767.225 954.567, 757.112 962.350 C 746.999 970.132, 734.157 979.875, 728.576 984 C 704.862 1001.525, 703.734 996.492, 737 1021.571 C 756.040 1035.925, 851.706 1109.400, 866.500 1121.032 C 885.915 1136.296, 892.316 1141, 893.673 1141 C 894.735 1141, 895.871 1064.508, 894.915 1057.362 C 894.868 1057.011, 895.430 1056.343, 896.165 1055.877 C 897.724 1054.889, 1075.875 1054.688, 1093.843 1055.654 L 1106 1056.307 1106.015 1098.404 C 1106.024 1121.557, 1106.363 1141.022, 1106.769 1141.661 C 1107.258 1142.429, 1112.750 1138.790, 1123.004 1130.904 C 1137.878 1119.464, 1141.386 1116.743, 1161.500 1101.038 C 1166.450 1097.173, 1177.475 1088.746, 1186 1082.311 C 1194.525 1075.877, 1207.800 1065.747, 1215.500 1059.801 C 1223.200 1053.854, 1238.984 1041.679, 1250.576 1032.745 C 1301.538 993.464, 1299.089 1002.200, 1266 977.722 C 1253.005 968.108, 1194.484 923.444, 1185.888 916.579 C 1161.064 896.754, 1108.954 858, 1107.120 858 C 1106.311 858, 1106 869.762, 1106 900.393 C 1106 937.545, 1105.811 942.859, 1104.468 943.374 C 1103.626 943.697, 1059.188 943.714, 1005.718 943.412 C 952.248 943.110, 905.462 942.893, 901.750 942.931 L 895 943 895 900.500 C 895 853.442, 895.327 855.425, 888.530 861.250 M 805.966 1119.750 C 805.619 1127.405, 806.230 1224.437, 806.633 1225.485 C 807.531 1227.827, 1194.491 1227.770, 1195.389 1225.428 C 1196.691 1222.036, 1196.072 1119, 1194.750 1119.008 C 1194.063 1119.012, 1189.178 1122.499, 1183.895 1126.758 C 1178.612 1131.016, 1170.849 1136.956, 1166.645 1139.958 L 1159 1145.417 1159 1167.208 L 1159 1189 1001 1189 L 843 1189 843 1167.500 C 843 1142.932, 843.939 1145.602, 832.426 1137.446 C 828.617 1134.747, 821.499 1129.493, 816.608 1125.769 C 808.066 1119.267, 806.040 1118.121, 805.966 1119.750" stroke="none" fill="#0da3ba" fill-rule="evenodd"/></svg>