<svg xmlns="http://www.w3.org/2000/svg" width="2000" height="2000" viewBox="0 0 2000 2000" version="1.1"><path d="M 993.347 446.106 C 977.238 448.762, 964.905 458.442, 956.485 475.036 C 954.666 478.620, 953.167 480.026, 949.341 481.735 C 942.692 484.705, 942.472 484.748, 925.110 486.472 C 900.829 488.883, 901.358 488.953, 895.754 482.563 C 875.229 459.158, 835.613 473.280, 832.321 505.174 L 831.739 510.813 826.620 512.803 C 812.623 518.243, 795.537 525.572, 787.127 529.745 L 777.754 534.395 774.627 532.575 C 763.012 525.816, 756.459 524.309, 745.837 525.957 C 726.413 528.971, 715.540 542.346, 715.457 563.328 L 715.414 574.246 708.957 579.321 C 705.406 582.112, 698.225 588.166, 693 592.775 C 678.070 605.943, 676.618 606.607, 666.129 605.055 C 640.035 601.194, 628.755 603.498, 616.361 615.220 C 601.696 629.090, 596.734 647.190, 602.578 665.494 C 606.275 677.070, 604.905 680.711, 590.570 697.404 C 587.781 700.652, 582.523 707.170, 578.884 711.890 L 572.268 720.471 560.384 720.520 C 528.988 720.649, 512.573 747.626, 527.179 775.092 L 531.217 782.683 525.809 793.092 C 522.835 798.816, 519.793 805.075, 519.051 807 C 518.308 808.925, 516.493 813.425, 515.018 817 C 513.543 820.575, 511.088 826.701, 509.564 830.614 L 506.792 837.727 499.702 838.322 C 466.500 841.105, 453.580 882.934, 479.636 903.285 C 485.780 908.083, 485.563 907.201, 483.018 917 C 481.947 921.125, 480.584 929.900, 479.989 936.500 C 478.133 957.090, 476.507 960.479, 463.873 970.096 C 430.480 995.517, 430.959 1033.219, 464.964 1056 C 470.770 1059.889, 477.670 1069.312, 478.416 1074.370 C 478.670 1076.091, 479.393 1082.900, 480.023 1089.500 C 480.652 1096.100, 481.830 1105.031, 482.641 1109.347 L 484.114 1117.194 478.174 1122.847 C 454.695 1145.191, 466.147 1181.116, 498.383 1186.240 C 507.397 1187.673, 505.703 1185.576, 514.415 1206.094 C 516.889 1211.920, 521.832 1222.654, 525.399 1229.947 L 531.886 1243.206 529.884 1245.353 C 506.999 1269.894, 533.679 1312.871, 567 1305.140 C 571.954 1303.991, 572.356 1304.261, 579.190 1313.342 C 582.567 1317.829, 588.542 1325.325, 592.467 1330 C 605.894 1345.991, 606.366 1347.527, 601.976 1361 C 590.317 1396.783, 625.402 1431.183, 663.037 1420.868 C 674.952 1417.603, 681.124 1420.941, 709.984 1446.251 L 715.467 1451.061 715.484 1461.780 C 715.530 1492.226, 743.235 1508.001, 771.743 1493.815 L 777.986 1490.708 789.743 1496.729 C 796.209 1500.040, 807.575 1505.110, 815 1507.994 C 822.425 1510.878, 829.175 1513.569, 830 1513.974 C 830.961 1514.445, 831.715 1516.827, 832.098 1520.605 C 835.399 1553.118, 873.333 1565.666, 896.128 1541.784 L 901.800 1535.842 911.650 1537.006 C 946.172 1541.085, 950.631 1542.849, 959.669 1556.003 C 983.438 1590.600, 1024.180 1589.649, 1044.993 1554.013 C 1051.176 1543.425, 1051.746 1543.229, 1094.353 1536.983 L 1101.205 1535.978 1107.561 1542.843 C 1128.387 1565.337, 1167.179 1553.347, 1169.740 1523.625 C 1170.451 1515.376, 1171.054 1514.513, 1177.733 1512.186 C 1180.905 1511.080, 1188.675 1507.842, 1195 1504.990 C 1201.325 1502.138, 1209.200 1498.714, 1212.500 1497.381 C 1215.800 1496.048, 1219.317 1494.495, 1220.317 1493.929 C 1225.149 1491.192, 1226.700 1491.112, 1230.125 1493.422 C 1254.914 1510.143, 1285.791 1493.162, 1286.804 1462.250 C 1287.025 1455.513, 1287.516 1450, 1287.894 1450 C 1288.273 1450, 1294.189 1445.223, 1301.042 1439.385 C 1326.044 1418.082, 1327.327 1417.499, 1341.500 1421 C 1379.461 1430.378, 1409.104 1400.500, 1401.526 1360.500 C 1398.646 1345.299, 1399.879 1340.913, 1410.243 1329.500 C 1413.240 1326.200, 1418.741 1319.675, 1422.468 1315 C 1426.194 1310.325, 1429.659 1306.052, 1430.167 1305.504 C 1430.690 1304.941, 1434.872 1304.644, 1439.796 1304.821 C 1474.189 1306.054, 1492.980 1275.019, 1474.899 1246.842 L 1471.894 1242.160 1475.589 1234.830 C 1480.041 1225.996, 1484.880 1214.958, 1490.197 1201.500 C 1492.370 1196, 1494.629 1190.353, 1495.217 1188.952 C 1496.178 1186.662, 1497.138 1186.288, 1504.720 1185.254 C 1537.635 1180.766, 1549.032 1139.923, 1522.761 1120.594 L 1518.812 1117.689 1519.488 1108.594 C 1520.649 1092.958, 1522.925 1080.069, 1526.273 1070.165 L 1529.500 1060.617 1536.474 1056.558 C 1571.514 1036.166, 1572.310 993.727, 1538.110 969.227 L 1528.720 962.500 1526.400 955.125 C 1521.127 938.358, 1516.831 905, 1519.945 905 C 1551.400 905, 1535.032 840.982, 1502.887 838.287 L 1496.169 837.724 1493.167 831.112 C 1491.516 827.475, 1488.151 819.550, 1485.688 813.500 C 1483.226 807.450, 1479.139 798.258, 1476.606 793.073 C 1471.097 781.797, 1471.076 781.483, 1475.397 774.728 C 1491.893 748.941, 1474.270 720.500, 1441.795 720.500 L 1430.090 720.500 1416.950 704 C 1398.388 680.691, 1397.340 678.326, 1400.549 667 C 1411.732 627.543, 1381.953 596.568, 1340.500 604.539 C 1325.552 607.413, 1324.768 606.974, 1290.186 576.390 L 1286.669 573.280 1286.577 561.890 C 1286.320 530.403, 1252.982 513.759, 1228.134 532.712 L 1224.659 535.362 1220.580 533.052 C 1211.799 528.081, 1194.960 520.010, 1184 515.521 C 1177.675 512.930, 1171.851 510.483, 1171.059 510.083 C 1170.078 509.588, 1169.534 507.325, 1169.357 502.997 C 1168.115 472.694, 1129.555 459.917, 1107.500 482.502 L 1101.500 488.646 1092.500 487.783 C 1056.032 484.285, 1051.708 482.927, 1044.959 472.855 C 1030.089 450.664, 1014.548 442.610, 993.347 446.106 M 993.723 463.019 C 966.302 467.742, 962.364 509.509, 988.109 522.555 C 994.490 525.789, 1008.006 526.069, 1013.790 523.087 C 1047.759 505.575, 1031.376 456.533, 993.723 463.019 M 1058.591 501.481 C 1043.802 506.751, 1047.308 528.549, 1065.906 546.961 C 1092.493 573.283, 1117.848 584.867, 1135 578.531 C 1157.774 570.118, 1177.718 579.937, 1190.513 605.861 C 1192.858 610.613, 1196.064 615.691, 1197.638 617.147 C 1200.945 620.207, 1212.865 628, 1214.237 628 C 1214.747 628, 1218.312 629.381, 1222.158 631.069 C 1226.004 632.757, 1232.829 634.795, 1237.325 635.598 C 1241.821 636.401, 1250.450 638.010, 1256.500 639.173 C 1294.880 646.556, 1322.382 629.994, 1305.158 609.871 C 1290.947 593.269, 1280.142 587.659, 1272.229 592.774 C 1240.128 613.521, 1210.721 591.387, 1214.220 549.111 C 1214.489 545.855, 1214.285 545.639, 1209 543.585 C 1205.975 542.410, 1201.250 540.284, 1198.500 538.861 C 1195.750 537.437, 1191.700 535.700, 1189.500 534.999 C 1187.300 534.298, 1183.025 532.499, 1180 531 C 1176.975 529.501, 1172.793 527.722, 1170.706 527.045 L 1166.912 525.816 1160.667 532.217 C 1137.275 556.192, 1099.285 543.705, 1097.209 511.359 L 1096.746 504.133 1093.123 503.554 C 1089.210 502.928, 1063.839 499.972, 1063.006 500.044 C 1062.728 500.068, 1060.741 500.715, 1058.591 501.481 M 915.265 502.761 C 905.671 504.175, 905.063 504.402, 905.557 506.385 C 913.783 539.375, 857.289 559.092, 839.058 529.593 C 836.043 524.716, 834.024 525.313, 799 541.428 C 786.491 547.184, 785.550 548.294, 788.439 553.883 C 791.769 560.321, 789.322 575.778, 783.518 584.972 C 773.982 600.078, 744.735 604.206, 730.109 592.511 C 723.715 587.398, 723.285 587.536, 709.500 599.124 C 692.620 613.312, 689.895 617.762, 693.471 625.298 C 700.547 640.209, 721.084 645.477, 748 639.285 C 753.225 638.083, 760.650 636.560, 764.500 635.900 C 788.215 631.836, 806.843 619.372, 814.582 602.389 C 824.177 581.334, 842.596 572.715, 865.636 578.499 C 885.249 583.422, 897.862 578.861, 925.710 556.774 C 943.155 542.938, 947.504 537.452, 951.861 523.791 C 958.367 503.388, 948.701 497.833, 915.265 502.761 M 988.661 543.132 C 965.339 546.128, 927.610 571.629, 909.394 596.708 C 904.149 603.928, 903.380 606.116, 901.466 619.266 C 897.964 643.328, 886.635 657.115, 865.904 662.542 C 854.117 665.628, 836.846 662.833, 829.234 656.608 C 814.435 644.504, 769.821 646.815, 722.243 662.151 C 685.242 674.077, 660.980 705.367, 652.962 751.500 C 652.293 755.350, 650.907 761.875, 649.884 766 C 643.076 793.430, 644.776 806.527, 658.449 832 C 674.313 861.553, 655.480 895.514, 620.500 900.433 C 600.574 903.235, 585.759 915.595, 558.820 951.889 C 528.416 992.854, 528.745 1032.743, 559.841 1075.369 C 587.187 1112.856, 599.116 1122.039, 626.145 1126.415 C 658.489 1131.651, 674.026 1167.937, 656.414 1197.108 C 646.049 1214.275, 642.872 1236.202, 648.318 1253 C 649.298 1256.025, 651.213 1263.900, 652.572 1270.500 C 662.866 1320.489, 677.610 1342.868, 710.145 1357.889 C 733.783 1368.803, 775.745 1377.514, 801.401 1376.833 L 813.963 1376.500 827.231 1369.505 L 840.500 1362.510 854.549 1362.505 L 868.599 1362.500 875.549 1365.991 C 891.111 1373.807, 899.648 1387.327, 901.580 1407.216 C 903.176 1423.641, 910.424 1434.022, 934.814 1454.816 C 976.601 1490.440, 1016.376 1492.990, 1057.382 1462.674 C 1091.039 1437.792, 1101.267 1423.771, 1103.469 1399.500 C 1104.843 1384.358, 1115.969 1370.488, 1132 1363.931 C 1138.029 1361.466, 1160.486 1361.953, 1165.500 1364.658 C 1167.700 1365.845, 1173.925 1369.108, 1179.333 1371.908 L 1189.167 1377 1204.424 1377 C 1216.548 1377, 1222.228 1376.499, 1232.090 1374.557 C 1238.916 1373.214, 1248.550 1371.378, 1253.500 1370.477 C 1307.747 1360.606, 1336.989 1333.594, 1346.920 1284.183 C 1347.991 1278.857, 1349.971 1270.225, 1351.322 1265 C 1354.646 1252.140, 1356.366 1236.327, 1355.807 1223.767 C 1355.302 1212.420, 1355.841 1213.837, 1344.672 1194.476 C 1328.369 1166.216, 1344.614 1133.003, 1378.133 1126.064 C 1412.458 1118.958, 1452.392 1076.878, 1463.605 1036 C 1473.858 998.622, 1447.479 939.793, 1407.188 910.182 C 1397.892 903.350, 1397.288 903.104, 1384.436 900.905 C 1363.377 897.303, 1351.861 889.882, 1343.869 874.764 L 1339.500 866.500 1339.500 854.444 L 1339.500 842.387 1343.976 833.944 C 1352.609 817.661, 1354.014 814.451, 1355.117 808.500 C 1356.803 799.407, 1355.595 778.637, 1352.586 765 C 1346.102 735.606, 1344.969 731.024, 1342.445 724 C 1330.251 690.062, 1306.677 667.889, 1275 660.561 C 1270.875 659.607, 1264.125 657.775, 1260 656.490 C 1225.588 645.772, 1188.248 645.749, 1172.500 656.434 C 1152.819 669.789, 1124.236 664.180, 1110.232 644.216 C 1105.830 637.940, 1104.765 634.685, 1103.031 622.207 C 1100.283 602.442, 1093.816 592.529, 1071.563 573.981 C 1040.056 547.718, 1017.702 539.400, 988.661 543.132 M 1348.326 619.994 C 1311.929 627.628, 1316.900 681.945, 1354 681.989 C 1393.239 682.036, 1397.494 623.006, 1358.494 619.637 C 1355.197 619.352, 1350.622 619.513, 1348.326 619.994 M 634.462 622.299 C 605.333 636.249, 616.485 682.347, 649 682.391 C 681.972 682.436, 692.313 636.617, 662.503 622.557 C 655.791 619.391, 640.821 619.254, 634.462 622.299 M 613.519 696.196 C 607.965 699.874, 593.388 717.005, 589.668 724.225 L 587.145 729.122 591.823 738.800 C 605.491 767.081, 588.623 792.608, 556.380 792.435 L 544.260 792.370 538.706 803.935 C 533.144 815.520, 522.989 839.886, 523.013 841.592 C 523.020 842.091, 525.447 844.623, 528.406 847.219 C 552.302 868.174, 539.238 909.210, 508.151 910.843 C 499.083 911.319, 498.902 911.628, 496.592 930.540 C 492.971 960.195, 495.230 965.791, 510.429 964.824 C 519.640 964.237, 526.743 960.303, 537.664 949.737 C 569.195 919.234, 584.656 886.471, 577.080 866.213 C 569.428 845.751, 578.740 826.056, 602.500 812.452 C 616.189 804.613, 628 792.022, 628 785.266 C 628 784.570, 629.367 779.838, 631.037 774.750 C 634.408 764.485, 639 733.734, 639 721.429 C 639 699.888, 626.553 687.562, 613.519 696.196 M 1375.689 695.758 C 1365.301 701.785, 1363.580 707.129, 1364.258 731.260 C 1365.401 771.926, 1378.968 801.779, 1401.815 813.899 C 1424.343 825.851, 1429.053 836.056, 1425.975 866.249 C 1423.479 890.730, 1427.603 903.154, 1446.641 928.500 C 1481.817 975.333, 1514.704 979.150, 1506.949 935.500 C 1505.776 928.900, 1504.483 921.138, 1504.076 918.251 C 1503.175 911.870, 1504.282 912.616, 1493.500 911.126 C 1461.193 906.661, 1451.083 863.368, 1478.205 845.633 C 1480.379 844.211, 1480.911 843.256, 1480.434 841.633 C 1479.578 838.716, 1463.302 800.496, 1461.033 796.073 L 1459.206 792.511 1445.853 792.505 C 1411.802 792.492, 1395.688 761.159, 1414.938 732.391 L 1417.018 729.281 1410.935 720.729 C 1394.390 697.469, 1384.642 690.563, 1375.689 695.758 M 896.528 700.066 C 881.128 702.641, 871 710.059, 871 718.764 C 871 721.851, 872.818 723.782, 886.748 735.500 C 899.553 746.272, 907.173 760.987, 907.384 775.351 L 907.500 783.202 899.500 787.702 C 847.143 817.151, 826.419 836.398, 797.961 882 C 786.263 900.746, 774.397 926.343, 766.208 950.500 C 758.331 973.738, 755.111 985.550, 747.947 1017.500 C 746.837 1022.450, 745.674 1027.337, 745.362 1028.359 C 745.035 1029.435, 741.997 1031.477, 738.148 1033.210 C 703.839 1048.651, 682.072 1081.058, 682.017 1116.782 C 681.982 1139.542, 688.144 1143.701, 698.401 1127.840 C 706.158 1115.845, 713.502 1111.545, 732.500 1107.872 C 751.320 1104.235, 753.899 1103.217, 760.190 1096.950 L 765.880 1091.280 769.093 1094.596 C 775.131 1100.826, 783.385 1103.638, 802.183 1105.868 C 812.928 1107.144, 819.421 1110.683, 828.672 1120.308 C 840.260 1132.364, 845.659 1128.384, 844.690 1108.500 C 843.458 1083.221, 833.234 1062.470, 813.453 1045.099 C 801.124 1034.273, 801.631 1036.448, 808.866 1025.432 C 837.803 981.374, 890.342 951.825, 958 941.556 C 963.775 940.679, 972.740 939.318, 977.921 938.532 C 988.355 936.948, 991.260 935.162, 991.235 930.347 C 991.227 928.781, 991.733 926.851, 992.360 926.058 C 993.237 924.949, 993.211 924.790, 992.250 925.367 C 991.472 925.835, 991 925.552, 991 924.618 C 991 922.016, 989.457 921.914, 974.807 923.545 C 936.605 927.798, 894.382 940.122, 867.114 954.978 C 834.205 972.906, 798.572 1009.040, 789.941 1033.236 L 787.181 1040.972 793.340 1045.811 C 796.728 1048.472, 800.577 1051.378, 801.892 1052.269 C 815.671 1061.593, 828.326 1082.283, 830.627 1099.250 C 831.340 1104.500, 830.622 1105.054, 826.885 1102.141 C 821.628 1098.044, 807.658 1093.138, 792.076 1089.917 C 783.289 1088.100, 778.331 1085.231, 772.271 1078.456 C 765.850 1071.277, 765.538 1071.281, 760.012 1078.600 C 753.818 1086.804, 750.338 1088.595, 730.922 1093.577 C 712.379 1098.335, 707.098 1100.853, 699.853 1108.393 C 694.639 1113.819, 694.309 1112.758, 697.327 1100.277 C 703.672 1074.041, 726.200 1048.589, 748 1043.029 C 750.475 1042.397, 753.264 1041.660, 754.197 1041.390 C 756.172 1040.818, 759.263 1033.081, 760.944 1024.500 C 782.664 913.637, 831.877 839.084, 908.724 800.626 C 933.486 788.234, 925.145 745.034, 893.639 722.500 C 884.856 716.218, 886.691 715.282, 909.676 714.327 C 934.582 713.291, 944.809 715.454, 965.500 726.132 C 973.855 730.444, 984 737.049, 984 738.176 C 984 738.694, 984.450 738.840, 985 738.500 C 985.550 738.160, 986 738.359, 986 738.941 C 986 739.523, 986.477 740, 987.060 740 C 988.544 740, 996.146 746.049, 1006.970 755.843 L 1016.190 764.186 1041.345 763.410 C 1078.291 762.272, 1114.972 762.479, 1127.500 763.898 C 1209.958 773.233, 1245.250 798.093, 1246.257 847.550 L 1246.500 859.499 1250 861.255 C 1253.857 863.190, 1261.245 866.517, 1282.891 876.067 C 1318.318 891.697, 1293.966 902.073, 1253.596 888.550 C 1236.421 882.796, 1236.595 882.888, 1225 873.523 C 1211.672 862.759, 1211.325 862.613, 1200.911 863.399 C 1192.532 864.032, 1192.107 863.961, 1189.097 861.428 C 1180.435 854.139, 1170.447 862.373, 1174.821 873.198 C 1177.542 879.933, 1182.229 880.200, 1188.881 873.997 C 1197.464 865.994, 1208.213 867.862, 1224.056 880.108 C 1244.170 895.658, 1283.545 905.894, 1303.129 900.664 C 1306.774 899.691, 1310.824 898.827, 1312.129 898.745 C 1315.286 898.547, 1315.968 897.353, 1315.979 892 C 1316.009 878.155, 1309.135 871.364, 1285.649 862.033 C 1281.717 860.471, 1274.900 857.669, 1270.500 855.806 L 1262.500 852.420 1261.770 843.460 C 1258.478 803.058, 1234.513 775.529, 1189 759.866 C 1174.224 754.781, 1166.757 753.265, 1132.500 748.396 C 1111.972 745.478, 1048.676 745.616, 1026.713 748.626 C 1022.359 749.223, 1022.097 749.094, 1014.880 742.816 C 974.759 707.915, 935.152 693.609, 896.528 700.066 M 911.923 719.923 C 906.203 725.643, 908.946 731.187, 919.500 735.235 L 923.500 736.769 924 746.990 L 924.500 757.212 929.159 761.356 C 937.785 769.028, 940.347 786.229, 934.500 797.212 C 929.913 805.828, 932.024 813.713, 939.414 815.568 C 949.133 818.007, 954.625 804.945, 947.007 797.507 L 943.014 793.607 943.653 782.420 C 944.422 768.946, 942.699 763.953, 935.594 759.064 C 928.417 754.127, 926.594 748.032, 926.945 730.157 C 927.140 720.181, 917.936 713.910, 911.923 719.923 M 946.781 738.052 C 942.051 740.550, 940.671 743.003, 942.012 746.531 C 943.331 750.002, 949.901 758, 951.432 758 C 956.527 758, 959.870 772.442, 956.575 780.218 C 950.424 794.735, 965.068 804.921, 973.585 792.051 C 976.892 787.054, 975.643 787.323, 995.810 787.265 C 1005.330 787.237, 1013.400 786.933, 1013.743 786.590 C 1015.556 784.778, 1010.701 783.994, 993.978 783.399 C 975.752 782.750, 975.465 782.705, 972.936 780.120 C 971.525 778.679, 968.938 776.733, 967.186 775.797 C 964.138 774.167, 964 773.828, 964 767.981 C 964 764.619, 963.612 761.111, 963.138 760.184 C 959.476 753.026, 961.053 751.677, 969.059 755.121 C 973.322 756.955, 974.131 757.772, 975.047 761.173 C 977.867 771.647, 996.029 769.531, 995.996 758.732 C 995.976 752.025, 983.607 744.129, 980.937 749.118 C 978.664 753.365, 964.524 748.697, 960.863 742.492 C 957.195 736.276, 952.781 734.884, 946.781 738.052 M 1059.154 771.846 C 1058.015 772.985, 1056.156 775.734, 1055.023 777.955 C 1051.952 783.974, 1040.339 789.827, 1036.842 787.119 C 1031.193 782.744, 1026.631 783.571, 1023.063 789.617 C 1020.249 794.387, 1020.716 796.904, 1024.941 799.744 C 1031.154 803.922, 1032.846 803.819, 1037.349 798.992 C 1044.191 791.656, 1057 785.735, 1057 789.907 C 1057 791.159, 1061.849 793, 1065.147 793 C 1069.415 793, 1075 787.360, 1075 783.050 C 1075 773.934, 1064.494 766.506, 1059.154 771.846 M 1102.411 774.538 C 1096.794 780.317, 1096.746 782.685, 1102.127 788.522 C 1107.440 794.286, 1109.541 794.265, 1114.883 788.396 C 1118.619 784.290, 1119.421 783.854, 1122.287 784.376 C 1124.054 784.697, 1134.275 785.683, 1145 786.567 C 1155.725 787.450, 1164.948 788.247, 1165.495 788.337 C 1166.042 788.426, 1167.276 789.741, 1168.235 791.258 C 1169.195 792.775, 1172 794.998, 1174.468 796.197 L 1178.955 798.377 1183.450 796.132 L 1187.944 793.888 1194.222 798.116 C 1208.133 807.485, 1211.594 810.643, 1213.476 815.685 C 1216.951 824.992, 1222.853 826.993, 1228.923 820.923 C 1235.850 813.996, 1227.108 800.551, 1218.850 805.430 C 1215.861 807.195, 1215.743 807.186, 1212.717 804.949 C 1205.560 799.658, 1193.605 792, 1192.502 792 C 1190.700 792, 1188.393 788.937, 1187.054 784.766 C 1184.564 777.010, 1177.829 774.830, 1172.845 780.166 L 1169.887 783.332 1159.194 782.150 C 1153.312 781.500, 1142.875 780.525, 1136 779.984 C 1118.104 778.575, 1117.761 778.483, 1113.722 773.983 C 1109.173 768.915, 1107.811 768.982, 1102.411 774.538 M 1082.685 797.963 C 1081.313 799.593, 1080.009 801.472, 1079.787 802.140 C 1079.472 803.085, 1078.091 803.094, 1073.524 802.176 C 1062.014 799.865, 1058.872 800.410, 1052.935 805.750 L 1047.653 810.500 1017.757 810.792 L 987.861 811.085 984.395 808.042 C 976.071 800.734, 964.105 809.568, 969.125 819.316 C 973.703 828.205, 984.066 828.574, 988.317 820 L 989.557 817.500 1020.189 817 L 1050.821 816.500 1052.999 813.730 C 1058.812 806.336, 1075.260 805.497, 1082.014 812.250 C 1088.016 818.250, 1095.441 816.975, 1098.606 809.401 C 1102.967 798.963, 1089.802 789.504, 1082.685 797.963 M 1121.504 801.405 C 1117.622 805.287, 1117.995 811.195, 1122.400 815.600 C 1127.065 820.265, 1130.861 820.206, 1135.674 815.393 L 1139.282 811.785 1162.891 812.511 C 1191.205 813.382, 1188.779 812.458, 1204.311 828.285 C 1215.876 840.069, 1216.109 840.396, 1215.504 843.976 C 1214.569 849.509, 1224.529 858.436, 1229.335 856.372 C 1241.669 851.074, 1236.301 832.333, 1223.568 836.241 C 1219.366 837.530, 1220.521 838.408, 1207.439 823.979 C 1191.909 806.851, 1191.689 806.767, 1162.133 806.621 L 1137.767 806.500 1136.633 803 C 1135.074 798.185, 1125.711 797.198, 1121.504 801.405 M 902.607 810.888 C 900.859 812.713, 899.636 815.297, 899.286 817.904 C 898.737 821.999, 896.609 824.309, 882.718 835.883 C 881.563 836.846, 878.628 837.392, 874.381 837.434 C 862.077 837.558, 858.091 850.466, 868.684 855.883 C 875.739 859.491, 884.692 852.580, 882.723 845.048 C 882.202 843.058, 887.150 838.260, 896.950 831.250 C 902.106 827.562, 903.579 827.309, 906.181 829.664 C 908.132 831.429, 911.020 830.634, 915.206 827.178 C 922.111 821.478, 927.765 824.807, 949.662 847.470 L 966.600 865 977.084 865 C 987.539 865, 987.574 865.008, 989.244 867.836 C 994.103 876.062, 1000.366 877.301, 1006.431 871.236 C 1015.893 861.773, 1001.467 849.115, 991.347 858 C 980.432 867.584, 962.480 857.323, 937.489 827.213 C 934.369 823.455, 929.237 821, 924.500 821 C 920.756 821, 919.509 819.800, 918.539 815.262 C 916.991 808.023, 907.776 805.493, 902.607 810.888 M 1101.863 820.011 C 1096.046 824.382, 1094.266 824.694, 1078.496 824.111 L 1070.491 823.815 1065.557 828.158 L 1060.623 832.500 1031.340 832.500 L 1002.057 832.500 999.124 835.707 C 995.283 839.907, 992.864 840.403, 980.136 839.597 C 968.309 838.849, 965.165 839.793, 966.411 843.718 C 967.304 846.534, 969.583 846.971, 983.458 846.986 L 995.416 847 999.255 843.250 L 1003.095 839.500 1032.177 839.257 L 1061.260 839.015 1065.725 834.900 L 1070.189 830.785 1083.478 831.168 L 1096.768 831.552 1101.548 835.276 C 1111.305 842.877, 1121.371 832.335, 1114.031 822.202 C 1109.251 815.603, 1108.023 815.382, 1101.863 820.011 M 1165.883 828.706 L 1160.851 833.413 1149.176 833.463 C 1135.946 833.519, 1133.668 834.304, 1127.757 840.847 C 1122.822 846.310, 1121.831 848.464, 1122.021 853.318 C 1122.112 855.618, 1122.144 858.286, 1122.093 859.246 C 1122.042 860.206, 1117.952 865.043, 1113.004 869.996 L 1104.009 879 1087.192 879 L 1070.376 879 1068.158 876 C 1063.592 869.824, 1052.795 875.711, 1053.855 883.798 C 1055.127 893.507, 1065.541 897.282, 1070.036 889.663 L 1072.035 886.276 1089.186 885.780 L 1106.336 885.285 1112.970 878.393 C 1116.619 874.602, 1121.647 869.585, 1124.144 867.244 L 1128.683 862.988 1128.682 855.727 C 1128.679 842.426, 1131.898 840.009, 1149.629 840.004 L 1161.757 840 1163.002 843.005 C 1167.781 854.541, 1183.739 855.140, 1189.501 843.998 C 1197.001 829.495, 1178.113 817.266, 1165.883 828.706 M 906.061 847.739 C 904.169 848.671, 899.056 852.767, 894.700 856.841 L 886.778 864.249 881.349 863.611 C 869.014 862.161, 864.080 874.309, 873.712 882.412 C 881.492 888.956, 888 886.069, 888 876.074 L 888 870.525 895.163 863.641 C 913.686 845.837, 923.370 848.591, 937.336 875.634 C 938.255 877.414, 939.775 877.913, 946.469 878.634 C 954.232 879.471, 954.511 879.592, 954.815 882.239 C 955.877 891.462, 974 890.025, 974 880.718 C 974 871.910, 969.199 868.573, 961.361 871.932 C 956.952 873.821, 944.179 873.063, 942.574 870.817 C 940.869 868.431, 936.167 860.854, 935.056 858.704 C 929.221 847.403, 916.507 842.595, 906.061 847.739 M 1078.500 851 L 1072.979 856 1055.884 856 C 1039.108 856, 1038.733 855.953, 1035.818 853.500 C 1026.563 845.713, 1014.782 858.342, 1023.569 866.630 C 1029.805 872.511, 1033.900 871.962, 1037.633 864.743 L 1039.061 861.981 1057.841 862.241 L 1076.621 862.500 1079.887 865.250 C 1089.197 873.089, 1101.144 862.914, 1095.483 851.967 C 1091.784 844.814, 1085.713 844.468, 1078.500 851 M 1146.247 856.174 C 1143.721 857.445, 1141.518 863.944, 1142.409 867.494 C 1143.052 870.054, 1129.665 885, 1126.729 885 C 1117.938 885, 1114.255 898.789, 1122 902.706 C 1130.790 907.152, 1140.522 899.636, 1136.737 891.324 C 1133.917 885.130, 1142.043 875.249, 1151.339 873.570 C 1159.960 872.012, 1162.211 869.199, 1160.057 862.674 C 1158.031 856.534, 1151.572 853.494, 1146.247 856.174 M 838.930 863.478 C 835.345 865.427, 832.215 872.514, 833.811 875.069 C 836.610 879.551, 829.391 895.316, 823.997 896.501 C 815.775 898.307, 811.777 908.345, 817.340 913.217 C 826.786 921.490, 837.019 914.991, 832.822 903.385 C 830.299 896.406, 836.859 884.707, 843.969 883.505 C 852.024 882.144, 857.010 875.930, 854.422 870.477 C 850.953 863.167, 844.698 860.341, 838.930 863.478 M 907.775 867.559 C 903.882 869.672, 903 871.946, 903 879.875 C 903 888.087, 903.041 888.130, 909.516 886.824 C 912.257 886.271, 915.475 885.635, 916.667 885.411 C 917.859 885.187, 919.772 883.487, 920.917 881.634 C 926.497 872.606, 917.073 862.513, 907.775 867.559 M 1199.896 877.757 C 1198.464 878.715, 1195.764 881.128, 1193.896 883.117 C 1189.292 888.021, 1172.639 889.703, 1164.470 886.090 C 1158.589 883.488, 1155.913 883.452, 1153.778 885.947 C 1149.371 891.093, 1151.315 901.870, 1156.699 902.141 C 1165.422 902.581, 1168 901.402, 1168 896.976 C 1168 892.405, 1190.686 890.384, 1195.062 894.566 C 1199.514 898.820, 1212 895.376, 1212 889.894 C 1212 886.968, 1207.285 878.223, 1205.067 877.036 C 1202.644 875.739, 1202.979 875.693, 1199.896 877.757 M 1031.217 881.561 C 1025.120 885.831, 1024.478 893.146, 1029.615 899.810 L 1033.230 904.500 1032.749 922.019 C 1032.298 938.445, 1032.104 939.861, 1029.645 944.715 C 1025.922 952.060, 1028.549 956.899, 1036.295 956.967 C 1042.183 957.018, 1045.443 953.250, 1044.632 947.332 C 1044.068 943.214, 1044.317 942.463, 1047.510 938.662 C 1055.974 928.585, 1059.103 924.351, 1059.641 922.250 C 1059.958 921.013, 1060.506 919.956, 1060.858 919.901 C 1061.211 919.847, 1063.473 919.708, 1065.885 919.593 C 1078.891 918.974, 1074.747 900, 1061.605 900 C 1055.467 900, 1050.117 911.197, 1053.666 916.614 C 1055.376 919.223, 1055.200 919.660, 1048.520 929.417 C 1046.063 933.006, 1043.767 937.081, 1043.418 938.471 C 1042.984 940.199, 1042.105 940.995, 1040.642 940.985 C 1035.996 940.951, 1035.904 940.500, 1036.631 921.138 L 1037.315 902.927 1040.043 901.316 C 1046.009 897.792, 1047.721 888.979, 1043.250 884.809 C 1037.947 879.864, 1034.838 879.024, 1031.217 881.561 M 983.459 884.341 C 977.538 890.262, 977.610 894.407, 983.701 898.392 C 991.501 903.496, 996.793 901.771, 999.801 893.142 C 1002.944 884.126, 990.419 877.381, 983.459 884.341 M 932.452 892.782 C 930.225 894.291, 925.616 897.996, 922.208 901.013 C 918.139 904.617, 914.039 907.186, 910.264 908.500 C 905.966 909.995, 904.175 911.215, 903.163 913.335 C 900.003 919.954, 905.333 927.538, 911.402 925.058 C 919.450 921.770, 927 920.190, 927 921.794 C 927 922.641, 927.290 923.044, 927.644 922.689 C 927.998 922.335, 929.814 923.385, 931.679 925.023 C 937.754 930.357, 949.954 924.458, 947.468 917.388 C 944.674 909.445, 935.729 906.755, 932.550 912.903 C 930.975 915.949, 928.570 916.974, 923 916.971 C 914.624 916.967, 915.377 914.539, 927.144 903.607 C 936.513 894.903, 938.981 894.223, 944.877 898.720 C 946.838 900.216, 951.156 902.803, 954.471 904.470 C 958.622 906.556, 960.931 908.435, 961.883 910.500 C 965.585 918.532, 971.020 919.407, 977.155 912.958 C 982.818 907.005, 981.491 902.332, 972.891 897.945 C 968.468 895.688, 966.377 896.249, 963.640 900.427 C 961.722 903.354, 960.596 903.113, 953.937 898.347 C 942.796 890.373, 937.881 889.100, 932.452 892.782 M 886.548 893.454 C 881.369 896.073, 880.049 899.476, 882.341 904.305 C 884.564 908.992, 884.628 908.737, 879.458 915.842 C 871.980 926.119, 867.778 929.652, 862.300 930.270 C 849.625 931.698, 850.348 950, 863.079 950 C 870.036 950, 873.952 945.030, 871.819 938.910 C 870.609 935.440, 871.395 933.916, 879.369 924.270 C 882.741 920.191, 886.299 915.587, 887.277 914.039 C 888.497 912.106, 890.430 910.877, 893.450 910.117 C 899.336 908.635, 902 905.167, 902 898.988 C 902 891.713, 894.972 889.196, 886.548 893.454 M 1097.856 891.722 C 1093.370 892.197, 1091.755 893.970, 1089.501 900.892 C 1078.036 936.096, 1031.279 978.432, 1000.815 981.191 C 979.670 983.107, 978.613 982.316, 988.406 971.907 C 1002.780 956.627, 1008.448 944.161, 1007.796 929.262 L 1007.500 922.500 1003.288 922.194 C 997.533 921.777, 995 923.299, 995 927.175 C 995 928.959, 994.256 930.845, 993.250 931.608 C 992.181 932.419, 991.987 932.949, 992.750 932.968 C 998.624 933.118, 988.774 951.943, 976.514 964 C 941.483 998.450, 996.455 1010.544, 1044.653 978.991 L 1047.806 976.926 1046.927 980.713 C 1040.500 1008.398, 1062.550 1010.975, 1089.577 985.698 C 1105.468 970.835, 1122 941.953, 1122 929.053 C 1122 927.513, 1123.066 927.083, 1128.250 926.533 C 1152.744 923.934, 1163.001 922.574, 1181.500 919.475 C 1193.050 917.540, 1207.136 915.003, 1212.803 913.837 L 1223.105 911.717 1231.803 914.342 C 1274.683 927.285, 1301.921 926.545, 1312.566 912.146 C 1319.705 902.490, 1314.143 899.390, 1301.742 906.115 L 1295.500 909.500 1281.500 909.436 C 1266.659 909.368, 1262.942 908.680, 1235.500 900.918 C 1222.358 897.200, 1222.192 897.190, 1209.500 899.381 C 1164.222 907.196, 1155.007 908.404, 1116.722 911.539 C 1107.850 912.265, 1104.749 914.173, 1099.832 921.926 C 1095.961 928.030, 1096.113 928.299, 1103 927.500 C 1106.300 927.117, 1109 927.022, 1109 927.288 C 1109 927.554, 1107.826 931.311, 1106.391 935.636 C 1095.647 968.012, 1060 1002.504, 1060 980.523 C 1060 972.074, 1059.440 970, 1057.160 970 C 1056.220 970, 1060.051 965.460, 1066.229 959.250 C 1078.371 947.047, 1078.238 947.210, 1087.719 933 C 1096.329 920.096, 1107 897.853, 1107 892.810 C 1107 890.932, 1106.205 890.838, 1097.856 891.722 M 857 895.706 C 852.318 897.418, 848.413 905.193, 850.695 908.261 C 852.444 910.613, 851.255 913.536, 844.499 923.500 C 828.020 947.804, 826.896 949.110, 820.913 950.906 C 811.241 953.809, 809.736 964.820, 818.299 970.040 C 826.799 975.223, 836.110 965.919, 831.827 956.521 C 830.334 953.242, 831.272 951.378, 842.414 935.500 C 854.771 917.889, 856.543 916, 860.708 916 C 866.622 916, 873.483 908.938, 872.337 904.031 C 870.812 897.499, 863.280 893.411, 857 895.706 M 1009.315 902.488 C 1006.135 903.846, 1003 908.376, 1003 911.609 C 1003 912.549, 1005.138 915.281, 1007.750 917.679 L 1012.500 922.040 1012.463 933.270 C 1012.435 941.671, 1011.820 946.953, 1010.020 954.235 L 1007.613 963.970 1003.688 963.817 C 996.320 963.528, 993.532 971.146, 998.901 976.894 C 1005.392 983.843, 1014.626 976.036, 1011.047 966.624 C 1009.953 963.746, 1011.762 959.145, 1015.638 954.948 C 1019 951.308, 1020.348 942.695, 1019.504 930.258 C 1018.823 920.221, 1018.861 919.954, 1021.404 916.931 C 1028.020 909.069, 1019.034 898.335, 1009.315 902.488 M 799.355 926.554 C 796.639 929.270, 796.488 932.667, 798.772 939.646 C 799.652 942.337, 799.305 944.001, 796.374 951.146 C 794.488 955.741, 792.308 961.750, 791.529 964.500 C 785.226 986.737, 778.336 1002.879, 773.607 1006.487 C 766.331 1012.036, 766.391 1018.249, 773.755 1021.767 C 784.149 1026.733, 793.940 1018.033, 787.041 1009.962 C 782.488 1004.635, 782.918 1002.752, 796.973 966.500 C 800.171 958.250, 803.331 949.781, 803.995 947.680 C 805.280 943.609, 805.436 943.500, 811.326 942.518 C 815.684 941.792, 818.675 936.825, 817.522 932.230 C 815.582 924.501, 804.782 921.127, 799.355 926.554 M 1089.764 935.750 C 1087.064 938.807, 1084 945.377, 1084 948.109 C 1084 949.740, 1082.641 952.231, 1080.446 954.624 C 1078.492 956.756, 1075.788 959.737, 1074.439 961.250 C 1073.089 962.763, 1071.106 964, 1070.031 964 C 1064.630 964, 1061.690 974.690, 1065.926 978.926 C 1070.255 983.255, 1077.528 976.702, 1076.440 969.451 C 1075.837 965.428, 1075.983 965.060, 1078.750 963.629 C 1080.374 962.789, 1082.449 960.964, 1083.361 959.572 C 1085.075 956.956, 1089.625 954.150, 1093.302 953.442 C 1099.939 952.164, 1101.847 942.581, 1096.563 937.066 C 1093.191 933.546, 1091.927 933.302, 1089.764 935.750 M 799.989 982.250 C 797.820 985.808, 797.478 989.496, 798.957 993.386 C 799.749 995.469, 799.318 996.890, 796.457 1001.642 C 792.210 1008.694, 791.501 1015.228, 795.250 1012.766 C 796.487 1011.954, 798.425 1009.007, 799.555 1006.218 C 802.480 998.998, 804.985 996, 808.091 996 C 814.557 996, 818.349 987.488, 813.750 983.299 C 807.856 977.931, 802.855 977.550, 799.989 982.250 M 474.261 983.557 C 463.434 988.952, 457.834 998.159, 457.202 1011.601 C 455.264 1052.843, 514.826 1055.801, 518.668 1014.653 C 520.838 991.411, 494.920 973.262, 474.261 983.557 M 1505.942 981.889 C 1471.488 993.135, 1479.757 1043.727, 1516 1043.430 C 1548.338 1043.166, 1557.095 998.947, 1527.795 983.878 C 1523.132 981.479, 1510.671 980.346, 1505.942 981.889 M 763.258 1036.954 C 760.472 1039.944, 756.763 1047.808, 757.543 1049.070 C 757.914 1049.669, 757.268 1050.824, 756.108 1051.637 C 753.862 1053.210, 753.349 1055.480, 755.007 1056.504 C 755.561 1056.847, 756.316 1056.311, 756.684 1055.313 C 757.835 1052.198, 759.249 1052.062, 763.647 1054.639 L 767.906 1057.135 772.580 1055.068 C 781.781 1050.998, 788.817 1057.561, 784.002 1065.721 C 777.208 1077.236, 787.886 1086.303, 797.287 1077 C 802.184 1072.155, 803.779 1070.930, 802.500 1073 C 802.160 1073.550, 802.391 1074, 803.013 1074 C 803.797 1074, 803.939 1075.643, 803.475 1079.351 C 802.138 1090.059, 814.797 1093.796, 818.997 1083.934 C 820.838 1079.612, 816.726 1073, 812.197 1073 C 811.450 1073, 808.513 1071.495, 805.669 1069.655 C 802.826 1067.815, 799.150 1065.749, 797.500 1065.064 C 795.647 1064.294, 792.957 1061.462, 790.466 1057.659 C 787.894 1053.733, 785.138 1050.861, 782.862 1049.738 C 780.489 1048.566, 778.687 1046.633, 777.487 1043.970 C 774.556 1037.472, 766.484 1033.491, 763.258 1036.954 M 748 1056.692 C 740.778 1057.904, 739.181 1058.972, 738.492 1063.047 C 737.787 1067.221, 734.191 1071, 730.924 1071 C 729.931 1071, 728.827 1071.472, 728.470 1072.048 C 728.114 1072.624, 725.494 1073.001, 722.648 1072.886 C 714.305 1072.549, 710.064 1076.464, 711.532 1083.147 C 713.267 1091.045, 726.281 1093.452, 728.370 1086.261 C 728.651 1085.292, 729.371 1082.601, 729.971 1080.280 C 731.288 1075.179, 735.694 1073.443, 744.523 1074.546 C 752.600 1075.555, 755.529 1072.389, 754.547 1063.710 C 753.606 1055.393, 753.895 1055.703, 748 1056.692 M 502.500 1059.954 C 495.276 1062.942, 493.622 1074.888, 496.957 1100 C 498.668 1112.890, 498.525 1112.707, 507.232 1113.147 C 540.078 1114.805, 552.804 1153.812, 528.242 1177.548 L 521.984 1183.595 526.900 1195.548 C 536.337 1218.490, 543.809 1234, 545.426 1234 C 545.607 1234, 547.478 1233.280, 549.583 1232.401 C 560.875 1227.683, 581.024 1234.908, 589.031 1246.545 C 598.316 1260.040, 598.163 1271.243, 588.433 1290.218 L 586.014 1294.936 589.088 1300.149 C 618.133 1349.410, 645.702 1338.252, 637.391 1280.600 C 631.422 1239.199, 623.504 1223.782, 601.857 1211.418 C 578.750 1198.221, 570.142 1179.675, 576.987 1157.839 C 583.435 1137.269, 572.739 1113.400, 542.104 1079.994 C 528.222 1064.856, 511.322 1056.305, 502.500 1059.954 M 1488.261 1059.974 C 1477.961 1062.419, 1461.825 1077.223, 1444.277 1100.324 C 1426.285 1124.010, 1422.788 1135.802, 1426.490 1160.296 C 1430.288 1185.416, 1424.270 1198.312, 1403.146 1210.319 C 1397.649 1213.444, 1392.763 1216, 1392.288 1216 C 1384.572 1216, 1373.113 1241.037, 1365.286 1275 C 1360.459 1295.943, 1363.288 1319.324, 1371.573 1326.960 C 1380.424 1335.119, 1388.152 1332.701, 1400.601 1317.881 C 1416.553 1298.889, 1418.034 1295.526, 1413.470 1288.652 C 1394.778 1260.501, 1421.802 1222.844, 1454.265 1231.807 C 1457.896 1232.810, 1463 1229.114, 1463 1225.481 C 1463 1225.024, 1464.761 1221.016, 1466.914 1216.575 C 1472.076 1205.924, 1479.702 1188.143, 1480.455 1185 C 1480.951 1182.930, 1480.433 1182.081, 1477.439 1180.061 C 1450.651 1161.985, 1462.284 1113.069, 1493.390 1112.986 C 1500.312 1112.968, 1503 1112.124, 1503 1109.970 C 1503 1108.983, 1504.363 1101.055, 1506.028 1092.353 C 1509.298 1075.270, 1509.235 1072.987, 1505.307 1066.159 C 1501.698 1059.887, 1496.528 1058.011, 1488.261 1059.974 M 936.838 1161.119 C 913.229 1167.813, 918.476 1194.157, 944.300 1198.586 C 953.504 1200.165, 956.944 1201.596, 957.118 1203.919 C 957.960 1215.144, 939.168 1216.853, 934.374 1205.987 C 933.215 1203.360, 932.108 1202.128, 931.213 1202.472 C 930.456 1202.762, 927.339 1203, 924.287 1203 L 918.738 1203 919.302 1206.472 C 922.478 1226.043, 957.286 1230.871, 968.892 1213.350 C 977.275 1200.693, 969.947 1190.983, 947.500 1185.006 C 934.725 1181.605, 931.878 1178.359, 937.904 1174.068 C 943.399 1170.155, 951.153 1172.230, 956.114 1178.940 C 960.777 1185.248, 970.317 1182.339, 968.195 1175.257 C 964.802 1163.930, 950.177 1157.337, 936.838 1161.119 M 999.897 1160.905 C 974.290 1166.111, 969.072 1208.727, 992.500 1221.326 C 997.061 1223.779, 1015.066 1224.341, 1020.245 1222.192 C 1022.693 1221.177, 1023.358 1221.376, 1026.377 1224.027 C 1030.729 1227.847, 1033.507 1227.854, 1035.474 1224.050 C 1037.561 1220.014, 1037.388 1217.502, 1034.910 1215.856 L 1032.821 1214.469 1034.993 1208.020 C 1044.411 1180.064, 1026.162 1155.566, 999.897 1160.905 M 1047.957 1162.702 C 1047.925 1163.288, 1047.957 1211.556, 1047.995 1221.703 C 1048.001 1223.297, 1089.448 1222.952, 1091.055 1221.345 C 1091.646 1220.754, 1091.987 1218.298, 1091.814 1215.886 L 1091.500 1211.500 1076.268 1211.224 L 1061.035 1210.948 1060.768 1186.724 L 1060.500 1162.500 1054.250 1162.202 C 1050.813 1162.039, 1047.981 1162.264, 1047.957 1162.702 M 1000.329 1174.941 C 985.262 1184.128, 990.094 1210.869, 1007.326 1213.665 L 1010.932 1214.251 1009.966 1210.882 C 1007.128 1200.985, 1011.041 1196.798, 1017.808 1202.492 C 1021.625 1205.703, 1023.003 1204.292, 1023.919 1196.237 C 1025.862 1179.153, 1012.784 1167.347, 1000.329 1174.941 M 692.202 1193.766 C 690.583 1194.306, 690.670 1199.481, 692.321 1200.851 C 694.081 1202.312, 888.411 1202.386, 891.138 1200.926 C 893.046 1199.905, 893.542 1197.389, 892.235 1195.359 C 891.534 1194.271, 695.374 1192.709, 692.202 1193.766 M 1118.500 1194 C 1111.557 1194.694, 1110.188 1200.274, 1116.697 1201.350 C 1123.469 1202.469, 1310.942 1202.101, 1313.066 1200.965 C 1315.259 1199.791, 1315.796 1194.145, 1313.750 1193.773 C 1311.164 1193.303, 1123.282 1193.522, 1118.500 1194 M 981.340 1258.374 C 958.353 1265.898, 962.621 1288.690, 987.991 1293.893 C 1001.294 1296.622, 1005.855 1300.371, 1001.935 1305.356 C 996.739 1311.962, 980 1309.019, 980 1301.500 C 980 1298.807, 975.650 1298.120, 968.125 1299.625 C 959.711 1301.308, 969.890 1316.441, 981.460 1319.450 C 1016.839 1328.652, 1031.577 1293.215, 996.972 1282.153 C 980.870 1277.006, 976.284 1273.456, 981.950 1270.526 C 987.175 1267.824, 999 1269.558, 999 1273.026 C 999 1277.202, 1010.118 1279.973, 1012.989 1276.513 C 1020.616 1267.323, 996.401 1253.445, 981.340 1258.374 M 1047 1258.387 C 1030.131 1262.128, 1021.765 1276.553, 1024.968 1296.376 C 1027.903 1314.543, 1045.254 1326.067, 1061.413 1320.581 C 1065.973 1319.033, 1066.401 1319.041, 1068.760 1320.719 C 1077.373 1326.845, 1082.375 1326.404, 1085.084 1319.280 C 1086.855 1314.622, 1086.367 1313.918, 1081.867 1314.637 C 1079.530 1315.011, 1077.900 1314.908, 1078.117 1314.399 C 1078.328 1313.905, 1080.075 1310.359, 1082 1306.521 C 1092.479 1285.627, 1082.036 1262.066, 1060.535 1258.091 C 1053.661 1256.820, 1054.110 1256.811, 1047 1258.387 M 879.783 1259.817 C 878.689 1260.019, 877.824 1261.470, 877.399 1263.817 C 877.032 1265.843, 875.814 1269.975, 874.693 1273 C 873.571 1276.025, 871.429 1283.209, 869.932 1288.965 C 866.920 1300.544, 865.555 1302.252, 864.468 1295.801 C 864.070 1293.436, 862.391 1287.450, 860.738 1282.500 C 859.085 1277.550, 856.978 1270.575, 856.055 1267 L 854.376 1260.500 843.673 1260.216 L 832.970 1259.932 833.235 1289.216 L 833.500 1318.500 840.102 1318.792 L 846.705 1319.085 847.373 1311.901 C 847.740 1307.950, 847.804 1299.268, 847.515 1292.608 L 846.991 1280.500 849.035 1284.753 C 850.159 1287.093, 852.427 1294.165, 854.076 1300.469 C 858.491 1317.354, 859.169 1318.674, 863.716 1319.263 C 871.918 1320.325, 874.357 1316.936, 879.051 1297.957 C 884.053 1277.731, 884.427 1277.831, 885 1299.546 L 885.500 1318.500 890.206 1319.409 C 898.279 1320.969, 898.034 1321.936, 897.935 1288.869 C 897.872 1267.601, 897.540 1259.947, 896.675 1259.800 C 894.710 1259.466, 881.615 1259.479, 879.783 1259.817 M 902 1259.448 C 902 1259.695, 903.050 1261.030, 904.333 1262.414 C 907.269 1265.583, 923.503 1291.572, 925.026 1295.543 C 925.694 1297.283, 926.025 1302.614, 925.830 1308.500 L 925.500 1318.500 930.115 1319.392 C 939.402 1321.188, 939.784 1320.725, 940.166 1307.194 L 940.500 1295.385 950.750 1278.361 C 962.898 1258.185, 962.722 1259, 954.934 1259 C 946.686 1259, 945.647 1259.778, 940.517 1269.791 C 932.689 1285.070, 932.976 1285.063, 925.186 1270.167 L 920.019 1260.287 913.863 1259.643 C 906.672 1258.892, 902 1258.815, 902 1259.448 M 1096.235 1289.704 L 1096.500 1319.500 1105.500 1319.760 C 1110.450 1319.903, 1120.109 1319.678, 1126.964 1319.260 L 1139.427 1318.500 1139.464 1313.500 L 1139.500 1308.500 1124.110 1308.223 L 1108.720 1307.946 1109.110 1284.223 L 1109.500 1260.500 1102.735 1260.204 L 1095.970 1259.908 1096.235 1289.704 M 1049.021 1270.116 C 1040.645 1273.458, 1035.221 1287.129, 1038.434 1296.801 C 1040.377 1302.651, 1046.964 1309.612, 1049.600 1308.600 C 1050.557 1308.233, 1051.620 1308.384, 1051.961 1308.937 C 1052.303 1309.490, 1052.564 1307.593, 1052.541 1304.721 C 1052.492 1298.483, 1055.398 1297.267, 1061.604 1300.929 C 1068.858 1305.209, 1072.016 1301.973, 1071.978 1290.300 C 1071.928 1274.862, 1061.065 1265.311, 1049.021 1270.116 M 640.718 1344.032 C 613.167 1350.951, 608.336 1390.232, 633.520 1402.554 C 655.423 1413.270, 680.294 1398.094, 680.294 1374.012 C 680.294 1353.977, 660.581 1339.045, 640.718 1344.032 M 1343.797 1344.730 C 1312.035 1356.683, 1319.056 1403.227, 1353 1405.734 C 1387.144 1408.256, 1399.164 1360.947, 1368 1346.695 C 1359.721 1342.909, 1350.604 1342.169, 1343.797 1344.730 M 709.800 1385.930 C 683.235 1394.424, 687.395 1413.742, 720.215 1434.300 C 723.954 1436.641, 724.164 1436.592, 732.763 1431.372 C 759.200 1415.324, 790 1432.278, 790 1462.878 C 790 1466.603, 789.307 1469.936, 788 1472.500 C 786.900 1474.658, 786 1476.674, 786 1476.981 C 786 1478.442, 810.316 1489.948, 829.427 1497.531 L 836.355 1500.279 839.427 1496.394 C 860.757 1469.426, 899.271 1478.616, 904.407 1511.898 C 905.808 1520.976, 906.109 1521.199, 920.065 1523.462 C 966.140 1530.934, 967.383 1501.617, 922.521 1465.545 C 899.859 1447.323, 887.088 1442.965, 867.753 1446.857 C 840.344 1452.373, 828.268 1446.625, 813.125 1420.853 C 806.123 1408.936, 804.052 1406.735, 794.608 1401.177 C 772.946 1388.428, 727.527 1380.262, 709.800 1385.930 M 1266.500 1384.714 C 1231.232 1388.044, 1196.444 1402.402, 1192.420 1415.287 C 1184.214 1441.569, 1164.031 1452.405, 1133.234 1447.062 C 1112.021 1443.382, 1095.455 1450.989, 1065 1478.398 C 1050.020 1491.879, 1044.424 1513.515, 1053.556 1522.647 C 1056.545 1525.636, 1074.281 1525.915, 1088.007 1523.189 L 1096.515 1521.500 1096.822 1517.500 C 1099.494 1482.709, 1136.677 1468.481, 1160.211 1493.244 L 1166.923 1500.305 1177.211 1495.754 C 1182.870 1493.251, 1192.639 1488.913, 1198.921 1486.115 C 1205.202 1483.316, 1211.277 1480.735, 1212.421 1480.378 C 1215.602 1479.387, 1215.818 1478.361, 1214.249 1471.683 C 1208.215 1445.990, 1225.088 1425.311, 1251.404 1426.146 L 1262.666 1426.504 1270.477 1431.324 C 1280.506 1437.514, 1283.689 1436.292, 1302.209 1419.146 C 1322.305 1400.540, 1302.378 1381.326, 1266.500 1384.714 M 988.505 1503.603 C 971.241 1509.921, 965.399 1538.090, 978.042 1554.053 C 987.698 1566.245, 1007.575 1567.633, 1020.939 1557.048 C 1049.081 1534.759, 1022.601 1491.125, 988.505 1503.603" stroke="none" fill="#07aaba" fill-rule="evenodd"/></svg>