<svg xmlns="http://www.w3.org/2000/svg" width="2201" height="2201" viewBox="0 0 2201 2201" version="1.1"><path d="M 1070.285 37.079 C 1063.373 38.138, 1049.057 42.933, 1041.717 46.647 C 1023.502 55.864, 1007.682 70.800, 997.107 88.765 C 992.828 96.034, 986.594 112.826, 984.583 122.500 C 983.427 128.063, 983.124 128.521, 980.418 128.785 C 978.813 128.942, 974.125 129.746, 970 130.572 C 965.875 131.397, 953.050 133.415, 941.500 135.055 C 920.664 138.013, 899.341 142.107, 870.500 148.686 C 862.250 150.568, 850.100 153.240, 843.500 154.624 C 836.900 156.008, 828.864 158.317, 825.643 159.755 C 820.352 162.117, 819.697 162.211, 818.867 160.728 C 818.362 159.825, 816.493 157.154, 814.715 154.793 C 812.936 152.432, 810.621 149.150, 809.570 147.500 C 805.983 141.867, 794.511 130.772, 787 125.671 C 778.312 119.771, 765.544 114.014, 754.344 110.947 C 744.424 108.230, 717.305 107.146, 704.752 108.965 C 686.900 111.552, 660.918 125.119, 647.879 138.662 C 634.802 152.244, 624.283 169.657, 618.982 186.500 C 615.884 196.345, 615.045 220.096, 617.394 231.452 C 619.403 241.163, 620.118 240.221, 603.500 249.759 C 587.022 259.216, 583.074 261.652, 563 274.745 C 508.555 310.259, 478.380 330.633, 476.025 333.470 C 474.198 335.671, 473.193 335.407, 469.014 331.632 C 460.158 323.631, 441.298 314.926, 425.212 311.415 C 411.749 308.476, 387.655 308.910, 374.394 312.331 C 359.058 316.287, 340.457 327.064, 327.660 339.409 C 317.799 348.922, 308.330 362.765, 303.547 374.665 C 296.478 392.250, 295.664 396.346, 295.629 414.500 C 295.611 423.300, 296.157 433.857, 296.840 437.960 C 299.357 453.067, 307.602 472.726, 316.121 483.938 C 318.843 487.520, 319.954 489.790, 319.377 490.592 C 318.894 491.261, 312.505 499.775, 305.178 509.512 C 291.905 527.151, 264.373 567.867, 239.127 607.193 C 231.821 618.573, 225.284 628.349, 224.601 628.916 C 223.746 629.625, 221.355 629.594, 216.930 628.813 C 208.384 627.307, 184.454 627.370, 174.645 628.924 C 137.836 634.757, 103.427 667.085, 91.950 706.618 C 88.636 718.031, 88.500 719.152, 88.500 735 C 88.500 752.526, 89.556 758.572, 95.525 775.218 C 102.870 795.702, 115.889 812.524, 133.500 824.284 C 138.450 827.590, 142.665 830.431, 142.866 830.597 C 143.067 830.763, 140.936 840.484, 138.131 852.199 C 133.180 872.871, 130.578 885.011, 123.494 920.500 C 117.226 951.895, 115.122 963.422, 113 977.972 C 111.839 985.931, 110.652 992.681, 110.362 992.971 C 110.072 993.261, 105.034 994.461, 99.167 995.638 C 78.865 999.710, 60.740 1009.611, 45.224 1025.107 C 32.282 1038.031, 24.010 1051.913, 18.442 1070.047 C 11.009 1094.256, 11.487 1111.351, 20.326 1137.500 C 26.293 1155.154, 32.596 1165.826, 43.845 1177.323 C 54.773 1188.490, 62.089 1194.030, 73.500 1199.775 C 84.410 1205.268, 88.914 1206.942, 101.312 1210.112 C 105.816 1211.264, 109.810 1212.498, 110.189 1212.853 C 110.568 1213.209, 111.825 1219.125, 112.982 1226 C 115.411 1240.434, 121.739 1273.199, 126.018 1293.500 C 134.831 1335.307, 141.175 1366.682, 141.683 1370.975 L 142.258 1375.828 137.879 1378.037 C 127.126 1383.463, 110.978 1399.850, 102.112 1414.332 C 97.103 1422.514, 94.363 1429.340, 90.393 1443.531 C 87.987 1452.130, 87.606 1455.287, 87.622 1466.500 C 87.644 1481.280, 88.639 1487.397, 93.509 1502.689 C 104.828 1538.227, 132.647 1564.190, 169.419 1573.533 C 188.169 1578.297, 198.488 1578.890, 212.865 1576.027 C 219.055 1574.794, 224.231 1573.947, 224.368 1574.143 C 224.505 1574.339, 226.592 1577.875, 229.007 1582 C 233.595 1589.839, 278.836 1658.200, 284.334 1665.603 C 286.075 1667.947, 289.525 1672.855, 292 1676.508 C 301.705 1690.835, 313.260 1706.676, 316.547 1710.161 C 320.638 1714.499, 320.768 1715.567, 317.616 1718.945 C 309.602 1727.532, 300.467 1746.244, 297.328 1760.500 C 293.728 1776.854, 294.805 1803.156, 299.678 1817.836 C 305.775 1836.206, 319.511 1858.279, 330.629 1867.572 C 342.970 1877.888, 360.293 1887.798, 370.751 1890.525 C 404.934 1899.437, 435.476 1894.884, 463.616 1876.680 C 467.482 1874.179, 471.230 1871.428, 471.945 1870.566 C 473.825 1868.301, 475.614 1868.617, 480.059 1872 C 482.226 1873.650, 485.688 1876.257, 487.750 1877.793 C 491.174 1880.343, 552.939 1921.438, 569.500 1932.185 C 582.080 1940.348, 595.321 1948.578, 605.108 1954.316 C 619.780 1962.919, 619.473 1962.569, 618.081 1969.059 C 616.209 1977.785, 615.673 1991.805, 616.848 2001.285 C 618.109 2011.469, 625.589 2034.749, 630.251 2043 C 641.895 2063.613, 664.648 2082.470, 686.930 2089.976 C 707.807 2097.009, 729.850 2098.314, 749.696 2093.693 C 776.579 2087.432, 800.522 2071.226, 815.310 2049.282 C 819.634 2042.865, 820.880 2042.240, 825.685 2044.075 C 827.233 2044.667, 830.975 2045.594, 834 2046.135 C 837.025 2046.677, 846.475 2048.863, 855 2050.993 C 874.080 2055.761, 913.062 2063.120, 934.500 2066 C 943.300 2067.183, 956.350 2069.237, 963.500 2070.566 C 970.650 2071.894, 977.701 2072.985, 979.168 2072.990 C 983.828 2073.007, 985 2073.964, 985 2077.749 C 985 2084.672, 991.097 2102.770, 997.213 2114 C 1008.609 2134.927, 1020.307 2146.740, 1040.002 2157.209 C 1051.874 2163.520, 1061.108 2166.637, 1073.286 2168.445 C 1086.317 2170.380, 1094.820 2170.401, 1107 2168.526 C 1120.173 2166.499, 1128.266 2163.973, 1139.156 2158.490 C 1158.855 2148.569, 1172.349 2136.278, 1182.640 2118.880 C 1189.498 2107.286, 1191.795 2101.510, 1195.909 2085.510 L 1198.735 2074.519 1209.117 2073.309 C 1214.828 2072.643, 1223.325 2071.417, 1228 2070.585 C 1232.675 2069.753, 1244.484 2067.932, 1254.242 2066.540 C 1283.241 2062.400, 1347.260 2048.473, 1360.176 2043.493 L 1363.852 2042.076 1366.802 2047.288 C 1376.807 2064.962, 1394.985 2080.812, 1414.636 2088.992 C 1445.197 2101.715, 1476.727 2100.646, 1506.310 2085.885 C 1521.207 2078.452, 1535.475 2067, 1544.791 2055 C 1552.332 2045.286, 1560.075 2028.374, 1563.977 2013.091 C 1567.406 1999.661, 1566.719 1976.537, 1562.498 1963.313 C 1561.880 1961.377, 1562.642 1960.702, 1569.138 1957.430 C 1573.175 1955.398, 1580.532 1951.390, 1585.488 1948.524 C 1590.445 1945.659, 1598.775 1940.842, 1604 1937.821 C 1618.220 1929.599, 1627.974 1923.415, 1655.500 1905.170 C 1681.023 1888.253, 1688.826 1882.613, 1699.611 1873.285 C 1702.972 1870.378, 1706.390 1868, 1707.206 1868 C 1708.022 1868, 1709.547 1868.953, 1710.595 1870.119 C 1717.230 1877.497, 1736.254 1887.700, 1750.066 1891.287 C 1773.704 1897.426, 1787.278 1897.347, 1810.895 1890.935 C 1850.212 1880.259, 1882.069 1843.471, 1887.078 1802.961 C 1888.489 1791.546, 1887.690 1769.853, 1885.561 1761.807 C 1881.766 1747.463, 1870.262 1723.262, 1864.953 1718.458 C 1862.480 1716.220, 1862.476 1714.480, 1864.940 1712.754 C 1869.794 1709.355, 1931.631 1616.351, 1942.902 1595.500 C 1944.091 1593.300, 1947.201 1587.675, 1949.812 1583 C 1955.256 1573.255, 1953.104 1573.935, 1972 1575.995 C 1992.601 1578.240, 2015.479 1574.550, 2031.874 1566.338 C 2062.532 1550.980, 2080.186 1529.529, 2090.602 1494.976 C 2094.133 1483.264, 2094.365 1481.674, 2094.400 1469 C 2094.434 1456.973, 2094.086 1454.136, 2091.215 1443 C 2084.078 1415.317, 2067.024 1390.841, 2045.753 1377.753 C 2039.898 1374.150, 2039.903 1374.262, 2044.552 1354.500 C 2046.493 1346.250, 2049.591 1331.400, 2051.436 1321.500 C 2053.281 1311.600, 2056.182 1296.525, 2057.883 1288 C 2066.249 1246.049, 2070.058 1225.711, 2070.638 1219.891 C 2070.988 1216.376, 2071.697 1212.962, 2072.214 1212.305 C 2072.731 1211.648, 2075.707 1210.612, 2078.827 1210.003 C 2095.080 1206.830, 2112.201 1199.552, 2123.465 1191.027 C 2145.934 1174.020, 2155.590 1160.601, 2163.883 1134.861 C 2171.898 1109.984, 2171.501 1089.728, 2162.472 1062.918 C 2155.276 1041.547, 2141.835 1024.212, 2122.500 1011.362 C 2110.576 1003.437, 2089.193 995.705, 2076.267 994.644 C 2074.261 994.479, 2072.296 993.704, 2071.901 992.922 C 2071.506 992.140, 2070.215 984.750, 2069.031 976.500 C 2067.848 968.250, 2065.978 957.721, 2064.877 953.103 C 2063.775 948.485, 2061.832 937.910, 2060.559 929.603 C 2057.743 911.232, 2051.367 878.785, 2045.803 854.500 C 2040.266 830.338, 2040.278 830.451, 2043.151 828.948 C 2046.470 827.211, 2057.920 818.278, 2061.548 814.595 C 2070.300 805.710, 2082.766 786.741, 2087.130 775.671 C 2091.889 763.597, 2094.401 750.119, 2094.431 736.500 C 2094.457 724.673, 2094.124 722.207, 2090.735 709.169 C 2083.522 681.418, 2070.446 662.216, 2047.683 645.951 C 2040.717 640.973, 2026.293 633.762, 2018.863 631.543 C 2005.388 627.517, 1980.236 625.561, 1971.409 627.852 C 1969.259 628.410, 1965.011 629.161, 1961.968 629.521 L 1956.436 630.176 1948.030 616.338 C 1943.407 608.727, 1934.449 594.625, 1928.124 585 C 1921.800 575.375, 1915.697 565.910, 1914.562 563.966 C 1911.560 558.822, 1888.295 525.415, 1876.979 510 C 1874.759 506.975, 1871.394 502.181, 1869.503 499.347 C 1867.611 496.514, 1864.846 493.237, 1863.358 492.067 L 1860.653 489.939 1864.173 486.220 C 1874.421 475.390, 1883.679 455.183, 1886.545 437.387 C 1889.505 419.003, 1888.578 395.703, 1884.385 383.117 C 1875.729 357.137, 1858.974 336.399, 1836.812 324.236 C 1816.371 313.017, 1802.916 309.542, 1780 309.562 C 1762.621 309.578, 1754.270 310.839, 1742.500 315.225 C 1728.848 320.313, 1727.112 321.188, 1716.789 328.191 C 1711.269 331.936, 1706.413 335, 1705.998 335 C 1705.584 335, 1704.663 334.299, 1703.951 333.441 C 1701.368 330.329, 1672.856 309.565, 1656.250 298.704 C 1650.612 295.017, 1641.612 289.130, 1636.250 285.622 C 1626.542 279.272, 1618.884 274.568, 1597 261.511 C 1590.675 257.737, 1582.372 252.696, 1578.548 250.309 C 1574.725 247.922, 1569.907 245.513, 1567.841 244.957 C 1565.775 244.401, 1563.907 243.620, 1563.690 243.223 C 1563.473 242.825, 1564.112 238.450, 1565.109 233.500 C 1567.359 222.336, 1567.574 201.373, 1565.538 191.764 C 1563.587 182.559, 1556.010 165.006, 1550.254 156.356 C 1531.708 128.489, 1500.636 110.719, 1466.500 108.460 C 1439.748 106.689, 1415.526 113.177, 1393.417 128.034 C 1380.928 136.426, 1372.944 145.101, 1363.378 160.674 C 1362.306 162.419, 1361.887 162.380, 1353.878 159.789 C 1346.336 157.350, 1336.993 154.894, 1307 147.471 C 1293.627 144.161, 1258.580 137.376, 1245.500 135.564 C 1239.450 134.727, 1228.875 133.124, 1222 132.002 C 1215.125 130.881, 1207.141 129.684, 1204.257 129.343 C 1201.373 129.001, 1198.606 128.222, 1198.108 127.611 C 1197.610 127, 1195.825 121.218, 1194.143 114.763 C 1187.784 90.368, 1178.804 75.496, 1162 61.533 C 1147.772 49.710, 1135.439 43.260, 1118.612 38.842 C 1112.198 37.158, 1106.942 36.651, 1093.500 36.419 C 1084.150 36.258, 1073.703 36.555, 1070.285 37.079 M 986.917 177.408 C 986.688 177.632, 980.425 178.769, 973 179.935 C 953.174 183.048, 949.556 183.682, 926.500 188.090 C 888.354 195.383, 858.124 201.607, 840.500 205.795 L 832.500 207.696 831.858 219.098 C 829.968 252.651, 816.156 279.644, 791 298.949 C 771.567 313.862, 750.787 320.953, 726.425 320.984 C 695.806 321.024, 670.724 311.144, 649.674 290.752 C 645.840 287.038, 642.437 284, 642.111 284 C 641.784 284, 639.263 285.498, 636.509 287.328 C 633.754 289.158, 627.900 292.921, 623.500 295.690 C 619.100 298.459, 609.875 304.322, 603 308.721 C 577.286 325.171, 556.222 338.531, 547.489 343.930 C 542.533 346.993, 537.358 350.300, 535.989 351.278 C 533.692 352.919, 510.138 368.288, 503.702 372.345 L 500.904 374.109 502.881 377.307 C 504.740 380.315, 508.225 391.537, 510.083 400.500 C 510.540 402.700, 510.931 409.450, 510.952 415.500 C 511.072 448.733, 500.309 473.705, 475.342 498.126 C 466.707 506.572, 464.107 508.450, 454.138 513.441 C 447.136 516.946, 438.500 520.290, 431.638 522.152 C 409.163 528.251, 380.597 526.791, 361.857 518.587 C 360.594 518.034, 358.763 519.866, 353.932 526.514 C 335.839 551.416, 299.153 606.141, 277.500 640.526 C 275.300 644.019, 272.263 648.167, 270.750 649.744 C 269.238 651.320, 268 652.929, 268 653.319 C 268 653.710, 269.463 654.919, 271.250 656.006 C 275.589 658.644, 285.667 672.139, 291.294 682.843 C 296.951 693.605, 302.679 713.094, 304.192 726.727 C 307.536 756.868, 292.616 795.002, 269.322 815.853 C 260.564 823.692, 242.254 834.503, 232.500 837.592 C 224.581 840.101, 212.337 842.222, 198.184 843.537 C 189.517 844.342, 190.425 842.879, 186.048 863.096 C 176.302 908.107, 167.606 949.478, 160.439 984.933 C 159.057 991.771, 158.154 997.960, 158.433 998.687 C 158.712 999.413, 162.296 1001.601, 166.398 1003.548 C 204.473 1021.620, 227.776 1057.130, 229.732 1100.058 C 230.800 1123.490, 222.328 1149.085, 206.415 1170.500 C 197.722 1182.200, 186.030 1191.594, 169.698 1200 C 159.706 1205.143, 159.013 1205.695, 159.022 1208.500 C 159.031 1211.864, 162.062 1229.007, 164.444 1239.170 C 165.303 1242.839, 166.898 1251.164, 167.988 1257.670 C 169.077 1264.177, 171.545 1276.700, 173.471 1285.500 C 177.191 1302.496, 185.113 1341.154, 187.097 1352 C 187.752 1355.575, 188.727 1359.063, 189.266 1359.750 C 189.885 1360.541, 192.863 1361.001, 197.372 1361.003 C 209.935 1361.009, 229.332 1365.416, 243.331 1371.445 C 251.628 1375.018, 264.834 1384.701, 274.001 1393.932 C 287.302 1407.327, 294.312 1420.172, 299.960 1441.500 C 305.609 1462.828, 305.016 1482.149, 298.093 1502.420 C 292.122 1519.905, 285.286 1531.674, 275.250 1541.748 C 270.712 1546.302, 267 1550.525, 267 1551.132 C 267 1551.740, 271.746 1559.271, 277.547 1567.868 C 299.442 1600.321, 325.056 1637.718, 329.348 1643.500 C 335.816 1652.213, 356.063 1682.112, 357.282 1684.750 C 358.344 1687.049, 361.395 1687.789, 362.492 1686.013 C 363.427 1684.499, 375.728 1681.201, 383 1680.514 C 413.902 1677.595, 432.774 1680.212, 451.669 1690.037 C 470.554 1699.858, 481.133 1708.874, 490.844 1723.426 C 503.586 1742.521, 508.802 1756.053, 510.982 1775.671 C 512.531 1789.603, 509.361 1814.858, 505.018 1823.191 C 502.433 1828.149, 502.481 1829.171, 505.384 1831 C 506.693 1831.825, 517.605 1839.057, 529.632 1847.071 C 541.659 1855.085, 555.775 1864.363, 561 1867.687 C 566.225 1871.012, 578.825 1879.024, 589 1885.491 C 610.243 1898.994, 631.998 1913.174, 637.977 1917.416 L 642.086 1920.332 646.293 1916.308 C 651.508 1911.319, 666.541 1899.939, 672.627 1896.373 C 675.124 1894.910, 683.008 1891.727, 690.148 1889.301 C 714.012 1881.191, 736.975 1881.071, 760.907 1888.929 C 774.265 1893.316, 779.872 1895.993, 788.778 1902.236 C 806.846 1914.903, 821.636 1934.739, 827.372 1954 C 832.126 1969.964, 833.293 1976.323, 833.290 1986.254 L 833.287 1996.008 838.394 1997.534 C 841.202 1998.373, 847.775 1999.748, 853 2000.590 C 858.225 2001.432, 868.350 2003.406, 875.500 2004.976 C 882.650 2006.546, 894.800 2009.026, 902.500 2010.486 C 910.200 2011.947, 921.900 2014.212, 928.500 2015.519 C 935.100 2016.826, 946.350 2018.633, 953.500 2019.534 C 960.650 2020.435, 970.712 2022.033, 975.860 2023.086 C 989.218 2025.818, 988.566 2026.010, 992.227 2018.250 C 1000.231 2001.282, 1013.282 1985.357, 1028.093 1974.486 C 1049.208 1958.988, 1069.825 1952.913, 1096.267 1954.398 C 1109.681 1955.151, 1115.767 1956.144, 1125 1959.090 C 1154.001 1968.342, 1179.346 1991.979, 1192.055 2021.628 C 1193.523 2025.052, 1194.411 2026.014, 1195.744 2025.621 C 1198.526 2024.801, 1207.801 2023.267, 1232.500 2019.542 C 1267.597 2014.247, 1338.992 2000.235, 1347.660 1996.939 C 1349.730 1996.152, 1349.901 1995.458, 1349.914 1987.794 C 1349.930 1978, 1350.828 1972.884, 1354.980 1958.903 C 1360.340 1940.855, 1368.206 1927.504, 1380.873 1914.952 C 1394.700 1901.251, 1405.182 1894.964, 1425 1888.484 C 1435.879 1884.926, 1437.364 1884.697, 1452.500 1884.242 C 1462.013 1883.956, 1471.444 1884.219, 1475.761 1884.891 C 1488.939 1886.943, 1507.579 1894.259, 1517.172 1901.146 C 1528.021 1908.934, 1536.799 1916.034, 1537.348 1917.466 C 1538.109 1919.448, 1540.869 1919.429, 1543.083 1917.425 C 1544.698 1915.963, 1560.591 1906.210, 1579.500 1895.077 C 1601.426 1882.168, 1671.655 1836.412, 1677.626 1831.146 C 1678.452 1830.417, 1677.832 1825.794, 1675.305 1813.826 C 1672.128 1798.786, 1671.892 1796.476, 1672.313 1784.500 C 1673.299 1756.424, 1683.664 1731.475, 1702.388 1712.110 C 1713.503 1700.614, 1723.609 1693.324, 1736.256 1687.679 C 1749.673 1681.690, 1756.887 1680.118, 1774.548 1679.334 C 1794.091 1678.467, 1812.591 1681.470, 1820.883 1686.856 C 1823.146 1688.327, 1823.385 1688.256, 1825.634 1685.452 C 1826.936 1683.828, 1829.643 1679.800, 1831.651 1676.500 C 1833.658 1673.200, 1836.071 1669.600, 1837.014 1668.500 C 1837.956 1667.400, 1840.590 1663.350, 1842.866 1659.500 C 1846.848 1652.765, 1858.323 1635.214, 1870.129 1617.802 C 1877.651 1606.710, 1903.429 1566.009, 1905.583 1561.824 C 1906.525 1559.996, 1908.851 1556.596, 1910.753 1554.268 L 1914.211 1550.037 1908.005 1543.268 C 1900.607 1535.199, 1892.046 1522.599, 1888.403 1514.417 C 1883.618 1503.670, 1879.306 1484.052, 1878.621 1469.913 C 1877.983 1456.736, 1882.136 1438.276, 1889.544 1421.356 C 1896.096 1406.391, 1913.767 1386.358, 1928.399 1377.307 C 1938.464 1371.081, 1955.480 1363.851, 1964.390 1362.014 C 1967.630 1361.346, 1974.869 1360.692, 1980.478 1360.559 C 1986.087 1360.427, 1991.127 1360.039, 1991.679 1359.698 C 1992.231 1359.357, 1993.427 1355.798, 1994.336 1351.789 C 1999.320 1329.808, 2005.044 1302.623, 2005.978 1296.500 C 2006.564 1292.650, 2008.134 1284.550, 2009.465 1278.500 C 2010.796 1272.450, 2012.826 1261.875, 2013.976 1255 C 2016.328 1240.938, 2019.161 1227.195, 2022.050 1215.833 C 2023.123 1211.617, 2024 1207.567, 2023.999 1206.833 C 2023.998 1206.100, 2020.286 1203.511, 2015.749 1201.080 C 2003.524 1194.530, 1997.155 1189.967, 1987.571 1180.896 C 1972.364 1166.501, 1964.095 1151.625, 1958.275 1128.193 C 1952.652 1105.552, 1955.454 1077.969, 1965.490 1057.169 C 1976.621 1034.100, 1992.458 1017.662, 2016.843 1003.870 C 2023.503 1000.103, 2024.138 999.475, 2023.678 997.109 C 2023.398 995.674, 2021.532 985.950, 2019.531 975.500 C 2017.530 965.050, 2014.509 949.525, 2012.818 941 C 2011.127 932.475, 2008.065 916.950, 2006.014 906.500 C 2003.963 896.050, 2000.312 877.768, 1997.900 865.872 L 1993.516 844.244 1980.508 843.731 C 1939.864 842.125, 1908.181 821.303, 1890.517 784.591 C 1881.386 765.614, 1879.773 759.213, 1879.235 739.815 C 1878.950 729.521, 1879.215 720.588, 1879.927 716.496 C 1881.956 704.848, 1887.509 689.766, 1893.046 680.866 C 1898.092 672.756, 1908.161 660.394, 1912.750 656.677 C 1913.988 655.675, 1915 654.303, 1915 653.628 C 1915 652.952, 1912.960 649.597, 1910.467 646.171 C 1907.974 642.745, 1899.335 630.167, 1891.269 618.221 C 1846.028 551.214, 1838.139 539.506, 1831.343 529.292 L 1823.887 518.084 1817.193 520.494 C 1805.602 524.667, 1799.136 525.934, 1786.132 526.576 C 1765.071 527.617, 1748.984 523.975, 1730.098 513.891 C 1708.250 502.225, 1694.025 486.810, 1682.027 461.800 C 1676.070 449.383, 1672 431.441, 1672 417.597 C 1672 409.018, 1676.722 382.256, 1678.981 378.036 C 1679.541 376.989, 1680 375.704, 1680 375.182 C 1680 372.802, 1628.056 338.207, 1587.500 313.577 C 1573.200 304.893, 1560.375 297.020, 1559 296.082 C 1557.625 295.144, 1553.800 292.872, 1550.500 291.033 C 1547.200 289.194, 1543.670 286.976, 1542.655 286.104 C 1540.949 284.638, 1540.666 284.694, 1538.925 286.844 C 1532.765 294.451, 1513.387 306.887, 1498.500 312.787 C 1481.211 319.639, 1458.451 321.801, 1437.500 318.581 C 1410.770 314.474, 1384.020 296.611, 1367.955 272.141 C 1359.004 258.506, 1351 232.779, 1350.677 216.609 C 1350.543 209.892, 1350.133 207.507, 1349 206.857 C 1347.589 206.047, 1316.102 199.503, 1282.500 193.036 C 1252.603 187.282, 1221.275 182.014, 1210.943 181.004 C 1205.137 180.436, 1198.886 179.541, 1197.051 179.015 C 1192.937 177.835, 1192.443 178.127, 1190.963 182.613 C 1188.007 191.569, 1179.275 204.627, 1169.051 215.380 C 1153.970 231.242, 1136.243 241.968, 1117.215 246.746 C 1107.702 249.134, 1104.649 249.432, 1090 249.406 C 1070.236 249.370, 1061.132 247.504, 1046.169 240.422 C 1021.793 228.884, 1007.675 215.324, 996.274 192.500 C 994.076 188.100, 991.730 182.813, 991.061 180.750 C 990.002 177.483, 988.268 176.085, 986.917 177.408 M 545.500 481.405 C 528.058 484.783, 514.343 490.944, 499.450 502.089 C 478.030 518.119, 464.349 538.350, 457.921 563.504 C 449.122 597.939, 455.708 634.014, 476.216 663.711 C 488.844 681.997, 511.222 697.996, 536.806 707.028 L 546.112 710.314 545.543 738.407 C 545.230 753.858, 544.736 815.325, 544.446 875 C 544.156 934.675, 543.742 984.020, 543.527 984.656 C 543.311 985.291, 541.642 986.132, 539.818 986.524 C 534.670 987.629, 514.114 997.298, 506.421 1002.234 C 498.222 1007.495, 485.003 1019.700, 478.075 1028.405 C 473.419 1034.257, 465.011 1048.006, 462.211 1054.348 C 459.902 1059.578, 454.976 1080.703, 454.096 1089.152 C 451.118 1117.722, 460.474 1150.287, 478.045 1172.516 C 483.975 1180.019, 497.920 1193.475, 504.342 1197.892 C 510.537 1202.153, 526.244 1209.572, 536.397 1213.033 L 544.294 1215.725 544.178 1354.112 L 544.062 1492.500 536.281 1495.361 C 520.342 1501.220, 515.803 1503.360, 506.764 1509.277 C 501.663 1512.615, 493.657 1519.196, 488.950 1523.920 C 472.417 1540.512, 464.185 1554.169, 458.458 1574.510 C 455.328 1585.630, 454.726 1589.462, 454.276 1601.126 C 452.723 1641.445, 469.764 1677.566, 501.475 1701.173 C 514.917 1711.180, 530.111 1717.681, 546.646 1720.501 C 593.391 1728.473, 636.444 1710.106, 663.133 1670.804 C 669.961 1660.749, 680 1637.166, 680 1631.181 C 680 1630.099, 680.690 1628.949, 681.533 1628.626 C 682.377 1628.302, 749.539 1628.012, 830.783 1627.981 L 978.499 1627.924 979.269 1631.712 C 980.749 1638.996, 985.319 1651.570, 989.549 1660 C 1000.975 1682.770, 1018.425 1700.474, 1039.874 1711.058 C 1066.479 1724.186, 1094.580 1726.422, 1126 1717.911 C 1160.853 1708.469, 1191.937 1676.365, 1202.590 1638.809 L 1205.339 1629.119 1216.419 1628.745 C 1222.514 1628.539, 1290.162 1628.284, 1366.750 1628.179 L 1506 1627.986 1506.011 1630.743 C 1506.023 1633.732, 1512.593 1652.294, 1516.090 1659.221 C 1527.053 1680.933, 1544.690 1698.730, 1566.500 1710.088 C 1582.886 1718.621, 1595.793 1721.432, 1618.500 1721.413 C 1632.225 1721.402, 1636.064 1721.030, 1645.500 1718.796 C 1660.377 1715.274, 1666.221 1712.932, 1676.894 1706.211 C 1693.303 1695.879, 1707.434 1681.347, 1715.551 1666.458 C 1719.875 1658.526, 1729.209 1631.554, 1730.516 1623.213 C 1730.886 1620.856, 1731.179 1613.206, 1731.167 1606.213 C 1731.134 1585.881, 1725.201 1563.548, 1715.386 1546.805 C 1710.992 1539.311, 1699.319 1525.098, 1693.371 1520 C 1679.454 1508.073, 1668.692 1501.769, 1654.640 1497.315 C 1648.513 1495.372, 1642.825 1493.445, 1642 1493.033 C 1640.680 1492.372, 1640.465 1475.989, 1640.210 1356.391 C 1640.050 1281.651, 1640.163 1219.522, 1640.459 1218.328 C 1640.812 1216.907, 1642.296 1215.745, 1644.750 1214.970 C 1646.812 1214.317, 1652.775 1211.943, 1658 1209.693 C 1686.358 1197.479, 1706.083 1179.652, 1718.515 1155 C 1723.380 1145.352, 1728.942 1129.274, 1730.495 1120.369 C 1733.541 1102.900, 1732.099 1081.159, 1726.855 1065.500 C 1715.254 1030.857, 1693.465 1006.662, 1661.487 992.910 C 1655.275 990.239, 1648.314 987.631, 1646.018 987.115 C 1643.723 986.600, 1641.542 985.875, 1641.172 985.506 C 1640.802 985.136, 1640.275 923.141, 1640 847.738 C 1639.620 743.594, 1639.782 710.361, 1640.673 709.469 C 1641.319 708.824, 1646.690 706.623, 1652.608 704.579 C 1670.726 698.320, 1692.698 683.442, 1703.774 669.932 C 1713.563 657.992, 1723.766 637.507, 1728.525 620.237 C 1730.721 612.270, 1731.612 586.609, 1730.060 576 C 1727.364 557.557, 1719.098 538.266, 1707.500 523.344 C 1699.283 512.773, 1692.254 506.325, 1680.489 498.567 C 1669.071 491.038, 1659.910 486.950, 1647.307 483.761 C 1639.534 481.794, 1635.916 481.531, 1616.500 481.516 C 1596.883 481.502, 1593.627 481.739, 1586.444 483.707 C 1561.203 490.620, 1536.263 509.057, 1521.793 531.500 C 1515.500 541.260, 1509.968 552.881, 1505.368 566 L 1503.090 572.500 1354.359 572.500 L 1205.628 572.500 1202.788 562.500 C 1199.357 550.416, 1192.811 536.447, 1185.886 526.429 C 1171.847 506.121, 1144.814 487.873, 1121.450 482.933 C 1100.589 478.523, 1070.935 479.451, 1054.049 485.043 C 1033.281 491.921, 1010.273 509.393, 997.331 528.115 C 991.006 537.265, 983.849 553.025, 981.489 563 C 980.513 567.125, 979.568 571.063, 979.389 571.750 C 979.130 572.743, 948.929 573, 832.596 573 C 749.711 573, 685.117 572.615, 683.795 572.112 C 681.994 571.428, 681.201 569.997, 680.331 565.862 C 678.609 557.689, 669.813 538.115, 663.971 529.457 C 648.960 507.211, 621.305 488.343, 595.693 482.871 C 583.577 480.282, 555.526 479.463, 545.500 481.405 M 754.788 619.757 L 682.076 620.013 680.137 626.257 C 677.398 635.074, 670.627 650.334, 666.055 657.994 C 653.526 678.985, 630.297 696.876, 604.785 705.185 C 598.028 707.386, 592.422 709.260, 592.326 709.351 C 592.230 709.441, 592.005 771.576, 591.826 847.428 L 591.500 985.340 598.500 987.536 C 619.219 994.034, 637.385 1004.463, 650.550 1017.417 C 664.255 1030.903, 673.956 1047.481, 680.059 1067.845 L 682.500 1075.990 809 1076.146 C 878.575 1076.232, 945.140 1076.347, 956.923 1076.401 L 978.346 1076.500 980.092 1069.413 C 983.107 1057.171, 990.521 1041.992, 999.282 1030.122 C 1005.391 1021.846, 1018.511 1009.451, 1027.440 1003.520 C 1038.128 996.421, 1054.325 988.595, 1062.904 986.385 C 1069.119 984.784, 1069.873 984.322, 1070.230 981.890 C 1070.792 978.055, 1070.534 711.193, 1069.967 710.668 C 1069.710 710.431, 1064.550 708.559, 1058.500 706.510 C 1034.830 698.491, 1015.849 685.638, 1002.597 668.655 C 992.156 655.275, 981 632.147, 981 623.884 C 981 622.363, 980.438 620.769, 979.750 620.342 C 978.469 619.547, 883.958 619.301, 754.788 619.757 M 1270.781 619.757 C 1209.449 619.997, 1205.004 620.131, 1204.180 621.757 C 1203.695 622.716, 1202.712 626.347, 1201.996 629.827 C 1199.584 641.548, 1187.051 662.552, 1174.599 675.741 C 1168.438 682.266, 1157.248 691.381, 1151.304 694.716 C 1143.525 699.080, 1133.840 703.547, 1126.875 705.985 C 1122.424 707.543, 1118.367 709.233, 1117.859 709.741 C 1116.637 710.963, 1116.377 984.824, 1117.598 985.865 C 1118.094 986.289, 1120.919 987.223, 1123.876 987.942 C 1126.833 988.661, 1130.433 989.866, 1131.876 990.619 C 1133.319 991.372, 1134.877 991.990, 1135.338 991.994 C 1137.240 992.008, 1148.970 998.020, 1155.500 1002.327 C 1179.205 1017.964, 1194.546 1037.907, 1202.939 1064 C 1204.620 1069.225, 1206.334 1074.015, 1206.748 1074.644 C 1207.305 1075.491, 1245.751 1075.880, 1354.924 1076.144 L 1502.348 1076.500 1503.490 1071.500 C 1506.220 1059.542, 1518.457 1036.433, 1528.138 1024.951 C 1533.424 1018.683, 1546.400 1007.633, 1554.500 1002.503 C 1561.853 997.847, 1577.573 990.366, 1585 987.990 L 1590.500 986.230 1591.225 980.865 C 1591.623 977.914, 1591.761 915.432, 1591.532 842.015 C 1591.133 714.412, 1591.035 708.499, 1589.307 707.824 C 1588.313 707.435, 1583.015 705.701, 1577.534 703.970 C 1552.650 696.111, 1529.680 676.570, 1516.229 651.817 C 1513.014 645.899, 1505.449 626.208, 1504.847 622.187 L 1504.500 619.873 1420.500 619.687 C 1374.300 619.584, 1306.927 619.616, 1270.781 619.757 M 920.439 730.394 C 895.372 739.492, 872.989 759.575, 861.252 783.500 C 854.889 796.472, 854.023 799.450, 851.947 815.500 C 850.777 824.556, 850.458 909.791, 851.591 910.924 C 851.893 911.227, 870.741 911.643, 893.475 911.850 C 933.025 912.210, 934.845 912.146, 935.654 910.363 C 936.119 909.338, 936.378 890.207, 936.228 867.849 C 935.994 832.816, 935.749 827.118, 934.457 826.622 C 933.632 826.305, 924.507 826.005, 914.178 825.955 C 903.849 825.905, 894.765 825.473, 893.991 824.995 C 892.817 824.269, 893.121 822.179, 895.836 812.313 C 900.115 796.769, 902.803 791.146, 909.175 784.408 C 915.648 777.565, 928.677 768.772, 935.750 766.475 C 941.763 764.522, 941.816 764.338, 939.012 755.071 C 937.918 751.457, 935.781 743.811, 934.262 738.080 C 932.743 732.348, 931.050 727.535, 930.500 727.382 C 929.950 727.230, 925.422 728.585, 920.439 730.394 M 776 730.921 C 768.145 733.879, 757.937 739.344, 752 743.769 C 743.704 749.954, 731.628 762.891, 725.904 771.727 C 718.385 783.335, 715.977 788.751, 712.444 802.006 C 709.658 812.457, 709.645 812.652, 709.282 850 C 709.082 870.625, 709.274 892.900, 709.709 899.500 L 710.500 911.500 752.393 911.828 C 786.396 912.094, 794.447 911.906, 795.141 910.828 C 796.078 909.374, 796.035 847.349, 795.088 834.534 L 794.500 826.569 781.500 826.439 C 749.534 826.119, 751 826.249, 751.001 823.750 C 751.005 818.051, 756.116 801.031, 759.936 794 C 766.519 781.883, 782.527 768.904, 795.766 764.948 C 799.373 763.871, 799.942 763.352, 799.454 761.587 C 799.137 760.439, 796.550 752.413, 793.706 743.750 C 787.719 725.513, 788.623 726.168, 776 730.921 M 1248.435 773.309 C 1248.053 774.306, 1248.513 854.121, 1248.925 858.250 C 1248.966 858.663, 1257.925 859, 1268.833 859 C 1279.742 859, 1288.914 859.247, 1289.216 859.549 C 1289.937 860.271, 1288.577 866.466, 1285.342 877.193 C 1280.746 892.429, 1269.740 904.288, 1251.647 913.501 C 1246.616 916.062, 1242.186 918.460, 1241.803 918.829 C 1241.067 919.538, 1248.763 937.924, 1252.057 943.325 C 1253.121 945.071, 1253.994 947.201, 1253.996 948.059 C 1253.998 948.916, 1254.563 950.376, 1255.250 951.303 C 1256.412 952.870, 1257.006 952.817, 1263.658 950.558 C 1272.604 947.520, 1278.774 944.376, 1286.673 938.833 C 1309.423 922.865, 1323.599 902.371, 1331.171 874.500 L 1334.431 862.500 1334.465 817.500 L 1334.500 772.500 1291.723 772.239 C 1256.859 772.027, 1248.851 772.225, 1248.435 773.309 M 1390.647 772.687 C 1389.766 773.568, 1390.021 852.676, 1390.916 856 L 1391.589 858.500 1410.018 858.773 C 1420.154 858.924, 1428.845 859.445, 1429.332 859.932 C 1430.846 861.446, 1427.139 877.089, 1423.511 884.500 C 1416.899 898.005, 1406.221 907.784, 1390.500 914.728 C 1382.344 918.331, 1382.189 918.897, 1386.532 929.168 C 1388.004 932.650, 1390.607 939.470, 1392.316 944.322 L 1395.422 953.143 1398.961 952.533 C 1405.669 951.377, 1426.102 940.388, 1435.186 933.052 C 1458.412 914.294, 1472.706 887.218, 1474.980 857.670 C 1476.053 843.737, 1475.773 775.060, 1474.636 773.220 C 1474.062 772.292, 1464.004 772, 1432.608 772 C 1409.907 772, 1391.024 772.309, 1390.647 772.687 M 696.500 1124.979 L 681.500 1125.500 681.166 1128.436 C 680.398 1135.178, 670.053 1157.522, 663.011 1167.649 C 656.882 1176.463, 643.591 1189.365, 633.553 1196.247 C 624.568 1202.406, 602.690 1212.689, 596.400 1213.710 C 594.548 1214.011, 592.584 1214.797, 592.036 1215.457 C 591.382 1216.244, 591.119 1264.025, 591.270 1354.357 L 591.500 1492.057 600 1495.086 C 604.675 1496.753, 609.777 1498.520, 611.337 1499.013 C 616.235 1500.562, 630.244 1508.073, 636.530 1512.521 C 643.932 1517.758, 659.183 1533.556, 664.346 1541.334 C 669.883 1549.676, 677.741 1566.629, 679.643 1574.338 L 681.287 1581 829.521 1581 C 946.931 1581, 977.954 1580.740, 978.712 1579.750 C 979.239 1579.063, 980.237 1575.862, 980.931 1572.638 C 982.714 1564.358, 991.978 1546.428, 999.206 1537.266 C 1011.714 1521.412, 1023.649 1511.225, 1038.534 1503.696 C 1045.386 1500.230, 1061.860 1493.783, 1067.250 1492.459 L 1070 1491.783 1070.080 1476.642 C 1070.188 1456.263, 1070.192 1231.387, 1070.085 1222.338 L 1070 1215.176 1065.750 1214.487 C 1058.962 1213.388, 1040.128 1204.833, 1029.884 1198.197 C 1006.742 1183.206, 987.076 1156.163, 981.318 1131.415 L 979.584 1123.961 845.542 1124.210 C 771.819 1124.346, 704.750 1124.693, 696.500 1124.979 M 1207.144 1125.363 C 1206.641 1125.988, 1204.565 1131, 1202.529 1136.500 C 1197.889 1149.038, 1192.039 1160.712, 1186.444 1168.596 C 1180.484 1176.996, 1164.550 1191.827, 1155.276 1197.607 C 1147.577 1202.406, 1125.051 1213, 1122.548 1213 C 1121.818 1213, 1120.265 1213.787, 1119.095 1214.750 L 1116.969 1216.500 1116.909 1354 C 1116.860 1467.182, 1117.084 1491.627, 1118.175 1492.216 C 1118.904 1492.610, 1123.775 1494.342, 1129 1496.065 C 1164.779 1507.864, 1191.134 1534.892, 1203.533 1572.500 L 1206.500 1581.500 1354 1581.246 C 1435.125 1581.107, 1502.063 1580.784, 1502.750 1580.528 C 1503.438 1580.272, 1504.009 1579.261, 1504.019 1578.281 C 1504.056 1574.860, 1514.618 1551.441, 1519.341 1544.309 C 1534.964 1520.719, 1554.844 1504.960, 1579.811 1496.377 C 1585.690 1494.356, 1590.825 1492.422, 1591.223 1492.078 C 1591.621 1491.735, 1591.983 1429.598, 1592.028 1353.996 C 1592.096 1241.723, 1591.872 1216.468, 1590.805 1216.163 C 1588.914 1215.622, 1568.369 1206.265, 1562.523 1203.282 C 1546.060 1194.884, 1529.868 1180.054, 1520.324 1164.633 C 1514.407 1155.072, 1506.757 1138.023, 1504.560 1129.500 L 1503.271 1124.500 1355.665 1124.363 C 1246.429 1124.261, 1207.820 1124.521, 1207.144 1125.363 M 925.497 1251.302 C 913.726 1256.006, 906.408 1260.252, 896.946 1267.869 C 871.639 1288.240, 858.751 1312.784, 855.918 1346 C 855.378 1352.325, 855.064 1374.825, 855.218 1396 L 855.500 1434.500 897.500 1434.500 L 939.500 1434.500 939.761 1391.791 C 940.004 1351.866, 939.907 1349.024, 938.261 1348.202 C 937.292 1347.718, 927.793 1347.279, 917.151 1347.228 C 906.509 1347.177, 897.640 1346.974, 897.443 1346.777 C 897.246 1346.580, 898.236 1342.162, 899.643 1336.959 C 902.727 1325.557, 908.333 1314.982, 916.004 1306.095 C 922.149 1298.976, 935.395 1288.862, 941.942 1286.291 C 944.174 1285.414, 946 1284.084, 946 1283.336 C 946 1281.303, 942.378 1268.624, 939.953 1262.166 C 938.782 1259.050, 937.515 1254.704, 937.136 1252.509 C 936.727 1250.136, 935.850 1248.433, 934.974 1248.310 C 934.163 1248.197, 929.898 1249.543, 925.497 1251.302 M 724.239 1326.750 L 724.500 1369.500 743.750 1369.772 L 763 1370.043 763 1374.956 C 763 1382.261, 760.322 1393.637, 757.293 1399.203 C 752.116 1408.715, 738.789 1419.875, 724.505 1426.658 C 720.377 1428.618, 717 1430.534, 717 1430.915 C 717 1431.296, 719.242 1436.758, 721.982 1443.054 C 724.722 1449.349, 727.494 1456.862, 728.141 1459.750 C 728.789 1462.638, 729.809 1465.001, 730.409 1465.003 C 732.795 1465.010, 750.588 1457.540, 758.150 1453.357 C 781.720 1440.320, 798.419 1418.491, 805.762 1391.119 C 808.333 1381.536, 808.344 1381.322, 808.760 1333.408 L 809.177 1285.317 796.932 1284.658 C 790.197 1284.296, 771.027 1284, 754.332 1284 L 723.979 1284 724.239 1326.750 M 1250.384 1286.442 C 1249.557 1288.596, 1250.356 1368.691, 1251.213 1369.547 C 1251.606 1369.939, 1260.760 1370.273, 1271.556 1370.289 C 1286.529 1370.311, 1291.301 1370.621, 1291.675 1371.594 C 1292.418 1373.532, 1287.220 1392.632, 1284.474 1398.050 C 1279.050 1408.756, 1266.679 1419.095, 1250.444 1426.494 C 1246.350 1428.360, 1243 1430.249, 1243.001 1430.693 C 1243.001 1432.086, 1246.715 1441.346, 1250.938 1450.488 C 1253.172 1455.323, 1255 1460.315, 1255 1461.581 C 1255 1462.846, 1255.338 1464.091, 1255.752 1464.347 C 1257.143 1465.206, 1270.782 1460.171, 1278.675 1455.884 C 1295.049 1446.991, 1303.589 1440.190, 1312.428 1429 C 1323.422 1415.083, 1330.843 1398.595, 1335.155 1378.500 C 1336.570 1371.904, 1337.157 1288.873, 1335.804 1286.682 C 1335.266 1285.810, 1324.034 1285.426, 1293.018 1285.218 C 1256.322 1284.973, 1250.888 1285.129, 1250.384 1286.442 M 1392.630 1287.340 C 1392.307 1288.627, 1392.034 1307.314, 1392.025 1328.866 L 1392.007 1368.052 1394.598 1369.037 C 1396.024 1369.579, 1404.782 1370.037, 1414.062 1370.054 C 1423.342 1370.071, 1431.153 1370.438, 1431.419 1370.869 C 1432.371 1372.410, 1427.911 1390.593, 1425.134 1396.492 C 1419.080 1409.349, 1407.888 1419.333, 1391.500 1426.497 C 1384.991 1429.343, 1383.545 1430.371, 1383.742 1432.018 C 1383.875 1433.131, 1385.996 1438.430, 1388.455 1443.795 C 1390.914 1449.159, 1393.567 1456.012, 1394.351 1459.024 C 1395.710 1464.248, 1395.916 1464.489, 1398.828 1464.254 C 1405.759 1463.696, 1426.522 1453.183, 1438.120 1444.359 C 1448.848 1436.197, 1460.120 1421.525, 1466.723 1407.129 C 1475.711 1387.536, 1476.064 1384.836, 1476.627 1331.520 C 1477.059 1290.600, 1476.971 1287.452, 1475.355 1286.270 C 1474.019 1285.293, 1464.338 1285, 1433.417 1285 L 1393.217 1285 1392.630 1287.340" stroke="none" fill="#28cdd6" fill-rule="evenodd"/></svg>