<svg xmlns="http://www.w3.org/2000/svg" width="2000" height="2000" viewBox="0 0 2000 2000" version="1.1"><path d="M 993 446.252 C 978.962 447.934, 966.568 457.007, 958.429 471.561 C 951.744 483.515, 945.923 485.501, 911.437 487.591 L 900.375 488.261 896.997 483.996 C 876.929 458.658, 832 474.277, 832 506.593 C 832 510.436, 832.842 509.910, 814.500 517.510 C 802.517 522.476, 790.209 528.146, 783.679 531.708 L 777.858 534.884 772.679 531.589 C 746.345 514.830, 714.219 532.795, 715.164 563.751 L 715.477 574.001 706.989 580.863 C 702.320 584.638, 694.900 590.981, 690.500 594.959 C 677.980 606.279, 676.516 606.783, 662.236 604.702 C 655.781 603.762, 648.610 602.994, 646.299 602.996 C 616.114 603.025, 592.829 635.541, 602.013 664.839 C 605.980 677.495, 605.748 678.016, 583.814 705.643 L 570.998 721.787 566.749 720.799 C 536.990 713.883, 511.788 744.952, 524.976 772.297 C 526.758 775.992, 528.618 779.264, 529.108 779.567 C 530.898 780.673, 529.906 784.602, 525.600 793.454 C 520.033 804.899, 513.399 819.996, 511.040 826.587 C 507.359 836.874, 506.433 838, 501.656 838 C 468.239 838, 453.365 878.824, 478.240 902.268 L 484.360 908.036 482.649 917.268 C 481.708 922.346, 480.302 932.657, 479.524 940.182 C 477.576 959.029, 476.015 961.705, 460.738 972.390 C 430.252 993.709, 432.807 1033.823, 466.134 1057.142 C 475.327 1063.574, 478.584 1070.266, 479.448 1084.500 C 479.782 1090, 480.774 1099.740, 481.654 1106.145 L 483.254 1117.790 477.705 1123.339 C 453.938 1147.106, 467.083 1183.145, 500.889 1186.901 L 506.277 1187.500 510.572 1198.278 C 512.935 1204.206, 518.525 1216.594, 522.994 1225.807 L 531.120 1242.559 527.598 1248.408 C 510.209 1277.285, 536.251 1314.105, 567.688 1305.090 C 571.713 1303.935, 571.494 1303.745, 583.598 1318.886 C 606.854 1347.977, 605.961 1345.668, 601.035 1363.947 C 591.770 1398.320, 627.108 1431.121, 662.500 1421 C 674.099 1417.683, 678.099 1419.563, 701.975 1439.550 L 715.804 1451.126 715.258 1461.048 C 713.593 1491.260, 745.959 1509.314, 773.463 1493.516 L 777.500 1491.197 786.500 1495.700 C 795.788 1500.348, 810.798 1506.890, 824.136 1512.103 L 831.773 1515.088 832.178 1521.294 C 834.207 1552.370, 872.232 1565.603, 894.543 1542.998 L 901.500 1535.949 907 1536.601 C 944.928 1541.094, 950.842 1543.113, 957.465 1553.824 C 979.704 1589.788, 1020.602 1591.156, 1043.357 1556.697 C 1048.902 1548.299, 1053.287 1543.004, 1054.702 1542.995 C 1055.864 1542.988, 1088.450 1538.219, 1095.500 1537.025 C 1101.396 1536.026, 1101.535 1536.056, 1103.500 1538.752 C 1123.170 1565.735, 1166.441 1555.977, 1169.644 1523.835 C 1170.451 1515.742, 1171.005 1514.754, 1175.660 1513.113 C 1184.323 1510.058, 1204.547 1501.351, 1222.415 1492.983 C 1226.311 1491.158, 1226.343 1491.160, 1229.415 1493.486 C 1252.936 1511.297, 1286.995 1492.089, 1287.017 1461 L 1287.025 1450.500 1290.262 1448.363 C 1292.043 1447.188, 1297.550 1442.723, 1302.500 1438.441 C 1325.541 1418.510, 1327.597 1417.599, 1341.813 1421.007 C 1380.692 1430.328, 1410.466 1398.086, 1400.705 1357.235 C 1398.174 1346.643, 1399.817 1341.927, 1410.274 1329.771 C 1415.836 1323.305, 1425.770 1311.288, 1430.044 1305.858 C 1431.470 1304.045, 1432.104 1303.978, 1438.389 1304.982 C 1470.416 1310.099, 1492.494 1276.028, 1475.349 1247.946 L 1471.958 1242.392 1478.493 1228.703 C 1482.088 1221.174, 1487.009 1209.892, 1489.428 1203.632 C 1495.964 1186.722, 1496.445 1186.040, 1501.856 1186.015 C 1534.065 1185.868, 1548.702 1146.420, 1525.184 1123.141 L 1518.760 1116.781 1519.872 1105.067 C 1522.138 1081.204, 1526.664 1063.718, 1531.448 1060.350 C 1550.934 1046.630, 1556.078 1040.849, 1559.992 1028.274 C 1567.382 1004.528, 1559.445 984.761, 1535.589 967.500 C 1525.809 960.423, 1522.436 950.402, 1519.927 920.960 L 1518.753 907.192 1524.738 901.335 C 1547.746 878.823, 1534.516 841.307, 1502.517 838.319 L 1495.838 837.696 1492.818 831.102 C 1491.157 827.475, 1488.762 821.806, 1487.496 818.504 C 1486.229 815.202, 1483.080 807.775, 1480.498 802 C 1470.799 780.310, 1471.420 782.153, 1472.984 779.710 C 1492.053 749.924, 1475.988 720.350, 1440.862 720.574 C 1429.387 720.648, 1429.202 720.612, 1427.690 718.074 C 1426.846 716.658, 1420.716 708.750, 1414.067 700.500 C 1398.682 681.408, 1397.320 678.261, 1400.195 668.435 C 1411.260 630.623, 1381.209 595.600, 1345 604.106 C 1327.739 608.161, 1320.674 604.587, 1289 575.774 C 1286.611 573.601, 1286.500 572.991, 1286.496 562 C 1286.483 530.657, 1249.726 512.725, 1227.383 533.162 C 1225.275 535.091, 1225.217 535.073, 1211.883 528.485 C 1204.523 524.847, 1194.900 520.363, 1190.500 518.520 C 1186.100 516.677, 1179.817 514.036, 1176.537 512.651 L 1170.574 510.133 1169.290 502.533 C 1164.045 471.477, 1127.811 459.919, 1107.019 482.670 L 1101.917 488.252 1091.709 487.565 C 1055.956 485.160, 1050.190 483.108, 1042.830 470.171 C 1032.593 452.175, 1014.809 443.638, 993 446.252 M 995 462.940 C 970.846 466.544, 961.849 499.118, 980.167 516.645 C 1006.393 541.738, 1046.042 509.049, 1027.584 477.553 C 1021.076 466.448, 1008.696 460.896, 995 462.940 M 927.998 501.642 C 927.172 501.867, 921.772 502.604, 915.998 503.279 C 906.330 504.410, 905.522 504.669, 905.779 506.552 C 910.487 541.101, 857.481 559.403, 839.055 529.589 L 836.918 526.132 831.813 527.648 C 829.005 528.482, 824.411 530.233, 821.604 531.538 C 818.797 532.844, 814.250 534.789, 811.500 535.860 C 801.837 539.625, 787 547.285, 787 548.510 C 787 549.191, 787.675 551.662, 788.500 554 C 799.860 586.199, 754.185 615.345, 729.322 591.762 C 724.442 587.133, 719.158 589.820, 702.117 605.598 C 677.022 628.832, 703.762 648.382, 748 639.145 C 753.225 638.054, 760.650 636.610, 764.500 635.937 C 788.429 631.752, 806.415 619.737, 814.616 602.458 C 824.612 581.392, 844.847 572.076, 866.500 578.570 C 886.050 584.433, 911.449 572.853, 937.953 545.993 C 962.493 521.124, 956.383 493.902, 927.998 501.642 M 1056.279 502.573 C 1042.927 508.415, 1048.395 530.669, 1067.709 549.086 C 1094.222 574.367, 1115.607 583.640, 1135.470 578.466 C 1161.369 571.720, 1177.400 580.061, 1191.270 607.500 C 1199.451 623.683, 1214.302 631.126, 1254 638.938 C 1293.679 646.748, 1322.409 630.616, 1305.265 610.154 C 1293.617 596.251, 1279.057 587.408, 1274.327 591.363 C 1245.198 615.717, 1204.665 587.582, 1214.505 549.840 C 1215.243 547.010, 1209.465 543.650, 1188.500 534.721 C 1184.650 533.082, 1179.025 530.684, 1176 529.394 C 1168.064 526.008, 1166.999 526.247, 1160.250 532.913 C 1136.840 556.033, 1101.494 544.238, 1096.783 511.734 C 1096.206 507.755, 1095.631 504.374, 1095.504 504.220 C 1093.607 501.918, 1060.914 500.545, 1056.279 502.573 M 988.160 543.056 C 970.839 545.199, 945.579 560.176, 922.926 581.733 C 907.149 596.747, 903.757 602.581, 901.513 618.568 C 896.141 656.842, 857.063 677.591, 829.683 656.708 C 814.853 645.396, 786.706 645.810, 737.809 658.061 C 687.836 670.581, 662.729 698.243, 653.001 751.500 C 652.297 755.350, 650.910 761.875, 649.918 766 C 643.413 793.040, 644.998 808.862, 656.107 827.771 C 675.051 860.017, 659.423 892.633, 621.500 899.995 C 606.336 902.939, 595.627 909.291, 582.463 923.150 C 531.264 977.049, 523.076 1021.798, 555.645 1069.720 C 581.980 1108.470, 598.346 1121.911, 624.811 1126.526 C 657.308 1132.193, 673.726 1166.237, 657.523 1194.356 C 643.718 1218.312, 642.753 1227.644, 650.423 1263 C 666.915 1339.024, 685.063 1357.259, 759.500 1372.606 C 776.181 1376.045, 778.823 1376.324, 795.550 1376.408 L 813.600 1376.500 820.550 1372.933 C 824.373 1370.971, 830.200 1367.933, 833.500 1366.183 C 862.706 1350.692, 896.302 1370.082, 900.993 1405.137 C 903.193 1421.575, 906.072 1427.089, 919.896 1441.337 C 974.208 1497.316, 1026.292 1497.374, 1082.602 1441.520 C 1097.023 1427.216, 1100.756 1419.874, 1103.475 1400.474 C 1106.856 1376.347, 1123.085 1362.507, 1148 1362.502 L 1161.500 1362.500 1173.500 1369.121 C 1191.293 1378.938, 1205.139 1380.068, 1234.585 1374.102 C 1242.788 1372.440, 1252.425 1370.587, 1256 1369.984 C 1285.531 1365.003, 1310.730 1351.824, 1325.296 1333.742 C 1332.610 1324.664, 1346.981 1292.176, 1346.996 1284.686 C 1346.998 1283.689, 1348.548 1276.613, 1350.440 1268.963 C 1354.754 1251.517, 1356.414 1237.484, 1355.736 1224.190 C 1355.157 1212.848, 1354.473 1211.003, 1344.735 1194.493 C 1328.546 1167.045, 1344.974 1132.925, 1377.500 1126.442 C 1397.801 1122.396, 1407.301 1117.029, 1421.985 1101.312 C 1471.645 1048.157, 1478.816 1004.325, 1445.895 955.164 C 1425.029 924.006, 1403.255 903.709, 1388.500 901.662 C 1344.422 895.549, 1326.850 863.637, 1347.443 827.101 C 1358.251 807.926, 1358.891 792.270, 1350.392 755 C 1336.312 693.259, 1318.490 672.497, 1267.561 658.505 C 1222.985 646.258, 1190.635 645.135, 1174.769 655.285 C 1143.869 675.051, 1106.381 658.726, 1103.413 624.210 C 1099.787 582.031, 1036.023 537.132, 988.160 543.056 M 637.882 621.312 C 601.149 635.137, 617.736 690.047, 656.231 682.056 C 685.058 676.071, 688.106 632.496, 660.434 621.975 C 655.674 620.165, 641.997 619.763, 637.882 621.312 M 1341.336 622.366 C 1311.498 636.595, 1320.701 682.338, 1353.365 682.155 C 1395.075 681.921, 1397.634 621.829, 1356 620.261 C 1347.541 619.942, 1345.934 620.173, 1341.336 622.366 M 617.203 694.215 C 613.186 695.271, 603.936 704.419, 595.760 715.422 C 585.985 728.577, 586.193 727.373, 591.734 738.731 C 605.438 766.820, 588.767 792.546, 556.910 792.470 L 544.320 792.440 537.503 806.470 C 522.805 836.718, 521.274 842.532, 526.969 846.479 C 553.101 864.588, 539.831 908.444, 507.277 911.561 C 499.060 912.348, 499.694 911.537, 497.475 924.104 C 493.378 947.305, 494.457 961.040, 500.577 963.597 C 517.256 970.566, 543.312 950.971, 567.193 913.500 C 577.545 897.257, 581.111 879.761, 576.898 865.890 C 570.239 843.966, 579.744 824.729, 603.500 812.051 C 619.479 803.524, 624.030 797.242, 630.951 774.162 C 645.311 726.278, 638.820 688.532, 617.203 694.215 M 1376.204 695.128 C 1364.460 700.941, 1359.933 723.062, 1365.280 748.500 C 1373.868 789.355, 1381.116 802.891, 1399.723 812.819 C 1425.191 826.407, 1428.408 833.961, 1425.564 873.500 C 1423.355 904.211, 1456.089 953.463, 1485.300 963.381 C 1505.396 970.203, 1510.342 961.882, 1505.291 929.752 L 1502.500 912.003 1499.434 912.002 C 1465.767 911.984, 1450.171 872.829, 1474.242 848.758 L 1480.137 842.863 1478.148 837.181 C 1475.282 828.995, 1466.778 809.140, 1462.324 800.237 L 1458.500 792.593 1445.500 792.546 C 1413.006 792.430, 1395.896 761.501, 1413.539 734.771 C 1416.813 729.811, 1416.899 730.152, 1409.750 719.710 C 1394.721 697.755, 1385.115 690.717, 1376.204 695.128 M 876.500 730.395 C 852.230 735.246, 831.366 755.607, 794.416 810.500 C 785.230 824.147, 778.042 839.971, 778.010 846.616 C 777.950 859.257, 805.284 888, 817.366 888 C 818.730 888, 821.119 889.036, 822.673 890.302 C 825.224 892.378, 834.803 899.269, 842.411 904.499 C 845.115 906.358, 845.328 906.974, 845.411 913.178 C 845.560 924.357, 853.948 931.766, 863.550 929.198 C 869.339 927.650, 871.692 929.336, 886.710 945.791 C 917.556 979.588, 926.620 985.169, 943.919 981.019 C 971.508 974.401, 979.443 943.109, 970.962 874.380 C 969.868 865.515, 969.092 855.540, 969.237 852.214 C 969.546 845.115, 968.584 843.578, 965.981 847.015 C 962.435 851.698, 960.635 863.251, 961.620 875 C 967.264 942.323, 949.916 981.039, 922.376 962.580 C 916.998 958.976, 878 920.279, 878 918.547 C 878 915.282, 881.020 911.032, 883.768 910.431 C 885.271 910.102, 887.080 909.653, 887.790 909.433 C 888.499 909.212, 891.025 910.825, 893.402 913.016 C 899.998 919.096, 906.596 918.895, 912.616 912.430 C 923.276 900.982, 915.628 886.652, 899.813 888.442 C 890.136 889.536, 881.409 881.052, 884.530 873.583 C 891.702 856.417, 866.601 849.568, 856 865.798 C 854.382 868.275, 852.915 868.533, 837.051 869.130 L 828.602 869.448 825.987 864.974 C 821.511 857.314, 815.318 854.853, 806.473 857.219 C 794.990 860.290, 790.165 846.566, 797.562 831.876 C 809.306 808.556, 842.437 765.607, 857.301 754.433 C 883.503 734.736, 921.157 737.349, 954.835 761.201 C 961.671 766.043, 963.433 766.885, 964.638 765.886 C 965.851 764.879, 967.152 765.695, 972.125 770.584 C 979.776 778.103, 980.243 778.978, 978.444 782.445 C 977.650 783.976, 977 786.265, 977 787.533 C 977 795.177, 972.637 794.956, 963.461 786.848 C 959.633 783.465, 956.275 780.373, 956 779.977 C 954.838 778.305, 940.401 769.624, 932.764 766.006 C 922.039 760.924, 913.447 759.705, 898.839 761.193 C 888.126 762.283, 888.126 762.283, 885.068 759.711 C 875.664 751.798, 864.828 760.601, 869.053 772.722 C 872.021 781.237, 888 779.118, 888 770.209 C 888 768.888, 889.938 768.772, 902.750 769.323 L 917.500 769.958 927.500 774.826 C 940.119 780.970, 948.460 786.812, 959.915 797.528 C 970.291 807.235, 969.467 806.897, 973.452 803.085 C 977.636 799.083, 979.462 799.061, 987.241 802.921 C 995.355 806.947, 1000.500 806.812, 1005.050 802.452 C 1008.359 799.282, 1006.843 798.628, 1024.513 810.847 C 1035.895 818.718, 1036.799 819.800, 1035.394 823.867 C 1034.671 825.958, 1033.152 826.946, 1028.010 828.670 L 1021.535 830.839 1016.925 826.527 C 1003.828 814.276, 990.657 816.683, 982.879 832.749 C 976.528 845.869, 996.564 863.007, 1009.711 855.700 C 1015.047 852.735, 1021.003 845.833, 1021.634 841.885 C 1022.379 837.231, 1022.877 836.839, 1029.860 835.413 L 1035.220 834.318 1039.499 838.658 C 1051.157 850.483, 1066.853 847.195, 1072.218 831.804 C 1073.317 828.653, 1073.691 828.514, 1085 827.070 C 1095.534 825.724, 1096.289 825.862, 1100.731 829.938 C 1107.479 836.131, 1115.831 838.282, 1122.121 835.446 C 1126.633 833.411, 1126.081 832.996, 1135.626 845.589 C 1143.541 856.030, 1140.771 862.030, 1127.405 863.399 C 1119.617 864.197, 1119.643 864.214, 1114.799 855.553 C 1106.956 841.527, 1089.879 839.509, 1072.191 850.516 C 1068.511 852.806, 1063.781 855.247, 1061.680 855.941 C 1054.304 858.375, 1056.442 863.002, 1064.941 862.997 C 1068.360 862.996, 1070.925 862.136, 1075.198 859.559 C 1085.025 853.633, 1097.290 852.050, 1103.593 855.893 C 1106.949 857.940, 1114 866.019, 1114 867.818 C 1114 871.076, 1122.895 871.952, 1132.002 869.589 C 1137.413 868.186, 1137.456 868.193, 1140.634 870.984 C 1144.657 874.516, 1149.995 876.306, 1155.065 875.822 C 1159.276 875.421, 1160.362 876.433, 1156.899 877.532 C 1154.408 878.323, 1149.668 887.972, 1150.591 890.376 C 1151.556 892.892, 1152.709 892.389, 1158.485 886.926 C 1163.544 882.141, 1163.912 881.966, 1164.925 883.860 C 1166.689 887.155, 1166.269 888.117, 1159.049 897.327 C 1148.186 911.184, 1149.354 925.281, 1161.157 922.760 C 1162.629 922.446, 1165.326 927.583, 1167.513 934.867 C 1170.998 946.475, 1168.151 945.904, 1146 930.545 C 1136.451 923.925, 1135.523 923.004, 1135.751 920.383 C 1136.862 907.634, 1135.822 905.028, 1126.668 897.619 C 1120.270 892.440, 1109.025 894.434, 1102.824 901.846 C 1099.066 906.339, 1075.020 897.128, 1074.984 891.182 C 1074.887 875.415, 1053.941 870.807, 1044.176 884.404 L 1041.010 888.813 1031.467 889.528 L 1021.924 890.244 1015.712 884.281 C 1006.363 875.307, 1000.110 874.193, 992.535 880.151 C 983.444 887.302, 983.871 899.315, 993.518 907.807 L 998.102 911.842 997.502 922.171 C 996.603 937.628, 996.429 938.280, 992.745 940 C 985.880 943.205, 981.848 953.953, 985.125 960.316 C 990.875 971.481, 1002.020 972.590, 1013.885 963.179 C 1016.348 961.226, 1016.388 952.976, 1013.942 951.464 C 1011.984 950.254, 1012.953 945.261, 1015.465 943.615 C 1018.702 941.494, 1019.254 941.554, 1023.595 944.500 C 1034.381 951.819, 1049.128 933.846, 1041.211 923.031 C 1033.318 912.250, 1016.105 917.340, 1014.274 930.997 C 1013.660 935.568, 1009.983 939.284, 1006.559 938.794 C 1003.582 938.369, 1002.836 914.041, 1005.720 911.479 C 1009.599 908.034, 1017.501 902, 1018.134 902 C 1018.503 902, 1019.275 900.650, 1019.850 899 L 1020.896 896 1030.999 896 L 1041.102 896 1042.582 899.543 C 1046.888 909.849, 1060.704 913.369, 1068.995 906.272 C 1073.780 902.177, 1076.001 902.194, 1085.195 906.402 C 1088.328 907.836, 1092.598 909.363, 1094.685 909.797 C 1098.038 910.494, 1098.546 910.992, 1099.048 914.081 C 1101.223 927.461, 1114.064 934.604, 1125.593 928.846 C 1129.379 926.956, 1130.146 926.864, 1131.878 928.096 C 1161.780 949.368, 1163.410 950.760, 1162.204 953.995 C 1158.277 964.535, 1174.998 975.130, 1184.136 967.892 C 1194.220 959.905, 1192.538 949.333, 1180.018 942.011 C 1175.976 939.646, 1175.219 938.571, 1172.269 931.002 C 1167.010 917.507, 1167.927 915.214, 1182.673 904.992 L 1186.847 902.099 1184.983 895.944 C 1182.736 888.522, 1181.200 886.676, 1175.966 885.108 C 1173.765 884.449, 1169.707 881.904, 1166.949 879.455 C 1164.190 877.005, 1161.512 875, 1160.997 875 C 1160.482 875, 1161.172 873.362, 1162.530 871.360 C 1168.528 862.522, 1163.133 852.272, 1151.323 850.066 C 1145.938 849.060, 1144.279 847.454, 1136.063 835.303 C 1131.205 828.116, 1131.200 828.099, 1132.568 824.129 C 1135.956 814.295, 1128.208 802.722, 1117.179 801.145 C 1112.706 800.505, 1112.399 800.218, 1103.642 788.495 C 1080.269 757.204, 1056.182 742.087, 1023.120 737.958 C 1017.807 737.295, 1016.270 736.647, 1013.927 734.081 C 1007.192 726.707, 983 732.194, 983 741.095 C 983 752.232, 996.657 760.762, 1006.474 755.757 C 1011.732 753.076, 1013.216 753.702, 1026.286 764.120 L 1036.799 772.500 1036.270 779.543 L 1035.741 786.587 1041.621 792.714 C 1050.585 802.056, 1056.864 803.040, 1065.491 796.455 C 1069.344 793.514, 1070.029 793.308, 1072.143 794.456 C 1105.345 812.481, 1106.116 818.266, 1075.861 822.347 C 1072.502 822.800, 1071.987 822.510, 1069.153 818.563 C 1067.257 815.923, 1063.987 813.191, 1060.603 811.420 L 1055.124 808.551 1049.812 810.884 C 1041.047 814.733, 1041.652 814.909, 1026.530 804.129 L 1012.559 794.170 1012.351 787.492 C 1011.922 773.743, 999.199 765.007, 988.187 770.900 C 981.816 774.310, 969.194 761.773, 972.052 754.874 C 977.155 742.554, 960.057 730.109, 946.808 736.500 C 941.323 739.146, 937.562 739.598, 933.797 738.064 C 912.359 729.328, 894.080 726.881, 876.500 730.395 M 1277.919 731.268 C 1274.732 733.409, 1265.756 744.233, 1264.807 747.078 C 1264.477 748.069, 1262.864 747.951, 1257.408 746.536 C 1246.360 743.670, 1235.374 753.974, 1242.200 760.800 C 1243.133 761.733, 1243.101 762.278, 1242.053 763.250 C 1240.964 764.261, 1240.860 764.232, 1241.508 763.095 C 1242.049 762.147, 1241.929 761.926, 1241.138 762.415 C 1240.494 762.813, 1240.195 763.506, 1240.473 763.956 C 1241.229 765.179, 1239.060 766.594, 1233.631 768.420 C 1226.357 770.866, 1224.966 771.836, 1223.415 775.548 C 1221.506 780.119, 1221.633 782.229, 1223.969 784.736 C 1230.652 791.909, 1231.034 794.627, 1226.074 799.687 C 1218.453 807.461, 1219.512 814.529, 1229 819.218 C 1235.894 822.625, 1235.752 822.631, 1237.797 818.852 C 1238.733 817.121, 1240.733 814.254, 1242.241 812.481 L 1244.981 809.258 1241.659 805.059 C 1239.831 802.750, 1237.040 800.010, 1235.455 798.971 C 1231.207 796.184, 1230.602 793.575, 1233.438 790.277 C 1236.469 786.753, 1242.999 786.548, 1246.103 789.880 C 1247.195 791.053, 1249.211 792.747, 1250.580 793.645 C 1251.950 794.542, 1254.104 797.539, 1255.366 800.305 L 1257.661 805.332 1259.897 800.712 C 1261.127 798.171, 1262.963 795.829, 1263.977 795.507 C 1267.142 794.503, 1268.395 792.012, 1269.084 785.354 C 1269.901 777.462, 1268.581 778.337, 1280.868 777.536 C 1294.068 776.676, 1299.301 774.345, 1300.032 769 C 1300.446 765.972, 1299.902 765.044, 1294.987 760.390 C 1289.076 754.794, 1287.140 749.906, 1288.870 744.944 C 1292.735 733.857, 1286.205 725.703, 1277.919 731.268 M 1017 747.934 C 1017 748.448, 1021.709 752.516, 1027.465 756.973 C 1033.220 761.429, 1038.197 765.509, 1038.524 766.038 C 1039.532 767.670, 1042.683 767.114, 1047.697 764.419 C 1059.875 757.874, 1073.462 766.329, 1073.537 780.500 C 1073.580 788.529, 1071.738 786.674, 1090.500 797.585 C 1105.194 806.131, 1107.783 806.275, 1101.188 798.179 C 1099.091 795.606, 1094.852 790.350, 1091.768 786.500 C 1073.003 763.076, 1058.481 754.140, 1030 748.488 C 1021.390 746.780, 1017 746.593, 1017 747.934 M 1261.620 753.548 C 1261.275 754.446, 1261.262 755.615, 1261.591 756.147 C 1264.134 760.263, 1258.563 763.945, 1249.601 764.072 C 1245.020 764.137, 1244.199 764.506, 1241.547 767.692 L 1238.594 771.240 1240.797 775.068 C 1242.009 777.174, 1243 779.989, 1243 781.326 C 1243 787.405, 1250.766 785.008, 1253.111 778.205 C 1253.344 777.530, 1256.432 777.005, 1260.798 776.897 C 1270.296 776.662, 1272.493 773.926, 1268.830 766.898 C 1267.630 764.597, 1266.138 760.445, 1265.513 757.670 C 1264.336 752.443, 1262.706 750.718, 1261.620 753.548 M 850.320 781.883 C 844.747 785.921, 843.614 789.115, 845.367 795.851 C 847.345 803.452, 841.202 817, 835.778 817 C 823.422 817, 813.983 828.860, 819.098 837.960 C 825.523 849.392, 839.163 848.119, 844.395 835.598 C 845.751 832.353, 846.274 832, 849.739 832 C 851.851 832, 856.190 831.320, 859.381 830.489 L 865.182 828.978 870.117 833.415 C 875.266 838.045, 880.386 840.014, 882.299 838.101 C 884.488 835.912, 886.788 837.121, 893.336 843.903 C 899.612 850.404, 901.382 854.028, 899 855.500 C 897.328 856.533, 897.887 862.303, 899.995 865.759 C 908.671 879.989, 932.155 868.803, 924.536 854.069 C 921.411 848.027, 917.225 845.702, 910.561 846.306 C 904.558 846.850, 904.558 846.850, 900.140 842.175 C 893.127 834.755, 892.835 834.065, 893.588 826.716 C 894.344 819.334, 893.735 817.955, 887.541 813.033 C 880.194 807.194, 871.544 810.104, 865.496 820.450 C 863.768 823.406, 845.514 827.226, 843.540 825.044 C 839.680 820.779, 849.005 806.805, 856.276 805.958 C 860.898 805.420, 863.077 804.026, 869.325 797.612 C 873.963 792.852, 894.602 794.101, 899.645 799.448 C 907.082 807.333, 915.926 806.815, 920.761 798.212 C 928.060 785.225, 911.297 774.123, 900.813 785 L 895.994 790 884.086 790 C 872.178 790, 872.178 790, 869.680 787.032 C 862.883 778.953, 856.652 777.296, 850.320 781.883 M 935.407 805.572 C 925.827 810.298, 925.932 823.303, 935.602 829.930 L 938.885 832.179 938.828 855.490 L 938.770 878.801 933.892 883.607 C 926.707 890.683, 926.576 897.757, 933.494 905 L 935.882 907.500 933.662 915.477 L 931.442 923.454 927.062 924.202 C 921.687 925.120, 918.673 927.811, 917.085 933.111 C 912.454 948.568, 935.420 956.903, 941.408 941.939 C 943.207 937.441, 942.973 935.703, 939.708 929.310 L 937.567 925.121 939.911 917.845 C 941.944 911.531, 943.027 909.855, 948.105 905.163 C 956.401 897.496, 956.878 889.242, 949.310 884.283 C 944.876 881.378, 944.634 879.805, 944.879 855.500 L 945.112 832.500 948.939 828.500 C 960.719 816.188, 950.158 798.294, 935.407 805.572 M 1256.315 807.007 C 1247.456 810.576, 1252.433 827.989, 1262.318 828.012 L 1267.500 828.024 1271 834.262 C 1272.925 837.693, 1274.635 841.008, 1274.800 841.629 C 1275.542 844.419, 1265.417 843.970, 1258.712 840.915 C 1257.372 840.304, 1255.023 837.823, 1253.493 835.402 C 1250.862 831.240, 1250.446 830.992, 1245.855 830.850 C 1243.185 830.768, 1240.438 830.655, 1239.750 830.600 C 1238.135 830.471, 1234.095 838.690, 1234.041 842.215 C 1233.907 851.031, 1250.416 858.036, 1253.564 850.500 C 1255.244 846.481, 1255.064 846.521, 1262.579 848.478 C 1268.634 850.056, 1275 854.180, 1275 856.525 C 1275 860.257, 1266.015 862.093, 1260.843 859.419 C 1251.984 854.838, 1242.178 867.305, 1248.619 874.959 C 1255.691 883.364, 1265.040 881.351, 1268.013 870.784 C 1269.279 866.284, 1283.066 860.775, 1286.966 863.211 C 1291.179 865.842, 1294.040 878.749, 1291.017 881.485 C 1290.095 882.319, 1288.291 885.244, 1287.007 887.985 C 1283.347 895.798, 1275.287 896.187, 1267.791 888.913 C 1256.956 878.398, 1242.580 889.685, 1250.081 902.818 C 1255.177 911.742, 1258.746 911.894, 1267.338 903.556 C 1276.015 895.135, 1295.230 900.555, 1293.395 910.905 C 1292.581 915.492, 1292.076 915.990, 1286.289 917.911 C 1279.335 920.218, 1275.786 926.807, 1278.051 933.205 C 1280.685 940.643, 1272.667 950.992, 1266.461 948.164 C 1262.884 946.535, 1255.854 946.713, 1253.305 948.499 C 1241.943 956.457, 1247.918 973.973, 1262 973.991 C 1267.264 973.997, 1274.684 964.333, 1273.346 959.213 C 1272.232 954.955, 1283.969 940.283, 1287.426 941.610 C 1295.766 944.810, 1304.244 931.544, 1299.933 922.040 C 1297.149 915.903, 1299.551 906.659, 1304.549 904.275 C 1313.810 899.859, 1312.996 886.739, 1303.058 880.233 C 1299.029 877.595, 1298.256 876.511, 1297.083 871.851 C 1296.342 868.908, 1295.071 865.190, 1294.259 863.590 C 1292.944 860.997, 1292.959 860.310, 1294.391 857.306 C 1298.286 849.139, 1293.707 840.063, 1285.170 839.026 C 1278.652 838.234, 1270.933 827.626, 1274.020 823.702 C 1281.582 814.089, 1268.756 801.995, 1256.315 807.007 M 750.875 810.439 C 744.893 814.504, 741.773 823.966, 743.910 831.565 C 745.017 835.500, 745.017 835.500, 738.528 841.837 L 732.040 848.174 724.614 847.479 C 700.585 845.227, 691.251 873.087, 712.872 882.528 C 726.273 888.379, 740.860 874.685, 737.053 859.828 C 735.892 855.299, 735.959 854.839, 738.158 852.241 C 751.987 835.909, 757.419 837.544, 758.261 858.292 L 758.740 870.083 754.120 873.205 C 745.767 878.848, 744 881.579, 744 888.840 L 744 893.811 737.419 896.891 C 733.800 898.585, 728.737 900.607, 726.169 901.385 C 723.601 902.162, 719.025 903.965, 716 905.390 C 709.301 908.545, 707.296 908.627, 704.355 905.864 C 697.832 899.736, 684.251 900.375, 677.800 907.114 C 667.895 917.461, 670.957 932.777, 684.484 940.549 C 686.227 941.551, 686.248 942.451, 684.936 960.549 C 684.181 970.972, 683.569 981.154, 683.577 983.175 C 683.591 986.597, 683.258 987.006, 678.717 989.132 C 661.802 997.055, 662.132 1021.270, 679.237 1027.232 L 682 1028.196 682 1042.078 L 682 1055.959 678.250 1057.957 C 659.980 1067.689, 664.095 1092.492, 684.488 1095.550 C 691.676 1096.628, 706 1087.156, 706 1081.324 C 706 1080.176, 709.446 1079.950, 725.554 1080.043 L 745.109 1080.156 746.118 1082.828 C 747.520 1086.539, 751.760 1090.799, 756.500 1093.259 C 771.858 1101.227, 789.788 1084.827, 783.557 1068.510 C 781.003 1061.823, 790.571 1047.922, 796.672 1049.454 C 810.091 1052.822, 818.359 1049.905, 823.503 1039.987 C 830.148 1027.175, 819.704 1012.403, 804.557 1013.191 C 798.615 1013.500, 798.613 1013.499, 795.729 1009.409 L 792.844 1005.317 797.672 998.102 L 802.500 990.886 818 991.539 C 830.365 992.060, 833.702 992.505, 834.500 993.736 C 841.230 1004.124, 841.571 1004.482, 846.500 1006.317 C 863.210 1012.538, 878.387 996.482, 871.535 979.832 C 871.006 978.546, 872.644 976.955, 878.674 972.899 C 887.480 966.975, 888.923 965.478, 888.968 962.219 C 889.037 957.308, 882.852 959.920, 869.788 970.319 C 866.309 973.088, 865.874 973.191, 862.878 971.949 C 852.164 967.512, 838.405 973.030, 834.698 983.250 C 834.129 984.817, 832.391 985, 818.044 985 L 802.025 985 799.399 980.840 C 785.470 958.774, 753.467 972.641, 763.408 996.435 C 764.726 999.588, 764.652 1000.054, 762.269 1003.653 C 756.347 1012.595, 755.696 1012.952, 746.502 1012.303 C 727.124 1010.935, 715.501 1030.587, 727.700 1044.090 C 743.026 1061.054, 768.239 1045.724, 761.552 1023.508 C 758.995 1015.009, 767.495 1003.633, 774.774 1005.814 C 776.951 1006.466, 780.298 1007, 782.211 1007 C 785.962 1007, 787.722 1008.454, 790.420 1013.779 C 792.157 1017.207, 791.969 1018.091, 788.742 1021.681 C 785.924 1024.815, 785.162 1035.480, 787.441 1039.886 C 789.368 1043.613, 788.757 1044.759, 779.766 1054.274 C 775.812 1058.459, 774.956 1058.934, 772.829 1058.125 C 770.176 1057.116, 765.331 1056.628, 760.228 1056.855 C 756.307 1057.029, 749.464 1062.888, 746.414 1068.682 L 744.404 1072.500 725.686 1072.772 C 707.031 1073.043, 706.964 1073.037, 706.083 1070.772 C 704.192 1065.913, 698.802 1059.878, 694.476 1057.776 L 690 1055.601 690 1041.890 L 690 1028.178 694.250 1026.051 C 709.542 1018.395, 710.247 998.568, 695.536 989.889 C 691.034 987.233, 690.247 944.781, 694.635 941.351 C 698.250 938.526, 703.318 938.667, 705.862 941.662 C 707.187 943.223, 711.135 947.539, 714.635 951.253 C 721.265 958.289, 722.005 959.921, 719.500 962 C 713.278 967.164, 722.418 984.151, 732.943 986.985 C 751.402 991.955, 762.845 967.010, 748.178 953.775 C 742.453 948.610, 738.977 948.061, 727.500 950.511 C 724.744 951.100, 723.829 950.464, 716.250 942.698 C 707.111 933.333, 707.187 933.513, 710 928 C 711.133 925.779, 712 922.106, 712 919.527 C 712 914.402, 711.166 914.983, 728.500 908.032 C 744.778 901.504, 745.634 901.372, 749.834 904.738 C 755.694 909.433, 757.412 910, 765.795 910 L 773.721 910 776.900 915.963 L 780.078 921.927 777.977 926.046 C 767.472 946.637, 791.385 965.945, 808.067 950.341 C 823.198 936.187, 813.325 915.559, 792.230 917.254 L 785.500 917.795 781.765 911.460 L 778.031 905.126 780.758 899.868 C 786.339 889.112, 782.273 878.530, 770.250 872.520 L 765 869.895 765 856.663 L 765 843.431 768.196 841.543 C 784.838 831.713, 778.524 808, 759.264 808 C 755.824 808, 753.447 808.691, 750.875 810.439 M 1087.934 861.843 C 1074.842 866.140, 1073.705 868.347, 1080.750 875.792 C 1088.607 884.094, 1093.104 884.633, 1105.693 878.782 C 1112.134 875.788, 1111.947 874.754, 1103 863.950 C 1099.792 860.075, 1095.253 859.440, 1087.934 861.843 M 841.707 874.188 C 820.622 875.597, 821.329 879.457, 845.586 895.369 L 849.672 898.049 854.086 896.046 C 862.863 892.065, 878 897.213, 878 904.180 C 878 906.603, 888.264 902.359, 889.370 899.479 C 891.788 893.178, 876.794 880.505, 871.501 884.376 C 869.130 886.110, 864.714 883.898, 858 877.613 L 853.500 873.400 841.707 874.188 M 1192.898 907.285 C 1180.905 915.350, 1185.226 932.692, 1198.999 931.769 L 1203.022 931.500 1207.523 941.440 L 1212.025 951.379 1209.063 954.440 C 1192.901 971.140, 1212.971 997.257, 1230.284 982.055 C 1240.954 972.687, 1239.780 959.449, 1227.532 951.022 C 1224.769 949.121, 1223 947.142, 1223 945.952 C 1223 944.878, 1222.520 944, 1221.933 944 C 1221.320 944, 1221.136 944.853, 1221.500 946 C 1221.849 947.100, 1221.691 948, 1221.149 948 C 1220.607 948, 1219.497 948.256, 1218.682 948.569 C 1217.651 948.964, 1216.856 948.094, 1216.068 945.707 C 1215.445 943.820, 1213.375 939.684, 1211.468 936.517 C 1207.585 930.069, 1207.298 927.925, 1209.581 922.460 C 1212.821 914.706, 1205.548 905, 1196.499 905 C 1196.387 905, 1194.767 906.028, 1192.898 907.285 M 1228.085 909.397 C 1227.086 910.601, 1227.070 911.682, 1228.009 914.528 C 1229.488 919.008, 1228.673 919.941, 1225.193 917.754 C 1219.995 914.487, 1218.114 913.742, 1216.564 914.337 C 1214.288 915.210, 1214.632 919.814, 1217.359 925.008 C 1218.657 927.479, 1219.979 932.135, 1220.298 935.355 C 1221.249 944.972, 1223.957 943.934, 1223.985 933.941 C 1224.005 926.591, 1226.082 923.371, 1227.928 927.827 C 1230.610 934.300, 1236.939 935.397, 1235.462 929.133 C 1235.155 927.832, 1234.640 925.448, 1234.317 923.837 L 1233.731 920.907 1239.849 924.203 C 1244.571 926.748, 1245.971 928.021, 1245.983 929.782 C 1246.061 940.436, 1258.472 946.020, 1265.503 938.566 C 1271.551 932.152, 1270.949 928.017, 1262.869 920.503 C 1259.916 917.757, 1256.959 914.270, 1256.298 912.755 C 1255.540 911.017, 1254.329 910, 1253.017 910 C 1250.120 910, 1249.348 912.800, 1251.305 916.209 C 1254.906 922.484, 1247.334 920.633, 1238.915 913.180 C 1233.559 908.438, 1229.933 907.171, 1228.085 909.397 M 1063.594 926.041 C 1042.993 932.204, 1049.832 960.360, 1071.531 958.719 L 1078.968 958.157 1082.947 962.677 C 1091.911 972.861, 1098.949 988.369, 1097.403 994.531 C 1096.594 997.755, 1096.579 997.751, 1089 991.967 C 1078.581 984.015, 1071.721 981.062, 1060.885 979.865 C 1044.618 978.068, 1045.078 978.198, 1044.427 975.206 C 1040.117 955.414, 1012.263 956.579, 1011.629 976.577 C 1011.399 983.852, 1021.226 993.458, 1028.893 993.452 C 1032.243 993.449, 1033.945 992.532, 1043.524 985.565 C 1045.071 984.441, 1063.242 987.489, 1070.182 990.037 C 1077.463 992.710, 1088.387 1000.487, 1098.664 1010.311 C 1109.470 1020.642, 1108.952 1020.676, 1110.333 1009.530 C 1111.818 997.546, 1103.156 978.166, 1087.668 958.821 L 1082.836 952.786 1085.125 948.471 C 1091.492 936.468, 1077.492 921.884, 1063.594 926.041 M 1117.718 947.092 C 1102.435 950.690, 1100.033 960.655, 1110.901 975.367 C 1116.252 982.609, 1116.309 982.622, 1118.290 977.046 C 1121.282 968.622, 1130.726 962.363, 1143.289 960.479 C 1149.360 959.569, 1149.244 959.063, 1141.741 953.709 C 1132.127 946.848, 1125.962 945.150, 1117.718 947.092 M 1136.459 972.880 C 1120.116 980.303, 1124.363 989.950, 1149.500 1002.500 C 1192.791 1024.114, 1241.075 1020.878, 1275.744 994.039 C 1292.423 981.127, 1296.089 971.754, 1280.714 981.332 C 1246.072 1002.912, 1199.005 1001.667, 1160.886 978.162 C 1147.943 970.180, 1144.189 969.368, 1136.459 972.880 M 965.928 981.714 C 961.337 985.577, 957 991.889, 957 994.706 C 957 997.964, 951.922 1000.103, 936 1003.553 C 916.841 1007.704, 918.694 1007.741, 913.877 1003.113 C 898.370 988.212, 874.646 1003.143, 881.725 1023.348 L 883.850 1029.415 868.746 1043.957 C 854.501 1057.674, 853.439 1058.484, 850.071 1058.213 C 832.169 1056.774, 832.663 1056.751, 829.024 1059.204 C 818.921 1066.015, 816.747 1078.828, 823.996 1088.835 C 832.594 1100.705, 849.518 1099.139, 856.874 1085.792 L 859.500 1081.029 878.275 1081.014 L 897.050 1081 898.086 1083.750 C 906.048 1104.874, 936.516 1097.344, 934.616 1074.722 C 934.283 1070.750, 933.982 1066.673, 933.949 1065.663 C 933.872 1063.303, 943.024 1053.425, 945 1053.737 C 945.825 1053.867, 948.193 1054.255, 950.263 1054.598 C 962.967 1056.705, 972.480 1042.801, 966.461 1030.923 L 963.715 1025.504 967.007 1019.343 C 970.158 1013.446, 970.495 1013.153, 974.899 1012.505 C 993.166 1009.814, 997.702 988.718, 981.800 980.411 C 977.126 977.969, 969.649 978.583, 965.928 981.714 M 475.500 983.394 C 442.894 999.962, 455.038 1046.714, 491.161 1043.689 C 521.299 1041.165, 528.924 999.932, 502.153 984.244 C 495.320 980.240, 482.512 979.831, 475.500 983.394 M 1505.222 982.406 C 1482.810 989.740, 1476.626 1022.006, 1494.767 1036.959 C 1510.072 1049.575, 1534.191 1044.358, 1542.131 1026.714 C 1553.360 1001.762, 1530.378 974.173, 1505.222 982.406 M 947.545 1007.578 C 942.206 1009.443, 922.268 1014, 919.449 1014 C 919.202 1014, 919 1015.937, 919 1018.304 C 919 1030.514, 905.173 1038.869, 891.900 1034.679 C 888.592 1033.635, 857 1063.379, 857 1067.538 C 857 1070.433, 859.456 1072.981, 862.321 1073.059 C 863.520 1073.092, 871.223 1073.310, 879.440 1073.543 C 894.538 1073.971, 898 1073.266, 898 1069.763 C 898 1063.039, 909.034 1057.567, 920.820 1058.447 L 929.500 1059.095 934.165 1053.715 L 938.830 1048.335 936.863 1043.942 C 934.583 1038.849, 934.839 1037.202, 938.912 1030.792 C 941.952 1026.007, 943.781 1025.082, 955.101 1022.606 C 960.225 1021.485, 964.504 1012.082, 962.393 1006.582 C 961.518 1004.301, 955.838 1004.682, 947.545 1007.578 M 500.301 1061.958 C 494.594 1065.438, 493.611 1079.453, 497.316 1104.500 L 498.500 1112.500 506.136 1113.042 C 539.796 1115.434, 552.981 1155.212, 527.830 1178.497 L 521.896 1183.991 525.484 1193.246 C 529.819 1204.429, 537.294 1220.401, 541.817 1228.151 L 545.134 1233.833 549.669 1232.288 C 581.952 1221.288, 608.265 1263.783, 587.133 1292.792 C 584.381 1296.569, 598.371 1316.628, 610.787 1326.708 C 625.892 1338.970, 642.122 1322.464, 639.506 1297.500 C 634.093 1245.849, 624.543 1223.722, 602.720 1212.263 C 580.014 1200.340, 570.620 1181.533, 576.567 1159.901 C 581.242 1142.896, 577.154 1126.456, 563.320 1106.618 C 538.604 1071.176, 513.898 1053.667, 500.301 1061.958 M 1481.890 1063.206 C 1468.953 1069.696, 1441.159 1100.849, 1431.878 1119.262 C 1424.880 1133.145, 1423.720 1144.034, 1426.863 1166.331 C 1429.980 1188.438, 1420.352 1202.919, 1394.750 1214.631 C 1391.588 1216.078, 1389 1217.616, 1389 1218.049 C 1389 1218.483, 1387.480 1220.271, 1385.623 1222.023 C 1378.884 1228.379, 1371.628 1247.217, 1365.408 1274.500 C 1355.080 1319.799, 1374.932 1347.599, 1398.158 1320.363 C 1415.590 1299.921, 1417.948 1295.659, 1414.431 1290.944 C 1393.926 1263.459, 1421.106 1222.566, 1453.671 1231.906 C 1464.871 1235.118, 1483.139 1185.645, 1473.981 1176.904 C 1450.758 1154.737, 1463.433 1115.809, 1494.765 1113.070 C 1502.669 1112.380, 1502.152 1113.239, 1505.417 1095.357 C 1511.184 1063.780, 1503.011 1052.610, 1481.890 1063.206 M 937.500 1160.876 C 911.454 1167.729, 917.345 1193.863, 946.095 1199 C 954.303 1200.467, 957 1202.185, 957 1205.950 C 957 1215.162, 938.526 1215.928, 934.448 1206.885 L 932.696 1203 925.717 1203 L 918.738 1203 919.307 1206.506 C 919.975 1210.619, 924.385 1217.492, 928.142 1220.273 C 935.752 1225.907, 958.445 1225.260, 964.509 1219.237 C 979.054 1204.790, 973.680 1192.908, 949.462 1185.970 C 933.245 1181.325, 931.250 1179.492, 937.077 1174.589 C 942.404 1170.107, 950.306 1171.779, 955.409 1178.469 C 960.458 1185.089, 970.351 1182.453, 968.141 1175.077 C 964.846 1164.077, 950.537 1157.446, 937.500 1160.876 M 993.220 1163.578 C 970.856 1174.722, 972.316 1215.671, 995.321 1222.503 C 1001.370 1224.299, 1006.357 1224.381, 1016.633 1222.853 L 1024.347 1221.705 1027.210 1224.909 C 1030.487 1228.576, 1033.033 1228.418, 1034.848 1224.434 C 1036.603 1220.581, 1036.231 1217.275, 1033.854 1215.610 C 1031.708 1214.107, 1031.708 1214.107, 1034.104 1208.803 C 1047.160 1179.905, 1020.232 1150.117, 993.220 1163.578 M 1050.750 1161.728 L 1047 1162.121 1047 1192.580 L 1047 1223.039 1068.750 1222.770 L 1090.500 1222.500 1090.800 1216.750 L 1091.100 1211 1075.669 1211 L 1060.238 1211 1060.768 1186.901 C 1061.391 1158.543, 1062.183 1160.533, 1050.750 1161.728 M 1000.984 1174.856 C 985.581 1183.059, 989.630 1210.851, 1006.505 1212.754 L 1010.998 1213.260 1010.749 1206.880 C 1010.469 1199.714, 1012.463 1198.108, 1017.523 1201.423 C 1021.959 1204.330, 1024.015 1201.551, 1023.978 1192.703 C 1023.917 1178.245, 1011.996 1168.991, 1000.984 1174.856 M 1192.690 1193.750 L 1112.880 1194.012 1113.190 1197.756 L 1113.500 1201.500 1213.928 1201.500 L 1314.356 1201.500 1315.114 1198.665 C 1316.640 1192.961, 1316.707 1192.978, 1293.643 1193.244 C 1282.014 1193.378, 1236.585 1193.606, 1192.690 1193.750 M 690.428 1195.328 C 690.148 1196.058, 690.376 1197.858, 690.934 1199.328 L 691.950 1202 791.975 1202 L 892 1202 892 1198 L 892 1194 791.469 1194 C 708.834 1194, 690.847 1194.236, 690.428 1195.328 M 847.752 1258.162 C 819.678 1261.901, 813.917 1304.990, 839.792 1317.697 C 863.452 1329.315, 889.038 1310.557, 884.867 1284.652 C 881.822 1265.745, 867.511 1255.531, 847.752 1258.162 M 912 1257.691 C 899.339 1259.810, 893.738 1264.953, 893.171 1274.977 C 892.496 1286.926, 895.965 1290.447, 911.823 1293.908 C 924.913 1296.765, 928 1298.693, 928 1304.009 C 928 1310.312, 911.940 1311.918, 906.614 1306.148 C 905.778 1305.242, 904.172 1303.487, 903.046 1302.250 C 899.592 1298.452, 892 1298.989, 892 1303.032 C 892 1324.895, 936.455 1328.107, 941.862 1306.634 C 944.806 1294.942, 938.959 1287.566, 923.955 1284.043 C 907.721 1280.232, 901.324 1274.469, 908.950 1270.526 C 915.491 1267.144, 922.914 1268.710, 926.301 1274.186 C 929.707 1279.693, 941.701 1279.256, 940.583 1273.666 C 938.786 1264.679, 923.873 1255.019, 915.066 1257.136 C 914.755 1257.211, 913.375 1257.461, 912 1257.691 M 1024.274 1258.378 C 1001.350 1264.190, 994.207 1297.032, 1012.250 1313.663 C 1020.432 1321.204, 1035.057 1322.981, 1044.312 1317.557 C 1046.940 1316.017, 1049.234 1314.924, 1049.410 1315.129 C 1049.585 1315.333, 1050.269 1316.537, 1050.929 1317.804 C 1051.938 1319.743, 1052.792 1320.060, 1056.314 1319.804 L 1060.500 1319.500 1060.500 1303 L 1060.500 1286.500 1048.212 1286.500 C 1034.530 1286.500, 1034.042 1286.728, 1034.015 1293.143 C 1033.998 1297.370, 1035.023 1298, 1041.915 1298 C 1047.727 1298, 1048.308 1298.503, 1046.511 1301.978 C 1041.464 1311.739, 1024.308 1311.294, 1019.729 1301.284 C 1009.715 1279.388, 1030.154 1258.094, 1044.619 1275.353 C 1050.652 1282.551, 1061.740 1281.101, 1058.576 1273.529 C 1053.279 1260.851, 1039.143 1254.607, 1024.274 1258.378 M 1205.859 1258.035 C 1194.010 1259.996, 1189.675 1264.684, 1189.151 1276.102 C 1188.608 1287.927, 1191.657 1290.741, 1209.010 1294.432 C 1219.286 1296.618, 1223 1298.979, 1223 1303.325 C 1223 1311.374, 1203.003 1311.183, 1200.187 1303.108 C 1198.509 1298.293, 1187 1298.233, 1187 1303.040 C 1187 1327.313, 1235.768 1326.898, 1237.783 1302.608 C 1238.482 1294.177, 1229.793 1284, 1221.894 1284 C 1210.220 1284, 1197.737 1275.263, 1202.829 1270.655 C 1207.055 1266.830, 1221 1269.147, 1221 1273.674 C 1221 1276.978, 1232.557 1280.442, 1235.483 1278.014 C 1237.523 1276.321, 1234.621 1268.736, 1230.126 1264.016 C 1225.216 1258.860, 1215.436 1256.449, 1205.859 1258.035 M 768.907 1260.250 C 768.424 1266.752, 769.309 1318.692, 769.914 1319.304 C 770.351 1319.747, 773.362 1319.972, 776.604 1319.804 L 782.500 1319.500 782.785 1309.865 L 783.070 1300.231 791.785 1299.556 C 815.704 1297.705, 826.039 1280.971, 813.121 1265.011 C 808.768 1259.632, 769.269 1255.379, 768.907 1260.250 M 947.409 1260.377 C 947.111 1261.154, 947.009 1263.524, 947.183 1265.645 L 947.500 1269.500 956.250 1269.789 L 965 1270.078 965 1294.422 C 965 1322.141, 964.207 1319.958, 974.281 1319.986 C 980.322 1320.004, 979.913 1321.790, 980.231 1294 L 980.500 1270.500 989.301 1270.210 L 998.102 1269.921 997.801 1264.710 L 997.500 1259.500 972.725 1259.232 C 952.131 1259.010, 947.859 1259.203, 947.409 1260.377 M 1072.497 1260.146 C 1072.206 1260.905, 1072.088 1274.345, 1072.234 1290.013 L 1072.500 1318.500 1079.250 1318.796 L 1086 1319.091 1086 1307.408 L 1086 1295.725 1094.750 1296.400 C 1105.852 1297.256, 1108.943 1301.026, 1109.015 1313.799 C 1109.041 1318.326, 1110.294 1319.243, 1116.637 1319.377 L 1122.500 1319.500 1122.321 1313 C 1121.986 1300.817, 1121.001 1295.905, 1118.412 1293.506 C 1115.353 1290.671, 1115.379 1290.383, 1119 1287 C 1124.855 1281.531, 1122.442 1264.457, 1115.330 1261.030 C 1111.119 1259.001, 1073.237 1258.219, 1072.497 1260.146 M 1133.784 1283.231 C 1133.628 1296.579, 1133.725 1310.200, 1134 1313.500 L 1134.500 1319.500 1157 1319.255 C 1169.375 1319.120, 1180.090 1319.008, 1180.811 1319.005 C 1182.246 1319, 1181.523 1310.318, 1179.945 1308.612 C 1179.494 1308.124, 1171.897 1307.814, 1163.062 1307.924 L 1147 1308.124 1147 1301.062 L 1147 1294 1162.052 1294 L 1177.105 1294 1176.802 1288.750 L 1176.500 1283.500 1161.118 1283.223 L 1145.735 1282.946 1146.368 1278.334 C 1146.715 1275.797, 1147 1272.864, 1147 1271.816 C 1147 1270.019, 1147.879 1269.920, 1162.604 1270.052 C 1179.989 1270.208, 1180.260 1270.111, 1179.814 1263.886 L 1179.500 1259.500 1156.784 1259.231 L 1134.068 1258.963 1133.784 1283.231 M 847.038 1270.752 C 836.097 1276.276, 835.419 1301.822, 846.069 1307.248 C 859.183 1313.931, 869.500 1306.116, 869.500 1289.500 C 869.500 1272.906, 859.424 1264.496, 847.038 1270.752 M 784 1278.500 L 784 1287 790.550 1287 C 801.421 1287, 805.155 1283.666, 802.686 1276.163 C 801.168 1271.547, 798.107 1270.033, 790.250 1270.015 L 784 1270 784 1278.500 M 1086 1277.433 C 1086 1286.344, 1086.188 1286.470, 1097.987 1285.441 C 1107.383 1284.621, 1108.210 1283.899, 1107.805 1276.872 C 1107.441 1270.558, 1106.828 1270.252, 1094.250 1270.100 L 1086 1270 1086 1277.433 M 640.500 1344.346 C 603.736 1356.462, 612.055 1408.335, 650.351 1405.772 C 683.613 1403.545, 691.308 1357.857, 660.419 1345.998 C 653.155 1343.209, 645.799 1342.599, 640.500 1344.346 M 1342.822 1345.329 C 1311.701 1358.425, 1318.830 1403.049, 1352.474 1405.750 C 1386.442 1408.477, 1399.099 1362.871, 1368.630 1347.540 C 1358.432 1342.408, 1351.229 1341.791, 1342.822 1345.329 M 714.500 1384.680 C 700.552 1387.805, 692 1396.017, 692 1406.285 C 692 1411.482, 702.288 1422.144, 716.181 1431.344 L 724.862 1437.092 729.321 1433.689 C 758.559 1411.370, 804.203 1442.653, 787.701 1473.700 C 786.765 1475.461, 786 1477.143, 786 1477.439 C 786 1479.614, 831.743 1499.185, 836.218 1498.926 C 836.923 1498.885, 839.300 1496.559, 841.500 1493.758 C 860.651 1469.374, 898.980 1480.916, 904.241 1512.651 L 905.542 1520.500 912.521 1522.366 C 916.876 1523.531, 924.477 1524.421, 932.735 1524.732 L 945.969 1525.231 949.382 1521.818 C 963.114 1508.086, 947.219 1481.646, 910.449 1457.059 C 894.621 1446.474, 883.678 1444.148, 865.139 1447.426 C 841.079 1451.680, 825.301 1443.839, 813.927 1421.976 C 801.403 1397.903, 746.837 1377.435, 714.500 1384.680 M 1253.071 1386.535 C 1221.399 1391.319, 1199.319 1402.324, 1191.541 1417.200 C 1176.869 1445.265, 1162.374 1453.153, 1135.637 1447.624 C 1113.664 1443.080, 1094.667 1451.091, 1067.273 1476.454 C 1048.459 1493.873, 1041.972 1520.889, 1055.685 1524.715 C 1062.272 1526.552, 1097.354 1523.499, 1096.767 1521.139 C 1096.108 1518.488, 1098.744 1507.461, 1101.217 1502.523 C 1113.659 1477.677, 1140.477 1473.181, 1159.658 1492.725 C 1163.045 1496.176, 1166.420 1498.998, 1167.158 1498.996 C 1168.920 1498.992, 1181.793 1494.057, 1190 1490.240 C 1193.575 1488.578, 1200.550 1485.377, 1205.500 1483.127 C 1215.626 1478.525, 1214.902 1480.044, 1213.476 1466.390 C 1209.937 1432.505, 1246.956 1413.194, 1274.890 1434.352 C 1277.700 1436.480, 1278.642 1436.730, 1280.390 1435.808 C 1330.373 1409.452, 1312.675 1377.532, 1253.071 1386.535 M 990.994 1502.934 C 972.241 1508.639, 964.247 1536.747, 976.845 1552.684 C 994.270 1574.729, 1030.534 1562.948, 1032.732 1534.529 C 1034.349 1513.636, 1011.836 1496.594, 990.994 1502.934" stroke="none" fill="#06a5b5" fill-rule="evenodd"/></svg>