<svg xmlns="http://www.w3.org/2000/svg" width="2048" height="1948" viewBox="0 0 2048 1948" version="1.1"><path d="M 304.500 83.163 C 274.904 94.343, 281.530 137.086, 313.692 142.456 C 318.587 143.274, 318.769 143.473, 322.426 152 C 330.786 171.494, 347.425 203.379, 353.783 212.090 C 357.560 217.266, 365.522 228.250, 371.477 236.500 C 395.734 270.108, 436.423 311.131, 466.784 332.590 C 471.028 335.589, 478.246 341.071, 482.824 344.772 C 503.489 361.475, 537.475 382.382, 573.500 400.555 C 612.805 420.382, 616.555 423.879, 593.345 419.064 C 558.621 411.859, 548.703 408.849, 492 388.295 C 455.297 374.992, 429.861 363.403, 384.500 339.321 C 369.200 331.198, 342.097 315.003, 336.750 310.788 C 333.361 308.116, 333 307.376, 333 303.097 C 333 280.972, 313.614 266.372, 293.024 272.992 C 281.371 276.739, 278.475 280.037, 275.589 292.844 C 270.981 313.286, 284.021 330, 304.578 330 C 312.759 330, 318.933 334.879, 332.455 352.031 C 364.818 393.081, 430.103 441.636, 483.705 464.521 C 489.642 467.056, 498.550 470.973, 503.500 473.227 C 540.301 489.982, 559.255 496.748, 585.500 502.497 C 673.418 521.757, 630.643 524.680, 519 507.041 C 508.825 505.433, 497.800 503.830, 494.500 503.479 C 484.380 502.402, 474.219 500.115, 457 495.040 C 447.925 492.365, 433.300 488.118, 424.500 485.603 C 415.700 483.087, 401.316 478.575, 392.535 475.576 C 376.092 469.960, 375.223 469.384, 375.069 464 C 374.444 441.994, 341.875 431.851, 325.775 448.647 C 303.474 471.913, 326.649 506.034, 359.337 498.062 C 366.634 496.283, 365.685 495.801, 389.920 513.590 C 411.987 529.787, 415.331 531.784, 447.735 548.111 C 474.929 561.813, 480.129 563.820, 504.334 569.954 C 513.043 572.161, 524.518 575.308, 529.834 576.949 C 541.830 580.650, 573.938 588.381, 584 589.991 C 588.125 590.651, 595.100 591.813, 599.500 592.572 C 603.900 593.331, 616.275 594.415, 627 594.980 C 637.725 595.546, 647.400 596.204, 648.500 596.444 C 649.600 596.683, 651.850 597.170, 653.500 597.526 C 679.845 603.201, 544.806 609.565, 492.926 605.093 C 461.158 602.355, 461.159 602.355, 455.156 593.500 C 434.378 562.850, 391.824 584.139, 404.507 618.838 C 410.396 634.948, 439.796 641.796, 450.047 629.444 C 452.241 626.799, 461.389 629.417, 489.558 640.750 C 547.568 664.089, 635.147 672.046, 716.518 661.372 C 743.858 657.785, 663.826 682.259, 616 692.111 C 580.711 699.380, 561.244 699.044, 554.204 691.046 C 535.385 669.667, 504.044 680.573, 504.044 708.500 C 504.044 733.996, 530.435 743.405, 555.977 727.015 C 560.603 724.046, 560.726 724.026, 565.582 725.444 C 591.059 732.883, 692.604 734.462, 729.220 727.989 C 732.674 727.378, 743.150 725.363, 752.500 723.512 C 776.162 718.826, 779 718.464, 778.998 720.136 C 778.995 722.631, 766.792 729.310, 750.051 735.980 C 744.490 738.195, 736.367 741.804, 732 744 C 727.633 746.196, 719.510 749.805, 713.949 752.020 C 708.387 754.236, 701.717 757.123, 699.126 758.436 C 693.238 761.420, 685.937 763.548, 675 765.470 C 663.233 767.537, 660.927 767.403, 656.944 764.421 C 625.951 741.214, 590.509 774.561, 617.490 801.542 C 628.502 812.555, 644.494 812.133, 656.879 800.504 C 663.500 794.287, 663.500 794.287, 682.500 793.608 C 729.882 791.915, 750.667 788.038, 801 771.504 C 834.198 760.599, 843.726 758.216, 841 761.500 C 840.315 762.325, 839.248 763.001, 838.628 763.001 C 838.007 763.002, 834.800 765.477, 831.500 768.501 C 824.515 774.903, 794.028 794.624, 786 797.933 C 782.975 799.180, 775.149 803.150, 768.609 806.755 C 756.719 813.310, 756.719 813.310, 750.609 810.263 C 720.089 795.044, 697.838 831.775, 725.711 851.365 C 736.792 859.153, 747.556 855.582, 760.505 839.820 C 762.278 837.663, 763.833 837.236, 773.882 836.146 C 780.135 835.468, 792.020 833.561, 800.291 831.909 C 820.711 827.832, 825.596 827.653, 825.217 831 C 824.842 834.326, 816.418 851.410, 809.932 862 C 807.069 866.675, 801.849 875.621, 798.333 881.880 C 794.817 888.139, 789.566 896.014, 786.665 899.380 C 783.763 902.746, 777.825 910, 773.471 915.500 C 734.982 964.109, 676.656 1009.261, 627.374 1028.596 C 586.918 1044.470, 564.764 1048.454, 533.500 1045.480 C 511.564 1043.394, 513.599 1044.305, 510.572 1035.217 C 507.462 1025.876, 503.874 1021.248, 496.531 1017.104 C 486.629 1011.516, 489.044 977.777, 500.789 957.613 C 502.571 954.553, 502.765 954.490, 512.051 953.943 C 535.762 952.545, 547.713 930.127, 536.522 908.042 C 521.561 878.519, 477.627 900.760, 486.027 933.605 C 488.670 943.938, 488.666 943.969, 483.410 954.846 C 475.592 971.023, 473.190 980.880, 471.992 1001.696 C 470.663 1024.784, 466.556 1026.605, 450.671 1011.146 C 421.889 983.135, 407.466 950.611, 399.200 895.082 C 396.311 875.679, 393.954 881.568, 394.829 906 C 395.487 924.373, 405.399 963.930, 413.242 979.487 C 419.873 992.640, 438.998 1018.092, 448.720 1026.702 C 455.722 1032.905, 455.722 1032.905, 456.267 1042.702 C 456.978 1055.503, 459.751 1051.472, 427.042 1085.182 C 419.741 1092.707, 412.026 1101.257, 409.899 1104.182 C 402.388 1114.510, 400.039 1117.531, 397.207 1120.511 C 392.391 1125.578, 381.634 1142.258, 377.471 1151.114 C 372.412 1161.876, 354.357 1198.066, 353.136 1199.894 C 351.987 1201.612, 347.184 1198.929, 342.500 1193.953 C 340.850 1192.200, 335.675 1187.558, 331 1183.638 C 300.148 1157.768, 261.217 1099.928, 269.124 1091.708 C 288.439 1071.628, 272.965 1033.431, 244.647 1031.290 C 199.279 1027.858, 195.020 1095.121, 240.163 1102.113 C 244.198 1102.738, 247.952 1103.362, 248.504 1103.499 C 249.598 1103.771, 265.116 1126.589, 274.954 1142.391 C 286.849 1161.497, 306.163 1183.452, 328.500 1203.261 C 346.762 1219.455, 345.256 1217.055, 343.444 1227.082 C 342.608 1231.712, 340.352 1244.725, 338.432 1256 C 336.513 1267.275, 334.732 1277.095, 334.475 1277.821 C 333.611 1280.267, 331 1303.391, 331 1308.598 C 331 1314.418, 330.463 1315.063, 323.773 1317.290 C 310.665 1321.652, 303.098 1336.231, 304.219 1354.967 C 306.674 1396.015, 369.571 1396.524, 373.443 1355.528 C 374.170 1347.832, 374.467 1347.457, 380.564 1346.543 C 395.817 1344.255, 416.777 1333.420, 450 1310.648 C 452.475 1308.951, 457.684 1304.962, 461.576 1301.782 C 473.157 1292.319, 473.030 1289.623, 463.495 1342.500 C 454.937 1389.955, 457.033 1453.832, 468.957 1509 C 472.596 1525.837, 472.588 1526.077, 468.140 1531.704 C 449.777 1554.935, 466.550 1582.825, 494.808 1576.046 C 521.122 1569.733, 519.976 1530.948, 493.238 1522.951 C 487.885 1521.350, 487.544 1520.912, 485.502 1513.017 C 468.828 1448.566, 468.248 1370.806, 484.040 1317 C 485.734 1311.225, 487.778 1304.079, 488.582 1301.120 C 490.507 1294.030, 490.104 1294.475, 498.324 1290.346 C 512.569 1283.192, 515.667 1279.909, 518 1269.498 C 519.422 1263.153, 518.001 1256.986, 513.510 1250.015 C 510.242 1244.942, 510.203 1244.757, 511.685 1241.167 C 514.566 1234.185, 521.253 1221.452, 527.790 1210.500 C 531.401 1204.450, 535.430 1197.302, 536.745 1194.616 C 545.893 1175.917, 552.979 1168.965, 568 1163.954 C 574.875 1161.661, 585.117 1158.033, 590.759 1155.892 C 603.061 1151.225, 602.004 1151.286, 601.984 1155.250 C 601.973 1157.483, 598.832 1164.134, 591.950 1176.500 C 572.312 1211.786, 558.780 1245.537, 548.048 1286 C 545.203 1296.725, 542.670 1306.121, 542.419 1306.880 C 540.502 1312.680, 538.923 1332.877, 537.972 1363.778 C 536.062 1425.773, 539.023 1464.467, 547.975 1494.500 C 565.658 1553.827, 577.564 1584.489, 592.355 1608.795 C 604.589 1628.897, 606.661 1635.794, 602.997 1644.210 C 583.909 1688.052, 642.950 1721.074, 663.412 1678 C 673.862 1656.002, 664.803 1635.101, 641.495 1627.434 C 630.159 1623.705, 630.159 1623.705, 628.520 1619.103 C 627.618 1616.571, 625.789 1611.575, 624.455 1608 C 594.677 1528.207, 593.472 1392.553, 621.688 1296.500 C 624.757 1286.050, 628.369 1272.775, 629.713 1267 C 633.165 1252.169, 638.666 1237.965, 651.205 1211.500 C 657.199 1198.850, 662.514 1187.600, 663.017 1186.500 C 663.521 1185.400, 665.054 1182.025, 666.426 1179 C 667.797 1175.975, 670.114 1171.475, 671.574 1169 C 673.033 1166.525, 676.056 1161.350, 678.291 1157.500 C 686.008 1144.206, 703.287 1118.479, 708.849 1112 C 715.367 1104.407, 719 1100.539, 719 1101.191 C 719 1102.163, 713.988 1113.901, 709.475 1123.500 C 700.309 1142.995, 686.571 1178.014, 678.874 1201.500 C 670.071 1228.365, 667.799 1238.429, 664.989 1263 C 664.391 1268.225, 663.219 1277.900, 662.385 1284.500 C 661.550 1291.100, 660.110 1302.565, 659.184 1309.978 C 657.500 1323.457, 657.500 1323.457, 650.500 1327.226 C 628.602 1339.019, 624.152 1366.790, 641.275 1384.802 C 648.104 1391.985, 647.731 1388.685, 644.408 1412.500 C 634.685 1482.194, 656.965 1580.180, 696.642 1642.224 C 700.414 1648.122, 705.453 1656.115, 707.839 1659.986 C 710.226 1663.857, 715.141 1670.506, 718.761 1674.762 C 722.382 1679.018, 727.802 1685.875, 730.808 1690 C 733.813 1694.125, 739.654 1700.954, 743.789 1705.176 C 751.306 1712.852, 751.306 1712.852, 750.153 1718.593 C 743.377 1752.330, 783.327 1768.611, 799.286 1738.616 C 810.097 1718.297, 794.530 1698.449, 769.243 1700.312 C 759.110 1701.059, 747.132 1688.947, 718.992 1649.500 C 705.966 1631.240, 702.745 1625.718, 694.496 1607.500 C 693.002 1604.200, 688.722 1594.750, 684.984 1586.500 C 670.332 1554.158, 665.213 1532.531, 659.898 1480.500 C 658.509 1466.909, 658.224 1437.454, 659.396 1428.623 C 660.535 1420.035, 662.011 1422.698, 665.864 1440.295 C 673.111 1473.393, 687.556 1511.837, 707.461 1551 C 713.772 1563.419, 737.151 1600.371, 743.839 1608.500 C 747.007 1612.350, 753.385 1620.450, 758.013 1626.500 C 798.200 1679.033, 889.505 1743.843, 954.500 1765.971 C 988.419 1777.519, 988.245 1777.406, 991.026 1789.614 C 1000.782 1832.437, 1059 1825.913, 1059 1781.997 C 1059 1753.250, 1032.050 1737.990, 1006.100 1752.045 C 998.655 1756.078, 998.129 1755.959, 988.319 1748.023 C 983.576 1744.186, 976.726 1739.279, 973.097 1737.119 C 969.469 1734.958, 961.325 1728.581, 955 1722.947 C 948.675 1717.313, 940.350 1710.013, 936.500 1706.725 C 914.103 1687.595, 875.735 1646.393, 857.953 1622.375 C 853.932 1616.944, 848.296 1609.350, 845.427 1605.500 C 832.344 1587.939, 802 1535.795, 802 1530.874 C 802 1527.590, 812.835 1535.100, 827.773 1548.738 C 832.573 1553.120, 842.125 1561.350, 849 1567.027 C 855.875 1572.704, 863.975 1579.413, 867 1581.935 C 870.025 1584.458, 874.750 1588.279, 877.500 1590.426 C 889.741 1599.985, 890.026 1600.428, 889.854 1609.614 C 889.471 1630.136, 907.686 1643.190, 927.370 1636.500 C 934.359 1634.124, 940.760 1637.014, 962.500 1652.363 C 971.705 1658.862, 983.607 1666.084, 993.308 1671.057 C 1002.003 1675.514, 1013.268 1681.512, 1018.343 1684.386 C 1035.757 1694.247, 1055.659 1702.154, 1097 1715.634 C 1138.832 1729.274, 1173.156 1734.529, 1233.611 1736.550 C 1253.721 1737.222, 1253.721 1737.222, 1257.500 1742.437 C 1277.367 1769.858, 1321.472 1747.392, 1308.538 1716.438 C 1299.800 1695.524, 1265.327 1694.325, 1255.412 1714.590 C 1251.888 1721.794, 1253.864 1721.437, 1224.691 1720.137 C 1192.189 1718.689, 1163.360 1715.348, 1149.500 1711.423 C 1146.750 1710.644, 1135.500 1708.198, 1124.500 1705.987 C 1096.453 1700.350, 1081.741 1695.518, 1053 1682.505 C 1046.125 1679.392, 1036.902 1675.501, 1032.505 1673.857 C 1024.211 1670.758, 1006.076 1660.860, 990.500 1650.931 C 985.550 1647.775, 977.809 1643.238, 973.297 1640.847 C 955.811 1631.581, 945.256 1620.946, 944.851 1612.185 C 943.767 1588.761, 925.431 1576.762, 902.837 1584.695 C 898.175 1586.332, 898.175 1586.332, 893.337 1582.331 C 890.677 1580.131, 885.800 1576.502, 882.500 1574.268 C 870.294 1566.005, 839.874 1540.732, 825 1526.498 C 820.325 1522.024, 812.810 1515.335, 808.300 1511.633 C 782.913 1490.798, 768.677 1466.696, 763.412 1435.636 C 762.560 1430.611, 760.101 1419.975, 757.948 1412 C 745.788 1366.960, 741.328 1337.109, 740.319 1294 C 739.275 1249.399, 743.437 1201.701, 751.524 1165.604 C 757.553 1138.691, 758.393 1139.346, 758.126 1170.747 C 757.927 1194.221, 759.170 1222.612, 760.914 1234.417 C 761.408 1237.763, 762.587 1247.700, 763.534 1256.500 C 766.811 1286.943, 772.030 1307.127, 785.028 1339.634 C 788.957 1349.460, 793.743 1362.225, 795.662 1368 C 799.232 1378.742, 807.842 1396.090, 817.995 1413 C 821.133 1418.225, 825.869 1426.550, 828.521 1431.500 C 831.173 1436.450, 834.915 1442.437, 836.837 1444.805 C 840.331 1449.110, 840.331 1449.110, 838.524 1454.805 C 831.043 1478.389, 842.714 1493.959, 868.409 1494.674 C 881.704 1495.044, 878.406 1492.872, 906 1519.437 C 946.671 1558.592, 999.088 1595.589, 1032.782 1608.921 C 1035.377 1609.948, 1044.925 1614.386, 1054 1618.782 C 1063.075 1623.179, 1076.576 1629.061, 1084.002 1631.852 C 1096.055 1636.382, 1100.938 1637.798, 1115.500 1640.982 C 1117.700 1641.463, 1124.232 1643.226, 1130.016 1644.901 C 1209.654 1667.954, 1296.350 1667.976, 1379 1644.964 C 1388.625 1642.284, 1400.681 1638.946, 1405.791 1637.547 C 1431.710 1630.448, 1491.423 1601.356, 1510.534 1586.516 C 1517.620 1581.014, 1517.746 1581.011, 1528.314 1586.081 C 1558.988 1600.800, 1581.739 1580.049, 1576.390 1542.232 C 1575.787 1537.964, 1575.787 1537.964, 1590.382 1523.876 C 1613.392 1501.668, 1636.951 1473.258, 1662.228 1437.238 C 1664.829 1433.532, 1670.229 1424.696, 1674.228 1417.603 C 1678.228 1410.510, 1683.428 1401.285, 1685.784 1397.103 C 1697.869 1375.656, 1701.100 1368.233, 1718.695 1321.500 C 1729.160 1293.707, 1736.380 1263.797, 1739.457 1235.500 C 1741.985 1212.239, 1741.897 1212.452, 1750.636 1208.470 C 1776.203 1196.819, 1781.168 1162.932, 1759.581 1147.422 C 1752 1141.976, 1752.270 1145.602, 1756.977 1112.500 C 1763.366 1067.567, 1763.329 1027.220, 1756.842 964.754 C 1754.687 944.008, 1754.687 944.008, 1760.387 938.033 C 1779.091 918.424, 1768.476 890.961, 1742.212 891.011 C 1709.290 891.073, 1702.049 929.417, 1732.101 944.551 C 1739.985 948.521, 1739.470 947.160, 1740.972 968 C 1741.507 975.425, 1742.460 987.553, 1743.089 994.950 C 1744.442 1010.845, 1743.801 1073.128, 1742.122 1089 C 1741.511 1094.775, 1740.307 1107.150, 1739.446 1116.500 C 1737.371 1139.046, 1737.890 1137.604, 1731.152 1139.536 C 1703.101 1147.582, 1695.067 1176.928, 1714.011 1202.146 C 1719.004 1208.793, 1719.004 1208.793, 1714.461 1220.098 C 1711.962 1226.316, 1708.789 1235.475, 1707.411 1240.452 C 1702.679 1257.534, 1695.386 1274.085, 1684.482 1292.492 C 1681.879 1296.887, 1677.299 1305.437, 1674.306 1311.492 C 1650.138 1360.379, 1586.400 1432.751, 1540 1463.988 C 1536.425 1466.395, 1530.125 1470.941, 1526 1474.092 C 1521.875 1477.242, 1512.348 1483.207, 1504.828 1487.348 C 1497.309 1491.488, 1489.417 1495.974, 1487.291 1497.316 C 1472.989 1506.345, 1444.965 1517.421, 1400.566 1531.594 C 1375.177 1539.699, 1372.919 1536.580, 1396.541 1526.035 C 1413.909 1518.282, 1434.570 1507.003, 1473.324 1484.120 C 1496.179 1470.624, 1536.548 1435.874, 1560.592 1409 C 1620.497 1342.042, 1653.754 1274.121, 1665.620 1194.500 C 1668.755 1173.462, 1667.979 1109.555, 1664.436 1096.970 C 1664.187 1096.088, 1666.283 1093.070, 1669.385 1089.841 C 1681.941 1076.774, 1682.213 1063.080, 1670.224 1047.622 C 1665.666 1041.743, 1665.666 1041.743, 1667.583 1020.122 C 1673.089 958.023, 1667.233 909.458, 1647.015 849.561 C 1634.893 813.648, 1634.978 814.394, 1641.539 801.551 C 1657.412 770.478, 1634.687 739.302, 1602.932 748.588 C 1564.626 759.789, 1570.376 814.531, 1610.316 818.888 C 1623.492 820.326, 1634.338 846.638, 1644.428 901.639 C 1653.485 951.015, 1655.361 998.797, 1649.398 1028.250 C 1648.247 1033.935, 1644.321 1027.853, 1640.427 1014.351 C 1638.268 1006.865, 1632.520 995.398, 1625.792 985.153 C 1622.881 980.722, 1617.125 971.572, 1613 964.820 C 1602.601 947.798, 1596.392 940.208, 1576.107 919.714 C 1558.502 901.929, 1558.502 901.929, 1558.501 889.200 C 1558.499 859.165, 1533.637 842.607, 1508.293 855.763 C 1465.913 877.763, 1496.726 936.496, 1542.063 920.131 C 1559.400 913.873, 1616.973 986.405, 1628.871 1029.495 C 1630.068 1033.831, 1629.818 1033.832, 1624.109 1029.514 C 1621.574 1027.597, 1616.720 1024.110, 1613.323 1021.764 C 1609.925 1019.419, 1602.735 1014.350, 1597.344 1010.500 C 1532.168 963.949, 1442.964 945.636, 1373.726 964.591 C 1366.701 966.515, 1360.401 967.774, 1359.726 967.389 C 1359.052 967.005, 1356.609 965.172, 1354.298 963.318 C 1334.601 947.509, 1308.998 959.673, 1309.001 984.839 C 1309.005 1018.079, 1349.367 1024.074, 1362.584 992.798 C 1366.072 984.543, 1366.641 984.125, 1378.500 981.090 C 1406.411 973.945, 1454.034 972.888, 1482.199 978.789 C 1500.938 982.714, 1531.188 991.180, 1538.363 994.507 C 1577.831 1012.806, 1627.653 1050.167, 1624.837 1059.352 C 1620.383 1073.880, 1624.534 1083.719, 1639.473 1094.046 C 1643.935 1097.131, 1647.205 1100.136, 1647.457 1101.385 C 1650.321 1115.574, 1651.288 1161.998, 1649.084 1179.500 C 1647.511 1191.994, 1642.267 1225.852, 1640.412 1235.500 C 1635.152 1262.848, 1610.343 1319.329, 1592.095 1345.500 C 1590.178 1348.250, 1586.574 1353.425, 1584.087 1357 C 1556.689 1396.385, 1498.304 1451.881, 1462.705 1472.376 C 1453.992 1477.393, 1455.351 1474.486, 1467.594 1461.916 C 1483.823 1445.255, 1499.910 1426.466, 1507.336 1415.500 C 1529.192 1383.221, 1537.156 1369.750, 1546.059 1350 C 1561.189 1316.435, 1570.106 1283.055, 1574.017 1245.335 C 1575.209 1233.843, 1575.951 1232.263, 1582.047 1228.248 C 1607.221 1211.664, 1600.395 1177.415, 1569.653 1166.068 C 1562.538 1163.441, 1562.538 1163.441, 1552.019 1142.385 C 1533.058 1104.430, 1498.016 1069.019, 1468.935 1058.426 C 1426.480 1042.963, 1385.637 1041.348, 1343.261 1053.458 C 1313.829 1061.868, 1276.060 1093.507, 1253.677 1128.500 C 1250.479 1133.500, 1250.479 1133.500, 1242.490 1134.122 C 1197.615 1137.613, 1197.644 1204.380, 1242.521 1204.478 C 1273.966 1204.547, 1290.616 1172.775, 1271.998 1148.230 C 1266.003 1140.327, 1267.071 1136.897, 1280.944 1119.500 C 1347.556 1035.972, 1466.560 1042.042, 1529.368 1132.172 C 1545.337 1155.088, 1547.526 1165.672, 1538.174 1174.752 C 1522.130 1190.332, 1521.588 1205.133, 1536.393 1223.428 C 1539.477 1227.239, 1542 1230.477, 1542 1230.623 C 1542 1230.770, 1540.425 1234.028, 1538.500 1237.864 C 1536.575 1241.700, 1535 1245.048, 1535 1245.306 C 1535 1248.976, 1501.748 1300.411, 1492.529 1311 C 1488.938 1315.125, 1483.933 1321.200, 1481.406 1324.500 C 1475.520 1332.188, 1466.452 1341.644, 1459.201 1347.655 C 1440.532 1363.129, 1436.500 1368.443, 1433.900 1381 C 1432.056 1389.904, 1432.558 1392.387, 1435.698 1389.908 C 1450.313 1378.371, 1472.776 1356.336, 1494.221 1332.500 C 1505.169 1320.331, 1509.133 1315.293, 1520.577 1299 C 1523.088 1295.425, 1527.584 1289.125, 1530.569 1285 C 1537.732 1275.099, 1541.963 1267.918, 1545.301 1260 C 1555.460 1235.897, 1559.253 1248.783, 1551.466 1280.945 C 1550.113 1286.532, 1548.131 1295.964, 1547.061 1301.904 C 1540.655 1337.481, 1508.361 1395.440, 1475.688 1430 C 1450.134 1457.030, 1435.704 1470.189, 1422.500 1478.503 C 1419.200 1480.581, 1407.085 1488.573, 1395.578 1496.264 C 1371.009 1512.686, 1349 1523.877, 1349 1519.949 C 1349 1518.464, 1354.253 1510.959, 1357.012 1508.500 C 1368.525 1498.243, 1394.517 1453.131, 1403.969 1427 C 1406.257 1420.675, 1408.757 1414.061, 1409.524 1412.301 C 1420.850 1386.327, 1424.701 1320.882, 1417.428 1278 C 1411.457 1242.796, 1411.457 1242.430, 1417.426 1235.594 C 1444.709 1204.346, 1412.132 1162.059, 1375.500 1181.171 C 1348.080 1195.476, 1349.331 1222.751, 1378.453 1245.549 C 1385.974 1251.436, 1373.362 1289.262, 1348.965 1333.993 C 1335.193 1359.243, 1292.107 1399.946, 1264.500 1413.787 C 1260.100 1415.993, 1253.800 1419.330, 1250.500 1421.202 C 1222.281 1437.216, 1195.474 1443.878, 1155.905 1444.712 C 1125.489 1445.353, 1127.260 1445.780, 1121.626 1436.443 C 1112.320 1421.019, 1093.278 1419.550, 1080.198 1433.247 C 1074.899 1438.795, 1066.422 1436.136, 1023.500 1415.457 C 984.381 1396.611, 928.736 1344.783, 919.672 1318.750 C 918.755 1316.117, 920.373 1316.622, 925.172 1320.467 C 983.498 1367.198, 1059.738 1379.905, 1117.500 1352.525 C 1121.350 1350.700, 1127.487 1347.861, 1131.137 1346.217 C 1140.937 1341.803, 1149.346 1335.780, 1160 1325.541 C 1177.964 1308.277, 1180.452 1306.547, 1186.903 1306.824 C 1219.933 1308.246, 1233.270 1261.830, 1202.652 1252.014 C 1176.915 1243.763, 1155.701 1262.694, 1163.028 1287.375 C 1166.734 1299.859, 1160.593 1306.825, 1124.587 1330.973 C 1097.701 1349.006, 1054.025 1354.827, 1011.327 1346.069 C 981.215 1339.893, 942.045 1317.195, 924.259 1295.615 C 920.580 1291.152, 915.344 1285.025, 912.624 1282 C 881.956 1247.903, 867.829 1176.339, 882.124 1127.500 C 892.493 1092.077, 902.986 1070.555, 917.474 1055 C 920.804 1051.425, 925.028 1046.143, 926.860 1043.262 C 934.401 1031.410, 949.282 1024.017, 978.972 1017.374 C 1027.515 1006.512, 1060.029 1007.808, 1039.001 1019.767 C 1030.077 1024.843, 1026.037 1030.205, 1024.011 1039.664 C 1021.239 1052.611, 1019.465 1054.539, 1006.102 1059.137 C 995.111 1062.918, 992.388 1067.708, 997.453 1074.350 C 1001.013 1079.016, 1001.826 1079.195, 1009.523 1076.993 C 1026.249 1072.210, 1034.528 1063.878, 1042.528 1043.774 C 1055.771 1010.496, 1100.537 1033.762, 1087.957 1067.385 C 1084.713 1076.056, 1076.300 1082.491, 1064.112 1085.624 C 1057.875 1087.227, 1056 1088.991, 1056 1093.257 C 1056 1107.320, 1071.071 1105.484, 1093.309 1088.711 C 1131.018 1060.268, 1114.921 1006.125, 1066.500 998.539 C 1059.647 997.465, 1047.877 993.723, 1048.715 992.885 C 1049.154 992.446, 1054.091 990.084, 1059.684 987.638 C 1075.597 980.679, 1116.069 957.059, 1133.500 944.559 C 1172.711 916.439, 1200.749 887.281, 1229.236 845 C 1247.124 818.451, 1243.695 825.099, 1267.407 771 C 1271.626 761.375, 1277.119 747.200, 1279.615 739.500 C 1282.110 731.800, 1285.730 720.775, 1287.659 715 C 1291.370 703.887, 1303.664 677.554, 1311.002 665 C 1313.413 660.875, 1316.966 654.350, 1318.899 650.500 C 1323.763 640.810, 1348.866 615.618, 1352.341 616.940 C 1373.847 625.116, 1406.049 619.658, 1433.468 603.189 C 1446.936 595.100, 1447.535 594.920, 1448.299 598.750 C 1450.108 607.823, 1450.064 614.453, 1448.089 629.840 C 1445.859 647.225, 1445.947 648.464, 1449.334 647.404 C 1466.101 642.158, 1494.193 603.478, 1503.421 572.934 C 1513.794 538.599, 1505.386 492.474, 1484.489 469.071 C 1477.137 460.837, 1476.171 458.363, 1475.623 446.341 C 1473.747 405.172, 1424.064 371.016, 1354.459 363.043 C 1333.075 360.593, 1293.813 366.207, 1235.544 380.046 C 1208.189 386.543, 1193.465 386.571, 1187.219 380.141 C 1164.199 356.438, 1129.192 381.836, 1150.528 406.762 C 1159.592 417.351, 1171.435 417.925, 1185.222 408.441 C 1190.298 404.949, 1200.358 402.586, 1207.608 403.182 C 1211.478 403.500, 1211.478 403.500, 1200.989 411.754 C 1175.168 432.072, 1171.207 435.490, 1152.860 453.294 C 1127.941 477.474, 1105.661 498.644, 1102 501.621 C 1100.075 503.186, 1094.505 507.965, 1089.622 512.241 C 1071.402 528.198, 1059.050 534.846, 1032.500 542.984 C 1021.500 546.356, 1011.118 549.539, 1009.429 550.058 C 1004.517 551.565, 1002.516 551.181, 1000.003 548.250 C 998.706 546.737, 994.195 541.675, 989.979 537 C 977.486 523.148, 960.858 502.261, 953.115 490.696 C 949.138 484.754, 942.132 475.229, 937.547 469.530 C 932.962 463.830, 927.722 456.992, 925.903 454.334 C 919.952 445.638, 900.647 427.069, 885.856 415.813 C 873.809 406.645, 806.398 375, 798.915 375 C 797.960 375, 756.167 358.740, 724.500 346.048 C 720.650 344.505, 714.350 342.226, 710.500 340.983 C 703.211 338.630, 678.452 327.964, 659.500 319.011 C 653.450 316.153, 643.101 311.585, 636.502 308.859 C 629.904 306.134, 613.254 298.134, 599.502 291.081 C 585.751 284.029, 571.575 276.971, 568 275.399 C 561.716 272.634, 533.533 257.660, 531.500 256.006 C 530.950 255.558, 523.075 251.278, 514 246.495 C 504.925 241.711, 493.225 235.214, 488 232.057 C 482.775 228.900, 475.800 224.808, 472.500 222.965 C 446.278 208.317, 390.987 168.682, 371.678 150.692 C 370.021 149.148, 366.268 146.294, 363.340 144.350 C 348.232 134.322, 343.100 127.247, 343.710 117.285 C 345.282 91.580, 326.194 74.969, 304.500 83.163 M 341 151.815 C 341 155.939, 347.111 168.404, 357.023 184.500 C 361.765 192.200, 367.154 201.200, 368.997 204.500 C 386.951 236.632, 436.971 291.965, 468.279 314.325 C 471.494 316.621, 478.342 321.740, 483.497 325.701 C 488.652 329.661, 499.762 337.546, 508.185 343.222 C 516.608 348.899, 524.850 354.492, 526.500 355.652 C 546.115 369.444, 579.464 386.257, 577.607 381.418 C 577.273 380.548, 577 379.700, 577 379.534 C 577 379.367, 570.233 373.292, 561.963 366.033 C 516.077 325.761, 482.047 286.964, 448.783 236.999 C 437.662 220.294, 436.876 219.468, 423.578 210.495 C 418.121 206.813, 409.571 200.764, 404.578 197.054 C 399.585 193.344, 390.775 187.021, 385 183.004 C 379.225 178.987, 372.025 173.581, 369 170.992 C 360.878 164.039, 346.037 152.829, 344.680 152.623 C 344.031 152.524, 342.938 152.092, 342.250 151.663 C 341.563 151.233, 341 151.302, 341 151.815 M 470.373 242.822 C 470.443 243.745, 469.904 244.376, 469.176 244.225 C 467.452 243.868, 467.740 244.328, 477.516 257.546 C 504.231 293.670, 579.717 369.687, 603.713 384.631 C 607.130 386.759, 614.105 391.439, 619.213 395.031 C 624.321 398.623, 633.675 404.723, 640 408.587 C 646.325 412.451, 655.100 417.810, 659.500 420.494 C 673.482 429.025, 678.202 431.079, 680.445 429.606 C 684.748 426.781, 684.671 425.357, 679.998 421.315 C 642.796 389.132, 609.675 353.244, 582.344 315.500 C 564.627 291.034, 567.304 293.265, 537 277.708 C 526.275 272.202, 512.775 264.908, 507 261.500 C 474.423 242.275, 470.167 240.104, 470.373 242.822 M 594.628 311.250 C 604.098 329.583, 657.388 389.010, 679.308 405.682 C 682.714 408.272, 687.267 411.878, 689.427 413.693 C 693.276 416.929, 693.536 416.993, 702.477 416.868 C 725.706 416.546, 740.351 430.246, 738.801 450.848 C 736.259 484.633, 693.240 490.254, 677.433 458.867 C 675.531 455.090, 673.840 452, 673.675 452 C 673.509 452, 663.278 449.947, 650.937 447.438 C 638.597 444.928, 626.025 442.490, 623 442.020 C 584.031 435.960, 557.258 428.453, 487.889 404.136 C 477.577 400.521, 464.024 394.961, 440 384.487 C 423.132 377.133, 382.247 356.676, 370.008 349.467 C 355.378 340.849, 340.507 335.182, 343.331 339.300 C 344.160 340.510, 345.359 341.376, 345.994 341.225 C 346.629 341.074, 346.882 341.383, 346.555 341.911 C 346.229 342.439, 351.124 348.474, 357.434 355.322 C 391.038 391.790, 434.259 422.811, 489 449.748 C 512.265 461.196, 521.578 464.923, 550.500 474.360 C 559.850 477.410, 575.600 482.642, 585.500 485.986 C 607.342 493.364, 631.679 500.141, 646.500 502.974 C 652.550 504.130, 661.775 505.929, 667 506.971 C 710.427 515.637, 709.294 515.498, 711.487 512.426 C 730.759 485.428, 763.621 490.330, 772.519 521.530 C 774.713 529.223, 773.851 528.656, 786 530.402 C 841.367 538.358, 841.683 538.358, 844.268 530.500 C 845.354 527.200, 848.455 521.198, 851.160 517.162 C 856.965 508.502, 856.964 508.486, 849.173 498 C 842.298 488.746, 842.580 488.932, 836.500 489.622 C 825.780 490.839, 811.781 481.891, 806.993 470.763 C 804.741 465.528, 804.737 465.307, 806.620 452 C 807.439 446.210, 736.934 391.494, 705.500 373.526 C 702.750 371.954, 689.501 363.916, 676.058 355.665 C 662.615 347.413, 647.990 338.901, 643.558 336.748 C 639.126 334.595, 633.475 331.580, 631 330.048 C 628.525 328.516, 620.968 323.941, 614.207 319.881 C 607.446 315.822, 600.246 311.495, 598.207 310.266 C 593.225 307.265, 592.650 307.423, 594.628 311.250 M 730.128 369.655 C 730.882 370.565, 735.325 373.776, 740 376.791 C 756.645 387.525, 786.046 409.965, 805.671 426.913 C 817.728 437.326, 817.728 437.326, 831.114 437.413 C 856.020 437.575, 866.694 451.538, 858.972 473.853 C 856.944 479.713, 856.944 479.713, 860.905 490.490 C 865.813 503.841, 865.266 503.343, 875.839 504.091 C 909.258 506.454, 925.422 545.354, 901.985 567.013 C 897.098 571.530, 897.098 571.530, 900.799 580.125 C 905.647 591.383, 905.954 591.688, 913.295 592.505 C 923.749 593.669, 930.680 598.063, 939.532 609.138 C 941.563 611.679, 941.579 611.681, 963.532 612.393 C 975.614 612.786, 987.300 613.501, 989.500 613.983 C 991.700 614.465, 998.900 615.376, 1005.500 616.007 C 1020.265 617.418, 1027.562 619.314, 1029.069 622.128 C 1031.324 626.343, 1030.031 626.403, 986.298 624.137 C 963.309 622.945, 943.984 621.977, 943.354 621.985 C 942.724 621.993, 940.834 624.138, 939.154 626.750 C 930.519 640.178, 925.106 643.435, 912.516 642.776 C 900.838 642.166, 900.436 642.351, 892.802 651.848 C 889.267 656.247, 884.153 661.612, 881.437 663.770 C 878.722 665.928, 873.575 671.021, 870 675.088 C 851.966 695.604, 819.603 719.537, 792.500 732.400 C 785.900 735.532, 775.550 740.963, 769.500 744.469 C 756.842 751.804, 748.121 755.753, 728.500 763.035 C 711.913 769.190, 708.715 770.730, 709.588 772.142 C 710.633 773.833, 728.733 772.186, 745.500 768.873 C 753.750 767.244, 766.575 764.784, 774 763.408 C 799.649 758.654, 876.751 725.814, 880.732 717.947 C 881.413 716.601, 881.987 712.800, 882.007 709.500 C 882.148 686.490, 907.468 675.722, 927.540 690.136 C 931.982 693.326, 931.982 693.326, 945.558 686.562 C 960.180 679.278, 960.178 679.280, 962.025 669.760 C 966.164 648.414, 989.688 641.090, 1004.053 656.674 C 1016.180 669.829, 1011.333 691.977, 995.395 696.239 C 992.239 697.083, 990.813 698.030, 990.533 699.467 C 990.315 700.585, 989.632 704.425, 989.016 708 C 987.529 716.624, 984.400 726.186, 980.738 733.293 C 976.495 741.527, 977.067 741.652, 1004.996 738.620 C 1021.236 736.857, 1021.088 736.939, 1023.570 728.405 C 1027.812 713.820, 1039.959 704.725, 1057.120 703.287 C 1064.602 702.659, 1064.118 703.569, 1067.386 684 C 1070.682 664.257, 1071.011 665.935, 1063.102 662.165 C 1045.404 653.731, 1035.607 639.342, 1036.168 622.608 C 1036.532 611.771, 1029.707 605.116, 1013 600.015 C 1009.425 598.923, 1002.450 595.726, 997.500 592.909 C 992.550 590.092, 978.150 582.738, 965.500 576.565 C 942.037 565.117, 936 561.299, 936 557.911 C 936 554.833, 940.504 556.049, 956.087 563.333 C 960.164 565.239, 966.200 567.683, 969.500 568.765 C 972.800 569.847, 982.256 574.117, 990.513 578.254 C 1016.923 591.485, 1017.370 591.378, 1001.986 575.500 C 990.758 563.912, 962.717 531.836, 958.712 526 C 957.014 523.525, 951.743 516.325, 947 510 C 942.257 503.675, 936.357 495.800, 933.890 492.500 C 931.422 489.200, 927.850 483.866, 925.952 480.646 C 907.376 449.144, 870.768 421.978, 817.748 400.352 C 745.370 370.830, 725.258 363.784, 730.128 369.655 M 1313.863 379.009 C 1299.121 381.339, 1274.065 390.301, 1255 400.063 C 1251.975 401.611, 1246.575 404.186, 1243 405.783 C 1236.547 408.667, 1228.240 414.170, 1213.548 425.296 C 1209.339 428.484, 1203.331 432.718, 1200.197 434.705 C 1191.895 439.969, 1172.866 456.235, 1168.558 461.748 C 1163.951 467.644, 1165.711 468.362, 1176.725 465.082 C 1186.907 462.050, 1201.413 459.237, 1213.007 458.047 C 1223.294 456.992, 1223.294 456.992, 1229.897 450.187 C 1237.203 442.658, 1242.989 440, 1252.077 440 C 1256.925 440, 1256.925 440, 1270.264 426.646 C 1298.961 397.915, 1339.055 387.808, 1376.750 399.802 C 1383.962 402.096, 1384.583 401.230, 1379.250 396.311 C 1364.809 382.991, 1336.335 375.457, 1313.863 379.009 M 1404 392.565 C 1404 392.875, 1406.246 396.813, 1408.992 401.315 C 1419.011 417.744, 1425.259 436.909, 1426.490 454.985 C 1427.247 466.098, 1427.197 466.008, 1431.315 463.597 C 1433.067 462.571, 1439.450 459.050, 1445.500 455.773 C 1459.692 448.084, 1459.324 448.426, 1458.560 443.652 C 1457.281 435.650, 1448.578 418.887, 1442.793 413.283 C 1437.566 408.219, 1404 390.292, 1404 392.565 M 1331.763 410.965 C 1310.983 414.763, 1285.390 430.399, 1274.830 445.748 C 1271.798 450.153, 1271.798 450.153, 1274.026 457.081 C 1279.011 472.584, 1273.272 484.092, 1257.920 489.378 C 1250.010 492.102, 1249.643 493.285, 1250.280 514 C 1251.522 554.377, 1287.201 597.218, 1323.539 601.965 C 1337.053 603.730, 1337.465 603.304, 1337.544 587.485 C 1337.683 559.818, 1344.424 546.657, 1372.620 519 C 1399.162 492.967, 1403.826 486.784, 1408.466 471.486 C 1418.258 439.203, 1372.932 403.439, 1331.763 410.965 M 1330.259 438.601 C 1316.176 443.779, 1313.075 462.833, 1324.362 474.838 C 1343.865 495.581, 1375.432 473.181, 1362.972 447.441 C 1358.641 438.495, 1342.449 434.119, 1330.259 438.601 M 1453.945 470.400 C 1437.940 476.525, 1422.106 489.577, 1409.586 506.966 C 1402.623 516.637, 1401.508 514.521, 1421.452 529.469 C 1445.627 547.588, 1458.420 565.998, 1464.716 591.723 C 1468.938 608.975, 1473.065 606.449, 1481.613 581.382 C 1492.544 549.327, 1492.944 531.400, 1483.364 503 C 1473.590 474.022, 1466.117 465.742, 1453.945 470.400 M 1198.963 474.525 C 1174.482 479.605, 1139.869 494.706, 1128.134 505.425 C 1116.544 516.012, 1096.160 554.396, 1090.390 576.500 C 1086.745 590.461, 1087.319 593.073, 1094.894 596.987 C 1100.095 599.675, 1105.886 606.141, 1107.533 611.099 C 1109.142 615.945, 1109.159 617.190, 1107.922 640.842 C 1107.854 642.157, 1109.173 644.790, 1110.928 646.842 C 1141.891 683.050, 1152.810 711.857, 1154.981 763.065 C 1156.082 789.042, 1155.659 787.862, 1160.787 779.283 C 1163.018 775.552, 1168.264 767.325, 1172.446 761 C 1185.308 741.548, 1188.662 734.188, 1187.328 728.342 C 1182.366 706.597, 1182.328 705.818, 1185.649 694 C 1186.777 689.984, 1188.517 687.100, 1192.097 683.310 C 1197.676 677.404, 1197.659 677.512, 1195.348 662.926 C 1191.537 638.880, 1193.396 592.525, 1199.083 569.820 C 1200.141 565.596, 1201.651 558.774, 1202.438 554.661 C 1203.225 550.548, 1206.859 539.604, 1210.515 530.341 C 1226.603 489.573, 1226.772 487.765, 1213.605 497.144 C 1195.789 509.836, 1162.882 546.652, 1160.355 556.721 C 1160.019 558.061, 1160.688 561.953, 1161.878 565.577 C 1172.236 597.130, 1130.273 616.759, 1116.301 586.896 C 1108.233 569.653, 1120.819 549, 1139.394 549 C 1144.978 549, 1147.722 546.826, 1153.592 537.752 C 1165.725 518.996, 1184.499 499.556, 1209.250 480.118 C 1220.308 471.434, 1218.527 470.465, 1198.963 474.525 M 400.658 499.552 C 401.116 500.744, 419.025 512.813, 433.551 521.719 C 448.287 530.755, 456.432 534.781, 472.500 540.974 C 481.300 544.366, 494.257 549.386, 501.294 552.129 C 530.631 563.566, 541.938 566.725, 563.500 569.508 C 574.500 570.928, 586.650 572.512, 590.500 573.027 C 642.584 580.007, 660.816 581.209, 708.916 580.832 C 742.198 580.572, 751.423 580.769, 751.750 581.750 C 752.246 583.239, 756.392 583.396, 758.957 582.023 C 759.961 581.486, 774.219 577.646, 790.641 573.491 C 816.653 566.909, 837.238 560.188, 843.768 556.145 C 850.988 551.674, 841.832 543.474, 828.893 542.824 C 814.088 542.081, 804.063 541.032, 787.640 538.508 C 773.510 536.336, 772.953 536.518, 768.041 544.930 C 754.003 568.966, 729.843 568.583, 713.544 544.066 C 709.049 537.305, 709.049 537.305, 657.775 536.672 C 629.574 536.323, 601.550 535.580, 595.500 535.020 C 574.993 533.122, 549.570 529.919, 531 526.895 C 501.856 522.149, 484.976 518.342, 445 507.500 C 433.598 504.407, 411.872 499.773, 410.381 500.115 C 409.896 500.226, 408.825 500.054, 408 499.733 C 404.784 498.480, 400.204 498.367, 400.658 499.552 M 1227.617 529.293 C 1215.010 556.030, 1208.026 612.553, 1212.012 655.576 C 1213.862 675.539, 1213.649 674.780, 1218.023 677.012 C 1224.354 680.241, 1226.435 679.698, 1233.847 672.879 C 1237.506 669.512, 1241.625 666.045, 1243 665.175 C 1244.375 664.305, 1249.112 660.197, 1253.526 656.047 C 1265.474 644.813, 1275.079 637.910, 1293.191 627.542 C 1311.405 617.115, 1311.733 616.663, 1304 612.636 C 1265.924 592.810, 1250.789 575.281, 1236.969 535 C 1234.610 528.125, 1232.411 522.182, 1232.083 521.793 C 1231.755 521.404, 1229.745 524.779, 1227.617 529.293 M 1374.378 541.246 C 1356.343 558.377, 1349.378 577.371, 1355.231 593.456 C 1360.081 606.784, 1407.386 605.494, 1418.815 591.723 C 1419.916 590.396, 1418.438 588.417, 1408.510 577.925 C 1396.114 564.824, 1391.529 557.329, 1388.982 546 C 1385.789 531.795, 1384.700 531.441, 1374.378 541.246 M 1070.500 545.483 C 1062.250 549.770, 1053.700 554.181, 1051.500 555.283 C 1046.572 557.754, 1035.038 561.742, 1029 563.062 C 1016.606 565.774, 1016.648 566.007, 1032.042 579.861 C 1049.836 595.875, 1049.610 595.765, 1057.320 592.086 C 1060.876 590.389, 1064.539 589, 1065.459 589 C 1069.010 589, 1070.988 586.849, 1072.607 581.226 C 1073.513 578.077, 1076.919 568.102, 1080.176 559.060 C 1088.641 535.554, 1088.901 535.920, 1070.500 545.483 M 833 568.038 C 825.575 570.149, 814.100 573.742, 807.500 576.022 C 800.900 578.303, 790.775 581.742, 785 583.664 C 761.185 591.591, 756.648 593.412, 753.821 596.175 C 751.943 598.010, 749.876 599, 747.918 599 C 744.495 599, 715.786 604.602, 699.937 608.363 C 639.391 622.730, 549.867 628.913, 495.093 622.510 C 481.979 620.977, 500.349 630.066, 517.131 633.414 C 523.934 634.771, 534 637.011, 539.500 638.393 C 584.233 649.630, 647.514 653.555, 689 647.666 C 694.775 646.846, 704.900 645.449, 711.500 644.561 C 738.902 640.876, 752.822 638.381, 765 634.972 C 768.575 633.971, 772.654 632.905, 774.065 632.603 C 776.249 632.136, 776.979 630.944, 778.973 624.586 C 788.242 595.031, 828.998 591.486, 838.711 619.391 C 849.707 650.981, 819.849 676.426, 792.274 658.964 C 784.341 653.940, 782.704 653.865, 773.320 658.096 C 769.569 659.787, 761.944 662.888, 756.376 664.987 C 750.808 667.086, 740.458 671.503, 733.376 674.803 C 721.433 680.367, 693.759 690.603, 684.500 692.880 C 679.786 694.040, 624.947 704.988, 610.500 707.655 C 590.266 711.389, 600.102 714.541, 636 715.827 C 682.496 717.492, 713.470 714.481, 762.500 703.531 C 768.550 702.179, 776.425 700.572, 780 699.958 C 794.125 697.533, 804.117 694.750, 818 689.374 C 825.975 686.285, 836.550 682.314, 841.500 680.549 C 855.465 675.569, 860.602 671.717, 880.225 651.513 C 893.500 637.844, 893.905 637.004, 891.567 627.989 C 889.376 619.540, 889.876 611.742, 893.080 604.407 C 896.290 597.056, 895.145 589.412, 889.328 579.351 C 886.929 575.202, 886.929 575.202, 878.712 574.851 C 871.178 574.529, 869.599 574.063, 859.724 569.250 C 847.134 563.113, 849.886 563.238, 833 568.038 M 1296.117 645.136 C 1292.606 647.283, 1286.981 651.212, 1283.617 653.866 C 1280.252 656.519, 1274.800 660.375, 1271.500 662.434 C 1264.611 666.731, 1241.238 690.203, 1240.359 693.707 C 1240.037 694.991, 1240.294 698.112, 1240.932 700.643 C 1243.652 711.446, 1236.772 727.025, 1227.533 730.986 C 1223.298 732.801, 1223.298 732.801, 1223.769 757.151 C 1224.128 775.701, 1223.858 784.715, 1222.634 795 C 1219.721 819.473, 1219.470 826.815, 1221.614 824.748 C 1227.754 818.831, 1247.248 779.091, 1255.337 756 C 1258.901 745.825, 1265.732 728.050, 1270.516 716.500 C 1275.300 704.950, 1281.351 689.591, 1283.962 682.369 C 1286.574 675.147, 1290.296 666.597, 1292.235 663.369 C 1303.477 644.646, 1304.459 640.035, 1296.117 645.136 M 1087.790 660.024 C 1085.200 661.603, 1081.514 663.188, 1079.600 663.547 C 1076.263 664.173, 1076.095 664.413, 1075.540 669.350 C 1075.222 672.183, 1074.149 681.250, 1073.156 689.500 C 1071.069 706.854, 1070.886 705.630, 1076.142 709.500 C 1093.706 722.434, 1093.632 754.522, 1076.017 763.910 C 1063.276 770.701, 1056.336 771.617, 1044.863 768.020 C 1041.363 766.923, 1037.878 766.020, 1037.118 766.013 C 1035.350 765.996, 993.900 807.556, 987.763 815.500 C 985.213 818.800, 980.389 824.183, 977.043 827.463 C 970.681 833.698, 960.392 848.229, 936.629 884.539 C 929.961 894.727, 935.950 894.314, 952.500 883.445 C 972.657 870.207, 988.419 863.008, 1030.500 847.821 C 1044.018 842.943, 1075.013 833.970, 1088.500 831.030 C 1102.417 827.996, 1102.527 827.935, 1103.905 822.463 C 1107.752 807.186, 1116.823 797.884, 1131.128 794.547 C 1150.879 789.940, 1133.739 695.223, 1108.189 667.791 C 1098.740 657.646, 1094.402 655.994, 1087.790 660.024 M 953.287 696.016 C 938.907 701.939, 938.404 702.446, 937.697 711.715 C 935.935 734.855, 923.126 743.380, 897.500 738.472 C 894.863 737.967, 893.772 738.602, 888.489 743.718 C 885.183 746.919, 876.562 754.130, 869.331 759.743 C 862.101 765.355, 856.030 770.296, 855.842 770.723 C 855.325 771.898, 846.148 779.226, 840.500 782.975 C 837.750 784.801, 834.375 787.298, 833 788.524 C 831.625 789.750, 828.475 791.872, 826 793.239 C 797.651 808.900, 785.928 818.542, 798.172 816.128 C 801.103 815.550, 806.425 814.587, 810 813.988 C 829.758 810.675, 878.144 792.768, 897 781.790 C 943.988 754.434, 952.848 748.369, 965.648 734.795 C 973.294 726.687, 984.231 700.831, 981.269 697.869 C 975.498 692.098, 964.559 691.374, 953.287 696.016 M 1201.374 734.689 C 1198.046 735.342, 1195.495 738.727, 1190.176 749.543 C 1187.464 755.059, 1182.286 764.146, 1178.670 769.737 C 1161.733 795.920, 1161.521 796.570, 1167.653 803.353 C 1195.386 834.033, 1168.466 876.600, 1126.935 867.739 C 1123.523 867.011, 1123.245 867.169, 1120.435 871.407 C 1103.505 896.945, 1042.828 952.524, 1001.720 980.145 C 982.530 993.040, 980.289 996.104, 992.193 993.172 C 996.762 992.047, 1004.146 990.472, 1008.602 989.674 C 1034.059 985.111, 1105.627 946.471, 1140.520 918.450 C 1178.883 887.644, 1194.319 861.713, 1204.159 811.541 C 1208.624 788.779, 1210.285 739.732, 1206.743 735.250 C 1205.745 733.988, 1205.226 733.934, 1201.374 734.689 M 317.648 742.027 C 295.324 748.718, 300.254 784.105, 323.493 783.978 C 346.173 783.854, 349.251 746.865, 326.980 742.089 C 321.261 740.863, 321.526 740.864, 317.648 742.027 M 1015.500 742.673 C 1014.400 742.916, 1008.100 744.255, 1001.500 745.649 C 975.358 751.172, 944.372 775.814, 923.092 808.006 C 919.466 813.491, 912.900 822.070, 908.500 827.072 C 904.100 832.073, 897.479 840.515, 893.787 845.832 C 885.046 858.421, 857.155 900.207, 853.627 906 C 849.126 913.391, 843.800 921.416, 838.585 928.667 C 835.881 932.425, 831.764 939.550, 829.436 944.500 C 827.107 949.450, 823.197 956.425, 820.746 960 C 813.037 971.244, 811.535 974.829, 813.586 977.095 C 816.292 980.085, 817.534 979.498, 825.621 971.412 C 829.794 967.238, 836.425 961.713, 840.355 959.134 C 866.543 941.950, 866.262 942.279, 865.416 929.775 C 863.393 899.861, 885.861 877.730, 914.298 881.627 C 919.826 882.385, 920.801 881.422, 927.290 868.801 C 933.956 855.833, 962.243 819.390, 981.080 799.500 C 984.726 795.650, 988.781 791.150, 990.091 789.500 C 993.644 785.024, 1011.709 767.152, 1018 761.888 C 1023.487 757.297, 1023.500 757.273, 1023.376 751.812 C 1023.179 743.172, 1021.591 741.329, 1015.500 742.673 M 393.198 782.980 C 377.081 788.779, 370.933 800.252, 372.409 821.779 C 373.044 831.057, 373.044 831.057, 366.272 838.282 C 345.285 860.672, 345.226 860.754, 333 884.842 C 321.958 906.596, 316.986 919.256, 311.420 939.788 C 309.749 945.951, 309.604 946.129, 304.129 948.719 C 281.003 959.659, 281.415 986.548, 304.890 998.444 C 307.619 999.827, 310.072 1001.756, 310.340 1002.729 C 310.609 1003.703, 311.597 1008.097, 312.537 1012.494 C 317.348 1035.009, 335.533 1075.830, 348.598 1093.442 C 354.907 1101.946, 370.192 1118.176, 373.926 1120.336 C 379.705 1123.679, 387.003 1113.056, 382.250 1108.219 C 351.134 1076.554, 321.400 1012.303, 331.813 999.232 C 346.063 981.345, 347.062 966.381, 334.933 952.521 C 332.220 949.420, 330 946.542, 330 946.125 C 330 941.720, 335.143 921.972, 341.102 903.500 C 344.106 894.187, 358.419 871.596, 367.662 861.580 C 370.323 858.697, 374.663 853.787, 377.308 850.669 C 383 843.956, 381.828 844.102, 393.862 848.613 C 422.943 859.515, 449.403 832.535, 439.085 802.500 C 433.190 785.341, 411.857 776.266, 393.198 782.980 M 911.282 792.913 C 906.213 794.991, 900.353 797.824, 898.260 799.209 C 892.380 803.101, 886.665 805.823, 873.100 811.197 C 857.259 817.473, 852.631 820.208, 849.135 825.362 C 844.629 832.004, 829.020 863.903, 826.803 871 C 825.686 874.575, 823.421 880.875, 821.769 885 C 811.698 910.142, 804.225 933.711, 797.839 960.467 C 796.281 966.997, 799.790 972.485, 803.083 968.666 C 805.586 965.765, 816.633 947.736, 822.687 936.674 C 831.053 921.388, 838.934 908.786, 846.564 898.492 C 849.829 894.088, 854.750 886.520, 857.500 881.676 C 864.319 869.661, 867.654 864.631, 880.953 846.293 C 904.726 813.511, 909.604 807.189, 920 795.694 C 927.318 787.603, 925.584 787.050, 911.282 792.913 M 1092.500 847.597 C 1088.100 848.911, 1075.050 852.256, 1063.500 855.031 C 1031.196 862.792, 1017.710 867.648, 993 880.418 C 984.475 884.824, 973.900 890.181, 969.500 892.324 C 965.100 894.466, 958.854 898.204, 955.621 900.632 C 952.387 903.059, 949.098 905.405, 948.312 905.845 C 947.121 906.512, 947.079 907.428, 948.060 911.325 C 955.238 939.830, 936.990 962.590, 906 963.787 C 894.500 964.231, 894.500 964.231, 891 971.794 C 889.075 975.953, 885.324 982.763, 882.665 986.928 C 871.770 1003.992, 859.861 1031, 863.233 1031 C 870.741 1031, 911.066 1014.127, 934.258 1001.282 C 943.474 996.177, 951.381 992, 951.828 992 C 953.286 992, 984.351 972.939, 990 968.578 C 993.025 966.243, 998.906 962.049, 1003.070 959.257 C 1007.233 956.466, 1014.172 951.329, 1018.490 947.841 C 1022.807 944.353, 1029.976 938.665, 1034.420 935.201 C 1054.403 919.622, 1083.394 890.831, 1097.551 872.504 C 1101.373 867.557, 1105.737 862.203, 1107.250 860.606 C 1110.707 856.957, 1110.674 855.634, 1106.979 849.750 C 1103.564 844.311, 1103.521 844.305, 1092.500 847.597 M 781.857 932.562 C 777.654 936.928, 771.179 943.970, 767.468 948.211 C 763.758 952.452, 757.096 958.977, 752.664 962.711 C 748.232 966.445, 740.532 973.593, 735.553 978.596 C 726.189 988.005, 699.766 1008.333, 687.500 1015.564 C 668.516 1026.756, 663.727 1029.386, 649.667 1036.340 C 608.808 1056.547, 556.202 1065.467, 516.202 1058.972 C 508.146 1057.663, 508.146 1057.663, 502.823 1063.242 C 495.234 1071.194, 487.677 1072.825, 474.579 1069.335 C 468.331 1067.670, 468.331 1067.670, 463.915 1071.705 C 461.487 1073.925, 454.893 1079.874, 449.262 1084.926 C 443.632 1089.979, 435.561 1098.475, 431.328 1103.806 C 427.094 1109.138, 420.204 1117.100, 416.017 1121.500 C 410.589 1127.203, 407.589 1131.366, 405.568 1136 C 404.009 1139.575, 399.716 1147, 396.028 1152.500 C 380.183 1176.130, 366.018 1209.627, 370.208 1213.556 C 377.541 1220.431, 428.072 1242.201, 448.996 1247.500 C 466.032 1251.815, 465.162 1251.860, 469.613 1246.426 C 474.748 1240.157, 483.301 1236.002, 491.073 1236.001 C 497.407 1236, 498.115 1235.121, 503.278 1220.842 C 506.299 1212.485, 515.643 1195.899, 522.236 1187.188 C 531.214 1175.326, 531.032 1172.308, 521.447 1174.118 C 485.255 1180.955, 408.538 1157.349, 419.085 1142.621 C 423.953 1135.823, 423.189 1135.855, 433.153 1142.035 C 463.710 1160.987, 539.363 1162.637, 554.219 1144.676 C 556.574 1141.829, 559.343 1138.600, 560.373 1137.500 C 561.403 1136.400, 564.619 1132.350, 567.518 1128.500 C 573.084 1121.110, 593.718 1100.452, 603 1092.978 C 606.025 1090.542, 612.325 1085.110, 617 1080.908 C 643.017 1057.521, 686.831 1032.352, 741.259 1009.526 C 755.018 1003.756, 755.018 1003.756, 759.044 995.128 C 764.713 982.978, 768.707 977.441, 774.681 973.448 C 780.565 969.515, 780.322 970.108, 786.499 944.611 C 791.642 923.382, 791.372 922.680, 781.857 932.562 M 863.420 953.543 C 860.164 956.041, 851.875 962.169, 845 967.161 C 824.266 982.213, 822.789 984.055, 825.471 991.500 C 827.265 996.478, 827.473 1014.689, 825.800 1020.272 C 823.267 1028.728, 813.842 1036.377, 799.555 1041.575 C 792.516 1044.136, 791.923 1045.374, 786.905 1068 C 785.258 1075.425, 783.274 1084.200, 782.496 1087.500 C 765.108 1161.210, 774.949 1283.873, 803.515 1349.500 C 809.525 1363.308, 832.103 1407.913, 835.281 1412.256 C 836.586 1414.040, 840.505 1420.118, 843.989 1425.762 C 851.883 1438.550, 851.240 1438.065, 862.356 1439.604 C 885.616 1442.823, 893 1450.159, 893 1470.049 C 893 1477.335, 896.652 1483, 901.350 1483 C 901.887 1483, 920.210 1493.397, 927 1497.555 C 940.924 1506.080, 980.202 1518.443, 1007.500 1522.894 C 1056.907 1530.949, 1091.142 1527.995, 1140.922 1511.383 C 1149.718 1508.447, 1151.677 1511.325, 1124.732 1487.600 C 1114.127 1478.263, 1112.429 1477.671, 1102.720 1479.925 C 1091.555 1482.518, 1075.054 1471.660, 1071.962 1459.688 C 1071.368 1457.384, 1070.681 1454.802, 1070.436 1453.949 C 1070.158 1452.980, 1063.888 1450.213, 1053.746 1446.584 C 995.063 1425.588, 938.962 1381.011, 904.260 1327.808 C 898.258 1318.606, 875.660 1274.149, 869.450 1259.325 C 855.754 1226.637, 841 1149.420, 841 1110.435 C 841 1077.916, 836.114 1075.361, 829.653 1104.500 C 828.800 1108.350, 826.307 1119.150, 824.115 1128.500 C 821.922 1137.850, 819.633 1149.100, 819.028 1153.500 C 818.423 1157.900, 817.494 1164.512, 816.964 1168.193 C 814.288 1186.777, 817.021 1224.625, 822.980 1251.500 C 824.565 1258.650, 826.589 1268.245, 827.476 1272.822 C 832.141 1296.877, 852.375 1337, 859.841 1337 C 883.491 1337, 893.226 1350.413, 889.389 1377.713 C 888.350 1385.104, 899.299 1398.206, 928.350 1424.334 C 944.612 1438.960, 979.671 1462.484, 1002.052 1473.786 C 1015.553 1480.605, 1073.394 1502.286, 1084 1504.505 C 1096.032 1507.021, 1092.298 1508.654, 1072.497 1509.533 C 1045.058 1510.750, 1039.585 1509.302, 1003.533 1491.275 C 960.474 1469.745, 914.028 1437.560, 899.011 1418.848 C 896.072 1415.185, 889.538 1408.003, 877.357 1395.049 C 875.283 1392.843, 874.351 1392.621, 868.063 1392.838 C 843.153 1393.694, 826.893 1372.150, 836.933 1351.594 C 839.852 1345.618, 840.024 1346.326, 829.522 1321 C 792.225 1231.059, 789.322 1163.878, 819.397 1086.667 C 821.790 1080.525, 826.037 1068.300, 828.836 1059.500 C 834.027 1043.182, 839.663 1030.256, 844.924 1022.610 C 846.541 1020.261, 852.767 1008.250, 858.761 995.919 C 864.754 983.589, 871.760 970.044, 874.329 965.820 C 880.031 956.446, 880.056 955.777, 874.850 952.006 C 869.674 948.257, 870.445 948.153, 863.420 953.543 M 1534.708 1036.090 C 1524.650 1041.398, 1522.826 1054.307, 1531.027 1062.130 C 1539.906 1070.600, 1551.926 1068.640, 1557.589 1057.800 C 1564.178 1045.188, 1547.482 1029.348, 1534.708 1036.090 M 899 1037.111 C 896.525 1038.247, 889.550 1041.199, 883.500 1043.671 C 856.545 1054.684, 858.500 1050.670, 858.500 1095 C 858.500 1141.681, 859.307 1144.932, 865.475 1123.089 C 872.671 1097.603, 887.049 1066.705, 900.156 1048.559 C 910.274 1034.552, 910.021 1032.049, 899 1037.111 M 729.939 1047.797 C 724.130 1050.978, 716.255 1056.270, 712.439 1059.557 C 708.623 1062.843, 703.945 1066.875, 702.045 1068.516 C 687.862 1080.767, 662.200 1106.447, 652.015 1118.582 C 647.898 1123.487, 642.007 1130.425, 638.924 1134 C 620.555 1155.300, 596.434 1197.483, 582.066 1233.433 C 579.322 1240.297, 575.999 1248.070, 574.680 1250.707 C 573.361 1253.343, 571.349 1259.325, 570.209 1264 C 569.069 1268.675, 566.745 1278.125, 565.046 1285 C 558.618 1311.001, 554.762 1341, 557.847 1341 C 558.906 1341, 559.384 1339.410, 559.270 1336.261 C 559.246 1335.579, 559.559 1335.228, 559.967 1335.479 C 560.852 1336.027, 561.585 1334.479, 568.685 1317.063 C 574.922 1301.765, 579.465 1292.438, 584.561 1284.471 C 586.506 1281.432, 591.524 1272.320, 595.713 1264.223 C 603.637 1248.905, 614.808 1229.583, 624.170 1215 C 627.171 1210.325, 631.143 1203.800, 632.998 1200.500 C 634.852 1197.200, 640.265 1188.650, 645.027 1181.500 C 649.789 1174.350, 657.739 1161.750, 662.693 1153.500 C 673.882 1134.868, 691.424 1108.891, 702.275 1094.883 C 706.799 1089.044, 712.525 1081.424, 715 1077.951 C 717.475 1074.477, 723.848 1066.690, 729.162 1060.646 C 746.324 1041.128, 746.468 1038.744, 729.939 1047.797 M 692.500 1049.807 C 687.938 1051.342, 682.136 1054.247, 679 1056.564 C 675.975 1058.799, 669.749 1062.849, 665.165 1065.564 C 660.581 1068.279, 652.918 1073.475, 648.136 1077.110 C 643.354 1080.746, 638.015 1084.458, 636.272 1085.360 C 625.198 1091.086, 579 1136.734, 579 1141.949 C 579 1144.505, 590.994 1139.819, 604.931 1131.820 C 628.706 1118.173, 632.860 1114.817, 656.073 1090.500 C 668.402 1077.584, 689.241 1058.199, 695 1054.288 C 705.703 1047.021, 704.923 1045.624, 692.500 1049.807 M 758.227 1069.773 C 747.553 1080.447, 735.701 1101.704, 721.023 1136.500 C 718.935 1141.450, 714.437 1151.800, 711.026 1159.500 C 703.605 1176.255, 699.525 1187.074, 698.582 1192.500 C 698.200 1194.700, 696.133 1202.350, 693.990 1209.500 C 676.400 1268.170, 669.701 1321.912, 679.328 1327.104 C 697.204 1336.743, 703.711 1354.794, 697.013 1376.161 C 693.588 1387.088, 696.003 1392.496, 711.816 1409.315 C 717.692 1415.565, 724.525 1423.541, 727 1427.040 C 745.144 1452.692, 750.070 1452.359, 743.502 1425.925 C 737.744 1402.751, 734.349 1386.040, 733.054 1374.500 C 725.759 1309.462, 724.149 1262.197, 727.926 1224 C 728.443 1218.775, 729.562 1206.850, 730.412 1197.500 C 733.172 1167.150, 733.790 1162.680, 736.980 1150 C 741.301 1132.823, 748.135 1109.583, 754.476 1090.500 C 761.502 1069.360, 762.134 1065.866, 758.227 1069.773 M 1455.450 1135.353 C 1442.726 1141.118, 1441.808 1163.055, 1453.940 1171.459 C 1467.459 1180.824, 1482.501 1171.892, 1482.500 1154.500 C 1482.499 1138.825, 1468.953 1129.236, 1455.450 1135.353 M 359.627 1236.793 C 347.191 1276.195, 343.198 1313.218, 350.840 1318.275 C 352.869 1319.618, 358.021 1323.526, 362.289 1326.959 C 374.253 1336.584, 414.416 1320.499, 444.432 1294.061 C 449.345 1289.734, 455.538 1284.913, 458.195 1283.347 C 463.597 1280.164, 464.379 1278.440, 463.268 1272.167 C 462.449 1267.546, 454.501 1264.351, 411.733 1251.451 C 397.500 1247.158, 385.177 1242.095, 377.332 1237.316 C 361.388 1227.604, 362.517 1227.637, 359.627 1236.793 M 1396.610 1262.533 C 1395.210 1266.108, 1386.331 1291.316, 1382.709 1302 C 1362.138 1362.672, 1293.152 1428.534, 1229.872 1447.916 C 1195.449 1458.459, 1169.160 1462.987, 1142.212 1463.015 C 1125.863 1463.032, 1124.135 1463.471, 1126.022 1467.123 C 1128.186 1471.313, 1131.310 1474.051, 1139.729 1479.137 C 1144.255 1481.871, 1150.330 1486.239, 1153.229 1488.842 C 1166.351 1500.624, 1170.128 1500.779, 1185.743 1490.174 C 1192.659 1485.478, 1203.916 1479.711, 1209.500 1478.002 C 1217.659 1475.506, 1241.407 1466.847, 1257.206 1460.607 C 1266.168 1457.068, 1280.384 1451.858, 1288.798 1449.030 C 1297.211 1446.202, 1307.336 1442.378, 1311.298 1440.531 C 1336.942 1428.578, 1344.754 1424.784, 1355 1419.308 C 1373.903 1409.204, 1376.658 1409.563, 1371.489 1421.454 C 1366.343 1433.292, 1363.197 1435.843, 1344.750 1443.137 C 1334.883 1447.039, 1318.744 1453.748, 1312.500 1456.544 C 1287.701 1467.650, 1271.792 1474.253, 1266.727 1475.540 C 1234.316 1483.777, 1206.996 1495.504, 1192.500 1507.402 C 1189.555 1509.819, 1189.536 1509.891, 1191.500 1511.352 C 1195.501 1514.329, 1222.459 1525.398, 1235.790 1529.537 C 1250.914 1534.233, 1251.568 1534.742, 1250.610 1541.082 C 1249.504 1548.393, 1249.257 1548.544, 1240.833 1547.048 C 1221.008 1543.530, 1201.782 1536.422, 1181.523 1525.122 C 1168.367 1517.785, 1167.762 1517.748, 1154.539 1523.506 C 1095.560 1549.187, 1018.530 1550.043, 953.500 1525.741 C 924.028 1514.726, 920.945 1515.066, 937 1527.557 C 1027.299 1597.817, 1136.685 1618.201, 1225 1581.225 C 1230.225 1579.037, 1238.724 1575.818, 1243.887 1574.071 C 1262.756 1567.686, 1264.317 1566.325, 1263.352 1557.091 C 1260.380 1528.656, 1290.554 1507.155, 1315.651 1519.824 C 1327.285 1525.697, 1370.578 1471.443, 1383.337 1435 C 1384.204 1432.525, 1386.534 1426.225, 1388.515 1421 C 1402.917 1383.026, 1408.822 1342.827, 1405.574 1304.873 C 1403.299 1278.290, 1398.787 1256.975, 1396.610 1262.533 M 1709.364 1279.136 C 1707.089 1283.186, 1704.892 1287.625, 1704.482 1289 C 1702.982 1294.030, 1695.899 1307.071, 1688.384 1318.640 C 1684.146 1325.163, 1677.389 1335.988, 1673.368 1342.695 C 1651.424 1379.303, 1608.400 1428.636, 1572.268 1458.618 C 1565.796 1463.989, 1558.181 1470.319, 1555.347 1472.686 C 1547.643 1479.119, 1516.805 1499.572, 1508.642 1503.663 C 1504.714 1505.631, 1498.524 1508.971, 1494.888 1511.085 C 1479.996 1519.739, 1440.625 1536.450, 1424 1541.173 C 1401.386 1547.597, 1357.675 1557.114, 1340 1559.462 C 1335.741 1560.028, 1335.312 1560.386, 1332 1566.147 C 1318.640 1589.384, 1298.168 1594.208, 1274.781 1579.629 C 1273.402 1578.770, 1269.344 1580.371, 1254.281 1587.718 C 1210.716 1608.966, 1169.112 1616.157, 1105.750 1613.392 C 1087.901 1612.613, 1086.535 1613.225, 1095.750 1617.869 C 1109.011 1624.553, 1159.044 1637.406, 1181.500 1639.897 C 1233.979 1645.719, 1265.180 1646.243, 1308.500 1642.028 C 1314 1641.493, 1324.030 1640.565, 1330.790 1639.966 C 1349.074 1638.347, 1385.174 1628.142, 1422.500 1614.041 C 1428.550 1611.756, 1436.150 1608.986, 1439.389 1607.885 C 1449.692 1604.386, 1467.644 1594.544, 1470.916 1590.601 C 1472.976 1588.119, 1470.916 1588.408, 1439.601 1594.996 C 1376.775 1608.214, 1364.263 1609.281, 1274.750 1609.053 C 1257.374 1609.009, 1254 1608.766, 1254 1607.559 C 1254 1605.070, 1255.238 1604.935, 1287.225 1603.937 C 1304.426 1603.400, 1324.125 1602.331, 1331 1601.561 C 1347.824 1599.677, 1371.196 1596.373, 1380.170 1594.611 C 1384.202 1593.820, 1390.650 1592.626, 1394.500 1591.958 C 1398.350 1591.290, 1411.625 1588.057, 1424 1584.774 C 1436.375 1581.491, 1454.825 1576.653, 1465 1574.023 C 1501.038 1564.710, 1505.290 1562.274, 1509.190 1548.706 C 1516.637 1522.792, 1535.577 1512.522, 1558.399 1522.022 C 1567.608 1525.856, 1563.932 1528.180, 1589.842 1502.142 C 1618.550 1473.291, 1629.990 1458.844, 1653.699 1421.500 C 1665.485 1402.935, 1672.655 1390.012, 1677.833 1378 C 1680.559 1371.675, 1685.809 1359.975, 1689.499 1352 C 1701.435 1326.206, 1703.627 1320.061, 1710.080 1294.312 C 1715.391 1273.117, 1715.186 1268.770, 1709.364 1279.136 M 601.973 1282.244 C 585.765 1309.291, 574.399 1332.569, 568.154 1351.500 C 565.432 1359.750, 561.622 1370.550, 559.687 1375.500 C 551.927 1395.350, 550.688 1402.051, 552.063 1416.750 C 555.557 1454.118, 568.879 1517.381, 578.977 1544.557 C 595.512 1589.056, 605.790 1592.633, 596.055 1550.500 C 594.503 1543.783, 588.176 1498.221, 587.098 1486 C 583.160 1441.341, 586.226 1394.333, 597.044 1333.500 C 599.196 1321.400, 601.892 1305.200, 603.036 1297.500 C 604.180 1289.800, 605.569 1281.767, 606.124 1279.649 C 607.671 1273.736, 606.712 1274.335, 601.973 1282.244 M 1242.806 1315.343 C 1224.467 1320.498, 1220.859 1347.024, 1236.612 1360.889 C 1259.205 1380.777, 1292.511 1356.007, 1280.145 1328.512 C 1274.562 1316.097, 1259.288 1310.710, 1242.806 1315.343 M 676.028 1399.415 C 675.141 1402.103, 675.225 1404.081, 676.425 1408.712 C 677.264 1411.948, 679.098 1420.873, 680.501 1428.547 C 683.192 1443.262, 687.522 1459.614, 693.993 1479.500 C 696.141 1486.100, 699.053 1495.414, 700.465 1500.198 C 702.856 1508.299, 714.011 1531.593, 729.102 1560 C 756.103 1610.824, 818.961 1674.782, 874.500 1707.942 C 910.315 1729.325, 924.551 1736.906, 939 1742.290 C 960.335 1750.239, 960.806 1747.919, 941 1732.439 C 926.196 1720.868, 883.217 1677.124, 863.927 1653.993 C 832.865 1616.748, 808.638 1579.290, 786.319 1534 C 764.555 1489.837, 761.393 1484.444, 753.003 1477.182 C 745.173 1470.406, 744.826 1470.052, 733.637 1457.468 C 728.762 1451.986, 723.312 1446.150, 721.526 1444.500 C 716.708 1440.050, 707.286 1428.511, 702.816 1421.585 C 691.642 1404.276, 678.118 1393.083, 676.028 1399.415" stroke="none" fill="#2176a4" fill-rule="evenodd"/></svg>