<svg xmlns="http://www.w3.org/2000/svg" width="4096" height="4048" viewBox="0 0 4096 4048" version="1.1">
<path xmlns="http://www.w3.org/2000/svg" d="M 1122.500 53.563 C 1107.134 54.971, 1095.448 56.368, 1089 57.569 C 1077.500 59.712, 1067.765 61.884, 1065 62.923 C 1063.625 63.441, 1059.125 64.842, 1055 66.037 C 1036.704 71.339, 1007.213 84.168, 988.671 94.893 C 983.815 97.702, 979.651 100, 979.417 100 C 978.928 100, 968.016 107.525, 960.220 113.238 C 944.979 124.407, 914.761 152.421, 907.317 162.283 C 905.566 164.602, 903.312 167.400, 902.308 168.500 C 882.991 189.658, 858.538 236.249, 849.035 270 C 848.338 272.475, 847.397 275.625, 846.943 277 C 835.443 311.843, 832.899 373.876, 841.366 413 C 851.245 458.651, 864.694 490.178, 891.248 529.937 C 932.384 591.529, 989.109 634.865, 1057 656.564 C 1093.155 668.120, 1111.279 669.993, 1187 670.002 C 1248.120 670.010, 1262.733 671.201, 1296.500 678.924 C 1350.083 691.180, 1401.593 714.132, 1445.249 745.204 C 1477.629 768.250, 1517.556 806.511, 1543.832 839.673 C 1550.957 848.666, 1568 873.108, 1568 874.334 C 1568 874.588, 1569.718 877.654, 1571.817 881.148 C 1577.413 890.462, 1586.148 908.798, 1591.516 922.500 C 1594.101 929.100, 1597.105 936.488, 1598.192 938.917 C 1602.969 949.598, 1611.624 979.255, 1613.975 993 C 1614.492 996.025, 1615.407 1001.200, 1616.008 1004.500 C 1616.609 1007.800, 1617.527 1013.200, 1618.050 1016.500 C 1618.572 1019.800, 1619.787 1027.450, 1620.750 1033.500 C 1623.048 1047.943, 1622.944 1105.761, 1620.591 1121.500 C 1619.769 1127, 1618.168 1137.738, 1617.034 1145.362 C 1615.900 1152.986, 1614.305 1163.336, 1613.490 1168.362 C 1608.351 1200.049, 1617.320 1265.589, 1633.492 1314.521 C 1639.456 1332.567, 1656.765 1369.065, 1666.441 1384 C 1677.199 1400.603, 1688.425 1417.528, 1688.994 1418 C 1689.325 1418.275, 1690.678 1420.075, 1692 1422 C 1693.322 1423.925, 1694.662 1425.725, 1694.978 1426 C 1695.293 1426.275, 1697.101 1428.525, 1698.994 1431 C 1729.074 1470.325, 1815.152 1536.510, 1829.563 1531.393 C 1831.585 1530.675, 1836.968 1528.364, 1844.331 1525.052 C 1892.664 1503.313, 1970.491 1491.629, 2028 1497.480 C 2076.903 1502.455, 2097.284 1507.080, 2143.472 1523.685 C 2163.162 1530.764, 2166.127 1531.306, 2168.751 1528.300 C 2169.713 1527.198, 2172.075 1525.495, 2174 1524.515 C 2179.122 1521.909, 2192.030 1514.109, 2195.500 1511.525 C 2197.150 1510.295, 2203.675 1505.771, 2210 1501.470 C 2220.169 1494.556, 2234.565 1483.481, 2245 1474.546 C 2249.597 1470.610, 2269.588 1450.604, 2274.025 1445.500 C 2276.951 1442.133, 2282.389 1435.593, 2287.731 1429.015 C 2288.408 1428.182, 2292.336 1423, 2296.460 1417.500 C 2300.584 1412, 2304.305 1407.050, 2304.729 1406.500 C 2314.469 1393.866, 2332.763 1362.183, 2340.864 1343.919 C 2350.184 1322.908, 2362.618 1281.575, 2367.012 1257 C 2374.026 1217.772, 2375.149 1197.733, 2371.999 1168 C 2370.047 1149.579, 2369.227 1143.363, 2366.922 1129.500 C 2363.426 1108.477, 2363.472 1050.445, 2367.003 1027.246 C 2367.526 1023.806, 2368.443 1017.731, 2369.040 1013.746 C 2370.822 1001.849, 2372.068 994.707, 2373.007 991 C 2373.495 989.075, 2374.849 983.225, 2376.017 978 C 2379.577 962.074, 2386.128 941.262, 2392.227 926.500 C 2393.364 923.750, 2394.848 920.150, 2395.526 918.500 C 2400.454 906.508, 2403.264 900.686, 2410.970 886.500 C 2423.235 863.922, 2442.256 834.668, 2449.006 828 C 2449.285 827.725, 2451.985 824.580, 2455.006 821.010 C 2458.028 817.441, 2461.850 812.941, 2463.499 811.010 C 2470.825 802.436, 2488.493 784.880, 2499.500 775.238 C 2516.520 760.330, 2515.276 761.342, 2534.494 746.735 C 2554.017 731.895, 2603.586 703, 2609.520 703 C 2609.844 703, 2612.034 702.123, 2614.385 701.052 C 2647.663 685.893, 2694.189 674.715, 2739.304 671.042 C 2746.347 670.469, 2778.522 669.998, 2810.804 669.995 C 2875.738 669.989, 2877.657 669.845, 2905.950 662.854 C 3038.745 630.044, 3137.366 513.106, 3146.607 377.500 C 3146.982 372, 3147.441 366.150, 3147.628 364.500 C 3148.104 360.283, 3146.116 327.681, 3144.959 320.750 C 3144.432 317.588, 3143.540 312.188, 3142.979 308.750 C 3142.417 305.313, 3141.486 300.475, 3140.909 298 C 3140.332 295.525, 3139.394 291.475, 3138.825 289 C 3133.120 264.206, 3120.723 232.308, 3109.780 214.268 C 3107.701 210.841, 3106 207.616, 3106 207.101 C 3106 206.587, 3105.662 206.017, 3105.250 205.833 C 3104.838 205.650, 3102.730 202.575, 3100.567 199 C 3098.404 195.425, 3095.254 190.633, 3093.567 188.351 C 3091.880 186.069, 3089.747 183.144, 3088.826 181.851 C 3072.846 159.414, 3052.888 137.826, 3035 123.630 C 3030.325 119.920, 3025.782 116.299, 3024.905 115.585 C 3024.028 114.870, 3020.428 112.342, 3016.905 109.968 C 3013.382 107.593, 3010.275 105.358, 3010 105 C 3008.237 102.708, 2994.984 94.786, 2978.500 86.170 C 2972.646 83.111, 2957.664 76.340, 2954.892 75.501 C 2952.732 74.848, 2949.114 73.391, 2943.500 70.914 C 2935.800 67.516, 2910.489 60.393, 2894.500 57.124 C 2866.551 51.411, 2815.257 52.106, 2782 58.649 C 2760.452 62.888, 2732.659 71.468, 2728.550 75.149 C 2728.027 75.617, 2726.979 76, 2726.221 76 C 2723.152 76, 2689.372 93.637, 2671.636 104.500 C 2667.515 107.024, 2647.586 121.404, 2646 122.997 C 2645.725 123.274, 2641.675 126.871, 2637 130.992 C 2601.156 162.586, 2569.316 205.679, 2555.022 241.944 C 2553.853 244.911, 2552.061 249.175, 2551.041 251.419 C 2544.509 265.789, 2534.695 298.876, 2531.886 316 C 2528.311 337.795, 2528.065 342.791, 2528.024 394.500 C 2527.983 445.999, 2527.481 456.423, 2524.052 477 C 2520.346 499.243, 2507.959 541.533, 2499.691 560.174 C 2498.879 562.003, 2496.938 566.425, 2495.376 570 C 2482.986 598.367, 2462.317 632.265, 2442.328 657 C 2441.662 657.825, 2438.229 662.100, 2434.701 666.500 C 2421.082 683.485, 2396.106 707.189, 2381.500 716.993 C 2378.750 718.839, 2375.233 721.391, 2373.685 722.665 C 2367.212 727.989, 2343.270 741.153, 2328.731 747.382 C 2303.912 758.014, 2251.954 772.841, 2214.500 779.980 C 2212.300 780.399, 2207.125 781.444, 2203 782.302 C 2176.913 787.729, 2128.575 794.017, 2090 797 C 2009.496 803.227, 1901.308 799.468, 1816 787.479 C 1810.225 786.668, 1802.912 785.553, 1799.750 785.002 C 1796.588 784.451, 1791.412 783.566, 1788.250 783.035 C 1771.448 780.214, 1752.880 776.790, 1744.500 774.968 C 1742.300 774.489, 1738.025 773.562, 1735 772.907 C 1712.141 767.956, 1666.856 754.641, 1655.653 749.576 C 1653.919 748.793, 1649.083 746.604, 1644.906 744.713 C 1614.146 730.785, 1575.406 699.796, 1550.254 669 C 1543.965 661.299, 1538.678 654.519, 1532.707 646.500 C 1529.022 641.550, 1525.304 636.600, 1524.444 635.500 C 1523.112 633.796, 1515.246 621.153, 1509.925 612.161 C 1502.420 599.482, 1490.395 576.093, 1485.656 564.957 C 1480.667 553.234, 1474.517 537.574, 1473.695 534.500 C 1473.401 533.400, 1472.191 529.350, 1471.006 525.500 C 1468.747 518.160, 1466.236 508.917, 1463.535 498 C 1462.651 494.425, 1461.538 489.925, 1461.062 488 C 1460.586 486.075, 1459.662 481.350, 1459.009 477.500 C 1458.356 473.650, 1457.378 468.700, 1456.835 466.500 C 1456.292 464.300, 1455.449 434.375, 1454.961 400 C 1454.473 365.625, 1453.898 336.375, 1453.684 335 C 1453.470 333.625, 1452.989 330.475, 1452.615 328 C 1450.743 315.613, 1449.481 309.422, 1446.396 297.500 C 1444.546 290.350, 1442.763 283.375, 1442.433 282 C 1442.103 280.625, 1441.450 278.600, 1440.982 277.500 C 1440.514 276.400, 1439.136 272.575, 1437.920 269 C 1430.973 248.580, 1417.769 220.810, 1407.432 204.878 C 1397.222 189.142, 1396.099 187.488, 1394.220 185.416 C 1393.264 184.362, 1390.923 181.475, 1389.017 179 C 1387.111 176.525, 1385.309 174.275, 1385.012 174 C 1384.715 173.725, 1382.454 171.029, 1379.986 168.010 C 1377.519 164.990, 1374.386 161.165, 1373.024 159.510 C 1366.173 151.183, 1339.459 125.735, 1332.780 121.173 C 1331.526 120.317, 1330.275 119.364, 1330 119.055 C 1328.161 116.994, 1297.783 96, 1296.639 96 C 1296.390 96, 1291.531 93.407, 1285.843 90.238 C 1272.324 82.707, 1254.175 74, 1251.997 74 C 1251.478 74, 1248.904 73.034, 1246.277 71.854 C 1238.524 68.370, 1225.502 63.970, 1217 61.960 C 1215.075 61.505, 1211.700 60.643, 1209.500 60.044 C 1204.529 58.690, 1197.282 57.313, 1185 55.390 C 1176.027 53.984, 1131.963 52.697, 1122.500 53.563 M 3619.500 869.081 C 3588.851 871.842, 3574.477 875.165, 3537.500 888.036 C 3527.010 891.688, 3525.160 892.482, 3510.500 899.631 C 3500.418 904.547, 3495.799 907.054, 3487.500 912.115 C 3485.850 913.121, 3483.311 914.618, 3481.858 915.442 C 3461.719 926.859, 3432.472 952.483, 3410.925 977.590 C 3383.853 1009.134, 3362.054 1048.373, 3350.700 1086 C 3343.593 1109.552, 3341.470 1118.883, 3336.936 1146.500 C 3336.394 1149.800, 3335.529 1180.199, 3335.013 1214.053 C 3333.729 1298.402, 3332.270 1312.360, 3320.017 1357.500 C 3316.363 1370.962, 3305.487 1398.990, 3297.511 1415.500 C 3289.203 1432.698, 3264.847 1473.174, 3261.106 1476 C 3260.742 1476.275, 3257.470 1480.325, 3253.836 1485 C 3250.201 1489.675, 3246.222 1494.625, 3244.993 1496 C 3243.764 1497.375, 3241.053 1500.750, 3238.968 1503.500 C 3232.054 1512.621, 3208.919 1535.539, 3196.775 1545.297 C 3194.176 1547.385, 3191.476 1549.637, 3190.775 1550.301 C 3188.791 1552.181, 3179.830 1559.269, 3176.500 1561.594 C 3174.850 1562.745, 3168.325 1567.434, 3162 1572.013 C 3135.303 1591.339, 3100.459 1609.024, 3073 1617.185 C 3050.368 1623.911, 3021.030 1630.037, 3002 1632.011 C 2956.682 1636.711, 2953.498 1636.710, 2915.500 1631.995 C 2904.224 1630.596, 2891.195 1629.060, 2881 1627.928 C 2875.775 1627.348, 2867.675 1626.435, 2863 1625.899 C 2836.725 1622.885, 2792.667 1624.363, 2771.500 1628.967 C 2769.300 1629.446, 2764.800 1630.381, 2761.500 1631.045 C 2730.250 1637.332, 2682.711 1653.096, 2658.742 1665.120 C 2634.695 1677.183, 2596.818 1702.394, 2577.041 1719.500 C 2563.352 1731.341, 2549.696 1744.792, 2538.969 1757 C 2534.861 1761.675, 2531.275 1765.725, 2531 1766 C 2527.236 1769.764, 2513.875 1788.209, 2514.477 1788.810 C 2514.650 1788.983, 2518.776 1789.989, 2523.646 1791.044 C 2660.698 1820.747, 2762.533 1925.382, 2791.411 2066.171 C 2798.598 2101.209, 2799.959 2146.182, 2795.022 2185.500 C 2794.469 2189.900, 2793.530 2197.550, 2792.934 2202.500 C 2792.338 2207.450, 2791.486 2212.850, 2791.040 2214.500 C 2790.594 2216.150, 2789.670 2220.200, 2788.986 2223.500 C 2786.797 2234.064, 2784.023 2245.304, 2781.828 2252.500 C 2778.087 2264.762, 2775.267 2273.067, 2774.624 2273.710 C 2774.281 2274.053, 2774 2274.922, 2774 2275.642 C 2774 2276.361, 2772.650 2279.897, 2771 2283.500 C 2769.350 2287.103, 2768 2290.293, 2768 2290.591 C 2768 2292.159, 2754.367 2318.025, 2747.833 2328.852 C 2745.725 2332.346, 2744 2335.348, 2744 2335.523 C 2744 2336.091, 2728.095 2361.026, 2724.990 2365.326 C 2723.333 2367.622, 2720.096 2372.200, 2717.798 2375.500 C 2715.500 2378.800, 2711.895 2383.269, 2709.787 2385.432 C 2704.462 2390.896, 2704.573 2390.976, 2724.081 2395.720 C 2779.348 2409.159, 2834.803 2414.315, 2870 2409.285 C 2874.675 2408.618, 2882.325 2407.608, 2887 2407.043 C 2891.675 2406.477, 2903.375 2405.005, 2913 2403.771 C 2943.626 2399.846, 2965.702 2400.582, 3011.255 2407.046 C 3073.424 2415.868, 3142.918 2446.148, 3182.534 2481.676 C 3183.652 2482.679, 3187.477 2485.974, 3191.034 2488.997 C 3239.695 2530.367, 3280.338 2582.889, 3301.692 2632 C 3308.305 2647.211, 3311.171 2655.099, 3318.949 2679.500 C 3322.951 2692.055, 3328.243 2715.943, 3330.469 2731.500 C 3333.905 2755.523, 3334.250 2762.800, 3335.034 2828 C 3335.548 2870.758, 3336.257 2897.516, 3336.969 2901 C 3337.587 2904.025, 3338.783 2910.100, 3339.626 2914.500 C 3341.461 2924.064, 3345.615 2940.744, 3347.722 2947 C 3348.555 2949.475, 3349.584 2952.850, 3350.008 2954.500 C 3353.883 2969.579, 3368.931 3004.361, 3378.230 3019.732 C 3380.303 3023.159, 3382 3026.167, 3382 3026.415 C 3382 3027.658, 3402.326 3057.342, 3404.997 3060 C 3405.274 3060.275, 3407.505 3062.975, 3409.956 3066 C 3480.963 3153.637, 3601.979 3195.943, 3710.500 3171.069 C 3820.111 3145.944, 3905.257 3065.689, 3936.026 2958.500 C 3938.138 2951.143, 3939.202 2946.564, 3942.069 2932.500 C 3951.792 2884.807, 3950.868 2842.372, 3939.097 2795.996 C 3934.972 2779.743, 3929.596 2762.637, 3926.019 2754.382 C 3913.967 2726.569, 3895.119 2696.009, 3878 2676.525 C 3861.848 2658.141, 3851.951 2648.679, 3830 2630.638 C 3817.511 2620.373, 3819.173 2621.610, 3805.500 2612.400 C 3773.198 2590.641, 3733.737 2573.553, 3699.500 2566.499 C 3678.427 2562.157, 3674.593 2561.905, 3615.500 2560.993 C 3555.604 2560.069, 3551.359 2559.788, 3524.500 2554.969 C 3504.763 2551.429, 3503.200 2551.088, 3492 2547.887 C 3490.075 2547.337, 3486.925 2546.481, 3485 2545.985 C 3464.824 2540.787, 3418.856 2520.319, 3403.846 2509.851 C 3402.386 2508.833, 3400.880 2508, 3400.500 2508 C 3390.644 2508, 3316.927 2444.941, 3303.111 2424.691 C 3302.289 2423.486, 3301.352 2422.275, 3301.029 2422 C 3295.883 2417.617, 3274.906 2380.981, 3268.964 2366 C 3266.161 2358.931, 3259.240 2338.112, 3257.329 2331 C 3248.531 2298.252, 3245.414 2285.387, 3240.007 2259.500 C 3238.858 2254, 3237.517 2247.700, 3237.026 2245.500 C 3236.535 2243.300, 3235.669 2238.800, 3235.101 2235.500 C 3234.534 2232.200, 3233.198 2224.550, 3232.134 2218.500 C 3223.670 2170.398, 3220.159 2134.945, 3216.882 2064.500 C 3215.823 2041.725, 3216.226 1964.476, 3217.522 1942 C 3218.393 1926.901, 3221.604 1891.215, 3223.011 1881 C 3223.504 1877.425, 3224.404 1870.450, 3225.012 1865.500 C 3225.620 1860.550, 3226.518 1854.025, 3227.008 1851 C 3227.497 1847.975, 3228.421 1841.900, 3229.060 1837.500 C 3230.891 1824.905, 3236.342 1793.087, 3238.054 1785 C 3238.695 1781.975, 3239.571 1777.700, 3240 1775.500 C 3240.941 1770.679, 3242.886 1761.800, 3244.052 1757 C 3244.520 1755.075, 3245.354 1751.475, 3245.907 1749 C 3246.460 1746.525, 3247.573 1742.025, 3248.381 1739 C 3249.189 1735.975, 3250.807 1729.900, 3251.977 1725.500 C 3260.774 1692.415, 3270.426 1667.774, 3282.229 1648.268 C 3284.303 1644.841, 3286 1641.836, 3286 1641.591 C 3286 1641.347, 3288.329 1637.626, 3291.177 1633.323 C 3333.582 1569.235, 3415.984 1513.666, 3499.012 1493.166 C 3537.482 1483.668, 3555.530 1482.001, 3619.924 1481.997 C 3680.244 1481.993, 3680.325 1481.985, 3715 1472.674 C 3816.469 1445.428, 3911.136 1352.424, 3936.055 1255.500 C 3936.480 1253.850, 3937.510 1250.009, 3938.345 1246.965 C 3946.640 1216.717, 3950.474 1169.737, 3946.911 1142 C 3942.772 1109.787, 3940.006 1096.720, 3932.306 1073 C 3925.353 1051.581, 3909.249 1019.202, 3899.232 1006.500 C 3898.798 1005.950, 3897.218 1003.394, 3895.721 1000.821 C 3894.224 998.247, 3892.422 995.547, 3891.716 994.821 C 3891.011 994.094, 3889.330 991.925, 3887.981 990 C 3875.980 972.875, 3847.684 944.284, 3828.960 930.364 C 3825.407 927.723, 3822.273 925.250, 3821.996 924.869 C 3821.491 924.177, 3817.199 921.455, 3798.608 910.039 C 3746.378 877.967, 3682.646 863.393, 3619.500 869.081 M 302.500 869.482 C 301.400 869.673, 295.325 870.365, 289 871.019 C 265.502 873.448, 227.731 883.619, 204.500 893.773 C 194.686 898.063, 182.113 904.735, 173 910.491 C 171.075 911.706, 165.675 915.099, 161 918.029 C 137.087 933.018, 114.305 952.590, 97 973.010 C 93.975 976.580, 91.269 979.725, 90.986 980 C 73.716 996.808, 43.884 1052.214, 34.989 1084 C 34.296 1086.475, 33.365 1089.850, 32.920 1091.500 C 32.474 1093.150, 31.411 1096.975, 30.556 1100 C 18.806 1141.603, 19.488 1203.256, 32.203 1249 C 63.596 1361.936, 163.399 1454.827, 277.614 1477.414 C 295.953 1481.041, 310.036 1481.975, 347 1482.014 C 423.910 1482.097, 450.020 1485.376, 496.500 1500.794 C 590.801 1532.073, 667.616 1594.454, 703.915 1669.234 C 716.816 1695.814, 738.349 1776.763, 746.014 1827.500 C 746.595 1831.350, 747.512 1837.200, 748.052 1840.500 C 748.591 1843.800, 749.468 1849.875, 750 1854 C 750.532 1858.125, 751.402 1864.425, 751.933 1868 C 752.463 1871.575, 753.371 1879, 753.948 1884.500 C 754.526 1890, 755.451 1898.550, 756.002 1903.500 C 761.072 1948.991, 761.587 2063.377, 756.984 2121.500 C 752.939 2172.576, 746.133 2221.285, 737.469 2261.167 C 734.791 2273.492, 732.046 2285.318, 731.008 2289 C 730.466 2290.925, 728.163 2300.150, 725.892 2309.500 C 722.033 2325.384, 713.644 2352.698, 710.535 2359.500 C 709.781 2361.150, 708.373 2364.525, 707.407 2367 C 702.597 2379.316, 680.097 2417.569, 675.057 2422 C 674.745 2422.275, 673.152 2424.300, 671.518 2426.500 C 668.002 2431.233, 654.342 2445.809, 648.095 2451.492 C 645.672 2453.697, 641.839 2457.300, 639.577 2459.500 C 637.315 2461.700, 633.897 2464.683, 631.982 2466.129 C 630.067 2467.575, 626.925 2470.189, 625 2471.938 C 617.441 2478.805, 582.427 2504, 580.443 2504 C 580.094 2504, 578.614 2504.847, 577.154 2505.883 C 571.815 2509.671, 541.859 2525.254, 530 2530.413 C 526.425 2531.968, 522.150 2533.834, 520.500 2534.558 C 500.129 2543.502, 477.546 2550.301, 446.500 2556.837 C 441.192 2557.955, 432.456 2559.305, 419.709 2560.978 C 415.348 2561.550, 391.087 2562, 364.602 2562 C 271.757 2562, 235.488 2570.295, 177.206 2604.860 C 174.294 2606.587, 171.735 2608, 171.518 2608 C 169.214 2608, 136.028 2632.329, 126.833 2640.759 C 93.881 2670.967, 68.928 2704.473, 50.548 2743.192 C 45.249 2754.355, 44.064 2757.324, 37.448 2776 C 20.924 2822.649, 17.611 2876.229, 28.110 2927 C 32.546 2948.456, 38.744 2968.350, 48.202 2991.500 C 56.394 3011.552, 81.366 3053.440, 92.317 3065.499 C 93.316 3066.600, 95.566 3069.385, 97.317 3071.689 C 100.664 3076.093, 127.977 3103.518, 134.036 3108.559 C 181.169 3147.769, 240.132 3172.113, 302.500 3178.114 C 315.639 3179.379, 352.790 3178.788, 362 3177.168 C 365.025 3176.636, 370.875 3175.671, 375 3175.024 C 446.987 3163.734, 521.094 3119.058, 569.946 3057.500 C 604.571 3013.869, 624.849 2965.487, 634.910 2902.500 C 637.523 2886.141, 637.999 2873.028, 637.986 2817.789 C 637.970 2747.303, 638.255 2744.337, 649.163 2701.500 C 659.576 2660.605, 687.997 2595.562, 701.738 2581.179 C 702.432 2580.452, 703 2579.471, 703 2579 C 703 2578.529, 703.562 2577.542, 704.250 2576.808 C 704.938 2576.074, 707.034 2573.229, 708.909 2570.487 C 712.354 2565.447, 720.071 2554.922, 720.997 2554 C 721.274 2553.725, 723.055 2551.475, 724.957 2549 C 736.051 2534.556, 762.051 2509.423, 786 2489.990 C 789.025 2487.536, 791.725 2485.292, 792 2485.005 C 800.106 2476.529, 833.166 2454.804, 854.358 2444.026 C 895.594 2423.056, 923.451 2414.307, 972.500 2406.922 C 1021.769 2399.505, 1034.002 2399.511, 1091.500 2406.980 C 1159.558 2415.820, 1204.709 2412.714, 1266 2394.975 C 1270.125 2393.781, 1275.443 2392.406, 1277.817 2391.920 C 1284.588 2390.533, 1284.552 2390.289, 1276.292 2381.660 C 1271.997 2377.172, 1263.987 2366.826, 1258.491 2358.669 C 1252.996 2350.511, 1247.546 2342.702, 1246.379 2341.315 C 1241.485 2335.495, 1224.055 2304.145, 1218.850 2291.802 C 1201.615 2250.925, 1192.015 2209.704, 1189.554 2166 C 1189.229 2160.225, 1188.712 2152.571, 1188.404 2148.991 C 1187.765 2141.546, 1189.623 2101.251, 1190.987 2093 C 1191.487 2089.975, 1192.434 2083.900, 1193.092 2079.500 C 1194.222 2071.948, 1195.979 2063.218, 1198.073 2054.750 C 1198.583 2052.688, 1199.406 2049.313, 1199.902 2047.250 C 1201.423 2040.925, 1205.809 2026.874, 1208.565 2019.500 C 1210.004 2015.650, 1211.538 2011.375, 1211.973 2010 C 1215.359 1999.313, 1226.516 1974.547, 1234.049 1961 C 1240.142 1950.041, 1247.865 1937.125, 1248.997 1936 C 1249.274 1935.725, 1251.502 1932.575, 1253.949 1929 C 1293.485 1871.231, 1377.610 1810.484, 1437.500 1796.457 C 1439.150 1796.070, 1444.325 1794.523, 1449 1793.019 C 1453.675 1791.514, 1459.914 1789.671, 1462.865 1788.923 C 1469.967 1787.123, 1470.190 1783.557, 1463.629 1776.723 C 1462.983 1776.051, 1458.672 1770.775, 1454.049 1765 C 1438.123 1745.108, 1407.573 1715.891, 1387.500 1701.357 C 1363.612 1684.060, 1315.404 1656, 1309.574 1656 C 1309.246 1656, 1307.071 1655.150, 1304.739 1654.111 C 1290.892 1647.939, 1256.820 1637.174, 1240.582 1633.841 C 1237.787 1633.268, 1233.925 1632.448, 1232 1632.020 C 1223.971 1630.233, 1213.084 1628.103, 1207 1627.128 C 1203.425 1626.555, 1197.350 1625.580, 1193.500 1624.960 C 1175.907 1622.131, 1140.411 1622.755, 1108.500 1626.454 C 1101.350 1627.283, 1091.675 1628.408, 1087 1628.955 C 1082.325 1629.501, 1074.225 1630.403, 1069 1630.958 C 1063.775 1631.513, 1055.225 1632.507, 1050 1633.166 C 1038.421 1634.627, 1008.440 1634.578, 995.780 1633.078 C 990.676 1632.473, 982.225 1631.515, 977 1630.948 C 971.775 1630.382, 964.913 1629.487, 961.750 1628.959 C 948.352 1626.724, 943.274 1625.816, 939.500 1624.982 C 937.300 1624.496, 933.025 1623.556, 930 1622.893 C 911.434 1618.826, 886.075 1610.995, 873 1605.290 C 871.075 1604.450, 867.925 1603.091, 866 1602.271 C 859.862 1599.655, 840.598 1589.798, 837.846 1587.865 C 836.386 1586.839, 834.910 1586, 834.566 1586 C 832.267 1586, 787.810 1553.534, 784 1549.073 C 783.725 1548.751, 780.575 1546.027, 777 1543.020 C 760.686 1529.298, 741.701 1510.317, 732.971 1499 C 731.062 1496.525, 729.269 1494.275, 728.986 1494 C 721.880 1487.084, 701.472 1457.137, 686.736 1432 C 679.557 1419.755, 666 1390.868, 666 1387.817 C 666 1387.356, 665.131 1385.071, 664.068 1382.739 C 660.100 1374.031, 650.430 1342.747, 644.985 1321 C 643.803 1316.281, 641.078 1299.337, 639.918 1289.500 C 639.399 1285.100, 638.684 1280.825, 638.329 1280 C 637.974 1279.175, 637.351 1249.250, 636.945 1213.500 C 636.483 1172.835, 635.776 1145.879, 635.057 1141.500 C 634.424 1137.650, 633.494 1132.250, 632.990 1129.500 C 631.893 1123.517, 625.873 1097.936, 623.577 1089.500 C 616.746 1064.403, 596.333 1023.406, 579.363 1000.704 C 576.688 997.126, 573.600 992.945, 572.500 991.413 C 570.449 988.558, 565.943 982.894, 565.010 982 C 564.723 981.725, 563.164 979.700, 561.546 977.500 C 524.872 927.646, 448.155 884.463, 373 871.370 C 365.196 870.010, 308.220 868.484, 302.500 869.482 M 2830 917.577 C 2816.605 918.701, 2803.647 920.318, 2797 921.694 C 2792.875 922.548, 2788.375 923.457, 2787 923.713 C 2782.821 924.490, 2770.795 928.082, 2765.617 930.098 C 2762.931 931.144, 2760.338 932, 2759.856 932 C 2758.716 932, 2751.841 935.024, 2740 940.733 C 2689.766 964.955, 2646.626 1007.217, 2624.129 1054.246 C 2613.213 1077.066, 2604.386 1103.474, 2601.146 1123 C 2600.552 1126.575, 2599.506 1132.875, 2598.820 1137 C 2594.831 1160.987, 2599.556 1209.659, 2608.480 1236.500 C 2614.299 1254.003, 2622.735 1273.545, 2628.555 1283 C 2640.094 1301.750, 2645.216 1309.785, 2647.665 1312.980 C 2695.527 1375.432, 2758.230 1407.868, 2842 1413.509 C 2876.995 1415.865, 2930.403 1401.418, 2970.500 1378.749 C 3006.369 1358.470, 3038.074 1326.896, 3058.777 1290.837 C 3071.180 1269.235, 3078.830 1251.360, 3084.814 1230 C 3092.467 1202.684, 3093.985 1192.257, 3093.984 1167 C 3093.984 1140.166, 3090.710 1116.298, 3083.916 1093.583 C 3081.713 1086.218, 3081.211 1084.820, 3078.684 1079 C 3077.848 1077.075, 3076.365 1073.475, 3075.389 1071 C 3065.290 1045.406, 3045.576 1016.369, 3020.500 990.154 C 2973.515 941.035, 2897.153 911.942, 2830 917.577 M 1103 919.073 C 1091.910 920.482, 1081.653 922.105, 1078 923.029 C 1076.075 923.515, 1070.625 924.863, 1065.888 926.024 C 1058.229 927.901, 1048.526 931.073, 1038 935.142 C 971.881 960.700, 915.421 1021.518, 895.101 1089.075 C 893.376 1094.809, 891.550 1100.850, 891.042 1102.500 C 881.049 1134.994, 879.521 1170.797, 886.625 1206 C 896.714 1255.994, 908.948 1283.465, 937.827 1320.972 C 1001.910 1404.201, 1127.612 1436.027, 1225 1393.680 C 1293.743 1363.789, 1349.689 1302.194, 1367.418 1236.882 C 1368.221 1233.922, 1369.812 1228.350, 1370.953 1224.500 C 1372.094 1220.650, 1373.437 1215.250, 1373.937 1212.500 C 1374.438 1209.750, 1375.634 1203.225, 1376.596 1198 C 1380.388 1177.392, 1378.565 1133.410, 1372.989 1111 C 1372.510 1109.075, 1371.590 1105.250, 1370.944 1102.500 C 1364.616 1075.547, 1341.603 1027.429, 1330.053 1017 C 1329.139 1016.175, 1326.700 1013.250, 1324.632 1010.500 C 1318.676 1002.578, 1306.085 988.955, 1299 982.767 C 1288.579 973.665, 1287.682 972.910, 1284 970.142 C 1282.075 968.695, 1280.275 967.281, 1280 967 C 1278.750 965.722, 1271.090 960.202, 1266.529 957.293 C 1263.763 955.529, 1261.027 953.729, 1260.449 953.293 C 1258.096 951.517, 1237.055 940.735, 1230 937.690 C 1218.640 932.786, 1196.485 925.645, 1186 923.508 C 1184.075 923.116, 1180.700 922.402, 1178.500 921.922 C 1161.772 918.272, 1121.313 916.745, 1103 919.073 M 1987.500 1574.679 C 1935.362 1577.293, 1907.130 1582.742, 1859.118 1599.456 C 1844.166 1604.661, 1842.638 1605.317, 1821.500 1615.603 C 1803.163 1624.527, 1787.214 1633.413, 1780.500 1638.446 C 1778.850 1639.683, 1773.675 1643.319, 1769 1646.526 C 1735.368 1669.595, 1696.621 1709.870, 1671.855 1747.500 C 1658.950 1767.110, 1636 1809.863, 1636 1814.296 C 1636 1815.013, 1635.605 1816.028, 1635.121 1816.550 C 1634.050 1817.708, 1624.595 1845.367, 1622.661 1853 C 1621.268 1858.500, 1621.268 1858.500, 1581.384 1858.177 C 1512.436 1857.618, 1490.712 1861.052, 1439 1880.683 C 1394.245 1897.672, 1335.208 1944.609, 1315.845 1978.595 C 1314.935 1980.193, 1311.371 1986, 1307.925 1991.500 C 1301.421 2001.880, 1288 2028.011, 1288 2030.295 C 1288 2031.013, 1287.579 2032.027, 1287.064 2032.550 C 1283.482 2036.187, 1271.124 2080.697, 1268.985 2097.666 C 1268.372 2102.525, 1267.450 2109.237, 1266.936 2112.582 C 1262.970 2138.362, 1267.266 2184.851, 1276.678 2218 C 1279.776 2228.909, 1287.965 2252.494, 1291.783 2261.500 C 1297.572 2275.156, 1318.162 2309.810, 1322.977 2314 C 1323.293 2314.275, 1325.093 2316.525, 1326.976 2319 C 1328.860 2321.475, 1331.773 2325.114, 1333.450 2327.086 C 1335.128 2329.058, 1338.071 2332.658, 1339.991 2335.086 C 1378.109 2383.278, 1454.413 2423.473, 1522 2430.965 C 1546.067 2433.633, 1827.849 2435.753, 1836.887 2433.334 C 1841.534 2432.090, 1839.666 2235.378, 1835 2234.603 C 1833.075 2234.283, 1816.286 2234.017, 1797.692 2234.011 C 1722.840 2233.987, 1691.680 2208.623, 1703.562 2157.391 C 1708.222 2137.294, 1710.120 2134.929, 1770.379 2074.086 C 1815.279 2028.750, 1835.639 2008.068, 1862 1981.014 C 1865.025 1977.909, 1871.989 1970.673, 1877.475 1964.934 C 1882.961 1959.196, 1894.665 1947.075, 1903.484 1938 C 1912.302 1928.925, 1926.714 1913.918, 1935.509 1904.652 C 1964.721 1873.873, 1981.108 1865.992, 2005.201 1871.130 C 2021.791 1874.669, 2025.071 1877.355, 2073.406 1927.003 C 2139.940 1995.344, 2161.997 2017.817, 2223.568 2080 C 2248.346 2105.025, 2269.940 2127.300, 2271.554 2129.500 C 2273.168 2131.700, 2274.783 2133.725, 2275.143 2134 C 2286.777 2142.889, 2289.231 2180.073, 2279.517 2200.265 C 2266.507 2227.307, 2248.746 2234, 2189.996 2234 C 2149.091 2234, 2149.091 2234, 2148.404 2237.662 C 2147.619 2241.847, 2148.427 2432.760, 2149.233 2433.567 C 2150.579 2434.912, 2456.528 2432.090, 2467.500 2430.631 C 2518.397 2423.860, 2594.229 2390.381, 2616 2365.069 C 2616.275 2364.749, 2619.425 2362.015, 2623 2358.994 C 2632.552 2350.920, 2643.231 2339.825, 2652.352 2328.500 C 2656.781 2323, 2660.667 2318.275, 2660.987 2318 C 2661.306 2317.725, 2663.802 2314.350, 2666.532 2310.500 C 2671.049 2304.131, 2673.334 2300.573, 2680.662 2288.500 C 2685 2281.354, 2697.722 2254.697, 2700.469 2247 C 2714.720 2207.059, 2720.488 2175.642, 2720.296 2139 C 2720.155 2112.007, 2718.344 2096.730, 2711.998 2069 C 2709.949 2060.047, 2705.486 2046.854, 2701.919 2039.206 C 2699.764 2034.584, 2698 2030.447, 2698 2030.013 C 2698 2025.155, 2667.060 1973.105, 2658.759 1964 C 2657.506 1962.625, 2654.010 1958.581, 2650.990 1955.014 C 2642.839 1945.386, 2628.624 1931.685, 2619 1924.182 C 2614.325 1920.538, 2610.275 1917.299, 2610 1916.984 C 2597.699 1902.922, 2540.355 1875.804, 2502 1865.911 C 2478.423 1859.829, 2466.979 1858.815, 2414.082 1858.114 C 2361.327 1857.416, 2367.746 1858.869, 2364.974 1847 C 2362.755 1837.504, 2358.887 1826.160, 2353.379 1813 C 2350.042 1805.026, 2335.212 1775.963, 2330.928 1769 C 2328.390 1764.875, 2324.791 1759.025, 2322.931 1756 C 2321.071 1752.975, 2317.727 1748.025, 2315.499 1745 C 2313.272 1741.975, 2310.111 1737.475, 2308.475 1735 C 2306.839 1732.525, 2303.941 1728.786, 2302.036 1726.692 C 2300.130 1724.597, 2297.430 1721.168, 2296.036 1719.072 C 2289.407 1709.107, 2257.080 1675.858, 2242.493 1664.003 C 2238.097 1660.430, 2233.825 1656.951, 2233 1656.271 C 2229.519 1653.405, 2210.296 1639.985, 2208 1638.818 C 2206.625 1638.120, 2202.258 1635.400, 2198.295 1632.774 C 2194.332 1630.148, 2190.814 1628, 2190.475 1628 C 2190.137 1628, 2187.873 1626.633, 2185.445 1624.962 C 2181.602 1622.318, 2157.042 1610, 2155.613 1610 C 2155.325 1610, 2150.232 1607.917, 2144.295 1605.371 C 2100.398 1586.549, 2063.027 1577.914, 2013 1575.036 C 2003.375 1574.482, 1995.050 1574.108, 1994.500 1574.204 C 1993.950 1574.300, 1990.800 1574.514, 1987.500 1574.679 M 1969.750 1967.272 C 1956.963 1980.071, 1935.925 2001.334, 1922.999 2014.522 C 1910.073 2027.710, 1879.473 2058.761, 1854.999 2083.524 C 1830.525 2108.287, 1805.127 2134.162, 1798.561 2141.024 C 1791.994 2147.886, 1783.463 2156.762, 1779.602 2160.750 C 1772.583 2168, 1772.583 2168, 1839.795 2168 C 1903.577 2168, 1955.113 2471.666, 1894.062 2487.760 C 1810.408 2509.812, 1723.570 2570.946, 1679.924 2638.513 C 1672.864 2649.442, 1669.730 2654.415, 1668.074 2657.317 C 1667.074 2659.068, 1664.042 2664.325, 1661.334 2669 C 1646.229 2695.085, 1633.530 2728.088, 1625.166 2763 C 1613.002 2813.770, 1610.350 2847.807, 1615.933 2881.500 C 1617.590 2891.501, 1620.928 2913.813, 1622.592 2926 C 1624.711 2941.522, 1624.126 2995.170, 1621.698 3008 C 1620.813 3012.675, 1619.125 3022.125, 1617.946 3029 C 1608.477 3084.223, 1585.028 3142.977, 1557.680 3180 C 1543.089 3199.753, 1541.180 3202.135, 1526.630 3218.744 C 1493.648 3256.395, 1456.677 3288.478, 1421.500 3309.973 C 1378.523 3336.235, 1336.564 3351.904, 1282.500 3361.880 C 1257.632 3366.469, 1256.821 3366.513, 1201.500 3366.211 C 1130.148 3365.821, 1115.526 3366.721, 1087 3373.256 C 995.750 3394.161, 910.783 3461.818, 869.461 3546.476 C 856.818 3572.378, 852.114 3586.527, 843.022 3626 C 830.455 3680.563, 841.346 3756.603, 869.592 3811.500 C 879.725 3831.195, 901.747 3865.019, 908.982 3872 C 909.267 3872.275, 911.966 3875.425, 914.981 3879 C 944.688 3914.233, 995.323 3948.175, 1041.556 3963.848 C 1055.363 3968.529, 1064.029 3970.954, 1081.500 3975.027 C 1110.265 3981.733, 1169.557 3982.786, 1192 3976.990 C 1193.925 3976.492, 1201.854 3974.492, 1209.621 3972.545 C 1257.913 3960.435, 1295.225 3941.927, 1335 3910.350 C 1375.821 3877.942, 1410.247 3832.575, 1430.877 3784 C 1451.498 3735.444, 1455.992 3708.595, 1456.009 3633.843 C 1456.019 3583.965, 1456.801 3575.108, 1464.024 3543 C 1472.229 3506.530, 1490.082 3462.715, 1510.271 3429.500 C 1514.782 3422.078, 1526.222 3404.795, 1528.142 3402.500 C 1529.062 3401.400, 1533.691 3395.550, 1538.428 3389.500 C 1562.293 3359.022, 1586.408 3335.632, 1609.051 3321 C 1643.695 3298.613, 1668.882 3288.516, 1725 3274.520 C 1754.034 3267.278, 1772.311 3263.454, 1796.500 3259.561 C 1802 3258.675, 1809.200 3257.508, 1812.500 3256.966 C 1819.017 3255.897, 1836.325 3253.662, 1850.723 3252.031 C 1930.376 3243.008, 2073.497 3243.501, 2149 3253.059 C 2172.686 3256.057, 2200.124 3260.257, 2213.651 3262.954 C 2236.107 3267.431, 2243.262 3269.006, 2268.721 3275.081 C 2286.663 3279.362, 2314.213 3288.245, 2333.500 3295.968 C 2354.283 3304.290, 2383.377 3322.522, 2402.964 3339.498 C 2417.203 3351.840, 2431.211 3365.963, 2440.160 3377 C 2480.787 3427.106, 2497.833 3458.880, 2515.001 3516.500 C 2519.168 3530.486, 2524.611 3556.872, 2526.965 3574.500 C 2527.552 3578.900, 2528.487 3607.475, 2529.042 3638 C 2530.148 3698.782, 2531.138 3710.715, 2537.007 3734 C 2591.302 3949.398, 2831.454 4048.241, 3010 3928.676 C 3017.006 3923.984, 3032.881 3912.321, 3034 3911.043 C 3034.275 3910.729, 3036.975 3908.501, 3040 3906.092 C 3043.025 3903.683, 3050.936 3896.209, 3057.581 3889.484 C 3103.454 3843.055, 3129.458 3792.894, 3142.852 3725 C 3147.857 3699.628, 3149.231 3669.508, 3146.501 3645 C 3143.262 3615.913, 3136.079 3587.544, 3125.107 3560.500 C 3118.874 3545.139, 3102.276 3515.627, 3096.250 3509.192 C 3095.563 3508.458, 3095 3507.471, 3095 3507 C 3095 3506.529, 3094.423 3505.548, 3093.717 3504.821 C 3093.011 3504.095, 3091.330 3501.925, 3089.981 3500 C 3088.632 3498.075, 3086.984 3495.825, 3086.319 3495 C 3085.654 3494.175, 3083.398 3491.207, 3081.305 3488.405 C 3056.414 3455.075, 3013.322 3419.412, 2975 3400.428 C 2972.105 3398.994, 2955.217 3391.089, 2949.849 3388.655 C 2947.841 3387.745, 2945.884 3387, 2945.500 3387 C 2945.116 3387, 2943.384 3386.354, 2941.651 3385.565 C 2937.599 3383.719, 2915.861 3376.580, 2910 3375.170 C 2874.024 3366.516, 2864.251 3365.754, 2800 3366.592 C 2751.676 3367.222, 2742.079 3366.906, 2721.500 3364.005 C 2704.471 3361.605, 2687.033 3358.573, 2678.250 3356.485 C 2674.813 3355.668, 2668.963 3354.294, 2665.250 3353.432 C 2661.537 3352.569, 2657.375 3351.497, 2656 3351.048 C 2654.625 3350.599, 2651.700 3349.735, 2649.500 3349.127 C 2639.850 3346.462, 2625.420 3341.695, 2624.550 3340.885 C 2624.028 3340.398, 2623.028 3340, 2622.330 3340 C 2620.043 3340, 2591.247 3326.360, 2582 3320.897 C 2579.525 3319.434, 2573.777 3316.047, 2569.227 3313.369 C 2555.507 3305.295, 2535.298 3291.406, 2528.097 3285.103 C 2526.775 3283.947, 2525.421 3283, 2525.087 3283 C 2524.753 3283, 2523.359 3281.987, 2521.990 3280.749 C 2520.620 3279.512, 2517.025 3276.497, 2514 3274.050 C 2499.350 3262.200, 2483.204 3246.779, 2471 3232.980 C 2466.875 3228.316, 2463.275 3224.275, 2463 3224 C 2456.264 3217.264, 2438.627 3194.194, 2430.127 3181 C 2426.761 3175.775, 2423.668 3171.047, 2423.253 3170.494 C 2422.417 3169.378, 2419.380 3163.858, 2415.830 3157 C 2414.548 3154.525, 2413.162 3152.350, 2412.750 3152.167 C 2412.338 3151.983, 2412 3151.153, 2412 3150.321 C 2412 3149.489, 2411.189 3147.614, 2410.198 3146.154 C 2408.417 3143.532, 2401.728 3130.023, 2398.608 3122.750 C 2391.905 3107.121, 2387.370 3095.486, 2385.065 3088 C 2380.261 3072.396, 2378.670 3066.704, 2375.566 3054 C 2372.365 3040.898, 2370.689 3032.506, 2367.981 3016 C 2365.743 3002.360, 2364.871 2986.431, 2364.917 2960 C 2364.962 2933.568, 2365.325 2927.456, 2368.060 2907 C 2368.611 2902.875, 2369.446 2896.125, 2369.915 2892 C 2370.384 2887.875, 2371.449 2881.125, 2372.283 2877 C 2375.357 2861.784, 2376.434 2844.017, 2375.058 2831.252 C 2373.273 2814.702, 2371.203 2798.491, 2370.014 2791.750 C 2369.456 2788.588, 2368.589 2783.637, 2368.088 2780.750 C 2367.586 2777.863, 2366.885 2774.150, 2366.531 2772.500 C 2363.762 2759.602, 2362.018 2752.165, 2361.020 2749 C 2360.587 2747.625, 2359.664 2744.475, 2358.969 2742 C 2356.499 2733.196, 2349.838 2713.433, 2347.934 2709.261 C 2346.870 2706.929, 2346 2704.759, 2346 2704.437 C 2346 2702.771, 2329.121 2670.553, 2322.195 2659 C 2313.856 2645.090, 2295.677 2619.584, 2288.329 2611.484 C 2287.323 2610.375, 2284.422 2607, 2281.882 2603.984 C 2258.465 2576.173, 2224.989 2549.096, 2186.109 2526.518 C 2174.905 2520.012, 2147.154 2506, 2145.472 2506 C 2145.201 2506, 2142.846 2505.066, 2140.239 2503.924 C 2137.633 2502.782, 2133.700 2501.062, 2131.500 2500.101 C 2127.740 2498.458, 2114.955 2494.266, 2091.250 2486.902 C 2081 2483.719, 2081 2483.719, 2080.922 2346.609 C 2080.879 2271.199, 2080.727 2200.632, 2080.585 2189.794 C 2080.365 2172.989, 2080.549 2170.003, 2081.835 2169.510 C 2082.665 2169.191, 2112.854 2168.660, 2148.922 2168.328 C 2184.990 2167.997, 2214.672 2167.578, 2214.881 2167.398 C 2215.397 2166.956, 2207.403 2158.804, 2144 2095.109 C 2114.025 2064.996, 2067.936 2018.678, 2041.581 1992.179 C 2015.225 1965.681, 1993.513 1944, 1993.331 1944 C 1993.149 1944, 1982.538 1954.472, 1969.750 1967.272 M 1117.500 2629.087 C 1112.550 2629.536, 1104.225 2630.436, 1099 2631.085 C 1090.481 2632.145, 1086.463 2632.897, 1072.500 2636.042 C 946.705 2664.383, 862.688 2795.292, 888.973 2922 C 908.312 3015.226, 969.356 3084.148, 1059.500 3114.534 C 1110.516 3131.731, 1175.288 3129.354, 1221.500 3108.589 C 1223.150 3107.848, 1227.425 3105.965, 1231 3104.406 C 1305.149 3072.069, 1350.744 3016.365, 1372.937 2931 C 1379.273 2906.628, 1381.162 2881.271, 1378.486 2856.500 C 1375.819 2831.802, 1375.279 2828.124, 1372.981 2819 C 1371.803 2814.325, 1370.598 2809.257, 1370.304 2807.738 C 1370.010 2806.219, 1369.371 2804.729, 1368.885 2804.429 C 1368.398 2804.128, 1368 2802.874, 1368 2801.641 C 1368 2800.408, 1367.642 2798.972, 1367.204 2798.450 C 1366.766 2797.928, 1365.832 2795.700, 1365.127 2793.500 C 1362.183 2784.308, 1355.018 2768.810, 1348.253 2757 C 1342.597 2747.125, 1332.505 2731.271, 1331.066 2730 C 1330.755 2729.725, 1329.391 2727.926, 1328.037 2726.002 C 1317.442 2710.957, 1288.656 2683.424, 1273.447 2673.789 C 1271.276 2672.413, 1266.226 2669.181, 1262.223 2666.605 C 1247.976 2657.437, 1214.673 2642.238, 1200.500 2638.436 C 1197.200 2637.551, 1192.925 2636.405, 1191 2635.890 C 1189.075 2635.375, 1185.250 2634.516, 1182.500 2633.980 C 1179.750 2633.444, 1175.475 2632.553, 1173 2632.001 C 1158.997 2628.877, 1134.172 2627.574, 1117.500 2629.087 M 2828 2629.080 C 2816.050 2630.610, 2805.542 2632.201, 2801 2633.167 C 2793.102 2634.846, 2787.571 2636.168, 2785 2636.993 C 2783.625 2637.434, 2779.800 2638.578, 2776.500 2639.536 C 2754.009 2646.064, 2727.285 2659.374, 2701.602 2676.838 C 2688.678 2685.626, 2682.547 2690.790, 2667.562 2705.508 C 2650.393 2722.371, 2629.278 2754.552, 2619.999 2778 C 2618.802 2781.025, 2616.930 2785.750, 2615.838 2788.500 C 2609.592 2804.240, 2606.684 2814.432, 2603.141 2833 C 2589.780 2903.040, 2610.268 2979.209, 2658.172 3037.587 C 2666.389 3047.600, 2688.184 3068.569, 2696 3073.980 C 2697.925 3075.313, 2699.725 3076.688, 2700 3077.036 C 2700.730 3077.959, 2717.739 3089.174, 2723 3092.202 C 2751.812 3108.780, 2786.996 3120.157, 2824.444 3125.005 C 2838.084 3126.771, 2858.006 3127.305, 2866 3126.118 C 2870.125 3125.506, 2876.650 3124.546, 2880.500 3123.985 C 2934.704 3116.088, 2993.733 3084.477, 3029.763 3044.051 C 3038.618 3034.116, 3052.702 3015.864, 3055.090 3011.230 C 3055.864 3009.728, 3056.760 3008.275, 3057.082 3008 C 3058.455 3006.827, 3069.965 2984.709, 3074.516 2974.500 C 3079.194 2964.006, 3087.545 2937.446, 3090.081 2925 C 3090.697 2921.975, 3091.634 2917.700, 3092.163 2915.500 C 3095.110 2903.229, 3096.653 2872.340, 3095.085 2857 C 3092.697 2833.646, 3085.816 2802.250, 3080.511 2790.500 C 3079.766 2788.850, 3078.186 2785.025, 3077.001 2782 C 3072.680 2770.974, 3059.024 2744.893, 3054.747 2739.500 C 3054.311 2738.950, 3050.252 2733.570, 3045.727 2727.545 C 3032.526 2709.968, 3006.877 2684.843, 2992.363 2675.271 C 2938.096 2639.483, 2878.195 2622.649, 2828 2629.080 M 3806.975 3735.046 C 3806.373 3736.172, 3804.341 3741.343, 3802.461 3746.538 C 3789.262 3783.001, 3767.162" stroke="none" fill="#06a5c3" fill-rule="evenodd"/>
</svg>