<svg xmlns="http://www.w3.org/2000/svg" width="1331" height="1177" viewBox="0 0 1331 1177" version="1.1"><path d="M 464.265 25.542 C 435.604 33.260, 418.203 65.294, 428.155 92.015 C 444.976 137.179, 504.879 140.496, 525.181 97.387 C 543.491 58.511, 506.005 14.300, 464.265 25.542 M 628 25.502 C 597.751 32.247, 576.418 58.685, 572.988 93.678 C 568.595 138.501, 527.487 167.056, 481.640 157.134 C 456.010 151.587, 437.293 160.271, 425.448 183.206 C 409.527 214.031, 374.350 225.514, 342.500 210.283 C 286.206 183.363, 237.364 233.364, 267.561 287 C 286.555 320.738, 275.081 355.917, 239.486 373.074 C 168.117 407.475, 197.371 504.802, 275.246 492.047 C 317.297 485.160, 336.620 431.926, 310.610 394.621 C 285.671 358.851, 299.666 314.828, 336.500 313.184 C 358.553 312.200, 369.001 323.563, 370.025 349.643 C 372.405 410.262, 457.421 414.912, 463.584 354.760 C 466.786 323.503, 440.834 300.840, 407.110 305.444 C 390.288 307.741, 384.063 306.240, 376.725 298.117 C 352.191 270.961, 379.072 233.033, 420.355 236.556 C 428.404 237.243, 430.852 238.222, 446.305 246.937 C 475.044 263.142, 509.507 247.094, 520.171 212.538 C 533.502 169.347, 575.864 147.076, 616.500 161.896 C 636.896 169.335, 655.212 169.053, 677.500 160.959 C 715.693 147.089, 758.718 171.061, 771.819 213.510 C 780.263 240.867, 806.223 257.365, 832.201 251.881 C 837.999 250.658, 840.292 249.647, 853.099 242.668 C 891.365 221.815, 939.064 256.797, 920.086 291.796 C 912.970 304.920, 905.041 308.013, 884.879 305.527 C 851.520 301.416, 828 320.426, 828 351.500 C 828 413.218, 917.737 412.406, 920.957 350.659 C 923.138 308.819, 963.050 298.158, 986.976 333.023 C 999.039 350.601, 997.467 370.500, 982.254 392.806 C 955.182 432.497, 973.536 484.669, 1017.161 492.027 C 1094.202 505.022, 1122.516 406.818, 1051.584 372.631 C 1015.298 355.142, 1004.997 323.548, 1023.725 287.179 C 1052.329 231.628, 1003.374 181.264, 948.734 210.030 C 918.730 225.825, 885.457 215.288, 867.983 184.456 C 853.588 159.058, 835.483 151.249, 805.784 157.627 C 766.054 166.160, 725.248 138.365, 719.894 99.125 C 716.744 76.030, 716.176 73.659, 711.573 64.388 C 696.530 34.084, 661.858 17.952, 628 25.502 M 798 26.276 C 760.397 39.143, 749.370 84.207, 777.007 112.068 C 806.768 142.068, 857.407 125.953, 864.990 84.068 C 871.664 47.203, 833.375 14.171, 798 26.276 M 574.951 229.362 C 559.882 233.426, 556.247 239.221, 548.899 270.897 C 546.169 282.665, 540.628 305.390, 536.586 321.397 C 527.056 359.137, 513.851 413.475, 487.348 524 C 483.721 539.125, 477.471 564.775, 473.459 581 C 469.446 597.225, 465.610 613.352, 464.934 616.838 C 462.397 629.920, 459.765 627.107, 445.177 595.719 C 426.507 555.549, 430.741 557.663, 372 559.191 C 240.183 562.618, 225.536 560.291, 204.917 532.647 C 144.583 451.754, 21.727 489.066, 24.304 587.500 C 26.782 682.172, 144.123 717.085, 202.179 640.424 C 224.240 611.292, 223.434 611.500, 314.500 611.500 C 404.058 611.500, 393.890 608.283, 408.516 641.243 C 412.240 649.634, 419.756 666.136, 425.219 677.914 C 430.681 689.691, 436.473 702.655, 438.089 706.723 C 446.709 728.424, 452.887 733.956, 468.500 733.956 C 486.841 733.956, 492.233 727.533, 498.981 697.654 C 503.764 676.477, 519.867 609.594, 523.938 594 C 525.589 587.675, 529.003 573.500, 531.524 562.500 C 534.045 551.500, 538.544 532.375, 541.521 520 C 544.498 507.625, 552.578 473.425, 559.478 444 C 574.732 378.939, 577.530 369.667, 580.088 375.691 C 582.923 382.366, 599.536 454.417, 613.504 520.613 C 615.374 529.474, 619.663 549.274, 623.035 564.613 C 626.407 579.951, 643.693 662.026, 661.448 747.002 C 681.368 842.338, 694.602 903.530, 696.007 906.795 C 704.046 925.482, 733.076 927.175, 743.944 909.591 C 745.166 907.613, 752.033 882.413, 760.894 847.383 C 769.087 814.997, 783.074 759.925, 791.976 725 C 800.878 690.075, 811.517 648, 815.617 631.500 C 841.963 525.477, 839.169 530.280, 854.588 564.500 C 871.298 601.589, 874.024 606.222, 880.977 609.361 C 882.764 610.168, 907.413 610.663, 965.500 611.058 C 1055.933 611.674, 1051.901 611.388, 1065.271 618.137 C 1072.930 622.003, 1078.829 627.509, 1086.553 638 C 1146.577 719.535, 1269.036 681.565, 1266.790 582.115 C 1264.666 488.051, 1147.320 453.842, 1089.112 530.317 C 1067.271 559.012, 1066.173 559.311, 982.500 559.338 C 907.673 559.363, 911.683 559.932, 906.124 548.500 C 898.845 533.528, 873.197 476.460, 866.843 461.099 C 858.973 442.071, 857.855 440.005, 853.114 435.722 C 842.885 426.481, 826.285 427.353, 815.641 437.691 C 810.113 443.061, 810.087 443.138, 799.565 485 C 794.243 506.175, 787.456 532.950, 784.484 544.500 C 781.512 556.050, 773.400 588.450, 766.459 616.500 C 759.518 644.550, 751.893 674.925, 749.515 684 C 747.136 693.075, 741.997 713.559, 738.094 729.521 C 724.048 786.965, 723.177 789.354, 720.696 777.250 C 718.273 765.425, 704.910 701.757, 696.507 662 C 692.380 642.475, 687.235 617.725, 685.074 607 C 682.912 596.275, 679.283 579.175, 677.010 569 C 674.737 558.825, 669.283 533.400, 664.891 512.500 C 630.975 351.116, 607.827 247.290, 604.328 240.861 C 598.754 230.620, 587.141 226.074, 574.951 229.362 M 112.547 327.224 C 84.457 330.785, 62.947 354.513, 63.024 381.855 C 63.164 431.100, 122.161 456.089, 156.500 421.447 C 193.065 384.559, 163.318 320.789, 112.547 327.224 M 1158 329.305 C 1117.963 340.693, 1105.276 391.566, 1135.111 421.087 C 1170.332 455.939, 1228 431.673, 1228 382 C 1228 345.885, 1192.819 319.401, 1158 329.305 M 247 679.011 C 189.581 688.916, 182.551 768.851, 236.678 796.374 C 275.291 816.008, 287.259 851.124, 267.315 886.263 C 237.432 938.913, 287.293 987.647, 343.500 960.727 C 375.087 945.598, 407.705 956.857, 424.907 988.825 C 437.503 1012.234, 457.479 1020.534, 485.500 1014 C 527.577 1004.189, 567.473 1033.905, 572.616 1078.888 C 583.294 1172.276, 707.265 1172.170, 718.488 1078.763 C 723.979 1033.058, 761.848 1005.091, 806.040 1014.104 C 836.183 1020.252, 854.233 1012.498, 866.952 987.936 C 882.536 957.844, 916.491 946.551, 947.500 961.149 C 1003.835 987.670, 1052.009 941.408, 1024.812 886.907 C 1005.326 847.860, 1015.015 816.176, 1051.871 798.411 C 1116.519 767.253, 1100.267 678.204, 1030 678.577 C 977.893 678.854, 950.601 735.251, 981.571 778.652 C 1004.477 810.751, 993.138 852.926, 960.230 858.032 C 937.654 861.535, 923.053 847.672, 921.020 820.805 C 919.081 795.165, 904.501 778.333, 881.392 775.056 C 837.282 768.800, 810.755 820.009, 841.230 852.587 C 853.598 865.809, 861.817 867.888, 892.520 865.560 C 929.878 862.728, 936.077 912.560, 900.542 930.054 C 882.793 938.792, 869.810 938.068, 848.500 927.152 C 814.129 909.546, 782.113 923.318, 770.946 960.513 C 761.639 991.513, 730.430 1015.636, 700 1015.354 C 690.064 1015.261, 688.749 1014.939, 671.500 1008.363 C 654.904 1002.037, 636.152 1002.540, 615.500 1009.866 C 573.993 1024.590, 533.136 1002.815, 520.061 959 C 509.599 923.946, 476.382 910.315, 442.748 927.273 C 421.237 938.119, 409.384 938.730, 391.476 929.914 C 350.695 909.837, 363.426 856.119, 406.500 866.520 C 443.814 875.530, 476.037 836.088, 459.451 801.707 C 438.190 757.635, 374.738 769.024, 369.907 817.779 C 367.496 842.115, 365.204 847.680, 355.117 853.700 C 329.315 869.100, 298 847.611, 298 814.504 C 298 798.183, 299.951 792.540, 311.548 775.316 C 343.692 727.574, 304.496 669.094, 247 679.011 M 113.477 734.093 C 66.727 737.603, 45.677 795.042, 79.174 827.691 C 94.457 842.588, 116.742 848.108, 135.243 841.578 C 196.116 820.094, 177.724 729.268, 113.477 734.093 M 1168.500 733.805 C 1127.445 736.931, 1104.869 786.445, 1128.899 820.662 C 1145.601 844.446, 1178.730 851.254, 1202.113 835.707 C 1250.913 803.261, 1226.545 729.385, 1168.500 733.805 M 466 1045.583 C 426.146 1056.097, 412.828 1105.684, 442.331 1133.710 C 471.275 1161.203, 518.479 1147.410, 528.468 1108.540 C 537.779 1072.312, 501.868 1036.120, 466 1045.583 M 802.206 1045.557 C 758.380 1057.353, 747.844 1114.799, 784.979 1139.486 C 819.199 1162.235, 865.368 1137.492, 865.185 1096.500 C 865.037 1063.097, 833.079 1037.247, 802.206 1045.557" stroke="none" fill="#04a3bb" fill-rule="evenodd"/></svg>