<svg xmlns="http://www.w3.org/2000/svg" width="2000" height="2000" viewBox="0 0 2000 2000" version="1.1"><path d="" stroke="none" fill="#134450" fill-rule="evenodd"/><path d="M 986.470 400.971 C 915.718 411.061, 895.293 506.002, 955 547.247 C 970.414 557.895, 971.845 559.980, 972.744 573.103 C 978.386 655.404, 862.318 689.228, 811.556 620.076 C 803.679 609.346, 803.487 602.341, 810.663 587.549 C 839.556 527.990, 797.134 461.496, 733.987 467.365 C 633.544 476.700, 633.230 623.605, 733.642 628.909 C 758.128 630.202, 762.313 632.955, 770.261 653 C 795.385 716.365, 725.130 796.051, 664.472 772.989 C 663.041 772.445, 660.890 772, 659.693 772 C 654.763 772, 639.194 763.030, 635.016 757.783 L 631 752.739 631 741.931 C 631 727.510, 627.879 712.930, 622.453 702 C 585.551 627.664, 470.760 652.111, 467.256 735.053 C 464.762 794.068, 525.612 835.973, 580.239 812.861 C 583.958 811.287, 590.263 808.606, 594.250 806.903 C 607.072 801.426, 615.475 804.351, 630.500 819.521 C 682.961 872.490, 658.491 959.038, 587.500 971.606 C 564.803 975.624, 559.387 972.842, 543.242 948.872 C 507.645 896.024, 416.919 916.014, 401.968 980 C 381.927 1065.763, 496.308 1120.241, 544.814 1048.036 C 557.249 1029.526, 563.143 1026.193, 581.500 1027.293 C 628.829 1030.130, 667.279 1080.239, 658.065 1127.073 C 648.825 1174.042, 616.796 1203.515, 589.121 1190.516 C 527.514 1161.579, 459.288 1206.372, 468.005 1270.034 C 482.108 1373.041, 625.280 1363.800, 630.440 1259.550 C 630.820 1251.877, 631.534 1246.833, 632.436 1245.457 C 634.628 1242.111, 639.739 1237.283, 642.757 1235.707 C 644.266 1234.919, 647.525 1233.133, 650 1231.738 C 707.629 1199.266, 791.796 1268.350, 774.588 1334 C 767.100 1362.565, 761.474 1368.629, 741.137 1370.054 C 712.881 1372.033, 705.327 1374.263, 691.887 1384.592 C 639.106 1425.156, 651.837 1508.197, 713.884 1528.072 C 785.584 1551.040, 844.326 1479.035, 810.408 1409.756 C 802.019 1392.622, 809.187 1376.560, 833.318 1358.420 C 883.318 1320.834, 961.094 1348.758, 971.610 1408.071 C 975.942 1432.502, 973.944 1438.506, 957.500 1450.486 C 889.914 1499.725, 918.694 1599.381, 1000.500 1599.381 C 1079.574 1599.381, 1112.823 1495.116, 1046.982 1453.618 C 1036.760 1447.174, 1035.170 1445.776, 1032.022 1440.461 L 1028.500 1434.513 1028.564 1422.006 C 1028.957 1344.540, 1134.362 1311.950, 1184.316 1373.849 C 1196.788 1389.305, 1198.193 1396.469, 1191.511 1410.536 C 1189.430 1414.916, 1186.866 1420.975, 1185.814 1424 C 1161.757 1493.142, 1232.433 1556.291, 1297.500 1523.792 C 1372.853 1486.154, 1350.510 1373.729, 1267.020 1370.428 C 1244.654 1369.544, 1242.511 1368.406, 1234.687 1353.258 C 1197.845 1281.924, 1279.829 1197.833, 1352.409 1232.512 C 1366.686 1239.334, 1370.936 1245.166, 1370.984 1258 C 1371.313 1346.608, 1485.485 1375.663, 1525.042 1297.206 C 1561.617 1224.663, 1485.462 1154.702, 1409.822 1191.357 C 1393.138 1199.441, 1379.731 1193.064, 1360.718 1168 C 1319.163 1113.221, 1354.432 1030.839, 1420.964 1027.277 C 1438.514 1026.337, 1441.913 1028.178, 1453.454 1044.869 C 1481.347 1085.211, 1531.558 1092.798, 1571.500 1062.708 C 1577.787 1057.972, 1578.903 1056.834, 1585.969 1047.961 C 1611.432 1015.981, 1604.966 962.259, 1572.690 937.635 C 1532.654 907.091, 1481.097 913.603, 1455 952.500 C 1443.282 969.965, 1440.689 971.504, 1423 971.493 C 1350.385 971.445, 1316.656 879.394, 1368.529 822.830 C 1386.182 803.581, 1394.064 801.021, 1410.500 809.197 C 1469.624 838.610, 1536.118 798.679, 1533.761 735.175 C 1529.919 631.633, 1371 633.688, 1371 737.280 C 1371 757.643, 1360.964 767.489, 1334.500 773.088 C 1273.320 786.033, 1214.825 728.057, 1226.939 666.481 C 1229.901 651.423, 1240.385 632.519, 1247.228 629.896 C 1247.377 629.838, 1255.150 629.453, 1264.500 629.041 C 1371.741 624.305, 1368.822 468.285, 1261.500 468.703 C 1198.620 468.947, 1164.059 526.828, 1190.514 587.586 C 1199.686 608.651, 1193.975 622.323, 1168.352 640.636 C 1111.736 681.100, 1031.083 645.752, 1028.230 579.226 C 1027.504 562.302, 1028.967 559.510, 1044.500 548.175 C 1059.411 537.293, 1061.204 535.730, 1065.679 529.710 C 1109.703 470.479, 1060.446 390.421, 986.470 400.971 M 996.240 644.365 C 984.232 662.628, 965.271 679.413, 945.422 689.349 C 908.751 707.707, 874.775 709.081, 834.110 693.851 C 820.049 688.585, 818.351 688.567, 819.640 693.702 C 823.482 709.009, 800.112 760.648, 780.409 780.391 C 759.726 801.115, 714.562 820.968, 693.934 818.403 C 687.804 817.641, 687.239 818.990, 690.681 826.169 C 719.422 886.109, 698.140 965.302, 645.250 995.221 C 638.433 999.077, 638.587 999.823, 647.437 1005.828 C 701.669 1042.624, 720.119 1117.790, 689.468 1177.062 L 688.052 1179.801 696.776 1180.941 C 719.229 1183.875, 727.898 1186.420, 745.500 1195.248 C 787.619 1216.372, 816.089 1257.382, 819.822 1302.306 C 820.621 1311.916, 819.786 1311.667, 833.015 1306.237 C 886.538 1284.265, 949.590 1298.256, 985.171 1340 C 993.039 1349.231, 997.135 1354.656, 998.950 1358.250 C 1000.834 1361.982, 1001.249 1361.796, 1004.538 1355.750 C 1022.434 1322.850, 1065.456 1298.368, 1109 1296.305 C 1130.351 1295.293, 1167.267 1302.470, 1177.471 1309.617 C 1181.017 1312.101, 1182 1311.345, 1182 1306.131 C 1182 1281.885, 1197.689 1244.714, 1216.745 1223.813 C 1237.665 1200.867, 1267.975 1185.621, 1300.886 1181.490 C 1314.150 1179.825, 1313.611 1180.109, 1311.620 1175.831 C 1286.868 1122.651, 1296.969 1058.079, 1335.961 1020.227 C 1342.978 1013.415, 1356.125 1003, 1357.707 1003 C 1358.728 1003, 1362 999.775, 1362 998.769 C 1362 998.454, 1360.759 997.763, 1359.243 997.235 C 1308.786 979.645, 1283.268 889.090, 1310.895 825.667 C 1312.053 823.009, 1313 820.512, 1313 820.118 C 1313 819.723, 1307.938 818.840, 1301.750 818.154 C 1283.680 816.151, 1276.069 813.963, 1257.298 805.376 C 1215.514 786.263, 1184.718 741.663, 1182.554 697.131 C 1182.323 692.384, 1181.767 688.587, 1181.317 688.694 C 1180.868 688.800, 1174.934 690.947, 1168.131 693.464 C 1105.180 716.757, 1039.766 698.010, 1006.199 647.058 L 1000.328 638.146 996.240 644.365 M 898.094 718.163 C 896.508 721.648, 893.293 728.775, 890.948 734 C 888.602 739.225, 884.013 749.125, 880.749 756 C 877.485 762.875, 873.995 770.525, 872.994 773 C 871.993 775.475, 867.494 785.375, 862.995 795 C 858.497 804.625, 851.421 820.150, 847.271 829.500 C 843.121 838.850, 834.163 857.921, 827.363 871.879 C 811.949 903.523, 811.570 900.053, 830.750 902.877 C 846.392 905.181, 868.417 908.972, 889.500 912.990 C 900.587 915.103, 914.501 917.555, 932 920.478 C 937.225 921.351, 952.075 924.046, 965 926.467 C 1015.682 935.962, 1013.305 936.068, 1007.695 924.568 C 1005.663 920.402, 1004 916.745, 1004 916.440 C 1004 915.498, 984.429 876.816, 981.071 871.121 C 975.622 861.880, 978.577 860.362, 1004 859.345 C 1154.255 853.335, 1214.180 1050.352, 1088.195 1136.157 C 1018.038 1183.939, 921.472 1173.763, 854.223 1111.500 C 828.986 1088.134, 795.702 1031.033, 791.590 1004.050 C 791.217 1001.602, 790.427 999.014, 789.834 998.300 C 780.431 986.970, 790.784 1059.420, 802.902 1089.750 C 804.056 1092.638, 805.939 1097.362, 807.087 1100.250 C 822.640 1139.382, 862.473 1185.667, 898.909 1206.947 C 962.367 1244.008, 1031.089 1249.969, 1101.500 1224.520 C 1198.507 1189.457, 1261.652 1081.808, 1246.984 976.500 C 1244.918 961.667, 1242.981 951.251, 1241.128 945 C 1240.068 941.425, 1238.262 935.268, 1237.116 931.319 C 1219.487 870.594, 1162.631 807.581, 1106.449 786.505 C 1045.863 763.775, 1001.219 760.715, 940.227 775.110 C 933.759 776.636, 934.964 778.067, 925.402 757.515 C 903.531 710.506, 902.351 708.805, 898.094 718.163" stroke="none" fill="#0aa3bb" fill-rule="evenodd"/></svg>