<svg xmlns="http://www.w3.org/2000/svg" width="2956" height="2860" viewBox="0 0 2956 2860" version="1.1"><path d="M 1357.500 261.077 C 1333.248 262.829, 1315.823 267.503, 1295.558 277.691 C 1287.692 281.645, 1275.415 289.210, 1274 290.973 C 1273.725 291.316, 1271.925 292.687, 1270 294.020 C 1265.509 297.129, 1260.036 301.958, 1252.464 309.493 C 1206.594 355.139, 1192.317 420.469, 1213.156 489.351 C 1215.635 497.543, 1215.608 497.622, 1206.728 508.500 C 1163.533 561.409, 1109.807 584.033, 1063.003 569.023 C 1035.396 560.169, 1007.955 561.413, 985.819 572.523 C 975.243 577.830, 970.488 581.434, 959.457 592.497 C 951.134 600.846, 949.450 603.338, 940.195 621 C 926.911 646.350, 917.311 656.431, 894.500 668.986 C 852.996 691.830, 812.945 691.142, 771.796 666.880 C 769.110 665.296, 766.477 664, 765.945 664 C 765.413 664, 763.071 663.153, 760.739 662.118 C 737.031 651.595, 696.290 653.037, 675.789 665.124 C 673.107 666.706, 670.686 668, 670.411 668 C 665.457 668, 640.750 690.096, 632.610 701.808 C 605.975 740.127, 606.112 779.190, 633.037 823.060 C 635.767 827.508, 638 831.550, 638 832.043 C 638 832.536, 638.884 834.513, 639.964 836.436 C 662.791 877.078, 647.350 941.787, 606.405 977.069 C 603.077 979.937, 591.404 988, 590.580 988 C 590.289 988, 587.178 989.315, 583.668 990.923 C 580.159 992.530, 575.448 994.341, 573.201 994.946 C 566.489 996.753, 553.199 1004.186, 545.500 1010.438 C 528.729 1024.057, 516.944 1039.839, 511.064 1056.552 C 505.109 1073.481, 503.690 1096.015, 507.448 1114 C 514.351 1147.036, 514.392 1154.451, 507.813 1179.965 C 501.968 1202.632, 479.250 1230.836, 459.500 1239.945 C 438.805 1249.489, 441.298 1249.262, 423.338 1243.240 C 400.592 1235.614, 391.364 1234, 370.503 1234 C 352.658 1234, 337.186 1235.862, 321.500 1239.897 C 307.572 1243.480, 276.566 1257.923, 272 1262.955 C 271.725 1263.258, 269.695 1264.728, 267.490 1266.223 C 254.797 1274.822, 233.810 1298.233, 223.658 1315.115 C 203.357 1348.876, 192.308 1400.492, 198.746 1431.500 C 199.431 1434.800, 200.675 1441.001, 201.510 1445.279 C 209.030 1483.786, 234.075 1522.585, 267.500 1547.506 C 269.700 1549.147, 271.725 1550.720, 272 1551.003 C 276.011 1555.133, 301.660 1567.665, 314.979 1572.002 C 353.029 1584.394, 385.165 1583.930, 427.500 1570.379 C 470.394 1556.649, 522.731 1624.908, 511.167 1679.500 C 510.468 1682.800, 509.046 1689.325, 508.005 1694 C 498.937 1734.762, 507.699 1766.846, 535.422 1794.390 C 545.092 1803.998, 567.404 1818, 573.044 1818 C 575.067 1818, 592.284 1826.700, 598.314 1830.770 C 635.698 1856, 659.178 1913.392, 649.139 1955 C 646.268 1966.901, 640.399 1980.233, 629.991 1998.500 C 606.842 2039.128, 607.588 2072.081, 632.512 2109.913 C 653.262 2141.410, 699.507 2163.269, 732 2156.939 C 752.340 2152.977, 765.372 2148.544, 776.049 2141.957 C 814.274 2118.375, 872.324 2122.461, 908.700 2151.294 C 919.684 2160, 926.247 2168.103, 933.978 2182.500 C 936.341 2186.900, 939.849 2193.425, 941.774 2197 C 965.401 2240.873, 1007.041 2257.508, 1059.500 2244.029 C 1113.277 2230.211, 1163.499 2250.669, 1205.590 2303.540 C 1216.843 2317.674, 1216.931 2317.965, 1213.178 2328.736 C 1178.957 2426.970, 1236.923 2528.810, 1339.481 2550.637 C 1382.531 2559.799, 1440.211 2547.640, 1470.232 2523.074 C 1470.930 2522.504, 1474.875 2519.392, 1479 2516.160 C 1488.443 2508.759, 1501.848 2494.804, 1507.970 2486 C 1509.308 2484.075, 1510.672 2482.275, 1511 2482 C 1513.665 2479.765, 1521.809 2464.737, 1527.297 2451.927 C 1538.470 2425.847, 1543.241 2397.008, 1540.525 2371.972 C 1538.338 2351.820, 1537.972 2350.076, 1531.563 2329.317 C 1528.628 2319.812, 1529.041 2316.310, 1533.960 2308.999 C 1541.922 2297.165, 1557.288 2280.419, 1567 2272.993 C 1569.475 2271.100, 1571.725 2269.270, 1572 2268.926 C 1573.118 2267.527, 1590.906 2256.184, 1596.500 2253.304 C 1619.314 2241.555, 1650.483 2236.627, 1671.500 2241.446 C 1674.800 2242.203, 1682.675 2244.034, 1689 2245.515 C 1712.775 2251.083, 1735.124 2249.194, 1754.715 2239.960 C 1778.069 2228.953, 1788.962 2217.640, 1803.783 2189 C 1834.484 2129.671, 1902.342 2109.197, 1963.760 2140.730 C 2032.353 2175.949, 2097.830 2152.339, 2123.863 2083 C 2133.718 2056.751, 2129.686 2025.386, 2112.761 1996.652 C 2110.444 1992.719, 2107.762 1988.150, 2106.801 1986.500 C 2103.900 1981.521, 2098 1969.129, 2098 1968.015 C 2098 1967.442, 2097.594 1966.191, 2097.097 1965.236 C 2096.601 1964.281, 2095.737 1961.700, 2095.177 1959.500 C 2094.617 1957.300, 2093.647 1953.561, 2093.021 1951.191 C 2091.656 1946.015, 2091.555 1916.451, 2092.886 1911.208 C 2093.403 1909.169, 2094.384 1905.025, 2095.066 1902 C 2095.748 1898.975, 2096.634 1895.825, 2097.036 1895 C 2097.438 1894.175, 2098.238 1892.375, 2098.813 1891 C 2107.751 1869.651, 2119.717 1851.785, 2132.922 1840.069 C 2143.175 1830.973, 2145.445 1829.668, 2174.940 1815.905 C 2225.104 1792.498, 2247.285 1743.333, 2232.873 1687.500 C 2222.042 1645.540, 2244.145 1595.588, 2283.493 1573.100 C 2297.060 1565.346, 2296.228 1565.398, 2316.757 1570.994 C 2366.009 1584.418, 2396.703 1584.370, 2434 1570.810 C 2464.227 1559.820, 2492.474 1539.099, 2510.762 1514.500 C 2513.624 1510.650, 2516.318 1507.050, 2516.747 1506.500 C 2524.800 1496.195, 2536.898 1468.703, 2540.949 1451.500 C 2541.596 1448.750, 2542.534 1444.925, 2543.032 1443 C 2546.321 1430.284, 2547.568 1394.029, 2545.138 1381.750 C 2544.512 1378.587, 2543.515 1373.412, 2542.921 1370.250 C 2539.717 1353.164, 2529.591 1328.750, 2518.971 1312.500 C 2504.912 1290.988, 2488.666 1274.152, 2471.103 1262.894 C 2466.921 1260.214, 2463.041 1257.645, 2462.481 1257.187 C 2459.451 1254.707, 2437.767 1244.955, 2427.500 1241.456 C 2398.271 1231.492, 2349.182 1232.148, 2319 1242.907 C 2296.406 1250.960, 2280.893 1244.340, 2256.931 1216.418 C 2234.325 1190.074, 2226.719 1159.450, 2233.855 1123.500 C 2245.575 1064.459, 2225.831 1022.437, 2175 998.236 C 2168.125 994.963, 2160.025 991.105, 2157 989.663 C 2142.077 982.552, 2129.234 972.299, 2120.471 960.500 C 2118.837 958.300, 2116.919 955.887, 2116.208 955.137 C 2087.192 924.516, 2084.228 863.779, 2109.661 821 C 2130.669 785.663, 2133.992 756.127, 2120.740 722.500 C 2108.412 691.217, 2081.626 668.007, 2045 656.868 C 2022.772 650.109, 1987.805 657.270, 1956.500 674.993 C 1919.467 695.958, 1856.617 684, 1822.348 649.469 C 1815.669 642.739, 1813.311 639.357, 1806.939 627.361 C 1796.544 607.791, 1791.835 600.886, 1782.767 591.906 C 1755.758 565.164, 1725.005 557.686, 1685.392 568.230 C 1667.508 572.991, 1640.334 574.375, 1628.500 571.128 C 1593.885 561.631, 1566.746 544.199, 1545.329 517.705 C 1542.126 513.742, 1539.255 510.275, 1538.950 510 C 1531.252 503.065, 1528.669 493.619, 1531.859 484.067 C 1533.741 478.431, 1536.799 465.873, 1539.179 454 C 1540.922 445.309, 1540.921 410.685, 1539.178 402 C 1536.473 388.518, 1531.735 371.922, 1528.331 364 C 1525.322 356.997, 1518.010 342.925, 1516.900 342 C 1516.570 341.725, 1515.747 340.452, 1515.072 339.171 C 1514.397 337.890, 1513.230 336.090, 1512.478 335.171 C 1511.726 334.252, 1508.949 330.583, 1506.306 327.018 C 1500.793 319.581, 1482.428 300.728, 1476.500 296.419 C 1474.300 294.820, 1472.275 293.283, 1472 293.003 C 1471.380 292.372, 1465.124 288.307, 1458.500 284.230 C 1434.388 269.390, 1396.059 258.842, 1371 260.151 C 1369.625 260.223, 1363.550 260.640, 1357.500 261.077 M 1018.500 288.479 C 1017.950 288.655, 1014.125 289.574, 1010 290.520 C 998.367 293.188, 989.939 297.218, 975.632 306.950 C 878.489 373.030, 956.100 527.928, 1067.598 490.499 C 1155.205 461.090, 1163.321 338.837, 1080.433 297.173 C 1065.404 289.619, 1030.308 284.692, 1018.500 288.479 M 1694 289.102 C 1642.398 297.248, 1604.605 344.061, 1607.297 396.500 C 1611.925 486.664, 1720.266 529.537, 1783 466.031 C 1806.058 442.689, 1818.589 405.360, 1812.947 376.826 C 1810.333 363.609, 1809.726 361.173, 1807.759 356 C 1789.617 308.305, 1743.639 281.266, 1694 289.102 M 1267 583.136 C 1220.087 590.802, 1194.032 602.772, 1168.433 628.418 C 1152.629 644.252, 1150.657 648.102, 1139.703 684.500 C 1125.174 732.779, 1057.979 770.426, 1014 754.929 C 995.516 748.415, 986.703 744.366, 977.038 737.946 C 935.039 710.049, 869.551 718.937, 844.008 756 C 842.682 757.925, 841.303 759.725, 840.943 760 C 840.584 760.275, 838.458 763.875, 836.218 768 C 832.346 775.130, 831.091 778.544, 825.923 796 C 816.949 826.317, 794.393 848.971, 763.290 858.908 C 742.135 865.665, 724.616 879.846, 709.823 902.187 C 700.301 916.566, 696.124 926.414, 691.026 946.500 C 688.502 956.445, 690.291 985.110, 694.146 996.500 C 698.604 1009.674, 701.407 1014.475, 721.580 1043.500 C 743.122 1074.494, 744.667 1116.134, 725.607 1152 C 723.415 1156.125, 721.032 1160.095, 720.311 1160.821 C 719.590 1161.548, 719 1162.529, 719 1163 C 719 1163.471, 718.437 1164.452, 717.750 1165.179 C 717.063 1165.905, 715.249 1168.175, 713.720 1170.222 C 694.882 1195.448, 658.241 1214, 627.255 1214 C 619.528 1214, 608.224 1216.049, 602.252 1218.531 C 598.707 1220.005, 585.077 1227.810, 584 1228.983 C 583.725 1229.282, 581.032 1231.546, 578.016 1234.014 C 570.796 1239.921, 563.069 1247.651, 560.037 1252 C 558.694 1253.925, 557.346 1255.725, 557.039 1256 C 555.971 1256.959, 549.252 1268.526, 547.745 1272 C 542.079 1285.067, 539.114 1295.507, 535.018 1316.803 C 533.775 1323.266, 535.051 1332.638, 538.688 1343.759 C 540.081 1348.017, 541.620 1353.188, 542.110 1355.250 C 547.724 1378.903, 548.295 1383.322, 548.400 1404 C 548.526 1428.653, 547.098 1437.535, 538.268 1467 C 532.432 1486.476, 532.945 1495.946, 541.276 1522.500 C 555.040 1566.371, 588.988 1598.378, 624 1600.494 C 649.800 1602.053, 664.228 1606.921, 687.500 1621.917 C 689.700 1623.334, 691.725 1624.723, 692 1625.003 C 692.275 1625.283, 694.243 1626.811, 696.373 1628.400 C 701.333 1632.100, 709.885 1640.649, 713.605 1645.627 C 715.197 1647.757, 717.056 1650.088, 717.735 1650.807 C 728.911 1662.629, 738.331 1693.114, 738.128 1716.801 C 737.906 1742.734, 732.584 1757.175, 713.990 1782.299 C 706.556 1792.345, 701.580 1800.090, 699.408 1805 C 698.799 1806.375, 697.498 1809.300, 696.516 1811.500 C 685.708 1835.714, 688.513 1876.992, 702.715 1902.740 C 709.833 1915.646, 728.319 1936.549, 736.174 1940.575 C 738.003 1941.512, 739.725 1942.570, 740 1942.926 C 741.207 1944.488, 755.194 1951.079, 762.500 1953.529 C 779.406 1959.199, 796.849 1969.733, 805.343 1979.402 C 806.356 1980.556, 808.606 1983.091, 810.343 1985.036 C 818.909 1994.631, 820.753 1998.564, 828.980 2024.786 C 843.500 2071.072, 891.325 2099.287, 940.500 2090.581 C 953.667 2088.250, 958.013 2086.437, 975 2076.196 C 1020.847 2048.555, 1067.423 2050.529, 1105.736 2081.736 C 1114.593 2088.950, 1130 2105.785, 1130 2108.250 C 1130 2108.768, 1130.805 2110.386, 1131.789 2111.846 C 1135.767 2117.747, 1140.248 2130.227, 1143.955 2145.734 C 1148.519 2164.824, 1163.473 2185.596, 1181.336 2197.659 C 1183.626 2199.206, 1187.075 2201.684, 1189 2203.166 C 1192.215 2205.642, 1205.577 2212.693, 1214 2216.358 C 1225.929 2221.550, 1243.513 2225.890, 1263.102 2228.478 C 1279.582 2230.655, 1283.118 2230.472, 1291.500 2227.009 C 1335.160 2208.967, 1370.137 2204.042, 1404.500 2211.096 C 1420.543 2214.390, 1437.420 2219.228, 1439.450 2221.116 C 1439.972 2221.602, 1441.042 2222, 1441.826 2222 C 1442.611 2222, 1445.909 2223.350, 1449.156 2225 C 1455.698 2228.324, 1470.519 2229.189, 1483.566 2227.008 C 1486.830 2226.463, 1492.650 2225.508, 1496.500 2224.886 C 1508.012 2223.027, 1521.144 2219.041, 1532.739 2213.885 C 1535.071 2212.848, 1537.197 2212, 1537.465 2212 C 1537.733 2212, 1542.576 2209.249, 1548.226 2205.886 C 1579.781 2187.106, 1592.637 2171.352, 1599.955 2142.500 C 1609.590 2104.507, 1625.939 2083.590, 1658 2068.238 C 1694.471 2050.774, 1726.411 2053.069, 1766.500 2076.033 C 1819.709 2106.514, 1884.863 2090.224, 1906.618 2041 C 1910.314 2032.637, 1911.456 2029.662, 1914.641 2020.101 C 1921.990 1998.039, 1929.790 1985.283, 1943.389 1973.091 C 1944.979 1971.666, 1946.779 1970.030, 1947.389 1969.456 C 1951.646 1965.453, 1963.855 1959.366, 1977.412 1954.486 C 2035.027 1933.749, 2065.104 1875.295, 2048.069 1817.169 C 2047.054 1813.706, 2040.035 1798.876, 2038.997 1798 C 2038.671 1797.725, 2037.230 1795.466, 2035.794 1792.980 C 2034.359 1790.493, 2030.193 1784.293, 2026.537 1779.201 C 1973.604 1705.483, 2020.874 1607.508, 2112.281 1601.482 C 2159.471 1598.371, 2195.693 1562.636, 2208.555 1506.500 C 2211.210 1494.911, 2210.472 1483.702, 2206.105 1469.325 C 2200.991 1452.487, 2199.406 1445.751, 2197.440 1432.500 C 2193.512 1406.024, 2198.013 1364.212, 2206.886 1344.747 C 2209.881 1338.176, 2211.021 1331.292, 2210.437 1323.291 C 2209.809 1314.685, 2207.903 1302.806, 2206.941 1301.500 C 2206.536 1300.950, 2205.500 1298.113, 2204.640 1295.196 C 2195.578 1264.468, 2173.456 1236.102, 2148.500 1223.210 C 2136.706 1217.118, 2126.047 1214.481, 2109 1213.439 C 2052.859 1210.009, 2004.005 1156.909, 2004.001 1099.315 C 2003.999 1073.936, 2011.206 1055.276, 2031.159 1029 C 2052.567 1000.808, 2058.571 964.257, 2047.385 930.217 C 2036.576 897.324, 2006.586 866.122, 1977 856.988 C 1946.607 847.605, 1926.624 827.730, 1916.597 796.908 C 1911.345 780.765, 1908.045 772.770, 1903.073 764.146 C 1878.924 722.253, 1814.543 708.488, 1769.500 735.587 C 1713.204 769.457, 1654.309 761.800, 1620.250 716.184 C 1618.738 714.158, 1616.990 711.958, 1616.367 711.296 C 1612.498 707.183, 1604.475 687.613, 1600.050 671.500 C 1587.829 626.987, 1552.937 598.913, 1495 586.976 C 1467.154 581.238, 1460.759 581.682, 1437 590.998 C 1408.300 602.252, 1374.284 607.156, 1353.299 603.064 C 1350.660 602.550, 1344.450 601.374, 1339.500 600.452 C 1328.021 598.313, 1318.278 595.271, 1299.311 587.901 C 1283.040 581.579, 1279.617 581.075, 1267 583.136 M 1360.766 871.752 C 1358.348 872.294, 1359.889 875.715, 1368.598 889.138 C 1380.552 907.564, 1388.641 920.377, 1390.603 924 C 1391.647 925.925, 1392.725 927.725, 1393 928 C 1393.275 928.275, 1394.591 930.525, 1395.925 933 C 1397.259 935.475, 1398.648 937.725, 1399.011 938 C 1399.374 938.275, 1401.020 940.975, 1402.668 944 C 1404.317 947.025, 1407.541 952.583, 1409.833 956.352 C 1412.125 960.121, 1414 963.377, 1414 963.588 C 1414 964.446, 1424.508 981.525, 1425.225 981.833 C 1425.651 982.017, 1426 982.583, 1426 983.092 C 1426 983.879, 1442.099 1011.156, 1448.964 1022 C 1453.777 1029.603, 1462 1044.137, 1462 1045.042 C 1462 1045.569, 1462.450 1046, 1463 1046 C 1463.550 1046, 1464 1046.458, 1464 1047.018 C 1464 1047.578, 1465.800 1050.999, 1468 1054.620 C 1470.200 1058.242, 1472 1061.373, 1472 1061.579 C 1472 1061.784, 1474.700 1066.474, 1478 1072 C 1481.300 1077.526, 1484 1082.204, 1484 1082.397 C 1484 1082.589, 1488.950 1090.960, 1495 1101 C 1501.050 1111.040, 1506 1119.409, 1506 1119.599 C 1506 1119.788, 1510.108 1126.819, 1515.130 1135.222 C 1520.151 1143.625, 1525.393 1152.525, 1526.779 1155 C 1536.219 1171.866, 1550.029 1195.627, 1558.885 1210.242 C 1562.798 1216.700, 1566 1222.167, 1566 1222.390 C 1566 1222.613, 1567.800 1225.758, 1570 1229.380 C 1572.200 1233.001, 1574 1236.384, 1574 1236.899 C 1574 1237.413, 1574.338 1237.985, 1574.750 1238.170 C 1583.711 1242.191, 1579.170 1246.582, 1551.615 1260.542 C 1545.628 1263.575, 1539.483 1266.944, 1537.960 1268.028 C 1536.437 1269.113, 1534.986 1270, 1534.734 1270 C 1534.483 1270, 1530.952 1271.856, 1526.888 1274.124 C 1495.397 1291.703, 1498.247 1291.340, 1485.665 1279.377 C 1466.839 1261.476, 1445.669 1249.929, 1415.500 1241.107 C 1400.075 1236.596, 1391.052 1235.500, 1369.500 1235.516 C 1348.179 1235.532, 1342.331 1236.175, 1327 1240.187 C 1312.532 1243.973, 1309.464 1244.847, 1305.094 1246.428 C 1302.671 1247.304, 1300.517 1247.850, 1300.308 1247.642 C 1299.858 1247.191, 1336.233 1175.396, 1349.272 1151 C 1355.317 1139.690, 1361.816 1127.274, 1371.258 1109 C 1375.946 1099.925, 1381.474 1089.350, 1383.541 1085.500 C 1400.506 1053.905, 1400.505 1052.901, 1383.500 1046.100 C 1382.950 1045.880, 1382.275 1045.426, 1382 1045.091 C 1381.725 1044.755, 1374.075 1040.715, 1365 1036.112 C 1355.925 1031.510, 1340.625 1023.682, 1331 1018.719 C 1321.375 1013.755, 1309.900 1007.917, 1305.500 1005.746 C 1301.100 1003.574, 1296.600 1001.311, 1295.500 1000.717 C 1294.400 1000.122, 1290.125 997.861, 1286 995.692 C 1281.875 993.522, 1277.375 991.040, 1276 990.177 C 1274.625 989.313, 1267.425 985.509, 1260 981.722 C 1252.575 977.936, 1243.575 973.340, 1240 971.510 C 1236.425 969.680, 1216.272 959.585, 1195.215 949.078 C 1155.955 929.487, 1152.861 927.902, 1152 926.943 C 1151.725 926.637, 1149.925 925.771, 1148 925.019 C 1146.075 924.266, 1143.375 922.907, 1142 921.997 C 1140.625 921.088, 1131.175 916.144, 1121 911.010 C 1110.825 905.876, 1100.700 900.632, 1098.500 899.358 C 1090.051 894.463, 1053.299 876.289, 1049.324 875.041 C 1039.653 872.003, 1039.446 878.296, 1048.573 897.839 C 1050.458 901.876, 1052 905.350, 1052 905.559 C 1052 906.014, 1055.905 914.705, 1060.609 924.722 C 1062.474 928.693, 1064 932.156, 1064 932.415 C 1064 932.912, 1071.448 949.072, 1073.257 952.500 C 1073.837 953.600, 1074.627 955.175, 1075.012 956 C 1075.397 956.825, 1077.652 961.490, 1080.023 966.367 C 1083.815 974.167, 1084.138 975.343, 1082.710 976.142 C 1081.817 976.642, 1079.154 978.518, 1076.793 980.310 C 1074.432 982.102, 1068.900 986.023, 1064.500 989.023 C 1060.100 992.024, 1056.275 994.708, 1056 994.989 C 1055.725 995.270, 1052.575 997.514, 1049 999.976 C 1006.307 1029.378, 964.185 1069.816, 934.393 1110 C 906.783 1147.241, 883.444 1189.749, 865.566 1235.357 C 860.532 1248.199, 854.865 1264.698, 852.575 1273.178 C 851.784 1276.105, 850.190 1281.875, 849.032 1286 C 840.920 1314.901, 836.379 1337.370, 831.448 1373 C 829.683 1385.758, 828.573 1428.618, 829.985 1429.491 C 831.282 1430.292, 835.245 1427.869, 863.735 1408.859 C 904.481 1381.671, 925.267 1367.967, 935.569 1361.500 C 957.634 1347.651, 966.408 1342.094, 983 1331.464 C 992.625 1325.298, 1004.775 1317.472, 1010 1314.075 C 1015.225 1310.677, 1026.025 1303.902, 1034 1299.018 C 1041.975 1294.135, 1051.875 1288.022, 1056 1285.434 C 1064.541 1280.075, 1072.195 1275.328, 1083 1268.691 C 1089.150 1264.913, 1107.382 1253.195, 1127 1240.412 C 1128.925 1239.158, 1136.350 1234.582, 1143.500 1230.244 C 1150.650 1225.905, 1160.325 1219.961, 1165 1217.033 C 1201.993 1193.870, 1205.404 1192.008, 1207.140 1194.035 C 1208.042 1195.088, 1216.409 1208.673, 1225.733 1224.225 C 1241.704 1250.863, 1244.098 1254.951, 1250.630 1266.750 C 1252.076 1269.362, 1253.876 1272.210, 1254.630 1273.079 C 1257.005 1275.816, 1256.200 1277.296, 1248.151 1284.994 C 1243.833 1289.122, 1238.439 1295.200, 1236.162 1298.500 C 1233.886 1301.800, 1230.722 1306.300, 1229.131 1308.500 C 1227.540 1310.700, 1223.303 1318.350, 1219.714 1325.500 C 1195.793 1373.164, 1193.010 1414.644, 1210.466 1463.362 C 1214.823 1475.520, 1214.822 1475.395, 1210.493 1474.693 C 1207.384 1474.188, 1186.286 1464.137, 1175.516 1458.030 C 1173.324 1456.788, 1166.349 1453.062, 1160.016 1449.752 C 1153.682 1446.441, 1145.800 1442.276, 1142.500 1440.495 C 1132.224 1434.950, 1121.838 1429.414, 1113 1424.770 C 1108.325 1422.313, 1102.250 1419.059, 1099.500 1417.539 C 1089.982 1412.277, 1082.456 1408.224, 1072.500 1402.998 C 1067 1400.112, 1062.050 1397.404, 1061.500 1396.981 C 1060.950 1396.558, 1054.200 1392.952, 1046.500 1388.968 C 1038.800 1384.983, 1032.072 1381.335, 1031.550 1380.862 C 1028.046 1377.684, 1023.438 1384.447, 1006.247 1418 C 1000.752 1428.725, 994.691 1440.425, 992.778 1444 C 990.866 1447.575, 985.577 1457.700, 981.026 1466.500 C 976.475 1475.300, 971.295 1485.200, 969.516 1488.500 C 967.738 1491.800, 961.880 1503.050, 956.500 1513.500 C 951.119 1523.950, 943.688 1538.350, 939.986 1545.500 C 936.283 1552.650, 927.359 1570.200, 920.154 1584.500 C 905.935 1612.718, 892.587 1638.416, 884.941 1652.291 C 867.926 1683.167, 856 1709.286, 856 1715.672 C 856 1720.050, 861.246 1722.168, 864.550 1719.125 C 865.072 1718.644, 868.650 1717.023, 872.500 1715.523 C 881.629 1711.965, 883.786 1710.997, 901 1702.732 C 914.669 1696.169, 917.926 1694.650, 931.530 1688.500 C 938.406 1685.391, 938.537 1685.395, 940.290 1688.750 C 946.820 1701.254, 968.149 1735.417, 971.037 1738 C 971.345 1738.275, 972.685 1740.075, 974.015 1742 C 975.346 1743.925, 976.899 1746.009, 977.467 1746.632 C 978.035 1747.254, 982.550 1752.731, 987.500 1758.803 C 997.219 1770.725, 1033.195 1807.051, 1047 1818.881 C 1063.667 1833.163, 1093.693 1854.605, 1109.500 1863.512 C 1127.519 1873.665, 1134.456 1877.309, 1150.500 1885.050 C 1177.983 1898.310, 1202.613 1908.374, 1223.500 1914.878 C 1229 1916.591, 1234.850 1918.413, 1236.500 1918.928 C 1240.526 1920.185, 1267.234 1926.846, 1273.500 1928.156 C 1276.250 1928.731, 1280.075 1929.558, 1282 1929.993 C 1311.621 1936.692, 1343.641 1941.615, 1376.750 1944.558 C 1384.023 1945.205, 1385.845 1944.310, 1383.082 1941.450 C 1382.578 1940.927, 1380.699 1937.800, 1378.907 1934.500 C 1377.115 1931.200, 1372.059 1922.650, 1367.672 1915.500 C 1356.390 1897.114, 1340.026 1870.094, 1337.845 1866.250 C 1336.830 1864.463, 1335.036 1861.313, 1333.859 1859.250 C 1332.681 1857.188, 1330.587 1853.475, 1329.206 1851 C 1326.676 1846.466, 1314.024 1825.046, 1306.760 1813 C 1299.483 1800.930, 1284 1774.702, 1284 1774.443 C 1284 1774.301, 1280.850 1768.744, 1277 1762.093 C 1273.150 1755.442, 1266.810 1744.487, 1262.912 1737.750 C 1259.014 1731.013, 1255.478 1725.050, 1255.056 1724.500 C 1254.634 1723.950, 1252.939 1721.025, 1251.289 1718 C 1245.190 1706.813, 1242.398 1702.010, 1229.200 1680 C 1221.779 1667.625, 1213.611 1654.350, 1211.049 1650.500 C 1208.487 1646.650, 1198.363 1630, 1188.550 1613.500 C 1178.738 1597, 1168.905 1580.661, 1166.699 1577.191 C 1161.587 1569.150, 1158.884 1571.569, 1196.515 1550.513 C 1247.748 1521.846, 1245.861 1522.321, 1257.969 1535.058 C 1275.228 1553.213, 1312.052 1570.957, 1343.959 1576.493 C 1372.236 1581.399, 1393.639 1579.964, 1425.500 1571.026 C 1444.408 1565.722, 1445.023 1566.056, 1438.195 1577.900 C 1436.102 1581.530, 1425.470 1602.275, 1414.568 1624 C 1403.666 1645.725, 1393.507 1665.750, 1391.993 1668.500 C 1381.462 1687.631, 1348.396 1753.505, 1347.570 1757 C 1346.372 1762.077, 1353.024 1766.242, 1407.500 1794.520 C 1415.750 1798.802, 1426.775 1804.547, 1432 1807.287 C 1437.225 1810.026, 1476.631 1829.943, 1519.569 1851.547 C 1562.507 1873.151, 1610.432 1897.298, 1626.069 1905.209 C 1641.706 1913.119, 1657.425 1920.880, 1661 1922.456 C 1664.575 1924.032, 1672 1927.458, 1677.500 1930.071 C 1703.034 1942.200, 1705.900 1941.055, 1697.703 1922 C 1696.638 1919.525, 1695.097 1915.925, 1694.277 1914 C 1689.638 1903.105, 1659.601 1844.912, 1656.718 1841.231 C 1655.230 1839.332, 1658.010 1836.790, 1668.396 1830.556 C 1686.167 1819.888, 1725.917 1790.840, 1736.478 1780.803 C 1738.140 1779.224, 1741.406 1776.484, 1743.735 1774.715 C 1751.647 1768.708, 1783.454 1735.557, 1794.313 1722 C 1800.261 1714.575, 1805.669 1707.825, 1806.331 1707 C 1806.994 1706.175, 1809.553 1702.575, 1812.018 1699 C 1814.483 1695.425, 1816.764 1692.275, 1817.087 1692 C 1818.294 1690.971, 1832.120 1669.848, 1838.122 1659.862 C 1851.819 1637.074, 1855.366 1630.265, 1867.750 1603 C 1872.199 1593.205, 1878 1578.868, 1878 1577.668 C 1878 1576.971, 1878.409 1575.972, 1878.910 1575.450 C 1880.458 1573.834, 1893.412 1534.033, 1896.144 1522.500 C 1896.665 1520.300, 1897.499 1516.925, 1897.997 1515 C 1898.847 1511.714, 1899.976 1506.901, 1902.101 1497.500 C 1902.598 1495.300, 1903.496 1491.025, 1904.095 1488 C 1904.695 1484.975, 1905.591 1480.475, 1906.088 1478 C 1912.712 1444.991, 1917.645 1384, 1913.691 1384 C 1912.798 1384, 1906.989 1387.301, 1900.784 1391.336 C 1894.578 1395.371, 1883.875 1402.226, 1877 1406.570 C 1870.125 1410.913, 1864.275 1414.700, 1864 1414.986 C 1863.434 1415.574, 1860.747 1417.330, 1842.708 1428.897 C 1827.680 1438.534, 1811.689 1448.422, 1800.500 1454.999 C 1796.100 1457.585, 1788.675 1462.083, 1784 1464.995 C 1779.325 1467.908, 1773.925 1471.217, 1772 1472.351 C 1770.075 1473.484, 1768.275 1474.657, 1768 1474.958 C 1767.396 1475.619, 1761.930 1479.169, 1752.500 1485.024 C 1743.514 1490.603, 1724.176 1502.927, 1707 1514.021 C 1699.575 1518.816, 1683.825 1528.699, 1672 1535.983 C 1660.175 1543.267, 1647.013 1551.426, 1642.750 1554.113 C 1638.487 1556.801, 1631.400 1561.250, 1627 1564 C 1622.600 1566.750, 1615.400 1571.250, 1611 1574 C 1592.151 1585.781, 1585.331 1590.159, 1564.558 1603.821 C 1534.560 1623.547, 1536.752 1622.450, 1533.899 1619.170 C 1530.503 1615.268, 1523.937 1604.356, 1516.949 1591 C 1515.078 1587.425, 1513.312 1584.275, 1513.024 1584 C 1512.736 1583.725, 1511.411 1581.475, 1510.080 1579 C 1508.748 1576.525, 1505.936 1571.937, 1503.830 1568.805 C 1501.723 1565.673, 1500 1562.829, 1500 1562.485 C 1500 1562.141, 1498.747 1559.979, 1497.215 1557.680 C 1495.683 1555.381, 1493.143 1551.025, 1491.569 1548 C 1489.996 1544.975, 1488.099 1541.790, 1487.354 1540.921 C 1485.229 1538.444, 1485.441 1538.103, 1496.019 1527 C 1540.852 1479.942, 1554.521 1417.950, 1534.608 1352 C 1531.021 1340.118, 1531.065 1339.715, 1535.750 1341.654 C 1540.954 1343.808, 1565.087 1355.748, 1579.500 1363.299 C 1607.071 1377.745, 1619.810 1384.460, 1625 1387.283 C 1637.818 1394.255, 1641.069 1395.998, 1652 1401.751 C 1681.158 1417.099, 1715.201 1434, 1716.957 1434 C 1719.063 1434, 1721.534 1429.793, 1735.754 1402 C 1740.116 1393.475, 1745.267 1383.575, 1747.201 1380 C 1753.197 1368.919, 1765.257 1345.948, 1781.063 1315.500 C 1786.202 1305.600, 1796.837 1285.125, 1804.696 1270 C 1826.815 1227.428, 1879.442 1121.458, 1883.024 1112.276 C 1890.040 1094.293, 1885.620 1092.675, 1861 1104.217 C 1850.549 1109.116, 1846.339 1110.999, 1838 1114.507 C 1827.507 1118.920, 1824.950 1120.056, 1816.148 1124.212 C 1805.368 1129.303, 1806.236 1130.131, 1786.128 1095.576 C 1784.114 1092.113, 1779.483 1085.189, 1776.732 1081.524 C 1776.309 1080.961, 1772.962 1076.450, 1769.293 1071.500 C 1754.845 1052.003, 1731.022 1026.423, 1712.002 1009.982 C 1707.878 1006.417, 1703.828 1002.801, 1703.002 1001.947 C 1697.192 995.940, 1665.613 972.054, 1652.551 963.787 C 1647.573 960.636, 1643.027 957.708, 1642.449 957.279 C 1641.871 956.851, 1640.347 955.895, 1639.062 955.156 C 1633.821 952.141, 1629.213 949.547, 1624 946.680 C 1620.975 945.016, 1616.700 942.603, 1614.500 941.318 C 1606.341 936.552, 1573.213 920.312, 1564.997 917.051 C 1560.324 915.196, 1556.050 913.372, 1555.500 912.997 C 1553.390 911.561, 1532.967 904.032, 1514.500 897.884 C 1501.294 893.487, 1477.530 887.472, 1459.500 883.963 C 1432.379 878.686, 1423.451 877.516, 1366 871.717 C 1364.075 871.523, 1361.720 871.539, 1360.766 871.752 M 2387 907.494 C 2359.186 911.448, 2331.441 929.126, 2315.153 953.271 C 2298.298 978.257, 2292.813 1019.595, 2303.049 1044.503 C 2309.163 1059.379, 2311.869 1064.913, 2316.183 1071.357 C 2320.850 1078.329, 2338.692 1096.450, 2341.889 1097.465 C 2343.050 1097.833, 2344 1098.524, 2344 1099 C 2344 1099.476, 2344.897 1100.150, 2345.994 1100.498 C 2347.091 1100.846, 2348.560 1101.703, 2349.260 1102.403 C 2353.832 1106.975, 2375.900 1114.745, 2388.365 1116.172 C 2491.269 1127.953, 2550.314 1009.474, 2477.804 936.703 C 2471.583 930.459, 2456.809 919.882, 2450 916.797 C 2439.568 912.070, 2436.841 910.924, 2432.863 909.594 C 2422.281 906.056, 2403.247 905.184, 2387 907.494 M 319 907.929 C 263.280 915.924, 221.527 975.990, 233.450 1031 C 257.965 1144.101, 410.378 1147.403, 441.126 1035.500 C 452.985 992.341, 423.994 933.805, 381.750 915.615 C 379.688 914.727, 376.538 913.359, 374.750 912.576 C 364.755 908.197, 334.634 905.686, 319 907.929 M 319.500 1699.479 C 264.870 1707.166, 224.878 1762.287, 233.445 1818.087 C 242.577 1877.561, 303.472 1920.743, 359 1907.120 C 418.453 1892.534, 455.471 1835.127, 440.520 1780.700 C 439.734 1777.840, 438.808 1774.375, 438.462 1773 C 436.787 1766.343, 430.434 1753.741, 423.844 1744 C 400.121 1708.932, 363.465 1693.292, 319.500 1699.479 M 2378.268 1700.028 C 2310.045 1715.435, 2276.311 1801.796, 2315.390 1861 C 2345.469 1906.569, 2401.729 1921.181, 2453 1896.741 C 2465.085 1890.980, 2489.229 1869.177, 2493.217 1860.422 C 2493.824 1859.090, 2494.634 1858, 2495.015 1858 C 2495.865 1858, 2503.149 1842.382, 2505.509 1835.500 C 2509.084 1825.075, 2509.929 1819.356, 2509.964 1805.347 C 2510.035 1777.193, 2504.372 1760.417, 2487.353 1738.369 C 2472.103 1718.612, 2449.844 1704.305, 2426.819 1699.462 C 2416.513 1697.294, 2388.951 1697.615, 2378.268 1700.028 M 1014.500 2319.386 C 979.063 2325.703, 948.030 2353.530, 935.193 2390.500 C 927.252 2413.367, 930.355 2449.543, 942.053 2470.500 C 945.470 2476.620, 948.428 2481.515, 949.004 2482 C 949.330 2482.275, 950.664 2484.075, 951.970 2486 C 975.818 2521.169, 1032.207 2538.040, 1070.515 2521.468 C 1125.413 2497.719, 1149.203 2449.337, 1134.174 2392 C 1121.589 2343.985, 1065.935 2310.216, 1014.500 2319.386 M 1697 2319.506 C 1668.752 2322.650, 1643.893 2337.770, 1625.494 2363 C 1620.937 2369.248, 1613.113 2383.941, 1611.624 2389.047 C 1608.875 2398.472, 1607.996 2402.822, 1606.931 2412.286 C 1601.124 2463.892, 1634.168 2511.370, 1685 2524.455 C 1725.909 2534.987, 1772.570 2517.190, 1795.789 2482.199 C 1824.986 2438.201, 1819.991 2386.097, 1783.014 2348.940 C 1757.698 2323.500, 1733.996 2315.389, 1697 2319.506" stroke="none" fill="#07a4bf" fill-rule="evenodd"/></svg>