<svg xmlns="http://www.w3.org/2000/svg" width="2000" height="2000" viewBox="0 0 2000 2000" version="1.1"><path d="M 984 453.341 C 953.015 462.568, 936.459 491.327, 944.007 522.813 C 953.308 561.610, 911.735 604.309, 871.148 597.645 C 837.266 592.082, 823.274 598.083, 809.583 624.049 C 790.466 660.307, 723.886 665.031, 702.234 631.665 C 686.265 607.056, 665.539 597.264, 640.500 602.498 C 590.342 612.983, 578.818 682.703, 623.305 706.524 C 645.548 718.434, 652.286 737.535, 645.540 769.556 C 640.161 795.092, 632.377 806.864, 614.742 816.136 C 592.594 827.780, 583.668 843.761, 587.091 865.642 C 587.854 870.514, 588.464 879.675, 588.447 886 L 588.417 897.500 585.082 905 C 567.483 944.569, 535.994 963.141, 499.140 955.690 C 486.083 953.051, 471.717 954.385, 463.499 959 C 402.715 993.141, 432.309 1079.896, 500.711 1068.090 C 551.419 1059.338, 597.003 1105.209, 587.502 1155.425 C 582.993 1179.257, 592.283 1196.918, 615.158 1207.998 C 647.957 1223.887, 659.973 1288.369, 634.339 1310.933 C 631.798 1313.170, 629.257 1315, 628.693 1315 C 617.809 1315, 599.260 1338.006, 596.295 1355.182 C 584.840 1421.542, 667.531 1448.762, 704.240 1390.715 C 715.566 1372.807, 734.920 1366.750, 762.781 1372.396 C 788.364 1377.579, 801.915 1386.389, 812.047 1404.427 C 824.025 1425.749, 841.799 1433.447, 866.261 1427.908 C 909.392 1418.140, 957.642 1464.055, 944.343 1502.213 C 935.056 1528.858, 952.836 1560.794, 982.670 1571.058 C 1023.282 1585.031, 1066.173 1545.779, 1055.597 1504.319 C 1044.151 1459.447, 1088.678 1417.186, 1135.500 1428.481 C 1158.130 1433.941, 1175.975 1425.088, 1189.225 1401.830 C 1200.560 1381.932, 1223.686 1371.138, 1255.201 1371.035 C 1276.779 1370.965, 1284.992 1375.107, 1295 1391.108 C 1311.895 1418.119, 1334.437 1428.299, 1360.936 1420.883 C 1411.694 1406.680, 1419.611 1343.754, 1374.050 1316.653 C 1338.935 1295.765, 1346.031 1228.276, 1385.500 1207.749 C 1408.496 1195.789, 1416.275 1179.110, 1411.500 1152 C 1403.151 1104.600, 1450.519 1058.333, 1497.500 1068 C 1564.919 1081.872, 1598.728 991.333, 1537.758 960.194 C 1525.787 954.080, 1515.916 953.275, 1493.229 956.564 C 1466.036 960.505, 1445.253 950.206, 1424.792 922.650 C 1410.579 903.509, 1408.405 893.944, 1412.085 866.747 C 1415.215 843.620, 1406.702 827.685, 1385.359 816.716 C 1344.907 795.927, 1338.811 725.935, 1375.764 706.549 C 1425.034 680.700, 1404.222 601.929, 1348.145 602.015 C 1324.823 602.051, 1311.039 610.141, 1296.566 632.288 C 1276.414 663.126, 1206.432 659.893, 1192.086 627.462 C 1181.338 603.163, 1162.647 592.908, 1136.077 596.730 C 1113.376 599.997, 1106.037 598.966, 1090.309 590.301 C 1066.304 577.077, 1049.524 548.385, 1053.874 528 C 1054.402 525.525, 1055.615 519.667, 1056.569 514.983 L 1058.304 506.466 1056.630 498.940 C 1048.988 464.592, 1015.924 443.834, 984 453.341 M 858.624 486.579 C 827.148 496.615, 824.530 540.321, 854.520 555.085 L 860.910 558.230 871.205 557.846 L 881.500 557.461 888.258 553.677 C 926.665 532.172, 900.616 473.191, 858.624 486.579 M 1117.500 486.399 C 1102.073 491.278, 1092.619 504.762, 1092.539 522 C 1092.361 560.433, 1145.374 572.207, 1162.365 537.508 C 1176.522 508.594, 1148.447 476.612, 1117.500 486.399 M 739.286 537.392 C 700.303 550.122, 706.513 608.450, 747.101 610.800 C 780.744 612.747, 799.556 573.370, 776.851 548.527 C 767.364 538.147, 751.433 533.425, 739.286 537.392 M 1240.500 536.882 C 1207.489 545.614, 1202.170 591.608, 1232.442 606.569 C 1270.990 625.620, 1306.126 575.711, 1274.796 546.406 C 1265.890 538.075, 1251.304 534.025, 1240.500 536.882 M 986 573.526 C 985.175 573.688, 981.125 574.363, 977 575.026 C 943.948 580.344, 904.276 614.927, 901.950 640.451 C 898.448 678.869, 858.849 698.694, 827 677.973 C 822.875 675.290, 817.250 672.060, 814.500 670.797 L 809.500 668.500 789 668.540 C 757.192 668.602, 733.303 675.549, 714.096 690.324 C 706.704 696.010, 687.688 715.004, 684.282 720.103 C 682.752 722.394, 680.715 725.446, 679.755 726.884 C 672.372 737.954, 663.226 768.197, 661.122 788.500 C 659.585 803.334, 660.961 815.394, 665.029 822.744 C 674.509 839.870, 676.123 843.088, 677.488 847.586 C 682.029 862.557, 676.742 882.328, 665.317 893.098 C 656.206 901.687, 649.218 904.772, 632.500 907.587 C 615.234 910.494, 608.935 914.083, 593.836 929.616 C 543.978 980.907, 539.693 1026.331, 579.792 1078.500 C 599.231 1103.790, 612.213 1113.325, 630.856 1116.004 C 674.657 1122.298, 691.885 1156.397, 670.009 1193.500 C 661.276 1208.312, 661.534 1207.283, 661.614 1227 L 661.685 1244.500 665.398 1258.500 C 681.139 1317.856, 719.216 1350.426, 779.472 1356.078 C 801.533 1358.148, 811.259 1356.245, 825.500 1347.073 C 837.626 1339.264, 840.173 1338.511, 854.500 1338.505 L 866.500 1338.500 873.284 1341.904 C 889.424 1350.002, 899.422 1364.915, 901.886 1384.564 C 903.767 1399.566, 910.037 1408.914, 928.136 1423.702 C 976.141 1462.924, 1032.412 1460.637, 1078.665 1417.584 C 1091.787 1405.370, 1096.253 1397.199, 1097.963 1382.270 C 1099.923 1365.154, 1110.502 1350.285, 1126.240 1342.523 L 1133.980 1338.706 1145.240 1338.685 C 1158.672 1338.661, 1162.293 1339.831, 1175.310 1348.403 C 1200.050 1364.696, 1257.059 1356.449, 1287.674 1332.147 C 1311.972 1312.860, 1325.164 1292.496, 1334.123 1260.440 L 1338.299 1245.500 1338.358 1228.500 C 1338.426 1209.295, 1338.491 1209.538, 1328.854 1192.842 C 1308.837 1158.157, 1324.731 1122.301, 1362.500 1116.943 C 1382.476 1114.108, 1392.633 1108.632, 1408 1092.409 C 1456.428 1041.285, 1459.228 994.251, 1416.957 941.963 C 1399.849 920.801, 1387.199 911.895, 1369.500 908.551 C 1323.205 899.805, 1306.767 866.633, 1330.652 830.153 C 1358.959 786.919, 1316.850 694.294, 1261 676.945 C 1242.239 671.117, 1236.813 669.842, 1224.500 668.367 C 1199.973 665.431, 1189.001 667.403, 1172.715 677.680 C 1140.435 698.048, 1102.770 679.887, 1098.021 641.665 C 1093.217 603.009, 1030.434 564.820, 986 573.526 M 1423.854 719.786 C 1396.862 727.088, 1388.321 761.374, 1408.474 781.526 C 1424.593 797.645, 1450.950 795.630, 1464.480 777.244 C 1485.561 748.596, 1458.554 710.399, 1423.854 719.786 M 550.302 721.048 C 512.764 735.872, 524.555 792.387, 565.149 792.210 C 598.896 792.062, 614.306 750.415, 589.350 726.804 C 581.591 719.462, 561.731 716.535, 550.302 721.048 M 955 738.022 C 796.739 745.424, 697.088 796.539, 755.472 840.368 C 829.634 896.040, 1059.430 908.920, 1194.642 864.983 C 1315.125 825.832, 1267.575 763.935, 1101 743.089 C 1059.329 737.874, 1001.255 735.858, 955 738.022 M 497.951 845.299 C 477.523 851.092, 466.012 877.282, 475.445 896.500 C 493.947 934.195, 547.937 920.298, 545.827 878.385 C 544.601 854.037, 522.062 838.460, 497.951 845.299 M 1478.929 845.311 C 1460.483 850.513, 1448.832 870.289, 1453.411 888.624 C 1461.597 921.400, 1502.393 929.040, 1521.005 901.282 C 1540.548 872.137, 1513.130 835.664, 1478.929 845.311 M 737.531 872.250 C 737.148 887.237, 736.985 923.856, 737.167 953.624 L 737.500 1007.749 740.200 1011.542 C 749.857 1025.110, 764.945 1036.048, 786 1044.746 C 929.313 1103.948, 1219.063 1082.101, 1260.097 1009 C 1261.629 1006.270, 1262.605 851.810, 1261.115 847.783 C 1260.486 846.082, 1259.659 846.666, 1254.692 852.324 C 1213.699 899.016, 1070.045 923.523, 917 909.934 C 834.203 902.582, 760.894 877.377, 743.409 850.250 C 738.375 842.441, 738.284 842.782, 737.531 872.250 M 1168.923 957.687 C 1168.881 958.134, 1168.769 960.525, 1168.673 963 C 1168.524 966.885, 1168.227 967.460, 1166.500 967.208 C 1156.538 965.756, 1156.029 965.760, 1155.441 967.294 C 1154.210 970.501, 1156.750 972.874, 1161.756 973.195 C 1168.081 973.601, 1168.799 976.526, 1163.557 980.524 C 1159.306 983.767, 1159.106 985.368, 1162.663 987.699 L 1165.326 989.444 1167.413 986.583 C 1172.568 979.516, 1172.642 979.458, 1174.443 980.953 C 1175.363 981.716, 1176.742 983.839, 1177.507 985.670 C 1178.982 989.202, 1182.400 990.200, 1184.800 987.800 C 1186.523 986.077, 1186.378 985.642, 1182.546 981.056 C 1178.872 976.657, 1178.801 974.009, 1182.357 973.986 C 1186.564 973.960, 1189.168 972.689, 1190.114 970.200 C 1191.667 966.116, 1189.862 965.363, 1183.400 967.400 C 1176.633 969.533, 1175.716 968.933, 1175.591 962.291 L 1175.500 957.500 1172.250 957.187 C 1170.463 957.014, 1168.965 957.239, 1168.923 957.687 M 820.983 959.532 C 800.167 965.950, 805.432 986.125, 829.674 992.842 C 842.930 996.516, 846.122 1000.013, 840.770 1005 C 834.972 1010.402, 819 1007.732, 819 1001.361 C 819 998.674, 809.058 996.480, 807.597 998.844 C 803.065 1006.176, 818.143 1017.983, 832.054 1017.994 C 859.925 1018.018, 862.010 987.357, 834.500 982.026 C 820.260 979.266, 818.244 978.117, 819.917 973.718 C 823.054 965.468, 831.948 964.410, 838.551 971.500 C 842.698 975.954, 853 978.421, 853 974.960 C 853 963.607, 835.350 955.102, 820.983 959.532 M 1036.703 959.012 C 1007.227 967.865, 1012.755 1018, 1043.206 1018 C 1053.064 1018, 1061.190 1013.469, 1065.108 1005.788 C 1069.470 997.238, 1062.396 992.859, 1056.567 1000.501 C 1053.034 1005.133, 1049.173 1007, 1043.126 1007 C 1025.900 1007, 1022.319 977.054, 1038.681 969.817 L 1043.216 967.811 1047.601 969.486 C 1050.013 970.407, 1053.297 972.750, 1054.898 974.692 C 1061.351 982.521, 1069.231 980.366, 1065.975 971.663 C 1061.973 960.967, 1048.942 955.336, 1036.703 959.012 M 864.235 987.750 L 864.500 1016.500 885.429 1016.771 C 908.805 1017.073, 908.047 1017.282, 907.290 1010.750 L 906.740 1006 891.477 1006 C 874.295 1006, 875.191 1006.471, 875.790 997.750 L 876.185 992 889.426 992 C 904.718 992, 903.628 992.429, 903.164 986.599 L 902.803 982.057 889.652 981.778 L 876.500 981.500 876.189 977.176 C 875.693 970.282, 876.319 970, 892.122 970 L 906 970 906 967.625 C 906 966.319, 906.281 963.844, 906.625 962.125 L 907.250 959 885.610 959 L 863.969 959 864.235 987.750 M 918.667 959.667 C 918.300 960.033, 918 973.083, 918 988.667 L 918 1017 937.500 1017 L 957 1017 957 1011.528 L 957 1006.056 943.250 1005.778 L 929.500 1005.500 929.232 982.871 L 928.963 960.243 925.857 959.621 C 921.845 958.819, 919.500 958.834, 918.667 959.667 M 966.656 959.678 C 966.283 960.051, 966.010 973.101, 966.049 988.678 L 966.121 1017 987.453 1017 C 1010.996 1017, 1009.960 1017.320, 1009.232 1010.275 L 1008.795 1006.051 993.647 1005.775 L 978.500 1005.500 978.190 1000.030 C 977.758 992.405, 978.540 992, 993.691 992 L 1006 992 1006 987 L 1006 982 992.500 982 C 977.606 982, 978.728 982.561, 978.811 975.159 C 978.863 970.436, 978.689 970.485, 994.073 970.859 L 1008 971.199 1008 965.735 L 1008 960.272 1003.360 959.636 C 997.160 958.786, 967.513 958.820, 966.656 959.678 M 1082.250 959.789 L 1074 960.078 1074 965.039 L 1074 970 1082.393 970 C 1092.853 970, 1092.154 968.036, 1091.339 995.134 L 1090.679 1017.104 1097.089 1016.802 L 1103.500 1016.500 1103.768 993.871 L 1104.037 971.243 1107.143 970.621 C 1108.852 970.280, 1112.444 970, 1115.125 970 L 1120 970 1120.128 967.250 C 1120.198 965.737, 1120.359 963.536, 1120.486 962.358 C 1120.742 959.976, 1109.529 958.491, 1096.500 959.182 C 1093.200 959.357, 1086.787 959.630, 1082.250 959.789 M 1161 983.500 C 1161 983.775, 1161.225 984, 1161.500 984 C 1161.775 984, 1162 983.775, 1162 983.500 C 1162 983.225, 1161.775 983, 1161.500 983 C 1161.225 983, 1161 983.225, 1161 983.500 M 738.022 1121.250 C 738.047 1211.359, 737.317 1203.726, 746.910 1214.215 C 819.215 1293.274, 1193.529 1290.908, 1255.665 1211 C 1262.212 1202.581, 1261.988 1205.726, 1261.994 1121.832 C 1262.001 1033.089, 1262.724 1039.791, 1254.117 1048.771 C 1233.024 1070.781, 1189.267 1087.753, 1123.500 1099.436 C 1081.231 1106.944, 1013.473 1111.309, 973.500 1109.100 C 855.988 1102.606, 778.163 1081.994, 745.984 1048.844 C 742.331 1045.080, 739.039 1042, 738.671 1042 C 738.302 1042, 738.010 1077.662, 738.022 1121.250 M 501.456 1106.871 C 476.021 1113.488, 464 1142.329, 477.703 1163.858 C 503.220 1203.950, 563.007 1169.308, 542.423 1126.358 C 535.992 1112.939, 515.536 1103.208, 501.456 1106.871 M 1484 1106.673 C 1453.156 1113.041, 1442.111 1149.737, 1464.629 1171.034 C 1488.047 1193.181, 1527.679 1176.015, 1527.331 1143.874 C 1527.089 1121.495, 1504.818 1102.375, 1484 1106.673 M 558 1232.420 C 534.163 1237.609, 520.291 1263.817, 530.440 1284.487 C 547.899 1320.047, 601.500 1309.119, 601.500 1270 C 601.500 1245.382, 580.762 1227.466, 558 1232.420 M 1423.487 1233.740 C 1401.010 1241.777, 1391.171 1263.997, 1400.899 1284.753 C 1414.828 1314.470, 1453.587 1313.872, 1468.494 1283.709 L 1472.256 1276.098 1471.820 1267.799 C 1470.547 1243.559, 1445.462 1225.882, 1423.487 1233.740 M 740.718 1415.028 C 712.239 1422.214, 703.542 1458.757, 725.527 1478.851 C 747.790 1499.198, 784.399 1484.204, 786.699 1453.798 C 788.619 1428.413, 765.367 1408.808, 740.718 1415.028 M 1239.734 1415.030 C 1212.966 1421.748, 1203.234 1457.596, 1222.913 1476.993 C 1244.786 1498.553, 1280.703 1487.214, 1286.049 1457.062 C 1290.681 1430.937, 1265.913 1408.460, 1239.734 1415.030 M 865.498 1465.985 C 842.053 1469.434, 826.521 1496.609, 836.196 1517.253 C 854.400 1556.097, 912.644 1540.685, 906.924 1498.537 C 904.562 1481.132, 885.929 1463.566, 871.500 1465.140 C 870.950 1465.200, 868.249 1465.581, 865.498 1465.985 M 1121.618 1466.053 C 1087.596 1474.558, 1081.791 1520.957, 1112.837 1536.240 C 1135.721 1547.507, 1164.509 1531.007, 1166.658 1505.392 C 1168.575 1482.547, 1143.444 1460.597, 1121.618 1466.053" stroke="none" fill="#08a6be" fill-rule="evenodd"/></svg>