<svg xmlns="http://www.w3.org/2000/svg" width="3840" height="3756" viewBox="0 0 3840 3756" version="1.1"><path d="M 1087 36.009 C 1035.627 39.406, 978.315 61.949, 933.012 96.581 C 909.756 114.358, 876.681 151.114, 864.245 173 C 863.152 174.925, 860.037 180.325, 857.325 185 C 825.256 240.267, 812.914 313.004, 824.494 378.500 C 836.442 446.083, 878.414 515.090, 932 555.254 C 1003 608.471, 1037.506 618.299, 1151.500 617.773 C 1235.360 617.385, 1257.897 620.752, 1316.500 642.420 C 1390.878 669.921, 1476.570 750.505, 1511.184 825.500 C 1539.207 886.214, 1551.394 964.143, 1542.383 1025 C 1538.571 1050.749, 1536 1075.455, 1536 1086.345 C 1536.001 1096.100, 1539.892 1136.318, 1541.989 1148.250 C 1546.269 1172.595, 1549.556 1186.984, 1554.599 1203.441 C 1572.078 1260.491, 1612.108 1321.038, 1661 1364.376 C 1691.300 1391.234, 1713.199 1405.078, 1758.500 1426.019 C 1798.634 1444.570, 1846.448 1454.004, 1900.288 1453.994 C 1944.452 1453.986, 1973.822 1449.413, 2011.500 1436.677 C 2122.844 1399.040, 2210.005 1310.423, 2243.305 1201 C 2261.826 1140.138, 2265.812 1096.080, 2258.005 1038.500 C 2249.771 977.767, 2249.851 954.872, 2258.455 909.259 C 2272.369 835.499, 2309.132 770.011, 2365.349 718.845 C 2376.820 708.405, 2380.721 705.288, 2401 690.363 C 2446.509 656.868, 2494.136 635.216, 2541.500 626.490 C 2571.185 621.021, 2574.150 620.763, 2615.500 620.040 C 2642.982 619.560, 2656.908 618.942, 2660 618.064 C 2663.273 617.136, 2669.410 616.941, 2682.500 617.352 C 2761.893 619.845, 2835.782 589.978, 2891.575 532.841 C 2922.820 500.844, 2950.702 455.737, 2962.252 418.500 C 2986.894 339.061, 2982.049 268.037, 2947.244 198.500 C 2889.900 83.934, 2775.996 22.331, 2649.416 37.426 C 2620.591 40.864, 2579.641 54.174, 2560 66.490 C 2558.075 67.697, 2553.800 70.165, 2550.500 71.973 C 2523.052 87.017, 2481.436 122.418, 2462.888 146.500 C 2432.037 186.557, 2414.625 220.910, 2402.867 264.918 C 2396.409 289.085, 2394.049 317.414, 2394.021 371.091 C 2394.009 392.316, 2393.548 413.466, 2392.996 418.091 C 2390.626 437.937, 2389.697 444.185, 2387.362 456 C 2368.168 553.120, 2299.077 644.781, 2219.205 679.091 C 2176.668 697.363, 2128.524 709.093, 2059.500 718.002 C 2050.700 719.138, 2038.775 720.727, 2033 721.534 C 2027.225 722.341, 2017.100 723.448, 2010.500 723.994 C 2003.900 724.540, 1993.421 725.443, 1987.213 726.001 C 1934.971 730.695, 1853.533 730.689, 1805 725.987 C 1799.225 725.427, 1789.100 724.527, 1782.500 723.985 C 1749.391 721.269, 1689.614 711.721, 1656.500 703.859 C 1567.594 682.750, 1523.366 655.607, 1479.122 595 C 1475.710 590.325, 1471.023 584.031, 1468.709 581.013 C 1441.419 545.437, 1418.996 492.728, 1411.059 445.500 C 1406.678 419.434, 1405.944 408.513, 1404.938 354.500 C 1403.397 271.786, 1397.048 241.174, 1372.275 197 C 1347.940 153.609, 1297.484 100.780, 1258 77.349 C 1256.075 76.206, 1251.566 73.468, 1247.979 71.264 C 1203.065 43.660, 1149.317 31.889, 1087 36.009 M 3391 778.516 C 3299.366 791.313, 3227.463 837.427, 3177.551 915.408 C 3159.986 942.852, 3145.211 982.399, 3139.037 1018.500 C 3135.232 1040.747, 3134.860 1047.341, 3134.007 1107.500 C 3133.081 1172.840, 3132.410 1183.614, 3127.553 1211.140 C 3125.042 1225.368, 3120.182 1244.326, 3115.668 1257.500 C 3061.872 1414.494, 2898.881 1517.896, 2737 1497.729 C 2729.575 1496.804, 2716.525 1495.249, 2708 1494.274 C 2566.822 1478.120, 2433.516 1540.834, 2355.728 1660 C 2334.662 1692.272, 2320.703 1723.983, 2309.946 1764 C 2308.029 1771.134, 2304.094 1791.767, 2303.081 1800 C 2302.506 1804.675, 2301.577 1812.006, 2301.017 1816.291 C 2292.535 1881.239, 2311.822 1974.077, 2345.726 2031.500 C 2402.789 2128.146, 2486.177 2188.817, 2590.267 2209.422 C 2624.244 2216.147, 2673.817 2218.830, 2697 2215.197 C 2819.316 2196.032, 2907.739 2216.504, 2991.460 2283.373 C 3064.041 2341.345, 3114.934 2421.444, 3126.557 2496 C 3127.372 2501.225, 3128.695 2509.550, 3129.498 2514.500 C 3131.715 2528.162, 3134 2578.331, 3133.999 2613.297 C 3133.997 2649.764, 3134.967 2662.061, 3140.682 2698 C 3145.515 2728.392, 3159.624 2765.198, 3176.749 2792.084 C 3221 2861.562, 3281.155 2904.951, 3361.623 2925.431 C 3507.065 2962.447, 3666.934 2867.987, 3708.460 2720.500 C 3733.268 2632.387, 3714.976 2539.907, 3659.504 2473 C 3656.996 2469.975, 3652.536 2464.575, 3649.593 2461 C 3607.183 2409.481, 3541.920 2367.891, 3483.500 2355.155 C 3460.395 2350.118, 3455.288 2349.778, 3404.500 2349.902 C 3344.631 2350.049, 3319.532 2348.097, 3289 2340.921 C 3239.379 2329.259, 3183.049 2299.002, 3137.426 2259.504 C 3090.557 2218.928, 3061.457 2158.804, 3044.495 2067.500 C 3031.938 1999.908, 3029.048 1972.766, 3025.422 1888.407 C 3022.484 1820.072, 3026.917 1743.912, 3037.929 1673.500 C 3047.169 1614.416, 3066.952 1549.012, 3086.626 1512.500 C 3115.221 1459.433, 3191.257 1400.194, 3259.484 1377.828 C 3300.813 1364.280, 3315.582 1362.340, 3383.578 1361.531 C 3515.730 1359.957, 3586.461 1328.495, 3657.307 1239.771 C 3815.994 1041.039, 3644.024 743.180, 3391 778.516 M 334 779.506 C 224.341 791.708, 128.644 870.230, 95.747 975 C 89.196 995.861, 87.303 1004.028, 83.301 1028.676 C 81.086 1042.316, 80.765 1091.089, 82.812 1103 C 96.599 1183.240, 137.653 1249.772, 203.366 1298.368 C 268.274 1346.371, 301.915 1356.601, 399.500 1358.013 C 465.320 1358.966, 479.804 1360.266, 511.801 1368.091 C 557.904 1379.367, 605.868 1402.926, 640.871 1431.486 C 644.925 1434.794, 650.100 1438.898, 652.371 1440.606 C 683.529 1464.044, 717.630 1510.283, 730.611 1546.694 C 743.360 1582.457, 756.954 1643.450, 762.995 1692 C 763.577 1696.675, 764.718 1704.550, 765.530 1709.500 C 766.342 1714.450, 767.430 1722.775, 767.947 1728 C 768.465 1733.225, 769.561 1743.125, 770.383 1750 C 771.889 1762.598, 775.198 1804.327, 776.964 1833 C 778.392 1856.173, 773.874 1941.192, 769.896 1966 C 769.322 1969.575, 768.451 1976.100, 767.960 1980.500 C 765.651 2001.182, 759.797 2042.198, 757.470 2054 C 753.803 2072.600, 749.454 2093.394, 745.968 2109 C 737.092 2148.740, 722.643 2186.321, 707.747 2208.417 C 669.361 2265.354, 580.527 2324.282, 507.216 2341.438 C 482.998 2347.106, 480.242 2347.294, 411 2348.022 C 350.661 2348.657, 345.760 2348.840, 335.037 2350.868 C 157.100 2384.520, 45.927 2552.562, 91.815 2718.506 C 123.597 2833.439, 217.292 2915.640, 336.500 2933.175 C 430.960 2947.070, 530.745 2906.769, 600.630 2826.500 C 644.344 2776.291, 668.885 2695.430, 665.428 2613 C 663.909 2576.766, 664.464 2547.218, 667.015 2528.500 C 667.540 2524.650, 668.694 2516.100, 669.581 2509.500 C 672.352 2488.870, 680.778 2458.721, 690.962 2433 C 721.265 2356.469, 812.777 2266.187, 889.628 2237.005 C 954.522 2212.364, 1012.417 2204.650, 1070.500 2212.905 C 1078.750 2214.078, 1091.350 2215.772, 1098.500 2216.669 C 1273.672 2238.663, 1447.244 2118.364, 1490.475 1945 C 1501.504 1900.774, 1503.545 1838.980, 1495.529 1792 C 1488.980 1753.615, 1467.308 1696.435, 1450.088 1672.108 C 1449.072 1670.673, 1446.126 1665.914, 1443.541 1661.532 C 1414.332 1612.023, 1351.774 1556.208, 1294.500 1528.553 C 1228.585 1496.725, 1167.805 1487.449, 1091.500 1497.569 C 1060.529 1501.677, 1035.583 1503.263, 1012 1502.623 C 862.562 1498.569, 734.958 1399.827, 683.039 1248.069 C 670.919 1212.642, 666.014 1171.452, 666.002 1105 C 665.986 1013.137, 653.107 960.458, 618.732 911.652 C 548.561 812.021, 450.556 766.537, 334 779.506 M 2656 834.064 C 2575.704 846.185, 2503.741 899.149, 2474.019 968 C 2472.238 972.125, 2470.182 976.850, 2469.450 978.500 C 2465.857 986.595, 2459.932 1007.370, 2458.043 1018.500 C 2457.576 1021.250, 2456.438 1027.775, 2455.514 1033 C 2453.413 1044.877, 2453.018 1079.574, 2454.841 1092 C 2459.337 1122.630, 2466.406 1145.822, 2478.922 1171 C 2509.145 1231.799, 2562.826 1275.656, 2629 1293.615 C 2712.412 1316.252, 2810.815 1285.367, 2863.500 1220.014 C 2866.250 1216.603, 2870.561 1211.266, 2873.080 1208.156 C 3001.500 1049.565, 2858.693 803.467, 2656 834.064 M 1089 833.687 C 1074.305 835.227, 1063.559 837.474, 1042 843.515 C 947.774 869.919, 877.224 968.957, 880.256 1070.574 C 883.831 1190.397, 964.980 1279.905, 1087.500 1299.168 C 1165.248 1311.391, 1253.396 1271.720, 1302.829 1202.258 C 1385.128 1086.617, 1349.412 932.716, 1223.385 859.933 C 1207.797 850.931, 1184.036 842.299, 1160.500 837.086 C 1146.113 833.900, 1105.422 831.966, 1089 833.687 M 1874.500 1620.620 C 1769.868 1635.409, 1697.681 1699.584, 1671.600 1801 C 1663.951 1830.743, 1664.388 1876.712, 1672.627 1909 C 1732.345 2143.039, 2053.420 2150.995, 2125.461 1920.221 C 2144.560 1859.041, 2135.492 1790.755, 2100.488 1732.151 C 2067.383 1676.728, 2003.078 1632.610, 1940.500 1622.387 C 1930.933 1620.824, 1882.273 1619.521, 1874.500 1620.620 M 1881.500 2253.596 C 1831.392 2256.440, 1781.661 2270.116, 1733.296 2294.352 C 1626.798 2347.718, 1552.499 2455.265, 1539.016 2575.568 C 1536.581 2597.298, 1537.905 2642.074, 1542.017 2677 C 1545.614 2707.558, 1546 2712.783, 1546 2730.885 C 1546 2760.381, 1541.213 2798.365, 1535.020 2818 C 1534.587 2819.375, 1533.666 2822.525, 1532.974 2825 C 1530.804 2832.763, 1525.997 2846.800, 1522.943 2854.296 C 1521.328 2858.258, 1520.005 2861.856, 1520.003 2862.291 C 1520.002 2862.727, 1516.400 2870.554, 1512 2879.685 C 1507.600 2888.815, 1504 2896.523, 1504 2896.812 C 1504 2897.539, 1493.614 2914.453, 1487.266 2924.063 C 1439.890 2995.791, 1342.483 3065.581, 1269 3080.444 C 1242.277 3085.850, 1233.075 3086.408, 1168 3086.568 C 1105.916 3086.721, 1099.310 3087.025, 1074.211 3090.879 C 1056.076 3093.664, 1021.891 3102.327, 1015.388 3105.786 C 1014.350 3106.339, 1009 3108.469, 1003.500 3110.521 C 966.929 3124.164, 917.264 3159.076, 894.135 3187.400 C 874.279 3211.715, 865.085 3225.115, 855.303 3244 C 843.910 3265.991, 833.165 3293.800, 829.607 3310.500 C 828.787 3314.350, 827.230 3321.775, 826.148 3327 C 792.904 3487.541, 906.980 3647.410, 1071.987 3671.525 C 1188.591 3688.567, 1303.303 3628.407, 1367.729 3516.427 C 1377.672 3499.145, 1382.594 3488.001, 1390.547 3464.767 C 1402.636 3429.450, 1405.612 3404.501, 1404.532 3347.500 C 1403.286 3281.688, 1410.250 3243.560, 1433.501 3188.910 C 1470.945 3100.897, 1531.576 3043.521, 1616 3016.207 C 1658.484 3002.461, 1731.512 2989.335, 1800.500 2983.045 C 1865.995 2977.073, 1952.394 2978.069, 2019.500 2985.569 C 2027.200 2986.430, 2037.325 2987.518, 2042 2987.986 C 2046.675 2988.455, 2053.425 2989.313, 2057 2989.892 C 2060.575 2990.471, 2067.100 2991.370, 2071.500 2991.888 C 2143.033 3000.321, 2222.031 3025.242, 2256.769 3050.334 C 2320.564 3096.415, 2373.390 3180.924, 2386.892 3258.500 C 2391.967 3287.656, 2392.314 3292.797, 2392.523 3342 C 2392.789 3404.386, 2394.348 3420.734, 2402.970 3451.514 C 2435.688 3568.314, 2544.913 3662.243, 2660.500 3672.977 C 2789.836 3684.988, 2908.859 3609.667, 2957.844 3484.809 C 3031.160 3297.933, 2886.565 3087.470, 2685 3087.674 C 2669.875 3087.689, 2653.450 3088.215, 2648.500 3088.843 C 2637.320 3090.260, 2596.610 3090.346, 2584.500 3088.978 C 2545.118 3084.528, 2525.408 3080.732, 2502.500 3073.185 C 2343.526 3020.806, 2236.341 2855.151, 2255.860 2692 C 2256.419 2687.325, 2257.390 2678.775, 2258.016 2673 C 2258.643 2667.225, 2259.609 2658.900, 2260.163 2654.500 C 2280.808 2490.503, 2168.645 2320.324, 2005.828 2268.611 C 1984.693 2261.898, 1977.587 2260.281, 1947.544 2255.351 C 1938.873 2253.928, 1895.810 2252.783, 1881.500 2253.596 M 1100 2408.001 C 1052.082 2410.824, 994.154 2435.131, 959.472 2466.966 C 956.156 2470.010, 951.431 2474.306, 948.972 2476.513 C 935.913 2488.231, 921.647 2506.441, 910.309 2525.863 C 898.946 2545.330, 894.640 2556.592, 885.023 2592 C 884.137 2595.261, 883.640 2598.837, 881.004 2620.909 C 875.194 2669.563, 895.247 2738.295, 927.748 2781.126 C 1040.204 2929.325, 1261.937 2898.724, 1330.808 2725.500 C 1393.010 2569.052, 1268.707 2398.061, 1100 2408.001 M 2660.500 2409.068 C 2657.750 2409.532, 2652.125 2410.413, 2648 2411.026 C 2567.639 2422.957, 2498.260 2479.674, 2466.988 2559 C 2464.677 2564.861, 2461.564 2576.530, 2458.185 2592 C 2432.906 2707.706, 2503.263 2829.081, 2616.434 2865.003 C 2811.406 2926.890, 2987.092 2724.412, 2898 2540.500 C 2854.502 2450.709, 2751.494 2393.704, 2660.500 2409.068" stroke="none" fill="#0fa4ca" fill-rule="evenodd"/></svg>